<svg width="178" height="66" viewBox="0 0 178 66" fill="none" xmlns="http://www.w3.org/2000/svg">
<path fill-rule="evenodd" clip-rule="evenodd" d="M130.714 0L177.857 66H0V0H130.714Z" fill="#00E0FF"/>
<path d="M46.6139 21.02C46.6139 19.66 46.9206 18.44 47.5339 17.36C48.1472 16.2667 48.9806 15.4133 50.0339 14.8C51.1006 14.1867 52.2806 13.88 53.5739 13.88C55.0939 13.88 56.4206 14.2467 57.5539 14.98C58.6872 15.7133 59.5139 16.7533 60.0339 18.1H57.8539C57.4672 17.26 56.9072 16.6133 56.1739 16.16C55.4539 15.7067 54.5872 15.48 53.5739 15.48C52.6006 15.48 51.7272 15.7067 50.9539 16.16C50.1806 16.6133 49.5739 17.26 49.1339 18.1C48.6939 18.9267 48.4739 19.9 48.4739 21.02C48.4739 22.1267 48.6939 23.1 49.1339 23.94C49.5739 24.7667 50.1806 25.4067 50.9539 25.86C51.7272 26.3133 52.6006 26.54 53.5739 26.54C54.5872 26.54 55.4539 26.32 56.1739 25.88C56.9072 25.4267 57.4672 24.78 57.8539 23.94H60.0339C59.5139 25.2733 58.6872 26.3067 57.5539 27.04C56.4206 27.76 55.0939 28.12 53.5739 28.12C52.2806 28.12 51.1006 27.82 50.0339 27.22C48.9806 26.6067 48.1472 25.76 47.5339 24.68C46.9206 23.6 46.6139 22.38 46.6139 21.02ZM62.0631 22.48C62.0631 21.36 62.2898 20.38 62.7431 19.54C63.1965 18.6867 63.8165 18.0267 64.6031 17.56C65.4031 17.0933 66.2898 16.86 67.2631 16.86C68.2231 16.86 69.0565 17.0667 69.7631 17.48C70.4698 17.8933 70.9965 18.4133 71.3431 19.04V17.04H73.1831V28H71.3431V25.96C70.9831 26.6 70.4431 27.1333 69.7231 27.56C69.0165 27.9733 68.1898 28.18 67.2431 28.18C66.2698 28.18 65.3898 27.94 64.6031 27.46C63.8165 26.98 63.1965 26.3067 62.7431 25.44C62.2898 24.5733 62.0631 23.5867 62.0631 22.48ZM71.3431 22.5C71.3431 21.6733 71.1765 20.9533 70.8431 20.34C70.5098 19.7267 70.0565 19.26 69.4831 18.94C68.9231 18.6067 68.3031 18.44 67.6231 18.44C66.9431 18.44 66.3231 18.6 65.7631 18.92C65.2031 19.24 64.7565 19.7067 64.4231 20.32C64.0898 20.9333 63.9231 21.6533 63.9231 22.48C63.9231 23.32 64.0898 24.0533 64.4231 24.68C64.7565 25.2933 65.2031 25.7667 65.7631 26.1C66.3231 26.42 66.9431 26.58 67.6231 26.58C68.3031 26.58 68.9231 26.42 69.4831 26.1C70.0565 25.7667 70.5098 25.2933 70.8431 24.68C71.1765 24.0533 71.3431 23.3267 71.3431 22.5ZM78.0788 13.2V28H76.2588V13.2H78.0788ZM94.3606 16.84C95.214 16.84 95.974 17.02 96.6406 17.38C97.3073 17.7267 97.834 18.2533 98.2206 18.96C98.6073 19.6667 98.8006 20.5267 98.8006 21.54V28H97.0006V21.8C97.0006 20.7067 96.7273 19.8733 96.1806 19.3C95.6473 18.7133 94.9206 18.42 94.0006 18.42C93.054 18.42 92.3006 18.7267 91.7406 19.34C91.1806 19.94 90.9006 20.8133 90.9006 21.96V28H89.1006V21.8C89.1006 20.7067 88.8273 19.8733 88.2806 19.3C87.7473 18.7133 87.0206 18.42 86.1006 18.42C85.154 18.42 84.4006 18.7267 83.8406 19.34C83.2806 19.94 83.0006 20.8133 83.0006 21.96V28H81.1806V17.04H83.0006V18.62C83.3606 18.0467 83.8406 17.6067 84.4406 17.3C85.054 16.9933 85.7273 16.84 86.4606 16.84C87.3806 16.84 88.194 17.0467 88.9006 17.46C89.6073 17.8733 90.134 18.48 90.4806 19.28C90.7873 18.5067 91.294 17.9067 92.0006 17.48C92.7073 17.0533 93.494 16.84 94.3606 16.84ZM36.8148 38.16V52H34.9948V41.68L30.3948 52H29.1148L24.4948 41.66V52H22.6748V38.16H24.6348L29.7548 49.6L34.8748 38.16H36.8148ZM49.9013 46.1C49.9013 46.4467 49.8813 46.8133 49.8413 47.2H41.0813C41.148 48.28 41.5147 49.1267 42.1813 49.74C42.8613 50.34 43.6813 50.64 44.6413 50.64C45.428 50.64 46.0813 50.46 46.6013 50.1C47.1347 49.7267 47.508 49.2333 47.7213 48.62H49.6813C49.388 49.6733 48.8013 50.5333 47.9213 51.2C47.0413 51.8533 45.948 52.18 44.6413 52.18C43.6013 52.18 42.668 51.9467 41.8413 51.48C41.028 51.0133 40.388 50.3533 39.9213 49.5C39.4547 48.6333 39.2213 47.6333 39.2213 46.5C39.2213 45.3667 39.448 44.3733 39.9013 43.52C40.3547 42.6667 40.988 42.0133 41.8013 41.56C42.628 41.0933 43.5747 40.86 44.6413 40.86C45.6813 40.86 46.6013 41.0867 47.4013 41.54C48.2013 41.9933 48.8147 42.62 49.2413 43.42C49.6813 44.2067 49.9013 45.1 49.9013 46.1ZM48.0213 45.72C48.0213 45.0267 47.868 44.4333 47.5613 43.94C47.2547 43.4333 46.8347 43.0533 46.3013 42.8C45.7813 42.5333 45.2013 42.4 44.5613 42.4C43.6413 42.4 42.8547 42.6933 42.2013 43.28C41.5613 43.8667 41.1947 44.68 41.1013 45.72H48.0213ZM51.6237 46.48C51.6237 45.36 51.8503 44.38 52.3037 43.54C52.757 42.6867 53.377 42.0267 54.1637 41.56C54.9637 41.0933 55.8503 40.86 56.8237 40.86C57.7837 40.86 58.617 41.0667 59.3237 41.48C60.0303 41.8933 60.557 42.4133 60.9037 43.04V41.04H62.7437V52H60.9037V49.96C60.5437 50.6 60.0037 51.1333 59.2837 51.56C58.577 51.9733 57.7503 52.18 56.8037 52.18C55.8303 52.18 54.9503 51.94 54.1637 51.46C53.377 50.98 52.757 50.3067 52.3037 49.44C51.8503 48.5733 51.6237 47.5867 51.6237 46.48ZM60.9037 46.5C60.9037 45.6733 60.737 44.9533 60.4037 44.34C60.0703 43.7267 59.617 43.26 59.0437 42.94C58.4837 42.6067 57.8637 42.44 57.1837 42.44C56.5037 42.44 55.8837 42.6 55.3237 42.92C54.7637 43.24 54.317 43.7067 53.9837 44.32C53.6503 44.9333 53.4837 45.6533 53.4837 46.48C53.4837 47.32 53.6503 48.0533 53.9837 48.68C54.317 49.2933 54.7637 49.7667 55.3237 50.1C55.8837 50.42 56.5037 50.58 57.1837 50.58C57.8637 50.58 58.4837 50.42 59.0437 50.1C59.617 49.7667 60.0703 49.2933 60.4037 48.68C60.737 48.0533 60.9037 47.3267 60.9037 46.5ZM67.6393 37.2V52H65.8193V37.2H67.6393ZM72.9612 42.54V49C72.9612 49.5333 73.0745 49.9133 73.3012 50.14C73.5278 50.3533 73.9212 50.46 74.4812 50.46H75.8212V52H74.1812C73.1678 52 72.4078 51.7667 71.9012 51.3C71.3945 50.8333 71.1412 50.0667 71.1412 49V42.54H69.7212V41.04H71.1412V38.28H72.9612V41.04H75.8212V42.54H72.9612ZM78.9663 39.26C78.6197 39.26 78.3263 39.14 78.0863 38.9C77.8463 38.66 77.7263 38.3667 77.7263 38.02C77.7263 37.6733 77.8463 37.38 78.0863 37.14C78.3263 36.9 78.6197 36.78 78.9663 36.78C79.2997 36.78 79.5797 36.9 79.8063 37.14C80.0463 37.38 80.1663 37.6733 80.1663 38.02C80.1663 38.3667 80.0463 38.66 79.8063 38.9C79.5797 39.14 79.2997 39.26 78.9663 39.26ZM79.8463 41.04V52H78.0263V41.04H79.8463ZM96.1282 40.84C96.9815 40.84 97.7415 41.02 98.4082 41.38C99.0749 41.7267 99.6015 42.2533 99.9882 42.96C100.375 43.6667 100.568 44.5267 100.568 45.54V52H98.7682V45.8C98.7682 44.7067 98.4949 43.8733 97.9482 43.3C97.4149 42.7133 96.6882 42.42 95.7682 42.42C94.8215 42.42 94.0682 42.7267 93.5082 43.34C92.9482 43.94 92.6682 44.8133 92.6682 45.96V52H90.8682V45.8C90.8682 44.7067 90.5949 43.8733 90.0482 43.3C89.5149 42.7133 88.7882 42.42 87.8682 42.42C86.9215 42.42 86.1682 42.7267 85.6082 43.34C85.0482 43.94 84.7682 44.8133 84.7682 45.96V52H82.9482V41.04H84.7682V42.62C85.1282 42.0467 85.6082 41.6067 86.2082 41.3C86.8215 40.9933 87.4949 40.84 88.2282 40.84C89.1482 40.84 89.9615 41.0467 90.6682 41.46C91.3749 41.8733 91.9015 42.48 92.2482 43.28C92.5549 42.5067 93.0615 41.9067 93.7682 41.48C94.4749 41.0533 95.2615 40.84 96.1282 40.84ZM113.554 46.1C113.554 46.4467 113.534 46.8133 113.494 47.2H104.734C104.8 48.28 105.167 49.1267 105.834 49.74C106.514 50.34 107.334 50.64 108.294 50.64C109.08 50.64 109.734 50.46 110.254 50.1C110.787 49.7267 111.16 49.2333 111.374 48.62H113.334C113.04 49.6733 112.454 50.5333 111.574 51.2C110.694 51.8533 109.6 52.18 108.294 52.18C107.254 52.18 106.32 51.9467 105.494 51.48C104.68 51.0133 104.04 50.3533 103.574 49.5C103.107 48.6333 102.874 47.6333 102.874 46.5C102.874 45.3667 103.1 44.3733 103.554 43.52C104.007 42.6667 104.64 42.0133 105.454 41.56C106.28 41.0933 107.227 40.86 108.294 40.86C109.334 40.86 110.254 41.0867 111.054 41.54C111.854 41.9933 112.467 42.62 112.894 43.42C113.334 44.2067 113.554 45.1 113.554 46.1ZM111.674 45.72C111.674 45.0267 111.52 44.4333 111.214 43.94C110.907 43.4333 110.487 43.0533 109.954 42.8C109.434 42.5333 108.854 42.4 108.214 42.4C107.294 42.4 106.507 42.6933 105.854 43.28C105.214 43.8667 104.847 44.68 104.754 45.72H111.674ZM119.836 52.18C118.996 52.18 118.243 52.04 117.576 51.76C116.909 51.4667 116.383 51.0667 115.996 50.56C115.609 50.04 115.396 49.4467 115.356 48.78H117.236C117.289 49.3267 117.543 49.7733 117.996 50.12C118.463 50.4667 119.069 50.64 119.816 50.64C120.509 50.64 121.056 50.4867 121.456 50.18C121.856 49.8733 122.056 49.4867 122.056 49.02C122.056 48.54 121.843 48.1867 121.416 47.96C120.989 47.72 120.329 47.4867 119.436 47.26C118.623 47.0467 117.956 46.8333 117.436 46.62C116.929 46.3933 116.489 46.0667 116.116 45.64C115.756 45.2 115.576 44.6267 115.576 43.92C115.576 43.36 115.743 42.8467 116.076 42.38C116.409 41.9133 116.883 41.5467 117.496 41.28C118.109 41 118.809 40.86 119.596 40.86C120.809 40.86 121.789 41.1667 122.536 41.78C123.283 42.3933 123.683 43.2333 123.736 44.3H121.916C121.876 43.7267 121.643 43.2667 121.216 42.92C120.803 42.5733 120.243 42.4 119.536 42.4C118.883 42.4 118.363 42.54 117.976 42.82C117.589 43.1 117.396 43.4667 117.396 43.92C117.396 44.28 117.509 44.58 117.736 44.82C117.976 45.0467 118.269 45.2333 118.616 45.38C118.976 45.5133 119.469 45.6667 120.096 45.84C120.883 46.0533 121.523 46.2667 122.016 46.48C122.509 46.68 122.929 46.9867 123.276 47.4C123.636 47.8133 123.823 48.3533 123.836 49.02C123.836 49.62 123.669 50.16 123.336 50.64C123.003 51.12 122.529 51.5 121.916 51.78C121.316 52.0467 120.623 52.18 119.836 52.18Z" fill="#131313"/>
</svg>
