<svg width="300" height="66" viewBox="0 0 300 66" fill="none" xmlns="http://www.w3.org/2000/svg">
<path fill-rule="evenodd" clip-rule="evenodd" d="M0 66L47.1429 0H300V66L0 66Z" fill="#00E0FF"/>
<path d="M89.1437 26.06C90.6637 26.06 91.977 26.3467 93.0837 26.92C94.2037 27.48 95.057 28.2867 95.6437 29.34C96.2437 30.3933 96.5437 31.6333 96.5437 33.06C96.5437 34.4867 96.2437 35.7267 95.6437 36.78C95.057 37.82 94.2037 38.62 93.0837 39.18C91.977 39.7267 90.6637 40 89.1437 40H84.8037V26.06H89.1437ZM89.1437 38.5C90.9437 38.5 92.317 38.0267 93.2637 37.08C94.2103 36.12 94.6837 34.78 94.6837 33.06C94.6837 31.3267 94.2037 29.9733 93.2437 29C92.297 28.0267 90.9303 27.54 89.1437 27.54H86.6237V38.5H89.1437ZM108.944 34.1C108.944 34.4467 108.924 34.8133 108.884 35.2H100.124C100.191 36.28 100.558 37.1267 101.224 37.74C101.904 38.34 102.724 38.64 103.684 38.64C104.471 38.64 105.124 38.46 105.644 38.1C106.178 37.7267 106.551 37.2333 106.764 36.62H108.724C108.431 37.6733 107.844 38.5333 106.964 39.2C106.084 39.8533 104.991 40.18 103.684 40.18C102.644 40.18 101.711 39.9467 100.884 39.48C100.071 39.0133 99.431 38.3533 98.9643 37.5C98.4976 36.6333 98.2643 35.6333 98.2643 34.5C98.2643 33.3667 98.491 32.3733 98.9443 31.52C99.3976 30.6667 100.031 30.0133 100.844 29.56C101.671 29.0933 102.618 28.86 103.684 28.86C104.724 28.86 105.644 29.0867 106.444 29.54C107.244 29.9933 107.858 30.62 108.284 31.42C108.724 32.2067 108.944 33.1 108.944 34.1ZM107.064 33.72C107.064 33.0267 106.911 32.4333 106.604 31.94C106.298 31.4333 105.878 31.0533 105.344 30.8C104.824 30.5333 104.244 30.4 103.604 30.4C102.684 30.4 101.898 30.6933 101.244 31.28C100.604 31.8667 100.238 32.68 100.144 33.72H107.064ZM115.427 38.32L118.827 29.04H120.767L116.467 40H114.347L110.047 29.04H112.007L115.427 38.32ZM132.558 34.1C132.558 34.4467 132.538 34.8133 132.498 35.2H123.738C123.804 36.28 124.171 37.1267 124.838 37.74C125.518 38.34 126.338 38.64 127.298 38.64C128.084 38.64 128.738 38.46 129.258 38.1C129.791 37.7267 130.164 37.2333 130.378 36.62H132.338C132.044 37.6733 131.458 38.5333 130.578 39.2C129.698 39.8533 128.604 40.18 127.298 40.18C126.258 40.18 125.324 39.9467 124.498 39.48C123.684 39.0133 123.044 38.3533 122.578 37.5C122.111 36.6333 121.878 35.6333 121.878 34.5C121.878 33.3667 122.104 32.3733 122.558 31.52C123.011 30.6667 123.644 30.0133 124.458 29.56C125.284 29.0933 126.231 28.86 127.298 28.86C128.338 28.86 129.258 29.0867 130.058 29.54C130.858 29.9933 131.471 30.62 131.898 31.42C132.338 32.2067 132.558 33.1 132.558 34.1ZM130.678 33.72C130.678 33.0267 130.524 32.4333 130.218 31.94C129.911 31.4333 129.491 31.0533 128.958 30.8C128.438 30.5333 127.858 30.4 127.218 30.4C126.298 30.4 125.511 30.6933 124.858 31.28C124.218 31.8667 123.851 32.68 123.758 33.72H130.678ZM136.78 25.2V40H134.96V25.2H136.78ZM144.662 40.18C143.635 40.18 142.702 39.9467 141.862 39.48C141.035 39.0133 140.382 38.3533 139.902 37.5C139.435 36.6333 139.202 35.6333 139.202 34.5C139.202 33.38 139.442 32.3933 139.922 31.54C140.415 30.6733 141.082 30.0133 141.922 29.56C142.762 29.0933 143.702 28.86 144.742 28.86C145.782 28.86 146.722 29.0933 147.562 29.56C148.402 30.0133 149.062 30.6667 149.542 31.52C150.035 32.3733 150.282 33.3667 150.282 34.5C150.282 35.6333 150.028 36.6333 149.522 37.5C149.028 38.3533 148.355 39.0133 147.502 39.48C146.648 39.9467 145.702 40.18 144.662 40.18ZM144.662 38.58C145.315 38.58 145.928 38.4267 146.502 38.12C147.075 37.8133 147.535 37.3533 147.882 36.74C148.242 36.1267 148.422 35.38 148.422 34.5C148.422 33.62 148.248 32.8733 147.902 32.26C147.555 31.6467 147.102 31.1933 146.542 30.9C145.982 30.5933 145.375 30.44 144.722 30.44C144.055 30.44 143.442 30.5933 142.882 30.9C142.335 31.1933 141.895 31.6467 141.562 32.26C141.228 32.8733 141.062 33.62 141.062 34.5C141.062 35.3933 141.222 36.1467 141.542 36.76C141.875 37.3733 142.315 37.8333 142.862 38.14C143.408 38.4333 144.008 38.58 144.662 38.58ZM154.495 31.06C154.855 30.4333 155.388 29.9133 156.095 29.5C156.815 29.0733 157.648 28.86 158.595 28.86C159.568 28.86 160.448 29.0933 161.235 29.56C162.035 30.0267 162.661 30.6867 163.115 31.54C163.568 32.38 163.795 33.36 163.795 34.48C163.795 35.5867 163.568 36.5733 163.115 37.44C162.661 38.3067 162.035 38.98 161.235 39.46C160.448 39.94 159.568 40.18 158.595 40.18C157.661 40.18 156.835 39.9733 156.115 39.56C155.408 39.1333 154.868 38.6067 154.495 37.98V45.2H152.675V29.04H154.495V31.06ZM161.935 34.48C161.935 33.6533 161.768 32.9333 161.435 32.32C161.101 31.7067 160.648 31.24 160.075 30.92C159.515 30.6 158.895 30.44 158.215 30.44C157.548 30.44 156.928 30.6067 156.355 30.94C155.795 31.26 155.341 31.7333 154.995 32.36C154.661 32.9733 154.495 33.6867 154.495 34.5C154.495 35.3267 154.661 36.0533 154.995 36.68C155.341 37.2933 155.795 37.7667 156.355 38.1C156.928 38.42 157.548 38.58 158.215 38.58C158.895 38.58 159.515 38.42 160.075 38.1C160.648 37.7667 161.101 37.2933 161.435 36.68C161.768 36.0533 161.935 35.32 161.935 34.48ZM179.37 28.84C180.224 28.84 180.984 29.02 181.65 29.38C182.317 29.7267 182.844 30.2533 183.23 30.96C183.617 31.6667 183.81 32.5267 183.81 33.54V40H182.01V33.8C182.01 32.7067 181.737 31.8733 181.19 31.3C180.657 30.7133 179.93 30.42 179.01 30.42C178.064 30.42 177.31 30.7267 176.75 31.34C176.19 31.94 175.91 32.8133 175.91 33.96V40H174.11V33.8C174.11 32.7067 173.837 31.8733 173.29 31.3C172.757 30.7133 172.03 30.42 171.11 30.42C170.164 30.42 169.41 30.7267 168.85 31.34C168.29 31.94 168.01 32.8133 168.01 33.96V40H166.19V29.04H168.01V30.62C168.37 30.0467 168.85 29.6067 169.45 29.3C170.064 28.9933 170.737 28.84 171.47 28.84C172.39 28.84 173.204 29.0467 173.91 29.46C174.617 29.8733 175.144 30.48 175.49 31.28C175.797 30.5067 176.304 29.9067 177.01 29.48C177.717 29.0533 178.504 28.84 179.37 28.84ZM196.796 34.1C196.796 34.4467 196.776 34.8133 196.736 35.2H187.976C188.043 36.28 188.409 37.1267 189.076 37.74C189.756 38.34 190.576 38.64 191.536 38.64C192.323 38.64 192.976 38.46 193.496 38.1C194.029 37.7267 194.403 37.2333 194.616 36.62H196.576C196.283 37.6733 195.696 38.5333 194.816 39.2C193.936 39.8533 192.843 40.18 191.536 40.18C190.496 40.18 189.563 39.9467 188.736 39.48C187.923 39.0133 187.283 38.3533 186.816 37.5C186.349 36.6333 186.116 35.6333 186.116 34.5C186.116 33.3667 186.343 32.3733 186.796 31.52C187.249 30.6667 187.883 30.0133 188.696 29.56C189.523 29.0933 190.469 28.86 191.536 28.86C192.576 28.86 193.496 29.0867 194.296 29.54C195.096 29.9933 195.709 30.62 196.136 31.42C196.576 32.2067 196.796 33.1 196.796 34.1ZM194.916 33.72C194.916 33.0267 194.763 32.4333 194.456 31.94C194.149 31.4333 193.729 31.0533 193.196 30.8C192.676 30.5333 192.096 30.4 191.456 30.4C190.536 30.4 189.749 30.6933 189.096 31.28C188.456 31.8667 188.089 32.68 187.996 33.72H194.916ZM204.538 28.84C205.872 28.84 206.952 29.2467 207.778 30.06C208.605 30.86 209.018 32.02 209.018 33.54V40H207.218V33.8C207.218 32.7067 206.945 31.8733 206.398 31.3C205.852 30.7133 205.105 30.42 204.158 30.42C203.198 30.42 202.432 30.72 201.858 31.32C201.298 31.92 201.018 32.7933 201.018 33.94V40H199.198V29.04H201.018V30.6C201.378 30.04 201.865 29.6067 202.478 29.3C203.105 28.9933 203.792 28.84 204.538 28.84ZM214.211 30.54V37C214.211 37.5333 214.325 37.9133 214.551 38.14C214.778 38.3533 215.171 38.46 215.731 38.46H217.071V40H215.431C214.418 40 213.658 39.7667 213.151 39.3C212.645 38.8333 212.391 38.0667 212.391 37V30.54H210.971V29.04H212.391V26.28H214.211V29.04H217.071V30.54H214.211Z" fill="#131313"/>
</svg>
