<svg width="178" height="66" viewBox="0 0 178 66" fill="none" xmlns="http://www.w3.org/2000/svg">
<path d="M0.142578 66L47.2854 0H178V66H0.142578Z" fill="#23D2FE"/>
<path d="M81.3738 14.06V28H79.5538V21.68H72.4538V28H70.6338V14.06H72.4538V20.18H79.5538V14.06H81.3738ZM94.2014 17.04V28H92.3814V26.38C92.0347 26.94 91.5481 27.38 90.9214 27.7C90.3081 28.0067 89.6281 28.16 88.8814 28.16C88.0281 28.16 87.2614 27.9867 86.5814 27.64C85.9014 27.28 85.3614 26.7467 84.9614 26.04C84.5747 25.3333 84.3814 24.4733 84.3814 23.46V17.04H86.1814V23.22C86.1814 24.3 86.4547 25.1333 87.0014 25.72C87.5481 26.2933 88.2947 26.58 89.2414 26.58C90.2147 26.58 90.9814 26.28 91.5414 25.68C92.1014 25.08 92.3814 24.2067 92.3814 23.06V17.04H94.2014ZM102.614 16.84C103.948 16.84 105.028 17.2467 105.854 18.06C106.681 18.86 107.094 20.02 107.094 21.54V28H105.294V21.8C105.294 20.7067 105.021 19.8733 104.474 19.3C103.928 18.7133 103.181 18.42 102.234 18.42C101.274 18.42 100.508 18.72 99.9344 19.32C99.3744 19.92 99.0944 20.7933 99.0944 21.94V28H97.2744V17.04H99.0944V18.6C99.4544 18.04 99.941 17.6067 100.554 17.3C101.181 16.9933 101.868 16.84 102.614 16.84ZM114.587 16.86C115.534 16.86 116.361 17.0667 117.067 17.48C117.787 17.8933 118.321 18.4133 118.667 19.04V17.04H120.507V28.24C120.507 29.24 120.294 30.1267 119.867 30.9C119.441 31.6867 118.827 32.3 118.027 32.74C117.241 33.18 116.321 33.4 115.267 33.4C113.827 33.4 112.627 33.06 111.667 32.38C110.707 31.7 110.141 30.7733 109.967 29.6H111.767C111.967 30.2667 112.381 30.8 113.007 31.2C113.634 31.6133 114.387 31.82 115.267 31.82C116.267 31.82 117.081 31.5067 117.707 30.88C118.347 30.2533 118.667 29.3733 118.667 28.24V25.94C118.307 26.58 117.774 27.1133 117.067 27.54C116.361 27.9667 115.534 28.18 114.587 28.18C113.614 28.18 112.727 27.94 111.927 27.46C111.141 26.98 110.521 26.3067 110.067 25.44C109.614 24.5733 109.387 23.5867 109.387 22.48C109.387 21.36 109.614 20.38 110.067 19.54C110.521 18.6867 111.141 18.0267 111.927 17.56C112.727 17.0933 113.614 16.86 114.587 16.86ZM118.667 22.5C118.667 21.6733 118.501 20.9533 118.167 20.34C117.834 19.7267 117.381 19.26 116.807 18.94C116.247 18.6067 115.627 18.44 114.947 18.44C114.267 18.44 113.647 18.6 113.087 18.92C112.527 19.24 112.081 19.7067 111.747 20.32C111.414 20.9333 111.247 21.6533 111.247 22.48C111.247 23.32 111.414 24.0533 111.747 24.68C112.081 25.2933 112.527 25.7667 113.087 26.1C113.647 26.42 114.267 26.58 114.947 26.58C115.627 26.58 116.247 26.42 116.807 26.1C117.381 25.7667 117.834 25.2933 118.167 24.68C118.501 24.0533 118.667 23.3267 118.667 22.5ZM133.583 22.1C133.583 22.4467 133.563 22.8133 133.523 23.2H124.763C124.83 24.28 125.196 25.1267 125.863 25.74C126.543 26.34 127.363 26.64 128.323 26.64C129.11 26.64 129.763 26.46 130.283 26.1C130.816 25.7267 131.19 25.2333 131.403 24.62H133.363C133.07 25.6733 132.483 26.5333 131.603 27.2C130.723 27.8533 129.63 28.18 128.323 28.18C127.283 28.18 126.35 27.9467 125.523 27.48C124.71 27.0133 124.07 26.3533 123.603 25.5C123.136 24.6333 122.903 23.6333 122.903 22.5C122.903 21.3667 123.13 20.3733 123.583 19.52C124.036 18.6667 124.67 18.0133 125.483 17.56C126.31 17.0933 127.256 16.86 128.323 16.86C129.363 16.86 130.283 17.0867 131.083 17.54C131.883 17.9933 132.496 18.62 132.923 19.42C133.363 20.2067 133.583 21.1 133.583 22.1ZM131.703 21.72C131.703 21.0267 131.55 20.4333 131.243 19.94C130.936 19.4333 130.516 19.0533 129.983 18.8C129.463 18.5333 128.883 18.4 128.243 18.4C127.323 18.4 126.536 18.6933 125.883 19.28C125.243 19.8667 124.876 20.68 124.783 21.72H131.703ZM137.805 18.82C138.125 18.1933 138.579 17.7067 139.165 17.36C139.765 17.0133 140.492 16.84 141.345 16.84V18.72H140.865C138.825 18.72 137.805 19.8267 137.805 22.04V28H135.985V17.04H137.805V18.82ZM78.2643 45.02C78.2643 43.66 78.571 42.44 79.1843 41.36C79.7976 40.2667 80.631 39.4133 81.6843 38.8C82.751 38.1867 83.931 37.88 85.2243 37.88C86.7443 37.88 88.071 38.2467 89.2043 38.98C90.3376 39.7133 91.1643 40.7533 91.6843 42.1H89.5043C89.1176 41.26 88.5576 40.6133 87.8243 40.16C87.1043 39.7067 86.2376 39.48 85.2243 39.48C84.251 39.48 83.3776 39.7067 82.6043 40.16C81.831 40.6133 81.2243 41.26 80.7843 42.1C80.3443 42.9267 80.1243 43.9 80.1243 45.02C80.1243 46.1267 80.3443 47.1 80.7843 47.94C81.2243 48.7667 81.831 49.4067 82.6043 49.86C83.3776 50.3133 84.251 50.54 85.2243 50.54C86.2376 50.54 87.1043 50.32 87.8243 49.88C88.5576 49.4267 89.1176 48.78 89.5043 47.94H91.6843C91.1643 49.2733 90.3376 50.3067 89.2043 51.04C88.071 51.76 86.7443 52.12 85.2243 52.12C83.931 52.12 82.751 51.82 81.6843 51.22C80.631 50.6067 79.7976 49.76 79.1843 48.68C78.571 47.6 78.2643 46.38 78.2643 45.02ZM103.834 41.04L97.2335 57.16H95.3535L97.5135 51.88L93.0935 41.04H95.1135L98.5535 49.92L101.954 41.04H103.834ZM104.983 46.5C104.983 45.3667 105.21 44.38 105.663 43.54C106.116 42.6867 106.743 42.0267 107.543 41.56C108.356 41.0933 109.283 40.86 110.323 40.86C111.67 40.86 112.776 41.1867 113.643 41.84C114.523 42.4933 115.103 43.4 115.383 44.56H113.423C113.236 43.8933 112.87 43.3667 112.323 42.98C111.79 42.5933 111.123 42.4 110.323 42.4C109.283 42.4 108.443 42.76 107.803 43.48C107.163 44.1867 106.843 45.1933 106.843 46.5C106.843 47.82 107.163 48.84 107.803 49.56C108.443 50.28 109.283 50.64 110.323 50.64C111.123 50.64 111.79 50.4533 112.323 50.08C112.856 49.7067 113.223 49.1733 113.423 48.48H115.383C115.09 49.6 114.503 50.5 113.623 51.18C112.743 51.8467 111.643 52.18 110.323 52.18C109.283 52.18 108.356 51.9467 107.543 51.48C106.743 51.0133 106.116 50.3533 105.663 49.5C105.21 48.6467 104.983 47.6467 104.983 46.5ZM119.631 37.2V52H117.811V37.2H119.631ZM132.733 46.1C132.733 46.4467 132.713 46.8133 132.673 47.2H123.913C123.98 48.28 124.347 49.1267 125.013 49.74C125.693 50.34 126.513 50.64 127.473 50.64C128.26 50.64 128.913 50.46 129.433 50.1C129.967 49.7267 130.34 49.2333 130.553 48.62H132.513C132.22 49.6733 131.633 50.5333 130.753 51.2C129.873 51.8533 128.78 52.18 127.473 52.18C126.433 52.18 125.5 51.9467 124.673 51.48C123.86 51.0133 123.22 50.3533 122.753 49.5C122.287 48.6333 122.053 47.6333 122.053 46.5C122.053 45.3667 122.28 44.3733 122.733 43.52C123.187 42.6667 123.82 42.0133 124.633 41.56C125.46 41.0933 126.407 40.86 127.473 40.86C128.513 40.86 129.433 41.0867 130.233 41.54C131.033 41.9933 131.647 42.62 132.073 43.42C132.513 44.2067 132.733 45.1 132.733 46.1ZM130.853 45.72C130.853 45.0267 130.7 44.4333 130.393 43.94C130.087 43.4333 129.667 43.0533 129.133 42.8C128.613 42.5333 128.033 42.4 127.393 42.4C126.473 42.4 125.687 42.6933 125.033 43.28C124.393 43.8667 124.027 44.68 123.933 45.72H130.853Z" fill="#131313"/>
</svg>
