<svg width="206" height="66" viewBox="0 0 206 66" fill="none" xmlns="http://www.w3.org/2000/svg">
<path d="M0.286133 66L47.429 0H206V66H0.286133Z" fill="#74EEFF"/>
<path d="M54.545 26.06V27.54H48.485V32.24H53.405V33.72H48.485V40H46.665V26.06H54.545ZM61.5231 40.18C60.4965 40.18 59.5631 39.9467 58.7231 39.48C57.8965 39.0133 57.2431 38.3533 56.7631 37.5C56.2965 36.6333 56.0631 35.6333 56.0631 34.5C56.0631 33.38 56.3031 32.3933 56.7831 31.54C57.2765 30.6733 57.9431 30.0133 58.7831 29.56C59.6231 29.0933 60.5631 28.86 61.6031 28.86C62.6431 28.86 63.5831 29.0933 64.4231 29.56C65.2631 30.0133 65.9231 30.6667 66.4031 31.52C66.8965 32.3733 67.1431 33.3667 67.1431 34.5C67.1431 35.6333 66.8898 36.6333 66.3831 37.5C65.8898 38.3533 65.2165 39.0133 64.3631 39.48C63.5098 39.9467 62.5631 40.18 61.5231 40.18ZM61.5231 38.58C62.1765 38.58 62.7898 38.4267 63.3631 38.12C63.9365 37.8133 64.3965 37.3533 64.7431 36.74C65.1031 36.1267 65.2831 35.38 65.2831 34.5C65.2831 33.62 65.1098 32.8733 64.7631 32.26C64.4165 31.6467 63.9631 31.1933 63.4031 30.9C62.8431 30.5933 62.2365 30.44 61.5831 30.44C60.9165 30.44 60.3031 30.5933 59.7431 30.9C59.1965 31.1933 58.7565 31.6467 58.4231 32.26C58.0898 32.8733 57.9231 33.62 57.9231 34.5C57.9231 35.3933 58.0831 36.1467 58.4031 36.76C58.7365 37.3733 59.1765 37.8333 59.7231 38.14C60.2698 38.4333 60.8698 38.58 61.5231 38.58ZM74.3161 40.18C73.2894 40.18 72.3561 39.9467 71.5161 39.48C70.6894 39.0133 70.0361 38.3533 69.5561 37.5C69.0894 36.6333 68.8561 35.6333 68.8561 34.5C68.8561 33.38 69.0961 32.3933 69.5761 31.54C70.0694 30.6733 70.7361 30.0133 71.5761 29.56C72.4161 29.0933 73.3561 28.86 74.3961 28.86C75.4361 28.86 76.3761 29.0933 77.2161 29.56C78.0561 30.0133 78.7161 30.6667 79.1961 31.52C79.6894 32.3733 79.9361 33.3667 79.9361 34.5C79.9361 35.6333 79.6828 36.6333 79.1761 37.5C78.6828 38.3533 78.0094 39.0133 77.1561 39.48C76.3028 39.9467 75.3561 40.18 74.3161 40.18ZM74.3161 38.58C74.9694 38.58 75.5828 38.4267 76.1561 38.12C76.7294 37.8133 77.1894 37.3533 77.5361 36.74C77.8961 36.1267 78.0761 35.38 78.0761 34.5C78.0761 33.62 77.9028 32.8733 77.5561 32.26C77.2094 31.6467 76.7561 31.1933 76.1961 30.9C75.6361 30.5933 75.0294 30.44 74.3761 30.44C73.7094 30.44 73.0961 30.5933 72.5361 30.9C71.9894 31.1933 71.5494 31.6467 71.2161 32.26C70.8828 32.8733 70.7161 33.62 70.7161 34.5C70.7161 35.3933 70.8761 36.1467 71.1961 36.76C71.5294 37.3733 71.9694 37.8333 72.5161 38.14C73.0628 38.4333 73.6628 38.58 74.3161 38.58ZM81.6491 34.48C81.6491 33.36 81.8757 32.38 82.3291 31.54C82.7824 30.6867 83.4024 30.0267 84.1891 29.56C84.9891 29.0933 85.8824 28.86 86.8691 28.86C87.7224 28.86 88.5157 29.06 89.2491 29.46C89.9824 29.8467 90.5424 30.36 90.9291 31V25.2H92.7691V40H90.9291V37.94C90.5691 38.5933 90.0357 39.1333 89.3291 39.56C88.6224 39.9733 87.7957 40.18 86.8491 40.18C85.8757 40.18 84.9891 39.94 84.1891 39.46C83.4024 38.98 82.7824 38.3067 82.3291 37.44C81.8757 36.5733 81.6491 35.5867 81.6491 34.48ZM90.9291 34.5C90.9291 33.6733 90.7624 32.9533 90.4291 32.34C90.0957 31.7267 89.6424 31.26 89.0691 30.94C88.5091 30.6067 87.8891 30.44 87.2091 30.44C86.5291 30.44 85.9091 30.6 85.3491 30.92C84.7891 31.24 84.3424 31.7067 84.0091 32.32C83.6757 32.9333 83.5091 33.6533 83.5091 34.48C83.5091 35.32 83.6757 36.0533 84.0091 36.68C84.3424 37.2933 84.7891 37.7667 85.3491 38.1C85.9091 38.42 86.5291 38.58 87.2091 38.58C87.8891 38.58 88.5091 38.42 89.0691 38.1C89.6424 37.7667 90.0957 37.2933 90.4291 36.68C90.7624 36.0533 90.9291 35.3267 90.9291 34.5ZM102.997 27.54V32.2H108.077V33.7H102.997V38.5H108.677V40H101.177V26.04H108.677V27.54H102.997ZM117.151 40L114.551 35.92L112.051 40H110.151L113.691 34.56L110.151 29.04H112.211L114.811 33.1L117.291 29.04H119.191L115.671 34.46L119.211 40H117.151ZM122.821 31.06C123.181 30.4333 123.714 29.9133 124.421 29.5C125.141 29.0733 125.974 28.86 126.921 28.86C127.894 28.86 128.774 29.0933 129.561 29.56C130.361 30.0267 130.988 30.6867 131.441 31.54C131.894 32.38 132.121 33.36 132.121 34.48C132.121 35.5867 131.894 36.5733 131.441 37.44C130.988 38.3067 130.361 38.98 129.561 39.46C128.774 39.94 127.894 40.18 126.921 40.18C125.988 40.18 125.161 39.9733 124.441 39.56C123.734 39.1333 123.194 38.6067 122.821 37.98V45.2H121.001V29.04H122.821V31.06ZM130.261 34.48C130.261 33.6533 130.094 32.9333 129.761 32.32C129.428 31.7067 128.974 31.24 128.401 30.92C127.841 30.6 127.221 30.44 126.541 30.44C125.874 30.44 125.254 30.6067 124.681 30.94C124.121 31.26 123.668 31.7333 123.321 32.36C122.988 32.9733 122.821 33.6867 122.821 34.5C122.821 35.3267 122.988 36.0533 123.321 36.68C123.668 37.2933 124.121 37.7667 124.681 38.1C125.254 38.42 125.874 38.58 126.541 38.58C127.221 38.58 127.841 38.42 128.401 38.1C128.974 37.7667 129.428 37.2933 129.761 36.68C130.094 36.0533 130.261 35.32 130.261 34.48ZM139.297 40.18C138.27 40.18 137.337 39.9467 136.497 39.48C135.67 39.0133 135.017 38.3533 134.537 37.5C134.07 36.6333 133.837 35.6333 133.837 34.5C133.837 33.38 134.077 32.3933 134.557 31.54C135.05 30.6733 135.717 30.0133 136.557 29.56C137.397 29.0933 138.337 28.86 139.377 28.86C140.417 28.86 141.357 29.0933 142.197 29.56C143.037 30.0133 143.697 30.6667 144.177 31.52C144.67 32.3733 144.917 33.3667 144.917 34.5C144.917 35.6333 144.663 36.6333 144.157 37.5C143.663 38.3533 142.99 39.0133 142.137 39.48C141.283 39.9467 140.337 40.18 139.297 40.18ZM139.297 38.58C139.95 38.58 140.563 38.4267 141.137 38.12C141.71 37.8133 142.17 37.3533 142.517 36.74C142.877 36.1267 143.057 35.38 143.057 34.5C143.057 33.62 142.883 32.8733 142.537 32.26C142.19 31.6467 141.737 31.1933 141.177 30.9C140.617 30.5933 140.01 30.44 139.357 30.44C138.69 30.44 138.077 30.5933 137.517 30.9C136.97 31.1933 136.53 31.6467 136.197 32.26C135.863 32.8733 135.697 33.62 135.697 34.5C135.697 35.3933 135.857 36.1467 136.177 36.76C136.51 37.3733 136.95 37.8333 137.497 38.14C138.043 38.4333 138.643 38.58 139.297 38.58ZM151.19 40.18C150.35 40.18 149.596 40.04 148.93 39.76C148.263 39.4667 147.736 39.0667 147.35 38.56C146.963 38.04 146.75 37.4467 146.71 36.78H148.59C148.643 37.3267 148.896 37.7733 149.35 38.12C149.816 38.4667 150.423 38.64 151.17 38.64C151.863 38.64 152.41 38.4867 152.81 38.18C153.21 37.8733 153.41 37.4867 153.41 37.02C153.41 36.54 153.196 36.1867 152.77 35.96C152.343 35.72 151.683 35.4867 150.79 35.26C149.976 35.0467 149.31 34.8333 148.79 34.62C148.283 34.3933 147.843 34.0667 147.47 33.64C147.11 33.2 146.93 32.6267 146.93 31.92C146.93 31.36 147.096 30.8467 147.43 30.38C147.763 29.9133 148.236 29.5467 148.85 29.28C149.463 29 150.163 28.86 150.95 28.86C152.163 28.86 153.143 29.1667 153.89 29.78C154.636 30.3933 155.036 31.2333 155.09 32.3H153.27C153.23 31.7267 152.996 31.2667 152.57 30.92C152.156 30.5733 151.596 30.4 150.89 30.4C150.236 30.4 149.716 30.54 149.33 30.82C148.943 31.1 148.75 31.4667 148.75 31.92C148.75 32.28 148.863 32.58 149.09 32.82C149.33 33.0467 149.623 33.2333 149.97 33.38C150.33 33.5133 150.823 33.6667 151.45 33.84C152.236 34.0533 152.876 34.2667 153.37 34.48C153.863 34.68 154.283 34.9867 154.63 35.4C154.99 35.8133 155.176 36.3533 155.19 37.02C155.19 37.62 155.023 38.16 154.69 38.64C154.356 39.12 153.883 39.5 153.27 39.78C152.67 40.0467 151.976 40.18 151.19 40.18ZM167.479 29.04V40H165.659V38.38C165.312 38.94 164.825 39.38 164.199 39.7C163.585 40.0067 162.905 40.16 162.159 40.16C161.305 40.16 160.539 39.9867 159.859 39.64C159.179 39.28 158.639 38.7467 158.239 38.04C157.852 37.3333 157.659 36.4733 157.659 35.46V29.04H159.459V35.22C159.459 36.3 159.732 37.1333 160.279 37.72C160.825 38.2933 161.572 38.58 162.519 38.58C163.492 38.58 164.259 38.28 164.819 37.68C165.379 37.08 165.659 36.2067 165.659 35.06V29.04H167.479ZM172.372 30.82C172.692 30.1933 173.145 29.7067 173.732 29.36C174.332 29.0133 175.058 28.84 175.912 28.84V30.72H175.432C173.392 30.72 172.372 31.8267 172.372 34.04V40H170.552V29.04H172.372V30.82ZM188.013 34.1C188.013 34.4467 187.993 34.8133 187.953 35.2H179.193C179.259 36.28 179.626 37.1267 180.293 37.74C180.973 38.34 181.793 38.64 182.753 38.64C183.539 38.64 184.193 38.46 184.713 38.1C185.246 37.7267 185.619 37.2333 185.833 36.62H187.793C187.499 37.6733 186.913 38.5333 186.033 39.2C185.153 39.8533 184.059 40.18 182.753 40.18C181.713 40.18 180.779 39.9467 179.953 39.48C179.139 39.0133 178.499 38.3533 178.033 37.5C177.566 36.6333 177.333 35.6333 177.333 34.5C177.333 33.3667 177.559 32.3733 178.013 31.52C178.466 30.6667 179.099 30.0133 179.913 29.56C180.739 29.0933 181.686 28.86 182.753 28.86C183.793 28.86 184.713 29.0867 185.513 29.54C186.313 29.9933 186.926 30.62 187.353 31.42C187.793 32.2067 188.013 33.1 188.013 34.1ZM186.133 33.72C186.133 33.0267 185.979 32.4333 185.673 31.94C185.366 31.4333 184.946 31.0533 184.413 30.8C183.893 30.5333 183.313 30.4 182.673 30.4C181.753 30.4 180.966 30.6933 180.313 31.28C179.673 31.8667 179.306 32.68 179.213 33.72H186.133Z" fill="#131313"/>
</svg>
