<svg width="300" height="66" viewBox="0 0 300 66" fill="none" xmlns="http://www.w3.org/2000/svg">
<path d="M252.857 0L300 66L0 66V0H252.857Z" fill="#74EEFF"/>
<path d="M88.2157 26.06V27.54H84.4157V40H82.5957V27.54H78.7757V26.06H88.2157ZM100.456 34.1C100.456 34.4467 100.436 34.8133 100.396 35.2H91.636C91.7027 36.28 92.0693 37.1267 92.736 37.74C93.416 38.34 94.236 38.64 95.196 38.64C95.9827 38.64 96.636 38.46 97.156 38.1C97.6893 37.7267 98.0627 37.2333 98.276 36.62H100.236C99.9427 37.6733 99.356 38.5333 98.476 39.2C97.596 39.8533 96.5027 40.18 95.196 40.18C94.156 40.18 93.2227 39.9467 92.396 39.48C91.5827 39.0133 90.9427 38.3533 90.476 37.5C90.0093 36.6333 89.776 35.6333 89.776 34.5C89.776 33.3667 90.0027 32.3733 90.456 31.52C90.9093 30.6667 91.5427 30.0133 92.356 29.56C93.1827 29.0933 94.1293 28.86 95.196 28.86C96.236 28.86 97.156 29.0867 97.956 29.54C98.756 29.9933 99.3693 30.62 99.796 31.42C100.236 32.2067 100.456 33.1 100.456 34.1ZM98.576 33.72C98.576 33.0267 98.4227 32.4333 98.116 31.94C97.8093 31.4333 97.3893 31.0533 96.856 30.8C96.336 30.5333 95.756 30.4 95.116 30.4C94.196 30.4 93.4093 30.6933 92.756 31.28C92.116 31.8667 91.7493 32.68 91.656 33.72H98.576ZM116.038 28.84C116.892 28.84 117.652 29.02 118.318 29.38C118.985 29.7267 119.512 30.2533 119.898 30.96C120.285 31.6667 120.478 32.5267 120.478 33.54V40H118.678V33.8C118.678 32.7067 118.405 31.8733 117.858 31.3C117.325 30.7133 116.598 30.42 115.678 30.42C114.732 30.42 113.978 30.7267 113.418 31.34C112.858 31.94 112.578 32.8133 112.578 33.96V40H110.778V33.8C110.778 32.7067 110.505 31.8733 109.958 31.3C109.425 30.7133 108.698 30.42 107.778 30.42C106.832 30.42 106.078 30.7267 105.518 31.34C104.958 31.94 104.678 32.8133 104.678 33.96V40H102.858V29.04H104.678V30.62C105.038 30.0467 105.518 29.6067 106.118 29.3C106.732 28.9933 107.405 28.84 108.138 28.84C109.058 28.84 109.872 29.0467 110.578 29.46C111.285 29.8733 111.812 30.48 112.158 31.28C112.465 30.5067 112.972 29.9067 113.678 29.48C114.385 29.0533 115.172 28.84 116.038 28.84ZM125.284 31.06C125.644 30.4333 126.177 29.9133 126.884 29.5C127.604 29.0733 128.437 28.86 129.384 28.86C130.357 28.86 131.237 29.0933 132.024 29.56C132.824 30.0267 133.45 30.6867 133.904 31.54C134.357 32.38 134.584 33.36 134.584 34.48C134.584 35.5867 134.357 36.5733 133.904 37.44C133.45 38.3067 132.824 38.98 132.024 39.46C131.237 39.94 130.357 40.18 129.384 40.18C128.45 40.18 127.624 39.9733 126.904 39.56C126.197 39.1333 125.657 38.6067 125.284 37.98V45.2H123.464V29.04H125.284V31.06ZM132.724 34.48C132.724 33.6533 132.557 32.9333 132.224 32.32C131.89 31.7067 131.437 31.24 130.864 30.92C130.304 30.6 129.684 30.44 129.004 30.44C128.337 30.44 127.717 30.6067 127.144 30.94C126.584 31.26 126.13 31.7333 125.784 32.36C125.45 32.9733 125.284 33.6867 125.284 34.5C125.284 35.3267 125.45 36.0533 125.784 36.68C126.13 37.2933 126.584 37.7667 127.144 38.1C127.717 38.42 128.337 38.58 129.004 38.58C129.684 38.58 130.304 38.42 130.864 38.1C131.437 37.7667 131.89 37.2933 132.224 36.68C132.557 36.0533 132.724 35.32 132.724 34.48ZM146.979 34.1C146.979 34.4467 146.959 34.8133 146.919 35.2H138.159C138.226 36.28 138.593 37.1267 139.259 37.74C139.939 38.34 140.759 38.64 141.719 38.64C142.506 38.64 143.159 38.46 143.679 38.1C144.213 37.7267 144.586 37.2333 144.799 36.62H146.759C146.466 37.6733 145.879 38.5333 144.999 39.2C144.119 39.8533 143.026 40.18 141.719 40.18C140.679 40.18 139.746 39.9467 138.919 39.48C138.106 39.0133 137.466 38.3533 136.999 37.5C136.533 36.6333 136.299 35.6333 136.299 34.5C136.299 33.3667 136.526 32.3733 136.979 31.52C137.433 30.6667 138.066 30.0133 138.879 29.56C139.706 29.0933 140.653 28.86 141.719 28.86C142.759 28.86 143.679 29.0867 144.479 29.54C145.279 29.9933 145.893 30.62 146.319 31.42C146.759 32.2067 146.979 33.1 146.979 34.1ZM145.099 33.72C145.099 33.0267 144.946 32.4333 144.639 31.94C144.333 31.4333 143.913 31.0533 143.379 30.8C142.859 30.5333 142.279 30.4 141.639 30.4C140.719 30.4 139.933 30.6933 139.279 31.28C138.639 31.8667 138.273 32.68 138.179 33.72H145.099ZM151.202 30.82C151.522 30.1933 151.975 29.7067 152.562 29.36C153.162 29.0133 153.888 28.84 154.742 28.84V30.72H154.262C152.222 30.72 151.202 31.8267 151.202 34.04V40H149.382V29.04H151.202V30.82ZM156.163 34.48C156.163 33.36 156.389 32.38 156.843 31.54C157.296 30.6867 157.916 30.0267 158.703 29.56C159.503 29.0933 160.389 28.86 161.363 28.86C162.323 28.86 163.156 29.0667 163.863 29.48C164.569 29.8933 165.096 30.4133 165.443 31.04V29.04H167.283V40H165.443V37.96C165.083 38.6 164.543 39.1333 163.823 39.56C163.116 39.9733 162.289 40.18 161.343 40.18C160.369 40.18 159.489 39.94 158.703 39.46C157.916 38.98 157.296 38.3067 156.843 37.44C156.389 36.5733 156.163 35.5867 156.163 34.48ZM165.443 34.5C165.443 33.6733 165.276 32.9533 164.943 32.34C164.609 31.7267 164.156 31.26 163.583 30.94C163.023 30.6067 162.403 30.44 161.723 30.44C161.043 30.44 160.423 30.6 159.863 30.92C159.303 31.24 158.856 31.7067 158.523 32.32C158.189 32.9333 158.023 33.6533 158.023 34.48C158.023 35.32 158.189 36.0533 158.523 36.68C158.856 37.2933 159.303 37.7667 159.863 38.1C160.423 38.42 161.043 38.58 161.723 38.58C162.403 38.58 163.023 38.42 163.583 38.1C164.156 37.7667 164.609 37.2933 164.943 36.68C165.276 36.0533 165.443 35.3267 165.443 34.5ZM183.538 28.84C184.392 28.84 185.152 29.02 185.818 29.38C186.485 29.7267 187.012 30.2533 187.398 30.96C187.785 31.6667 187.978 32.5267 187.978 33.54V40H186.178V33.8C186.178 32.7067 185.905 31.8733 185.358 31.3C184.825 30.7133 184.098 30.42 183.178 30.42C182.232 30.42 181.478 30.7267 180.918 31.34C180.358 31.94 180.078 32.8133 180.078 33.96V40H178.278V33.8C178.278 32.7067 178.005 31.8733 177.458 31.3C176.925 30.7133 176.198 30.42 175.278 30.42C174.332 30.42 173.578 30.7267 173.018 31.34C172.458 31.94 172.178 32.8133 172.178 33.96V40H170.358V29.04H172.178V30.62C172.538 30.0467 173.018 29.6067 173.618 29.3C174.232 28.9933 174.905 28.84 175.638 28.84C176.558 28.84 177.372 29.0467 178.078 29.46C178.785 29.8733 179.312 30.48 179.658 31.28C179.965 30.5067 180.472 29.9067 181.178 29.48C181.885 29.0533 182.672 28.84 183.538 28.84ZM200.964 34.1C200.964 34.4467 200.944 34.8133 200.904 35.2H192.144C192.21 36.28 192.577 37.1267 193.244 37.74C193.924 38.34 194.744 38.64 195.704 38.64C196.49 38.64 197.144 38.46 197.664 38.1C198.197 37.7267 198.57 37.2333 198.784 36.62H200.744C200.45 37.6733 199.864 38.5333 198.984 39.2C198.104 39.8533 197.01 40.18 195.704 40.18C194.664 40.18 193.73 39.9467 192.904 39.48C192.09 39.0133 191.45 38.3533 190.984 37.5C190.517 36.6333 190.284 35.6333 190.284 34.5C190.284 33.3667 190.51 32.3733 190.964 31.52C191.417 30.6667 192.05 30.0133 192.864 29.56C193.69 29.0933 194.637 28.86 195.704 28.86C196.744 28.86 197.664 29.0867 198.464 29.54C199.264 29.9933 199.877 30.62 200.304 31.42C200.744 32.2067 200.964 33.1 200.964 34.1ZM199.084 33.72C199.084 33.0267 198.93 32.4333 198.624 31.94C198.317 31.4333 197.897 31.0533 197.364 30.8C196.844 30.5333 196.264 30.4 195.624 30.4C194.704 30.4 193.917 30.6933 193.264 31.28C192.624 31.8667 192.257 32.68 192.164 33.72H199.084ZM208.706 28.84C210.04 28.84 211.12 29.2467 211.946 30.06C212.773 30.86 213.186 32.02 213.186 33.54V40H211.386V33.8C211.386 32.7067 211.113 31.8733 210.566 31.3C210.02 30.7133 209.273 30.42 208.326 30.42C207.366 30.42 206.6 30.72 206.026 31.32C205.466 31.92 205.186 32.7933 205.186 33.94V40H203.366V29.04H205.186V30.6C205.546 30.04 206.033 29.6067 206.646 29.3C207.273 28.9933 207.96 28.84 208.706 28.84ZM218.379 30.54V37C218.379 37.5333 218.492 37.9133 218.719 38.14C218.946 38.3533 219.339 38.46 219.899 38.46H221.239V40H219.599C218.586 40 217.826 39.7667 217.319 39.3C216.812 38.8333 216.559 38.0667 216.559 37V30.54H215.139V29.04H216.559V26.28H218.379V29.04H221.239V30.54H218.379Z" fill="#131313"/>
</svg>
