<svg width="206" height="66" viewBox="0 0 206 66" fill="none" xmlns="http://www.w3.org/2000/svg">
<path d="M158.571 0L205.714 66H0V0H158.571Z" fill="#23D2FE"/>
<path d="M68.5548 26.06V27.54H62.4948V32.24H67.4148V33.72H62.4948V40H60.6748V26.06H68.5548ZM72.5729 25.2V40H70.7529V25.2H72.5729ZM85.6748 34.1C85.6748 34.4467 85.6548 34.8133 85.6148 35.2H76.8548C76.9214 36.28 77.2881 37.1267 77.9548 37.74C78.6348 38.34 79.4548 38.64 80.4148 38.64C81.2014 38.64 81.8548 38.46 82.3748 38.1C82.9081 37.7267 83.2814 37.2333 83.4948 36.62H85.4548C85.1614 37.6733 84.5748 38.5333 83.6948 39.2C82.8148 39.8533 81.7214 40.18 80.4148 40.18C79.3748 40.18 78.4414 39.9467 77.6148 39.48C76.8014 39.0133 76.1614 38.3533 75.6948 37.5C75.2281 36.6333 74.9948 35.6333 74.9948 34.5C74.9948 33.3667 75.2214 32.3733 75.6748 31.52C76.1281 30.6667 76.7614 30.0133 77.5748 29.56C78.4014 29.0933 79.3481 28.86 80.4148 28.86C81.4548 28.86 82.3748 29.0867 83.1748 29.54C83.9748 29.9933 84.5881 30.62 85.0148 31.42C85.4548 32.2067 85.6748 33.1 85.6748 34.1ZM83.7948 33.72C83.7948 33.0267 83.6414 32.4333 83.3348 31.94C83.0281 31.4333 82.6081 31.0533 82.0748 30.8C81.5548 30.5333 80.9748 30.4 80.3348 30.4C79.4148 30.4 78.6281 30.6933 77.9748 31.28C77.3348 31.8667 76.9681 32.68 76.8748 33.72H83.7948ZM93.7971 40L91.1971 35.92L88.6971 40H86.7971L90.3371 34.56L86.7971 29.04H88.8571L91.4571 33.1L93.9371 29.04H95.8371L92.3171 34.46L95.8571 40H93.7971ZM98.5874 27.26C98.2408 27.26 97.9474 27.14 97.7074 26.9C97.4674 26.66 97.3474 26.3667 97.3474 26.02C97.3474 25.6733 97.4674 25.38 97.7074 25.14C97.9474 24.9 98.2408 24.78 98.5874 24.78C98.9208 24.78 99.2008 24.9 99.4274 25.14C99.6674 25.38 99.7874 25.6733 99.7874 26.02C99.7874 26.3667 99.6674 26.66 99.4274 26.9C99.2008 27.14 98.9208 27.26 98.5874 27.26ZM99.4674 29.04V40H97.6474V29.04H99.4674ZM104.389 31.08C104.763 30.4267 105.309 29.8933 106.029 29.48C106.749 29.0667 107.569 28.86 108.489 28.86C109.476 28.86 110.363 29.0933 111.149 29.56C111.936 30.0267 112.556 30.6867 113.009 31.54C113.463 32.38 113.689 33.36 113.689 34.48C113.689 35.5867 113.463 36.5733 113.009 37.44C112.556 38.3067 111.929 38.98 111.129 39.46C110.343 39.94 109.463 40.18 108.489 40.18C107.543 40.18 106.709 39.9733 105.989 39.56C105.283 39.1467 104.749 38.62 104.389 37.98V40H102.569V25.2H104.389V31.08ZM111.829 34.48C111.829 33.6533 111.663 32.9333 111.329 32.32C110.996 31.7067 110.543 31.24 109.969 30.92C109.409 30.6 108.789 30.44 108.109 30.44C107.443 30.44 106.823 30.6067 106.249 30.94C105.689 31.26 105.236 31.7333 104.889 32.36C104.556 32.9733 104.389 33.6867 104.389 34.5C104.389 35.3267 104.556 36.0533 104.889 36.68C105.236 37.2933 105.689 37.7667 106.249 38.1C106.823 38.42 107.443 38.58 108.109 38.58C108.789 38.58 109.409 38.42 109.969 38.1C110.543 37.7667 110.996 37.2933 111.329 36.68C111.663 36.0533 111.829 35.32 111.829 34.48ZM117.025 27.26C116.678 27.26 116.385 27.14 116.145 26.9C115.905 26.66 115.785 26.3667 115.785 26.02C115.785 25.6733 115.905 25.38 116.145 25.14C116.385 24.9 116.678 24.78 117.025 24.78C117.358 24.78 117.638 24.9 117.865 25.14C118.105 25.38 118.225 25.6733 118.225 26.02C118.225 26.3667 118.105 26.66 117.865 26.9C117.638 27.14 117.358 27.26 117.025 27.26ZM117.905 29.04V40H116.085V29.04H117.905ZM122.827 25.2V40H121.007V25.2H122.827ZM126.869 27.26C126.522 27.26 126.229 27.14 125.989 26.9C125.749 26.66 125.629 26.3667 125.629 26.02C125.629 25.6733 125.749 25.38 125.989 25.14C126.229 24.9 126.522 24.78 126.869 24.78C127.202 24.78 127.482 24.9 127.709 25.14C127.949 25.38 128.069 25.6733 128.069 26.02C128.069 26.3667 127.949 26.66 127.709 26.9C127.482 27.14 127.202 27.26 126.869 27.26ZM127.749 29.04V40H125.929V29.04H127.749ZM133.071 30.54V37C133.071 37.5333 133.184 37.9133 133.411 38.14C133.637 38.3533 134.031 38.46 134.591 38.46H135.931V40H134.291C133.277 40 132.517 39.7667 132.011 39.3C131.504 38.8333 131.251 38.0667 131.251 37V30.54H129.831V29.04H131.251V26.28H133.071V29.04H135.931V30.54H133.071ZM147.576 29.04L140.976 45.16H139.096L141.256 39.88L136.836 29.04H138.856L142.296 37.92L145.696 29.04H147.576Z" fill="#131313"/>
</svg>
