<svg width="206" height="66" viewBox="0 0 206 66" fill="none" xmlns="http://www.w3.org/2000/svg">
<g opacity="0.5">
<path d="M158.571 0L205.714 66H0V0H158.571Z" fill="#063061"/>
<path d="M66.8695 26.1V27.96H60.9695V32.06H65.5695V33.92H60.9695V40H58.6895V26.1H66.8695ZM71.2624 25.2V40H68.9824V25.2H71.2624ZM84.3559 34.22C84.3559 34.6333 84.3292 35.0067 84.2759 35.34H75.8559C75.9225 36.22 76.2492 36.9267 76.8359 37.46C77.4225 37.9933 78.1425 38.26 78.9959 38.26C80.2225 38.26 81.0892 37.7467 81.5959 36.72H84.0559C83.7225 37.7333 83.1159 38.5667 82.2359 39.22C81.3692 39.86 80.2892 40.18 78.9959 40.18C77.9425 40.18 76.9959 39.9467 76.1559 39.48C75.3292 39 74.6759 38.3333 74.1959 37.48C73.7292 36.6133 73.4959 35.6133 73.4959 34.48C73.4959 33.3467 73.7225 32.3533 74.1759 31.5C74.6425 30.6333 75.2892 29.9667 76.1159 29.5C76.9559 29.0333 77.9159 28.8 78.9959 28.8C80.0359 28.8 80.9625 29.0267 81.7759 29.48C82.5892 29.9333 83.2225 30.5733 83.6759 31.4C84.1292 32.2133 84.3559 33.1533 84.3559 34.22ZM81.9759 33.5C81.9625 32.66 81.6625 31.9867 81.0759 31.48C80.4892 30.9733 79.7625 30.72 78.8959 30.72C78.1092 30.72 77.4359 30.9733 76.8759 31.48C76.3159 31.9733 75.9825 32.6467 75.8759 33.5H81.9759ZM91.3196 34.42L94.8796 40H92.2996L89.9196 36.26L87.6796 40H85.2996L88.8596 34.58L85.2996 28.98H87.8796L90.2596 32.72L92.4996 28.98H94.8796L91.3196 34.42ZM97.7401 27.52C97.3267 27.52 96.9801 27.38 96.7001 27.1C96.4201 26.82 96.2801 26.4733 96.2801 26.06C96.2801 25.6467 96.4201 25.3 96.7001 25.02C96.9801 24.74 97.3267 24.6 97.7401 24.6C98.1401 24.6 98.4801 24.74 98.7601 25.02C99.0401 25.3 99.1801 25.6467 99.1801 26.06C99.1801 26.4733 99.0401 26.82 98.7601 27.1C98.4801 27.38 98.1401 27.52 97.7401 27.52ZM98.8601 28.98V40H96.5801V28.98H98.8601ZM104.134 30.62C104.52 30.0867 105.047 29.6533 105.714 29.32C106.394 28.9733 107.147 28.8 107.974 28.8C108.947 28.8 109.827 29.0333 110.614 29.5C111.4 29.9667 112.02 30.6333 112.474 31.5C112.927 32.3533 113.154 33.3333 113.154 34.44C113.154 35.5467 112.927 36.54 112.474 37.42C112.02 38.2867 111.394 38.9667 110.594 39.46C109.807 39.94 108.934 40.18 107.974 40.18C107.12 40.18 106.36 40.0133 105.694 39.68C105.04 39.3467 104.52 38.92 104.134 38.4V40H101.854V25.2H104.134V30.62ZM110.834 34.44C110.834 33.68 110.674 33.0267 110.354 32.48C110.047 31.92 109.634 31.5 109.114 31.22C108.607 30.9267 108.06 30.78 107.474 30.78C106.9 30.78 106.354 30.9267 105.834 31.22C105.327 31.5133 104.914 31.94 104.594 32.5C104.287 33.06 104.134 33.72 104.134 34.48C104.134 35.24 104.287 35.9067 104.594 36.48C104.914 37.04 105.327 37.4667 105.834 37.76C106.354 38.0533 106.9 38.2 107.474 38.2C108.06 38.2 108.607 38.0533 109.114 37.76C109.634 37.4533 110.047 37.0133 110.354 36.44C110.674 35.8667 110.834 35.2 110.834 34.44ZM116.568 27.52C116.155 27.52 115.808 27.38 115.528 27.1C115.248 26.82 115.108 26.4733 115.108 26.06C115.108 25.6467 115.248 25.3 115.528 25.02C115.808 24.74 116.155 24.6 116.568 24.6C116.968 24.6 117.308 24.74 117.588 25.02C117.868 25.3 118.008 25.6467 118.008 26.06C118.008 26.4733 117.868 26.82 117.588 27.1C117.308 27.38 116.968 27.52 116.568 27.52ZM117.688 28.98V40H115.408V28.98H117.688ZM122.962 25.2V40H120.682V25.2H122.962ZM127.115 27.52C126.702 27.52 126.355 27.38 126.075 27.1C125.795 26.82 125.655 26.4733 125.655 26.06C125.655 25.6467 125.795 25.3 126.075 25.02C126.355 24.74 126.702 24.6 127.115 24.6C127.515 24.6 127.855 24.74 128.135 25.02C128.415 25.3 128.555 25.6467 128.555 26.06C128.555 26.4733 128.415 26.82 128.135 27.1C127.855 27.38 127.515 27.52 127.115 27.52ZM128.235 28.98V40H125.955V28.98H128.235ZM133.889 30.84V36.94C133.889 37.3533 133.982 37.6533 134.169 37.84C134.369 38.0133 134.702 38.1 135.169 38.1H136.569V40H134.769C133.742 40 132.955 39.76 132.409 39.28C131.862 38.8 131.589 38.02 131.589 36.94V30.84H130.289V28.98H131.589V26.24H133.889V28.98H136.569V30.84H133.889ZM148.59 28.98L141.83 45.18H139.47L141.71 39.82L137.37 28.98H139.91L143.01 37.38L146.23 28.98H148.59Z" fill="white"/>
</g>
</svg>
