<svg width="300" height="66" viewBox="0 0 300 66" fill="none" xmlns="http://www.w3.org/2000/svg">
<path d="M300 66V0H0V66H300Z" fill="#23D2FE"/>
<path d="M74.1077 26.16V40H72.2877V29.68L67.6877 40H66.4077L61.7877 29.66V40H59.9677V26.16H61.9277L67.0477 37.6L72.1677 26.16H74.1077ZM87.1943 34.1C87.1943 34.4467 87.1743 34.8133 87.1343 35.2H78.3743C78.441 36.28 78.8076 37.1267 79.4743 37.74C80.1543 38.34 80.9743 38.64 81.9343 38.64C82.721 38.64 83.3743 38.46 83.8943 38.1C84.4276 37.7267 84.801 37.2333 85.0143 36.62H86.9743C86.681 37.6733 86.0943 38.5333 85.2143 39.2C84.3343 39.8533 83.241 40.18 81.9343 40.18C80.8943 40.18 79.961 39.9467 79.1343 39.48C78.321 39.0133 77.681 38.3533 77.2143 37.5C76.7476 36.6333 76.5143 35.6333 76.5143 34.5C76.5143 33.3667 76.741 32.3733 77.1943 31.52C77.6476 30.6667 78.281 30.0133 79.0943 29.56C79.921 29.0933 80.8676 28.86 81.9343 28.86C82.9743 28.86 83.8943 29.0867 84.6943 29.54C85.4943 29.9933 86.1076 30.62 86.5343 31.42C86.9743 32.2067 87.1943 33.1 87.1943 34.1ZM85.3143 33.72C85.3143 33.0267 85.161 32.4333 84.8543 31.94C84.5476 31.4333 84.1276 31.0533 83.5943 30.8C83.0743 30.5333 82.4943 30.4 81.8543 30.4C80.9343 30.4 80.1476 30.6933 79.4943 31.28C78.8543 31.8667 78.4876 32.68 78.3943 33.72H85.3143ZM88.9166 34.48C88.9166 33.36 89.1433 32.38 89.5966 31.54C90.05 30.6867 90.67 30.0267 91.4566 29.56C92.2566 29.0933 93.15 28.86 94.1366 28.86C94.99 28.86 95.7833 29.06 96.5166 29.46C97.25 29.8467 97.81 30.36 98.1966 31V25.2H100.037V40H98.1966V37.94C97.8366 38.5933 97.3033 39.1333 96.5966 39.56C95.89 39.9733 95.0633 40.18 94.1166 40.18C93.1433 40.18 92.2566 39.94 91.4566 39.46C90.67 38.98 90.05 38.3067 89.5966 37.44C89.1433 36.5733 88.9166 35.5867 88.9166 34.48ZM98.1966 34.5C98.1966 33.6733 98.03 32.9533 97.6966 32.34C97.3633 31.7267 96.91 31.26 96.3366 30.94C95.7766 30.6067 95.1566 30.44 94.4766 30.44C93.7966 30.44 93.1766 30.6 92.6166 30.92C92.0566 31.24 91.61 31.7067 91.2766 32.32C90.9433 32.9333 90.7766 33.6533 90.7766 34.48C90.7766 35.32 90.9433 36.0533 91.2766 36.68C91.61 37.2933 92.0566 37.7667 92.6166 38.1C93.1766 38.42 93.7966 38.58 94.4766 38.58C95.1566 38.58 95.7766 38.42 96.3366 38.1C96.91 37.7667 97.3633 37.2933 97.6966 36.68C98.03 36.0533 98.1966 35.3267 98.1966 34.5ZM104.052 27.26C103.706 27.26 103.412 27.14 103.172 26.9C102.932 26.66 102.812 26.3667 102.812 26.02C102.812 25.6733 102.932 25.38 103.172 25.14C103.412 24.9 103.706 24.78 104.052 24.78C104.386 24.78 104.666 24.9 104.892 25.14C105.132 25.38 105.252 25.6733 105.252 26.02C105.252 26.3667 105.132 26.66 104.892 26.9C104.666 27.14 104.386 27.26 104.052 27.26ZM104.932 29.04V40H103.112V29.04H104.932ZM107.354 34.5C107.354 33.3667 107.581 32.38 108.034 31.54C108.487 30.6867 109.114 30.0267 109.914 29.56C110.727 29.0933 111.654 28.86 112.694 28.86C114.041 28.86 115.147 29.1867 116.014 29.84C116.894 30.4933 117.474 31.4 117.754 32.56H115.794C115.607 31.8933 115.241 31.3667 114.694 30.98C114.161 30.5933 113.494 30.4 112.694 30.4C111.654 30.4 110.814 30.76 110.174 31.48C109.534 32.1867 109.214 33.1933 109.214 34.5C109.214 35.82 109.534 36.84 110.174 37.56C110.814 38.28 111.654 38.64 112.694 38.64C113.494 38.64 114.161 38.4533 114.694 38.08C115.227 37.7067 115.594 37.1733 115.794 36.48H117.754C117.461 37.6 116.874 38.5 115.994 39.18C115.114 39.8467 114.014 40.18 112.694 40.18C111.654 40.18 110.727 39.9467 109.914 39.48C109.114 39.0133 108.487 38.3533 108.034 37.5C107.581 36.6467 107.354 35.6467 107.354 34.5ZM119.503 34.48C119.503 33.36 119.729 32.38 120.183 31.54C120.636 30.6867 121.256 30.0267 122.043 29.56C122.843 29.0933 123.729 28.86 124.703 28.86C125.663 28.86 126.496 29.0667 127.203 29.48C127.909 29.8933 128.436 30.4133 128.783 31.04V29.04H130.623V40H128.783V37.96C128.423 38.6 127.883 39.1333 127.163 39.56C126.456 39.9733 125.629 40.18 124.683 40.18C123.709 40.18 122.829 39.94 122.043 39.46C121.256 38.98 120.636 38.3067 120.183 37.44C119.729 36.5733 119.503 35.5867 119.503 34.48ZM128.783 34.5C128.783 33.6733 128.616 32.9533 128.283 32.34C127.949 31.7267 127.496 31.26 126.923 30.94C126.363 30.6067 125.743 30.44 125.063 30.44C124.383 30.44 123.763 30.6 123.203 30.92C122.643 31.24 122.196 31.7067 121.863 32.32C121.529 32.9333 121.363 33.6533 121.363 34.48C121.363 35.32 121.529 36.0533 121.863 36.68C122.196 37.2933 122.643 37.7667 123.203 38.1C123.763 38.42 124.383 38.58 125.063 38.58C125.743 38.58 126.363 38.42 126.923 38.1C127.496 37.7667 127.949 37.2933 128.283 36.68C128.616 36.0533 128.783 35.3267 128.783 34.5ZM135.518 25.2V40H133.698V25.2H135.518ZM150.752 21.16L145.272 43.4H143.472L148.932 21.16H150.752ZM169.756 40H167.936L160.616 28.9V40H158.796V26.04H160.616L167.936 37.12V26.04H169.756V40ZM182.578 29.04V40H180.758V38.38C180.412 38.94 179.925 39.38 179.298 39.7C178.685 40.0067 178.005 40.16 177.258 40.16C176.405 40.16 175.638 39.9867 174.958 39.64C174.278 39.28 173.738 38.7467 173.338 38.04C172.952 37.3333 172.758 36.4733 172.758 35.46V29.04H174.558V35.22C174.558 36.3 174.832 37.1333 175.378 37.72C175.925 38.2933 176.672 38.58 177.618 38.58C178.592 38.58 179.358 38.28 179.918 37.68C180.478 37.08 180.758 36.2067 180.758 35.06V29.04H182.578ZM187.871 30.54V37C187.871 37.5333 187.985 37.9133 188.211 38.14C188.438 38.3533 188.831 38.46 189.391 38.46H190.731V40H189.091C188.078 40 187.318 39.7667 186.811 39.3C186.305 38.8333 186.051 38.0667 186.051 37V30.54H184.631V29.04H186.051V26.28H187.871V29.04H190.731V30.54H187.871ZM194.756 30.82C195.076 30.1933 195.53 29.7067 196.116 29.36C196.716 29.0133 197.443 28.84 198.296 28.84V30.72H197.816C195.776 30.72 194.756 31.8267 194.756 34.04V40H192.936V29.04H194.756V30.82ZM201.337 27.26C200.991 27.26 200.697 27.14 200.457 26.9C200.217 26.66 200.097 26.3667 200.097 26.02C200.097 25.6733 200.217 25.38 200.457 25.14C200.697 24.9 200.991 24.78 201.337 24.78C201.671 24.78 201.951 24.9 202.177 25.14C202.417 25.38 202.537 25.6733 202.537 26.02C202.537 26.3667 202.417 26.66 202.177 26.9C201.951 27.14 201.671 27.26 201.337 27.26ZM202.217 29.04V40H200.397V29.04H202.217ZM207.539 30.54V37C207.539 37.5333 207.653 37.9133 207.879 38.14C208.106 38.3533 208.499 38.46 209.059 38.46H210.399V40H208.759C207.746 40 206.986 39.7667 206.479 39.3C205.973 38.8333 205.719 38.0667 205.719 37V30.54H204.299V29.04H205.719V26.28H207.539V29.04H210.399V30.54H207.539ZM213.544 27.26C213.198 27.26 212.904 27.14 212.664 26.9C212.424 26.66 212.304 26.3667 212.304 26.02C212.304 25.6733 212.424 25.38 212.664 25.14C212.904 24.9 213.198 24.78 213.544 24.78C213.878 24.78 214.158 24.9 214.384 25.14C214.624 25.38 214.744 25.6733 214.744 26.02C214.744 26.3667 214.624 26.66 214.384 26.9C214.158 27.14 213.878 27.26 213.544 27.26ZM214.424 29.04V40H212.604V29.04H214.424ZM222.306 40.18C221.28 40.18 220.346 39.9467 219.506 39.48C218.68 39.0133 218.026 38.3533 217.546 37.5C217.08 36.6333 216.846 35.6333 216.846 34.5C216.846 33.38 217.086 32.3933 217.566 31.54C218.06 30.6733 218.726 30.0133 219.566 29.56C220.406 29.0933 221.346 28.86 222.386 28.86C223.426 28.86 224.366 29.0933 225.206 29.56C226.046 30.0133 226.706 30.6667 227.186 31.52C227.68 32.3733 227.926 33.3667 227.926 34.5C227.926 35.6333 227.673 36.6333 227.166 37.5C226.673 38.3533 226 39.0133 225.146 39.48C224.293 39.9467 223.346 40.18 222.306 40.18ZM222.306 38.58C222.96 38.58 223.573 38.4267 224.146 38.12C224.72 37.8133 225.18 37.3533 225.526 36.74C225.886 36.1267 226.066 35.38 226.066 34.5C226.066 33.62 225.893 32.8733 225.546 32.26C225.2 31.6467 224.746 31.1933 224.186 30.9C223.626 30.5933 223.02 30.44 222.366 30.44C221.7 30.44 221.086 30.5933 220.526 30.9C219.98 31.1933 219.54 31.6467 219.206 32.26C218.873 32.8733 218.706 33.62 218.706 34.5C218.706 35.3933 218.866 36.1467 219.186 36.76C219.52 37.3733 219.96 37.8333 220.506 38.14C221.053 38.4333 221.653 38.58 222.306 38.58ZM235.659 28.84C236.993 28.84 238.073 29.2467 238.899 30.06C239.726 30.86 240.139 32.02 240.139 33.54V40H238.339V33.8C238.339 32.7067 238.066 31.8733 237.519 31.3C236.973 30.7133 236.226 30.42 235.279 30.42C234.319 30.42 233.553 30.72 232.979 31.32C232.419 31.92 232.139 32.7933 232.139 33.94V40H230.319V29.04H232.139V30.6C232.499 30.04 232.986 29.6067 233.599 29.3C234.226 28.9933 234.913 28.84 235.659 28.84Z" fill="#131313"/>
</svg>
