<svg width="312" height="66" viewBox="0 0 312 66" fill="none" xmlns="http://www.w3.org/2000/svg">
<path d="M0.286133 66L47.429 0H264.572L311.715 66H0.286133Z" fill="#FFEE52"/>
<path d="M74.625 40H72.805L65.485 28.9V40H63.665V26.04H65.485L72.805 37.12V26.04H74.625V40ZM87.7275 34.1C87.7275 34.4467 87.7075 34.8133 87.6675 35.2H78.9075C78.9742 36.28 79.3408 37.1267 80.0075 37.74C80.6875 38.34 81.5075 38.64 82.4675 38.64C83.2542 38.64 83.9075 38.46 84.4275 38.1C84.9608 37.7267 85.3342 37.2333 85.5475 36.62H87.5075C87.2142 37.6733 86.6275 38.5333 85.7475 39.2C84.8675 39.8533 83.7742 40.18 82.4675 40.18C81.4275 40.18 80.4942 39.9467 79.6675 39.48C78.8542 39.0133 78.2142 38.3533 77.7475 37.5C77.2808 36.6333 77.0475 35.6333 77.0475 34.5C77.0475 33.3667 77.2742 32.3733 77.7275 31.52C78.1808 30.6667 78.8142 30.0133 79.6275 29.56C80.4542 29.0933 81.4008 28.86 82.4675 28.86C83.5075 28.86 84.4275 29.0867 85.2275 29.54C86.0275 29.9933 86.6408 30.62 87.0675 31.42C87.5075 32.2067 87.7275 33.1 87.7275 34.1ZM85.8475 33.72C85.8475 33.0267 85.6942 32.4333 85.3875 31.94C85.0808 31.4333 84.6608 31.0533 84.1275 30.8C83.6075 30.5333 83.0275 30.4 82.3875 30.4C81.4675 30.4 80.6808 30.6933 80.0275 31.28C79.3875 31.8667 79.0208 32.68 78.9275 33.72H85.8475ZM104.73 29.04L101.31 40H99.4298L96.7898 31.3L94.1498 40H92.2698L88.8298 29.04H90.6898L93.2098 38.24L95.9298 29.04H97.7898L100.45 38.26L102.93 29.04H104.73ZM119.748 26.06V27.54H113.688V32.24H118.608V33.72H113.688V40H111.868V26.06H119.748ZM126.726 40.18C125.7 40.18 124.766 39.9467 123.926 39.48C123.1 39.0133 122.446 38.3533 121.966 37.5C121.5 36.6333 121.266 35.6333 121.266 34.5C121.266 33.38 121.506 32.3933 121.986 31.54C122.48 30.6733 123.146 30.0133 123.986 29.56C124.826 29.0933 125.766 28.86 126.806 28.86C127.846 28.86 128.786 29.0933 129.626 29.56C130.466 30.0133 131.126 30.6667 131.606 31.52C132.1 32.3733 132.346 33.3667 132.346 34.5C132.346 35.6333 132.093 36.6333 131.586 37.5C131.093 38.3533 130.42 39.0133 129.566 39.48C128.713 39.9467 127.766 40.18 126.726 40.18ZM126.726 38.58C127.38 38.58 127.993 38.4267 128.566 38.12C129.14 37.8133 129.6 37.3533 129.946 36.74C130.306 36.1267 130.486 35.38 130.486 34.5C130.486 33.62 130.313 32.8733 129.966 32.26C129.62 31.6467 129.166 31.1933 128.606 30.9C128.046 30.5933 127.44 30.44 126.786 30.44C126.12 30.44 125.506 30.5933 124.946 30.9C124.4 31.1933 123.96 31.6467 123.626 32.26C123.293 32.8733 123.126 33.62 123.126 34.5C123.126 35.3933 123.286 36.1467 123.606 36.76C123.94 37.3733 124.38 37.8333 124.926 38.14C125.473 38.4333 126.073 38.58 126.726 38.58ZM139.519 40.18C138.493 40.18 137.559 39.9467 136.719 39.48C135.893 39.0133 135.239 38.3533 134.759 37.5C134.293 36.6333 134.059 35.6333 134.059 34.5C134.059 33.38 134.299 32.3933 134.779 31.54C135.273 30.6733 135.939 30.0133 136.779 29.56C137.619 29.0933 138.559 28.86 139.599 28.86C140.639 28.86 141.579 29.0933 142.419 29.56C143.259 30.0133 143.919 30.6667 144.399 31.52C144.893 32.3733 145.139 33.3667 145.139 34.5C145.139 35.6333 144.886 36.6333 144.379 37.5C143.886 38.3533 143.213 39.0133 142.359 39.48C141.506 39.9467 140.559 40.18 139.519 40.18ZM139.519 38.58C140.173 38.58 140.786 38.4267 141.359 38.12C141.933 37.8133 142.393 37.3533 142.739 36.74C143.099 36.1267 143.279 35.38 143.279 34.5C143.279 33.62 143.106 32.8733 142.759 32.26C142.413 31.6467 141.959 31.1933 141.399 30.9C140.839 30.5933 140.233 30.44 139.579 30.44C138.913 30.44 138.299 30.5933 137.739 30.9C137.193 31.1933 136.753 31.6467 136.419 32.26C136.086 32.8733 135.919 33.62 135.919 34.5C135.919 35.3933 136.079 36.1467 136.399 36.76C136.733 37.3733 137.173 37.8333 137.719 38.14C138.266 38.4333 138.866 38.58 139.519 38.58ZM146.852 34.48C146.852 33.36 147.079 32.38 147.532 31.54C147.986 30.6867 148.606 30.0267 149.392 29.56C150.192 29.0933 151.086 28.86 152.072 28.86C152.926 28.86 153.719 29.06 154.452 29.46C155.186 29.8467 155.746 30.36 156.132 31V25.2H157.972V40H156.132V37.94C155.772 38.5933 155.239 39.1333 154.532 39.56C153.826 39.9733 152.999 40.18 152.052 40.18C151.079 40.18 150.192 39.94 149.392 39.46C148.606 38.98 147.986 38.3067 147.532 37.44C147.079 36.5733 146.852 35.5867 146.852 34.48ZM156.132 34.5C156.132 33.6733 155.966 32.9533 155.632 32.34C155.299 31.7267 154.846 31.26 154.272 30.94C153.712 30.6067 153.092 30.44 152.412 30.44C151.732 30.44 151.112 30.6 150.552 30.92C149.992 31.24 149.546 31.7067 149.212 32.32C148.879 32.9333 148.712 33.6533 148.712 34.48C148.712 35.32 148.879 36.0533 149.212 36.68C149.546 37.2933 149.992 37.7667 150.552 38.1C151.112 38.42 151.732 38.58 152.412 38.58C153.092 38.58 153.712 38.42 154.272 38.1C154.846 37.7667 155.299 37.2933 155.632 36.68C155.966 36.0533 156.132 35.3267 156.132 34.5ZM168.2 38.52H173.08V40H166.38V26.06H168.2V38.52ZM185.013 34.1C185.013 34.4467 184.993 34.8133 184.953 35.2H176.193C176.259 36.28 176.626 37.1267 177.293 37.74C177.973 38.34 178.793 38.64 179.753 38.64C180.539 38.64 181.193 38.46 181.713 38.1C182.246 37.7267 182.619 37.2333 182.833 36.62H184.793C184.499 37.6733 183.913 38.5333 183.033 39.2C182.153 39.8533 181.059 40.18 179.753 40.18C178.713 40.18 177.779 39.9467 176.953 39.48C176.139 39.0133 175.499 38.3533 175.033 37.5C174.566 36.6333 174.333 35.6333 174.333 34.5C174.333 33.3667 174.559 32.3733 175.013 31.52C175.466 30.6667 176.099 30.0133 176.913 29.56C177.739 29.0933 178.686 28.86 179.753 28.86C180.793 28.86 181.713 29.0867 182.513 29.54C183.313 29.9933 183.926 30.62 184.353 31.42C184.793 32.2067 185.013 33.1 185.013 34.1ZM183.133 33.72C183.133 33.0267 182.979 32.4333 182.673 31.94C182.366 31.4333 181.946 31.0533 181.413 30.8C180.893 30.5333 180.313 30.4 179.673 30.4C178.753 30.4 177.966 30.6933 177.313 31.28C176.673 31.8667 176.306 32.68 176.213 33.72H183.133ZM186.735 34.48C186.735 33.36 186.962 32.38 187.415 31.54C187.868 30.6867 188.488 30.0267 189.275 29.56C190.075 29.0933 190.962 28.86 191.935 28.86C192.895 28.86 193.728 29.0667 194.435 29.48C195.142 29.8933 195.668 30.4133 196.015 31.04V29.04H197.855V40H196.015V37.96C195.655 38.6 195.115 39.1333 194.395 39.56C193.688 39.9733 192.862 40.18 191.915 40.18C190.942 40.18 190.062 39.94 189.275 39.46C188.488 38.98 187.868 38.3067 187.415 37.44C186.962 36.5733 186.735 35.5867 186.735 34.48ZM196.015 34.5C196.015 33.6733 195.848 32.9533 195.515 32.34C195.182 31.7267 194.728 31.26 194.155 30.94C193.595 30.6067 192.975 30.44 192.295 30.44C191.615 30.44 190.995 30.6 190.435 30.92C189.875 31.24 189.428 31.7067 189.095 32.32C188.762 32.9333 188.595 33.6533 188.595 34.48C188.595 35.32 188.762 36.0533 189.095 36.68C189.428 37.2933 189.875 37.7667 190.435 38.1C190.995 38.42 191.615 38.58 192.295 38.58C192.975 38.58 193.595 38.42 194.155 38.1C194.728 37.7667 195.182 37.2933 195.515 36.68C195.848 36.0533 196.015 35.3267 196.015 34.5ZM202.751 30.82C203.071 30.1933 203.524 29.7067 204.111 29.36C204.711 29.0133 205.437 28.84 206.291 28.84V30.72H205.811C203.771 30.72 202.751 31.8267 202.751 34.04V40H200.931V29.04H202.751V30.82ZM213.732 28.84C215.065 28.84 216.145 29.2467 216.972 30.06C217.798 30.86 218.212 32.02 218.212 33.54V40H216.412V33.8C216.412 32.7067 216.138 31.8733 215.592 31.3C215.045 30.7133 214.298 30.42 213.352 30.42C212.392 30.42 211.625 30.72 211.052 31.32C210.492 31.92 210.212 32.7933 210.212 33.94V40H208.392V29.04H210.212V30.6C210.572 30.04 211.058 29.6067 211.672 29.3C212.298 28.9933 212.985 28.84 213.732 28.84ZM222.125 27.26C221.778 27.26 221.485 27.14 221.245 26.9C221.005 26.66 220.885 26.3667 220.885 26.02C220.885 25.6733 221.005 25.38 221.245 25.14C221.485 24.9 221.778 24.78 222.125 24.78C222.458 24.78 222.738 24.9 222.965 25.14C223.205 25.38 223.325 25.6733 223.325 26.02C223.325 26.3667 223.205 26.66 222.965 26.9C222.738 27.14 222.458 27.26 222.125 27.26ZM223.005 29.04V40H221.185V29.04H223.005ZM231.446 28.84C232.78 28.84 233.86 29.2467 234.686 30.06C235.513 30.86 235.926 32.02 235.926 33.54V40H234.126V33.8C234.126 32.7067 233.853 31.8733 233.306 31.3C232.76 30.7133 232.013 30.42 231.066 30.42C230.106 30.42 229.34 30.72 228.766 31.32C228.206 31.92 227.926 32.7933 227.926 33.94V40H226.106V29.04H227.926V30.6C228.286 30.04 228.773 29.6067 229.386 29.3C230.013 28.9933 230.7 28.84 231.446 28.84ZM243.419 28.86C244.366 28.86 245.193 29.0667 245.899 29.48C246.619 29.8933 247.153 30.4133 247.499 31.04V29.04H249.339V40.24C249.339 41.24 249.126 42.1267 248.699 42.9C248.273 43.6867 247.659 44.3 246.859 44.74C246.073 45.18 245.153 45.4 244.099 45.4C242.659 45.4 241.459 45.06 240.499 44.38C239.539 43.7 238.973 42.7733 238.799 41.6H240.599C240.799 42.2667 241.213 42.8 241.839 43.2C242.466 43.6133 243.219 43.82 244.099 43.82C245.099 43.82 245.913 43.5067 246.539 42.88C247.179 42.2533 247.499 41.3733 247.499 40.24V37.94C247.139 38.58 246.606 39.1133 245.899 39.54C245.193 39.9667 244.366 40.18 243.419 40.18C242.446 40.18 241.559 39.94 240.759 39.46C239.973 38.98 239.353 38.3067 238.899 37.44C238.446 36.5733 238.219 35.5867 238.219 34.48C238.219 33.36 238.446 32.38 238.899 31.54C239.353 30.6867 239.973 30.0267 240.759 29.56C241.559 29.0933 242.446 28.86 243.419 28.86ZM247.499 34.5C247.499 33.6733 247.333 32.9533 246.999 32.34C246.666 31.7267 246.213 31.26 245.639 30.94C245.079 30.6067 244.459 30.44 243.779 30.44C243.099 30.44 242.479 30.6 241.919 30.92C241.359 31.24 240.913 31.7067 240.579 32.32C240.246 32.9333 240.079 33.6533 240.079 34.48C240.079 35.32 240.246 36.0533 240.579 36.68C240.913 37.2933 241.359 37.7667 241.919 38.1C242.479 38.42 243.099 38.58 243.779 38.58C244.459 38.58 245.079 38.42 245.639 38.1C246.213 37.7667 246.666 37.2933 246.999 36.68C247.333 36.0533 247.499 35.3267 247.499 34.5Z" fill="#131313"/>
</svg>
