<svg width="300" height="66" viewBox="0 0 300 66" fill="none" xmlns="http://www.w3.org/2000/svg">
<path d="M300 66V0H0V66H300Z" fill="#00E0FF"/>
<path d="M53.7171 26.16V40H51.8971V29.68L47.2971 40H46.0171L41.3971 29.66V40H39.5771V26.16H41.5371L46.6571 37.6L51.7771 26.16H53.7171ZM66.8037 34.1C66.8037 34.4467 66.7837 34.8133 66.7437 35.2H57.9837C58.0503 36.28 58.417 37.1267 59.0837 37.74C59.7637 38.34 60.5837 38.64 61.5437 38.64C62.3303 38.64 62.9837 38.46 63.5037 38.1C64.037 37.7267 64.4103 37.2333 64.6237 36.62H66.5837C66.2903 37.6733 65.7037 38.5333 64.8237 39.2C63.9437 39.8533 62.8503 40.18 61.5437 40.18C60.5037 40.18 59.5703 39.9467 58.7437 39.48C57.9303 39.0133 57.2903 38.3533 56.8237 37.5C56.357 36.6333 56.1237 35.6333 56.1237 34.5C56.1237 33.3667 56.3503 32.3733 56.8037 31.52C57.257 30.6667 57.8903 30.0133 58.7037 29.56C59.5303 29.0933 60.477 28.86 61.5437 28.86C62.5837 28.86 63.5037 29.0867 64.3037 29.54C65.1037 29.9933 65.717 30.62 66.1437 31.42C66.5837 32.2067 66.8037 33.1 66.8037 34.1ZM64.9237 33.72C64.9237 33.0267 64.7703 32.4333 64.4637 31.94C64.157 31.4333 63.737 31.0533 63.2037 30.8C62.6837 30.5333 62.1037 30.4 61.4637 30.4C60.5437 30.4 59.757 30.6933 59.1037 31.28C58.4637 31.8667 58.097 32.68 58.0037 33.72H64.9237ZM68.526 34.48C68.526 33.36 68.7527 32.38 69.206 31.54C69.6593 30.6867 70.2793 30.0267 71.066 29.56C71.866 29.0933 72.7527 28.86 73.726 28.86C74.686 28.86 75.5193 29.0667 76.226 29.48C76.9327 29.8933 77.4593 30.4133 77.806 31.04V29.04H79.646V40H77.806V37.96C77.446 38.6 76.906 39.1333 76.186 39.56C75.4793 39.9733 74.6527 40.18 73.706 40.18C72.7327 40.18 71.8527 39.94 71.066 39.46C70.2793 38.98 69.6593 38.3067 69.206 37.44C68.7527 36.5733 68.526 35.5867 68.526 34.48ZM77.806 34.5C77.806 33.6733 77.6393 32.9533 77.306 32.34C76.9727 31.7267 76.5193 31.26 75.946 30.94C75.386 30.6067 74.766 30.44 74.086 30.44C73.406 30.44 72.786 30.6 72.226 30.92C71.666 31.24 71.2193 31.7067 70.886 32.32C70.5527 32.9333 70.386 33.6533 70.386 34.48C70.386 35.32 70.5527 36.0533 70.886 36.68C71.2193 37.2933 71.666 37.7667 72.226 38.1C72.786 38.42 73.406 38.58 74.086 38.58C74.766 38.58 75.386 38.42 75.946 38.1C76.5193 37.7667 76.9727 37.2933 77.306 36.68C77.6393 36.0533 77.806 35.3267 77.806 34.5ZM84.5416 25.2V40H82.7216V25.2H84.5416ZM89.8635 30.54V37C89.8635 37.5333 89.9768 37.9133 90.2035 38.14C90.4302 38.3533 90.8235 38.46 91.3835 38.46H92.7235V40H91.0835C90.0702 40 89.3102 39.7667 88.8035 39.3C88.2968 38.8333 88.0435 38.0667 88.0435 37V30.54H86.6235V29.04H88.0435V26.28H89.8635V29.04H92.7235V30.54H89.8635ZM95.8687 27.26C95.522 27.26 95.2287 27.14 94.9887 26.9C94.7487 26.66 94.6287 26.3667 94.6287 26.02C94.6287 25.6733 94.7487 25.38 94.9887 25.14C95.2287 24.9 95.522 24.78 95.8687 24.78C96.202 24.78 96.482 24.9 96.7087 25.14C96.9487 25.38 97.0687 25.6733 97.0687 26.02C97.0687 26.3667 96.9487 26.66 96.7087 26.9C96.482 27.14 96.202 27.26 95.8687 27.26ZM96.7487 29.04V40H94.9287V29.04H96.7487ZM113.031 28.84C113.884 28.84 114.644 29.02 115.311 29.38C115.977 29.7267 116.504 30.2533 116.891 30.96C117.277 31.6667 117.471 32.5267 117.471 33.54V40H115.671V33.8C115.671 32.7067 115.397 31.8733 114.851 31.3C114.317 30.7133 113.591 30.42 112.671 30.42C111.724 30.42 110.971 30.7267 110.411 31.34C109.851 31.94 109.571 32.8133 109.571 33.96V40H107.771V33.8C107.771 32.7067 107.497 31.8733 106.951 31.3C106.417 30.7133 105.691 30.42 104.771 30.42C103.824 30.42 103.071 30.7267 102.511 31.34C101.951 31.94 101.671 32.8133 101.671 33.96V40H99.8505V29.04H101.671V30.62C102.031 30.0467 102.511 29.6067 103.111 29.3C103.724 28.9933 104.397 28.84 105.131 28.84C106.051 28.84 106.864 29.0467 107.571 29.46C108.277 29.8733 108.804 30.48 109.151 31.28C109.457 30.5067 109.964 29.9067 110.671 29.48C111.377 29.0533 112.164 28.84 113.031 28.84ZM130.456 34.1C130.456 34.4467 130.436 34.8133 130.396 35.2H121.636C121.703 36.28 122.069 37.1267 122.736 37.74C123.416 38.34 124.236 38.64 125.196 38.64C125.983 38.64 126.636 38.46 127.156 38.1C127.689 37.7267 128.063 37.2333 128.276 36.62H130.236C129.943 37.6733 129.356 38.5333 128.476 39.2C127.596 39.8533 126.503 40.18 125.196 40.18C124.156 40.18 123.223 39.9467 122.396 39.48C121.583 39.0133 120.943 38.3533 120.476 37.5C120.009 36.6333 119.776 35.6333 119.776 34.5C119.776 33.3667 120.003 32.3733 120.456 31.52C120.909 30.6667 121.543 30.0133 122.356 29.56C123.183 29.0933 124.129 28.86 125.196 28.86C126.236 28.86 127.156 29.0867 127.956 29.54C128.756 29.9933 129.369 30.62 129.796 31.42C130.236 32.2067 130.456 33.1 130.456 34.1ZM128.576 33.72C128.576 33.0267 128.423 32.4333 128.116 31.94C127.809 31.4333 127.389 31.0533 126.856 30.8C126.336 30.5333 125.756 30.4 125.116 30.4C124.196 30.4 123.409 30.6933 122.756 31.28C122.116 31.8667 121.749 32.68 121.656 33.72H128.576ZM140.01 27.54V32.2H145.09V33.7H140.01V38.5H145.69V40H138.19V26.04H145.69V27.54H140.01ZM153.784 28.84C155.118 28.84 156.198 29.2467 157.024 30.06C157.851 30.86 158.264 32.02 158.264 33.54V40H156.464V33.8C156.464 32.7067 156.191 31.8733 155.644 31.3C155.098 30.7133 154.351 30.42 153.404 30.42C152.444 30.42 151.678 30.72 151.104 31.32C150.544 31.92 150.264 32.7933 150.264 33.94V40H148.444V29.04H150.264V30.6C150.624 30.04 151.111 29.6067 151.724 29.3C152.351 28.9933 153.038 28.84 153.784 28.84ZM165.317 38.32L168.717 29.04H170.657L166.357 40H164.237L159.937 29.04H161.897L165.317 38.32ZM173.388 27.26C173.042 27.26 172.748 27.14 172.508 26.9C172.268 26.66 172.148 26.3667 172.148 26.02C172.148 25.6733 172.268 25.38 172.508 25.14C172.748 24.9 173.042 24.78 173.388 24.78C173.722 24.78 174.002 24.9 174.228 25.14C174.468 25.38 174.588 25.6733 174.588 26.02C174.588 26.3667 174.468 26.66 174.228 26.9C174.002 27.14 173.722 27.26 173.388 27.26ZM174.268 29.04V40H172.448V29.04H174.268ZM179.19 30.82C179.51 30.1933 179.963 29.7067 180.55 29.36C181.15 29.0133 181.877 28.84 182.73 28.84V30.72H182.25C180.21 30.72 179.19 31.8267 179.19 34.04V40H177.37V29.04H179.19V30.82ZM189.611 40.18C188.584 40.18 187.651 39.9467 186.811 39.48C185.984 39.0133 185.331 38.3533 184.851 37.5C184.384 36.6333 184.151 35.6333 184.151 34.5C184.151 33.38 184.391 32.3933 184.871 31.54C185.364 30.6733 186.031 30.0133 186.871 29.56C187.711 29.0933 188.651 28.86 189.691 28.86C190.731 28.86 191.671 29.0933 192.511 29.56C193.351 30.0133 194.011 30.6667 194.491 31.52C194.984 32.3733 195.231 33.3667 195.231 34.5C195.231 35.6333 194.978 36.6333 194.471 37.5C193.978 38.3533 193.304 39.0133 192.451 39.48C191.598 39.9467 190.651 40.18 189.611 40.18ZM189.611 38.58C190.264 38.58 190.878 38.4267 191.451 38.12C192.024 37.8133 192.484 37.3533 192.831 36.74C193.191 36.1267 193.371 35.38 193.371 34.5C193.371 33.62 193.198 32.8733 192.851 32.26C192.504 31.6467 192.051 31.1933 191.491 30.9C190.931 30.5933 190.324 30.44 189.671 30.44C189.004 30.44 188.391 30.5933 187.831 30.9C187.284 31.1933 186.844 31.6467 186.511 32.26C186.178 32.8733 186.011 33.62 186.011 34.5C186.011 35.3933 186.171 36.1467 186.491 36.76C186.824 37.3733 187.264 37.8333 187.811 38.14C188.358 38.4333 188.958 38.58 189.611 38.58ZM202.964 28.84C204.297 28.84 205.377 29.2467 206.204 30.06C207.031 30.86 207.444 32.02 207.444 33.54V40H205.644V33.8C205.644 32.7067 205.371 31.8733 204.824 31.3C204.277 30.7133 203.531 30.42 202.584 30.42C201.624 30.42 200.857 30.72 200.284 31.32C199.724 31.92 199.444 32.7933 199.444 33.94V40H197.624V29.04H199.444V30.6C199.804 30.04 200.291 29.6067 200.904 29.3C201.531 28.9933 202.217 28.84 202.964 28.84ZM223.597 28.84C224.45 28.84 225.21 29.02 225.877 29.38C226.544 29.7267 227.07 30.2533 227.457 30.96C227.844 31.6667 228.037 32.5267 228.037 33.54V40H226.237V33.8C226.237 32.7067 225.964 31.8733 225.417 31.3C224.884 30.7133 224.157 30.42 223.237 30.42C222.29 30.42 221.537 30.7267 220.977 31.34C220.417 31.94 220.137 32.8133 220.137 33.96V40H218.337V33.8C218.337 32.7067 218.064 31.8733 217.517 31.3C216.984 30.7133 216.257 30.42 215.337 30.42C214.39 30.42 213.637 30.7267 213.077 31.34C212.517 31.94 212.237 32.8133 212.237 33.96V40H210.417V29.04H212.237V30.62C212.597 30.0467 213.077 29.6067 213.677 29.3C214.29 28.9933 214.964 28.84 215.697 28.84C216.617 28.84 217.43 29.0467 218.137 29.46C218.844 29.8733 219.37 30.48 219.717 31.28C220.024 30.5067 220.53 29.9067 221.237 29.48C221.944 29.0533 222.73 28.84 223.597 28.84ZM241.022 34.1C241.022 34.4467 241.002 34.8133 240.962 35.2H232.202C232.269 36.28 232.636 37.1267 233.302 37.74C233.982 38.34 234.802 38.64 235.762 38.64C236.549 38.64 237.202 38.46 237.722 38.1C238.256 37.7267 238.629 37.2333 238.842 36.62H240.802C240.509 37.6733 239.922 38.5333 239.042 39.2C238.162 39.8533 237.069 40.18 235.762 40.18C234.722 40.18 233.789 39.9467 232.962 39.48C232.149 39.0133 231.509 38.3533 231.042 37.5C230.576 36.6333 230.342 35.6333 230.342 34.5C230.342 33.3667 230.569 32.3733 231.022 31.52C231.476 30.6667 232.109 30.0133 232.922 29.56C233.749 29.0933 234.696 28.86 235.762 28.86C236.802 28.86 237.722 29.0867 238.522 29.54C239.322 29.9933 239.936 30.62 240.362 31.42C240.802 32.2067 241.022 33.1 241.022 34.1ZM239.142 33.72C239.142 33.0267 238.989 32.4333 238.682 31.94C238.376 31.4333 237.956 31.0533 237.422 30.8C236.902 30.5333 236.322 30.4 235.682 30.4C234.762 30.4 233.976 30.6933 233.322 31.28C232.682 31.8667 232.316 32.68 232.222 33.72H239.142ZM248.765 28.84C250.098 28.84 251.178 29.2467 252.005 30.06C252.831 30.86 253.245 32.02 253.245 33.54V40H251.445V33.8C251.445 32.7067 251.171 31.8733 250.625 31.3C250.078 30.7133 249.331 30.42 248.385 30.42C247.425 30.42 246.658 30.72 246.085 31.32C245.525 31.92 245.245 32.7933 245.245 33.94V40H243.425V29.04H245.245V30.6C245.605 30.04 246.091 29.6067 246.705 29.3C247.331 28.9933 248.018 28.84 248.765 28.84ZM258.438 30.54V37C258.438 37.5333 258.551 37.9133 258.778 38.14C259.004 38.3533 259.398 38.46 259.958 38.46H261.298V40H259.658C258.644 40 257.884 39.7667 257.378 39.3C256.871 38.8333 256.618 38.0667 256.618 37V30.54H255.198V29.04H256.618V26.28H258.438V29.04H261.298V30.54H258.438Z" fill="#131313"/>
</svg>
