<svg width="298" height="66" viewBox="0 0 298 66" fill="none" xmlns="http://www.w3.org/2000/svg">
<path d="M0.857422 66L48.0003 0H298V66H0.857422Z" fill="#1DFFEB"/>
<path d="M111.157 40.14C110.237 40.14 109.411 39.98 108.677 39.66C107.957 39.3267 107.391 38.8733 106.977 38.3C106.564 37.7133 106.351 37.04 106.337 36.28H108.277C108.344 36.9333 108.611 37.4867 109.077 37.94C109.557 38.38 110.251 38.6 111.157 38.6C112.024 38.6 112.704 38.3867 113.197 37.96C113.704 37.52 113.957 36.96 113.957 36.28C113.957 35.7467 113.811 35.3133 113.517 34.98C113.224 34.6467 112.857 34.3933 112.417 34.22C111.977 34.0467 111.384 33.86 110.637 33.66C109.717 33.42 108.977 33.18 108.417 32.94C107.871 32.7 107.397 32.3267 106.997 31.82C106.611 31.3 106.417 30.6067 106.417 29.74C106.417 28.98 106.611 28.3067 106.997 27.72C107.384 27.1333 107.924 26.68 108.617 26.36C109.324 26.04 110.131 25.88 111.037 25.88C112.344 25.88 113.411 26.2067 114.237 26.86C115.077 27.5133 115.551 28.38 115.657 29.46H113.657C113.591 28.9267 113.311 28.46 112.817 28.06C112.324 27.6467 111.671 27.44 110.857 27.44C110.097 27.44 109.477 27.64 108.997 28.04C108.517 28.4267 108.277 28.9733 108.277 29.68C108.277 30.1867 108.417 30.6 108.697 30.92C108.991 31.24 109.344 31.4867 109.757 31.66C110.184 31.82 110.777 32.0067 111.537 32.22C112.457 32.4733 113.197 32.7267 113.757 32.98C114.317 33.22 114.797 33.6 115.197 34.12C115.597 34.6267 115.797 35.32 115.797 36.2C115.797 36.88 115.617 37.52 115.257 38.12C114.897 38.72 114.364 39.2067 113.657 39.58C112.951 39.9533 112.117 40.14 111.157 40.14ZM128.476 34.1C128.476 34.4467 128.456 34.8133 128.416 35.2H119.656C119.722 36.28 120.089 37.1267 120.756 37.74C121.436 38.34 122.256 38.64 123.216 38.64C124.002 38.64 124.656 38.46 125.176 38.1C125.709 37.7267 126.082 37.2333 126.296 36.62H128.256C127.962 37.6733 127.376 38.5333 126.496 39.2C125.616 39.8533 124.522 40.18 123.216 40.18C122.176 40.18 121.242 39.9467 120.416 39.48C119.602 39.0133 118.962 38.3533 118.496 37.5C118.029 36.6333 117.796 35.6333 117.796 34.5C117.796 33.3667 118.022 32.3733 118.476 31.52C118.929 30.6667 119.562 30.0133 120.376 29.56C121.202 29.0933 122.149 28.86 123.216 28.86C124.256 28.86 125.176 29.0867 125.976 29.54C126.776 29.9933 127.389 30.62 127.816 31.42C128.256 32.2067 128.476 33.1 128.476 34.1ZM126.596 33.72C126.596 33.0267 126.442 32.4333 126.136 31.94C125.829 31.4333 125.409 31.0533 124.876 30.8C124.356 30.5333 123.776 30.4 123.136 30.4C122.216 30.4 121.429 30.6933 120.776 31.28C120.136 31.8667 119.769 32.68 119.676 33.72H126.596ZM132.698 25.2V40H130.878V25.2H132.698ZM140.26 30.54H137.96V40H136.14V30.54H134.72V29.04H136.14V28.26C136.14 27.0333 136.453 26.14 137.08 25.58C137.72 25.0067 138.74 24.72 140.14 24.72V26.24C139.34 26.24 138.773 26.4 138.44 26.72C138.12 27.0267 137.96 27.54 137.96 28.26V29.04H140.26V30.54ZM155.594 26.06V27.54H149.534V32.24H154.454V33.72H149.534V40H147.714V26.06H155.594ZM167.792 34.1C167.792 34.4467 167.772 34.8133 167.732 35.2H158.972C159.039 36.28 159.405 37.1267 160.072 37.74C160.752 38.34 161.572 38.64 162.532 38.64C163.319 38.64 163.972 38.46 164.492 38.1C165.025 37.7267 165.399 37.2333 165.612 36.62H167.572C167.279 37.6733 166.692 38.5333 165.812 39.2C164.932 39.8533 163.839 40.18 162.532 40.18C161.492 40.18 160.559 39.9467 159.732 39.48C158.919 39.0133 158.279 38.3533 157.812 37.5C157.345 36.6333 157.112 35.6333 157.112 34.5C157.112 33.3667 157.339 32.3733 157.792 31.52C158.245 30.6667 158.879 30.0133 159.692 29.56C160.519 29.0933 161.465 28.86 162.532 28.86C163.572 28.86 164.492 29.0867 165.292 29.54C166.092 29.9933 166.705 30.62 167.132 31.42C167.572 32.2067 167.792 33.1 167.792 34.1ZM165.912 33.72C165.912 33.0267 165.759 32.4333 165.452 31.94C165.145 31.4333 164.725 31.0533 164.192 30.8C163.672 30.5333 163.092 30.4 162.452 30.4C161.532 30.4 160.745 30.6933 160.092 31.28C159.452 31.8667 159.085 32.68 158.992 33.72H165.912ZM180.194 34.1C180.194 34.4467 180.174 34.8133 180.134 35.2H171.374C171.441 36.28 171.808 37.1267 172.474 37.74C173.154 38.34 173.974 38.64 174.934 38.64C175.721 38.64 176.374 38.46 176.894 38.1C177.428 37.7267 177.801 37.2333 178.014 36.62H179.974C179.681 37.6733 179.094 38.5333 178.214 39.2C177.334 39.8533 176.241 40.18 174.934 40.18C173.894 40.18 172.961 39.9467 172.134 39.48C171.321 39.0133 170.681 38.3533 170.214 37.5C169.748 36.6333 169.514 35.6333 169.514 34.5C169.514 33.3667 169.741 32.3733 170.194 31.52C170.648 30.6667 171.281 30.0133 172.094 29.56C172.921 29.0933 173.868 28.86 174.934 28.86C175.974 28.86 176.894 29.0867 177.694 29.54C178.494 29.9933 179.108 30.62 179.534 31.42C179.974 32.2067 180.194 33.1 180.194 34.1ZM178.314 33.72C178.314 33.0267 178.161 32.4333 177.854 31.94C177.548 31.4333 177.128 31.0533 176.594 30.8C176.074 30.5333 175.494 30.4 174.854 30.4C173.934 30.4 173.148 30.6933 172.494 31.28C171.854 31.8667 171.488 32.68 171.394 33.72H178.314ZM181.917 34.48C181.917 33.36 182.143 32.38 182.597 31.54C183.05 30.6867 183.67 30.0267 184.457 29.56C185.257 29.0933 186.15 28.86 187.137 28.86C187.99 28.86 188.783 29.06 189.517 29.46C190.25 29.8467 190.81 30.36 191.197 31V25.2H193.037V40H191.197V37.94C190.837 38.5933 190.303 39.1333 189.597 39.56C188.89 39.9733 188.063 40.18 187.117 40.18C186.143 40.18 185.257 39.94 184.457 39.46C183.67 38.98 183.05 38.3067 182.597 37.44C182.143 36.5733 181.917 35.5867 181.917 34.48ZM191.197 34.5C191.197 33.6733 191.03 32.9533 190.697 32.34C190.363 31.7267 189.91 31.26 189.337 30.94C188.777 30.6067 188.157 30.44 187.477 30.44C186.797 30.44 186.177 30.6 185.617 30.92C185.057 31.24 184.61 31.7067 184.277 32.32C183.943 32.9333 183.777 33.6533 183.777 34.48C183.777 35.32 183.943 36.0533 184.277 36.68C184.61 37.2933 185.057 37.7667 185.617 38.1C186.177 38.42 186.797 38.58 187.477 38.58C188.157 38.58 188.777 38.42 189.337 38.1C189.91 37.7667 190.363 37.2933 190.697 36.68C191.03 36.0533 191.197 35.3267 191.197 34.5ZM197.052 27.26C196.706 27.26 196.412 27.14 196.172 26.9C195.932 26.66 195.812 26.3667 195.812 26.02C195.812 25.6733 195.932 25.38 196.172 25.14C196.412 24.9 196.706 24.78 197.052 24.78C197.386 24.78 197.666 24.9 197.892 25.14C198.132 25.38 198.252 25.6733 198.252 26.02C198.252 26.3667 198.132 26.66 197.892 26.9C197.666 27.14 197.386 27.26 197.052 27.26ZM197.932 29.04V40H196.112V29.04H197.932ZM206.374 28.84C207.707 28.84 208.787 29.2467 209.614 30.06C210.441 30.86 210.854 32.02 210.854 33.54V40H209.054V33.8C209.054 32.7067 208.781 31.8733 208.234 31.3C207.687 30.7133 206.941 30.42 205.994 30.42C205.034 30.42 204.267 30.72 203.694 31.32C203.134 31.92 202.854 32.7933 202.854 33.94V40H201.034V29.04H202.854V30.6C203.214 30.04 203.701 29.6067 204.314 29.3C204.941 28.9933 205.627 28.84 206.374 28.84ZM218.347 28.86C219.294 28.86 220.12 29.0667 220.827 29.48C221.547 29.8933 222.08 30.4133 222.427 31.04V29.04H224.267V40.24C224.267 41.24 224.054 42.1267 223.627 42.9C223.2 43.6867 222.587 44.3 221.787 44.74C221 45.18 220.08 45.4 219.027 45.4C217.587 45.4 216.387 45.06 215.427 44.38C214.467 43.7 213.9 42.7733 213.727 41.6H215.527C215.727 42.2667 216.14 42.8 216.767 43.2C217.394 43.6133 218.147 43.82 219.027 43.82C220.027 43.82 220.84 43.5067 221.467 42.88C222.107 42.2533 222.427 41.3733 222.427 40.24V37.94C222.067 38.58 221.534 39.1133 220.827 39.54C220.12 39.9667 219.294 40.18 218.347 40.18C217.374 40.18 216.487 39.94 215.687 39.46C214.9 38.98 214.28 38.3067 213.827 37.44C213.374 36.5733 213.147 35.5867 213.147 34.48C213.147 33.36 213.374 32.38 213.827 31.54C214.28 30.6867 214.9 30.0267 215.687 29.56C216.487 29.0933 217.374 28.86 218.347 28.86ZM222.427 34.5C222.427 33.6733 222.26 32.9533 221.927 32.34C221.594 31.7267 221.14 31.26 220.567 30.94C220.007 30.6067 219.387 30.44 218.707 30.44C218.027 30.44 217.407 30.6 216.847 30.92C216.287 31.24 215.84 31.7067 215.507 32.32C215.174 32.9333 215.007 33.6533 215.007 34.48C215.007 35.32 215.174 36.0533 215.507 36.68C215.84 37.2933 216.287 37.7667 216.847 38.1C217.407 38.42 218.027 38.58 218.707 38.58C219.387 38.58 220.007 38.42 220.567 38.1C221.14 37.7667 221.594 37.2933 221.927 36.68C222.26 36.0533 222.427 35.3267 222.427 34.5Z" fill="#131313"/>
</svg>
