<svg width="300" height="66" viewBox="0 0 300 66" fill="none" xmlns="http://www.w3.org/2000/svg">
<g opacity="0.5">
<path d="M252.857 0L300 66L0 66V0H252.857Z" fill="#4081AB"/>
<path d="M87.9312 26.1V27.96H84.2312V40H81.9512V27.96H78.2312V26.1H87.9312ZM100.34 34.22C100.34 34.6333 100.314 35.0067 100.26 35.34H91.8402C91.9069 36.22 92.2336 36.9267 92.8202 37.46C93.4069 37.9933 94.1269 38.26 94.9802 38.26C96.2069 38.26 97.0736 37.7467 97.5802 36.72H100.04C99.7069 37.7333 99.1002 38.5667 98.2202 39.22C97.3536 39.86 96.2736 40.18 94.9802 40.18C93.9269 40.18 92.9802 39.9467 92.1402 39.48C91.3136 39 90.6602 38.3333 90.1802 37.48C89.7136 36.6133 89.4802 35.6133 89.4802 34.48C89.4802 33.3467 89.7069 32.3533 90.1602 31.5C90.6269 30.6333 91.2736 29.9667 92.1002 29.5C92.9402 29.0333 93.9002 28.8 94.9802 28.8C96.0202 28.8 96.9469 29.0267 97.7602 29.48C98.5736 29.9333 99.2069 30.5733 99.6602 31.4C100.114 32.2133 100.34 33.1533 100.34 34.22ZM97.9602 33.5C97.9469 32.66 97.6469 31.9867 97.0602 31.48C96.4736 30.9733 95.7469 30.72 94.8802 30.72C94.0936 30.72 93.4202 30.9733 92.8602 31.48C92.3002 31.9733 91.9669 32.6467 91.8602 33.5H97.9602ZM115.924 28.8C116.791 28.8 117.564 28.98 118.244 29.34C118.937 29.7 119.477 30.2333 119.864 30.94C120.264 31.6467 120.464 32.5 120.464 33.5V40H118.204V33.84C118.204 32.8533 117.957 32.1 117.464 31.58C116.971 31.0467 116.297 30.78 115.444 30.78C114.591 30.78 113.911 31.0467 113.404 31.58C112.911 32.1 112.664 32.8533 112.664 33.84V40H110.404V33.84C110.404 32.8533 110.157 32.1 109.664 31.58C109.171 31.0467 108.497 30.78 107.644 30.78C106.791 30.78 106.111 31.0467 105.604 31.58C105.111 32.1 104.864 32.8533 104.864 33.84V40H102.584V28.98H104.864V30.24C105.237 29.7867 105.711 29.4333 106.284 29.18C106.857 28.9267 107.471 28.8 108.124 28.8C109.004 28.8 109.791 28.9867 110.484 29.36C111.177 29.7333 111.711 30.2733 112.084 30.98C112.417 30.3133 112.937 29.7867 113.644 29.4C114.351 29 115.111 28.8 115.924 28.8ZM125.645 30.6C126.032 30.0933 126.559 29.6667 127.225 29.32C127.892 28.9733 128.645 28.8 129.485 28.8C130.445 28.8 131.319 29.04 132.105 29.52C132.905 29.9867 133.532 30.6467 133.985 31.5C134.439 32.3533 134.665 33.3333 134.665 34.44C134.665 35.5467 134.439 36.54 133.985 37.42C133.532 38.2867 132.905 38.9667 132.105 39.46C131.319 39.94 130.445 40.18 129.485 40.18C128.645 40.18 127.899 40.0133 127.245 39.68C126.592 39.3333 126.059 38.9067 125.645 38.4V45.24H123.365V28.98H125.645V30.6ZM132.345 34.44C132.345 33.68 132.185 33.0267 131.865 32.48C131.559 31.92 131.145 31.5 130.625 31.22C130.119 30.9267 129.572 30.78 128.985 30.78C128.412 30.78 127.865 30.9267 127.345 31.22C126.839 31.5133 126.425 31.94 126.105 32.5C125.799 33.06 125.645 33.72 125.645 34.48C125.645 35.24 125.799 35.9067 126.105 36.48C126.425 37.04 126.839 37.4667 127.345 37.76C127.865 38.0533 128.412 38.2 128.985 38.2C129.572 38.2 130.119 38.0533 130.625 37.76C131.145 37.4533 131.559 37.0133 131.865 36.44C132.185 35.8667 132.345 35.2 132.345 34.44ZM147.02 34.22C147.02 34.6333 146.993 35.0067 146.94 35.34H138.52C138.587 36.22 138.913 36.9267 139.5 37.46C140.087 37.9933 140.807 38.26 141.66 38.26C142.887 38.26 143.753 37.7467 144.26 36.72H146.72C146.387 37.7333 145.78 38.5667 144.9 39.22C144.033 39.86 142.953 40.18 141.66 40.18C140.607 40.18 139.66 39.9467 138.82 39.48C137.993 39 137.34 38.3333 136.86 37.48C136.393 36.6133 136.16 35.6133 136.16 34.48C136.16 33.3467 136.387 32.3533 136.84 31.5C137.307 30.6333 137.953 29.9667 138.78 29.5C139.62 29.0333 140.58 28.8 141.66 28.8C142.7 28.8 143.627 29.0267 144.44 29.48C145.253 29.9333 145.887 30.5733 146.34 31.4C146.793 32.2133 147.02 33.1533 147.02 34.22ZM144.64 33.5C144.627 32.66 144.327 31.9867 143.74 31.48C143.153 30.9733 142.427 30.72 141.56 30.72C140.773 30.72 140.1 30.9733 139.54 31.48C138.98 31.9733 138.647 32.6467 138.54 33.5H144.64ZM151.544 30.58C151.877 30.02 152.317 29.5867 152.864 29.28C153.424 28.96 154.084 28.8 154.844 28.8V31.16H154.264C153.37 31.16 152.69 31.3867 152.224 31.84C151.77 32.2933 151.544 33.08 151.544 34.2V40H149.264V28.98H151.544V30.58ZM156.179 34.44C156.179 33.3333 156.406 32.3533 156.859 31.5C157.326 30.6467 157.953 29.9867 158.739 29.52C159.539 29.04 160.419 28.8 161.379 28.8C162.246 28.8 162.999 28.9733 163.639 29.32C164.293 29.6533 164.813 30.0733 165.199 30.58V28.98H167.499V40H165.199V38.36C164.813 38.88 164.286 39.3133 163.619 39.66C162.953 40.0067 162.193 40.18 161.339 40.18C160.393 40.18 159.526 39.94 158.739 39.46C157.953 38.9667 157.326 38.2867 156.859 37.42C156.406 36.54 156.179 35.5467 156.179 34.44ZM165.199 34.48C165.199 33.72 165.039 33.06 164.719 32.5C164.413 31.94 164.006 31.5133 163.499 31.22C162.993 30.9267 162.446 30.78 161.859 30.78C161.273 30.78 160.726 30.9267 160.219 31.22C159.713 31.5 159.299 31.92 158.979 32.48C158.673 33.0267 158.519 33.68 158.519 34.44C158.519 35.2 158.673 35.8667 158.979 36.44C159.299 37.0133 159.713 37.4533 160.219 37.76C160.739 38.0533 161.286 38.2 161.859 38.2C162.446 38.2 162.993 38.0533 163.499 37.76C164.006 37.4667 164.413 37.04 164.719 36.48C165.039 35.9067 165.199 35.24 165.199 34.48ZM183.834 28.8C184.701 28.8 185.474 28.98 186.154 29.34C186.847 29.7 187.387 30.2333 187.774 30.94C188.174 31.6467 188.374 32.5 188.374 33.5V40H186.114V33.84C186.114 32.8533 185.867 32.1 185.374 31.58C184.881 31.0467 184.207 30.78 183.354 30.78C182.501 30.78 181.821 31.0467 181.314 31.58C180.821 32.1 180.574 32.8533 180.574 33.84V40H178.314V33.84C178.314 32.8533 178.067 32.1 177.574 31.58C177.081 31.0467 176.407 30.78 175.554 30.78C174.701 30.78 174.021 31.0467 173.514 31.58C173.021 32.1 172.774 32.8533 172.774 33.84V40H170.494V28.98H172.774V30.24C173.147 29.7867 173.621 29.4333 174.194 29.18C174.767 28.9267 175.381 28.8 176.034 28.8C176.914 28.8 177.701 28.9867 178.394 29.36C179.087 29.7333 179.621 30.2733 179.994 30.98C180.327 30.3133 180.847 29.7867 181.554 29.4C182.261 29 183.021 28.8 183.834 28.8ZM201.375 34.22C201.375 34.6333 201.349 35.0067 201.295 35.34H192.875C192.942 36.22 193.269 36.9267 193.855 37.46C194.442 37.9933 195.162 38.26 196.015 38.26C197.242 38.26 198.109 37.7467 198.615 36.72H201.075C200.742 37.7333 200.135 38.5667 199.255 39.22C198.389 39.86 197.309 40.18 196.015 40.18C194.962 40.18 194.015 39.9467 193.175 39.48C192.349 39 191.695 38.3333 191.215 37.48C190.749 36.6133 190.515 35.6133 190.515 34.48C190.515 33.3467 190.742 32.3533 191.195 31.5C191.662 30.6333 192.309 29.9667 193.135 29.5C193.975 29.0333 194.935 28.8 196.015 28.8C197.055 28.8 197.982 29.0267 198.795 29.48C199.609 29.9333 200.242 30.5733 200.695 31.4C201.149 32.2133 201.375 33.1533 201.375 34.22ZM198.995 33.5C198.982 32.66 198.682 31.9867 198.095 31.48C197.509 30.9733 196.782 30.72 195.915 30.72C195.129 30.72 194.455 30.9733 193.895 31.48C193.335 31.9733 193.002 32.6467 192.895 33.5H198.995ZM209.179 28.8C210.046 28.8 210.819 28.98 211.499 29.34C212.192 29.7 212.732 30.2333 213.119 30.94C213.506 31.6467 213.699 32.5 213.699 33.5V40H211.439V33.84C211.439 32.8533 211.192 32.1 210.699 31.58C210.206 31.0467 209.532 30.78 208.679 30.78C207.826 30.78 207.146 31.0467 206.639 31.58C206.146 32.1 205.899 32.8533 205.899 33.84V40H203.619V28.98H205.899V30.24C206.272 29.7867 206.746 29.4333 207.319 29.18C207.906 28.9267 208.526 28.8 209.179 28.8ZM219.267 30.84V36.94C219.267 37.3533 219.361 37.6533 219.547 37.84C219.747 38.0133 220.081 38.1 220.547 38.1H221.947V40H220.147C219.121 40 218.334 39.76 217.787 39.28C217.241 38.8 216.967 38.02 216.967 36.94V30.84H215.667V28.98H216.967V26.24H219.267V28.98H221.947V30.84H219.267Z" fill="white"/>
</g>
</svg>
