<svg width="250" height="66" viewBox="0 0 250 66" fill="none" xmlns="http://www.w3.org/2000/svg">
<g opacity="0.5">
<path d="M173 0.000427246H47.1429L0 66.0004H250V0.000427246H173Z" fill="#01796F"/>
<path d="M91.5019 40.14C90.5685 40.14 89.7285 39.98 88.9819 39.66C88.2352 39.3267 87.6485 38.86 87.2219 38.26C86.7952 37.66 86.5819 36.96 86.5819 36.16H89.0219C89.0752 36.76 89.3085 37.2533 89.7219 37.64C90.1485 38.0267 90.7419 38.22 91.5019 38.22C92.2885 38.22 92.9019 38.0333 93.3419 37.66C93.7819 37.2733 94.0019 36.78 94.0019 36.18C94.0019 35.7133 93.8619 35.3333 93.5819 35.04C93.3152 34.7467 92.9752 34.52 92.5619 34.36C92.1619 34.2 91.6019 34.0267 90.8819 33.84C89.9752 33.6 89.2352 33.36 88.6619 33.12C88.1019 32.8667 87.6219 32.48 87.2219 31.96C86.8219 31.44 86.6219 30.7467 86.6219 29.88C86.6219 29.08 86.8219 28.38 87.2219 27.78C87.6219 27.18 88.1819 26.72 88.9019 26.4C89.6219 26.08 90.4552 25.92 91.4019 25.92C92.7485 25.92 93.8485 26.26 94.7019 26.94C95.5685 27.6067 96.0485 28.5267 96.1419 29.7H93.6219C93.5819 29.1933 93.3419 28.76 92.9019 28.4C92.4619 28.04 91.8819 27.86 91.1619 27.86C90.5085 27.86 89.9752 28.0267 89.5619 28.36C89.1485 28.6933 88.9419 29.1733 88.9419 29.8C88.9419 30.2267 89.0685 30.58 89.3219 30.86C89.5885 31.1267 89.9219 31.34 90.3219 31.5C90.7219 31.66 91.2685 31.8333 91.9619 32.02C92.8819 32.2733 93.6285 32.5267 94.2019 32.78C94.7885 33.0333 95.2819 33.4267 95.6819 33.96C96.0952 34.48 96.3019 35.18 96.3019 36.06C96.3019 36.7667 96.1085 37.4333 95.7219 38.06C95.3485 38.6867 94.7952 39.1933 94.0619 39.58C93.3419 39.9533 92.4885 40.14 91.5019 40.14ZM109.092 34.22C109.092 34.6333 109.066 35.0067 109.012 35.34H100.592C100.659 36.22 100.986 36.9267 101.572 37.46C102.159 37.9933 102.879 38.26 103.732 38.26C104.959 38.26 105.826 37.7467 106.332 36.72H108.792C108.459 37.7333 107.852 38.5667 106.972 39.22C106.106 39.86 105.026 40.18 103.732 40.18C102.679 40.18 101.732 39.9467 100.892 39.48C100.066 39 99.4122 38.3333 98.9322 37.48C98.4655 36.6133 98.2322 35.6133 98.2322 34.48C98.2322 33.3467 98.4589 32.3533 98.9122 31.5C99.3789 30.6333 100.026 29.9667 100.852 29.5C101.692 29.0333 102.652 28.8 103.732 28.8C104.772 28.8 105.699 29.0267 106.512 29.48C107.326 29.9333 107.959 30.5733 108.412 31.4C108.866 32.2133 109.092 33.1533 109.092 34.22ZM106.712 33.5C106.699 32.66 106.399 31.9867 105.812 31.48C105.226 30.9733 104.499 30.72 103.632 30.72C102.846 30.72 102.172 30.9733 101.612 31.48C101.052 31.9733 100.719 32.6467 100.612 33.5H106.712ZM116.896 28.8C117.763 28.8 118.536 28.98 119.216 29.34C119.909 29.7 120.449 30.2333 120.836 30.94C121.223 31.6467 121.416 32.5 121.416 33.5V40H119.156V33.84C119.156 32.8533 118.909 32.1 118.416 31.58C117.923 31.0467 117.249 30.78 116.396 30.78C115.543 30.78 114.863 31.0467 114.356 31.58C113.863 32.1 113.616 32.8533 113.616 33.84V40H111.336V28.98H113.616V30.24C113.989 29.7867 114.463 29.4333 115.036 29.18C115.623 28.9267 116.243 28.8 116.896 28.8ZM128.324 40.18C127.458 40.18 126.678 40.0267 125.984 39.72C125.304 39.4 124.764 38.9733 124.364 38.44C123.964 37.8933 123.751 37.2867 123.724 36.62H126.084C126.124 37.0867 126.344 37.48 126.744 37.8C127.158 38.1067 127.671 38.26 128.284 38.26C128.924 38.26 129.418 38.14 129.764 37.9C130.124 37.6467 130.304 37.3267 130.304 36.94C130.304 36.5267 130.104 36.22 129.704 36.02C129.318 35.82 128.698 35.6 127.844 35.36C127.018 35.1333 126.344 34.9133 125.824 34.7C125.304 34.4867 124.851 34.16 124.464 33.72C124.091 33.28 123.904 32.7 123.904 31.98C123.904 31.3933 124.078 30.86 124.424 30.38C124.771 29.8867 125.264 29.5 125.904 29.22C126.558 28.94 127.304 28.8 128.144 28.8C129.398 28.8 130.404 29.12 131.164 29.76C131.938 30.3867 132.351 31.2467 132.404 32.34H130.124C130.084 31.8467 129.884 31.4533 129.524 31.16C129.164 30.8667 128.678 30.72 128.064 30.72C127.464 30.72 127.004 30.8333 126.684 31.06C126.364 31.2867 126.204 31.5867 126.204 31.96C126.204 32.2533 126.311 32.5 126.524 32.7C126.738 32.9 126.998 33.06 127.304 33.18C127.611 33.2867 128.064 33.4267 128.664 33.6C129.464 33.8133 130.118 34.0333 130.624 34.26C131.144 34.4733 131.591 34.7933 131.964 35.22C132.338 35.6467 132.531 36.2133 132.544 36.92C132.544 37.5467 132.371 38.1067 132.024 38.6C131.678 39.0933 131.184 39.48 130.544 39.76C129.918 40.04 129.178 40.18 128.324 40.18ZM139.788 40.18C138.748 40.18 137.808 39.9467 136.968 39.48C136.128 39 135.468 38.3333 134.988 37.48C134.508 36.6133 134.268 35.6133 134.268 34.48C134.268 33.36 134.514 32.3667 135.008 31.5C135.501 30.6333 136.174 29.9667 137.028 29.5C137.881 29.0333 138.834 28.8 139.888 28.8C140.941 28.8 141.894 29.0333 142.748 29.5C143.601 29.9667 144.274 30.6333 144.768 31.5C145.261 32.3667 145.508 33.36 145.508 34.48C145.508 35.6 145.254 36.5933 144.748 37.46C144.241 38.3267 143.548 39 142.668 39.48C141.801 39.9467 140.841 40.18 139.788 40.18ZM139.788 38.2C140.374 38.2 140.921 38.06 141.428 37.78C141.948 37.5 142.368 37.08 142.688 36.52C143.008 35.96 143.168 35.28 143.168 34.48C143.168 33.68 143.014 33.0067 142.708 32.46C142.401 31.9 141.994 31.48 141.488 31.2C140.981 30.92 140.434 30.78 139.848 30.78C139.261 30.78 138.714 30.92 138.208 31.2C137.714 31.48 137.321 31.9 137.028 32.46C136.734 33.0067 136.588 33.68 136.588 34.48C136.588 35.6667 136.888 36.5867 137.488 37.24C138.101 37.88 138.868 38.2 139.788 38.2ZM150.042 30.58C150.375 30.02 150.815 29.5867 151.362 29.28C151.922 28.96 152.582 28.8 153.342 28.8V31.16H152.762C151.868 31.16 151.188 31.3867 150.722 31.84C150.268 32.2933 150.042 33.08 150.042 34.2V40H147.762V28.98H150.042V30.58ZM165.358 28.98L158.598 45.18H156.238L158.478 39.82L154.138 28.98H156.678L159.778 37.38L162.998 28.98H165.358Z" fill="white"/>
</g>
</svg>
