<svg width="250" height="66" viewBox="0 0 250 66" fill="none" xmlns="http://www.w3.org/2000/svg">
<path d="M202.857 0L250 66H0V0H202.857Z" fill="#1DFFEB"/>
<path d="M81.1041 40.14C79.8108 40.14 78.6308 39.84 77.5641 39.24C76.4975 38.6267 75.6508 37.78 75.0241 36.7C74.4108 35.6067 74.1041 34.38 74.1041 33.02C74.1041 31.66 74.4108 30.44 75.0241 29.36C75.6508 28.2667 76.4975 27.42 77.5641 26.82C78.6308 26.2067 79.8108 25.9 81.1041 25.9C82.4108 25.9 83.5975 26.2067 84.6641 26.82C85.7308 27.42 86.5708 28.26 87.1841 29.34C87.7975 30.42 88.1041 31.6467 88.1041 33.02C88.1041 34.3933 87.7975 35.62 87.1841 36.7C86.5708 37.78 85.7308 38.6267 84.6641 39.24C83.5975 39.84 82.4108 40.14 81.1041 40.14ZM81.1041 38.56C82.0775 38.56 82.9508 38.3333 83.7241 37.88C84.5108 37.4267 85.1241 36.78 85.5641 35.94C86.0175 35.1 86.2441 34.1267 86.2441 33.02C86.2441 31.9 86.0175 30.9267 85.5641 30.1C85.1241 29.26 84.5175 28.6133 83.7441 28.16C82.9708 27.7067 82.0908 27.48 81.1041 27.48C80.1175 27.48 79.2375 27.7067 78.4641 28.16C77.6908 28.6133 77.0775 29.26 76.6241 30.1C76.1841 30.9267 75.9641 31.9 75.9641 33.02C75.9641 34.1267 76.1841 35.1 76.6241 35.94C77.0775 36.78 77.6908 37.4267 78.4641 37.88C79.2508 38.3333 80.1308 38.56 81.1041 38.56ZM92.3268 30.82C92.6468 30.1933 93.1001 29.7067 93.6868 29.36C94.2868 29.0133 95.0135 28.84 95.8668 28.84V30.72H95.3868C93.3468 30.72 92.3268 31.8267 92.3268 34.04V40H90.5068V29.04H92.3268V30.82ZM97.2877 34.48C97.2877 33.36 97.5144 32.38 97.9677 31.54C98.4211 30.6867 99.0411 30.0267 99.8277 29.56C100.628 29.0933 101.514 28.86 102.488 28.86C103.448 28.86 104.281 29.0667 104.988 29.48C105.694 29.8933 106.221 30.4133 106.568 31.04V29.04H108.408V40H106.568V37.96C106.208 38.6 105.668 39.1333 104.948 39.56C104.241 39.9733 103.414 40.18 102.468 40.18C101.494 40.18 100.614 39.94 99.8277 39.46C99.0411 38.98 98.4211 38.3067 97.9677 37.44C97.5144 36.5733 97.2877 35.5867 97.2877 34.48ZM106.568 34.5C106.568 33.6733 106.401 32.9533 106.068 32.34C105.734 31.7267 105.281 31.26 104.708 30.94C104.148 30.6067 103.528 30.44 102.848 30.44C102.168 30.44 101.548 30.6 100.988 30.92C100.428 31.24 99.9811 31.7067 99.6477 32.32C99.3144 32.9333 99.1477 33.6533 99.1477 34.48C99.1477 35.32 99.3144 36.0533 99.6477 36.68C99.9811 37.2933 100.428 37.7667 100.988 38.1C101.548 38.42 102.168 38.58 102.848 38.58C103.528 38.58 104.148 38.42 104.708 38.1C105.281 37.7667 105.734 37.2933 106.068 36.68C106.401 36.0533 106.568 35.3267 106.568 34.5ZM113.303 25.2V40H111.483V25.2H113.303ZM135.877 26.16V40H134.057V29.68L129.457 40H128.177L123.557 29.66V40H121.737V26.16H123.697L128.817 37.6L133.937 26.16H135.877ZM143.744 40.18C142.717 40.18 141.784 39.9467 140.944 39.48C140.117 39.0133 139.464 38.3533 138.984 37.5C138.517 36.6333 138.284 35.6333 138.284 34.5C138.284 33.38 138.524 32.3933 139.004 31.54C139.497 30.6733 140.164 30.0133 141.004 29.56C141.844 29.0933 142.784 28.86 143.824 28.86C144.864 28.86 145.804 29.0933 146.644 29.56C147.484 30.0133 148.144 30.6667 148.624 31.52C149.117 32.3733 149.364 33.3667 149.364 34.5C149.364 35.6333 149.11 36.6333 148.604 37.5C148.11 38.3533 147.437 39.0133 146.584 39.48C145.73 39.9467 144.784 40.18 143.744 40.18ZM143.744 38.58C144.397 38.58 145.01 38.4267 145.584 38.12C146.157 37.8133 146.617 37.3533 146.964 36.74C147.324 36.1267 147.504 35.38 147.504 34.5C147.504 33.62 147.33 32.8733 146.984 32.26C146.637 31.6467 146.184 31.1933 145.624 30.9C145.064 30.5933 144.457 30.44 143.804 30.44C143.137 30.44 142.524 30.5933 141.964 30.9C141.417 31.1933 140.977 31.6467 140.644 32.26C140.31 32.8733 140.144 33.62 140.144 34.5C140.144 35.3933 140.304 36.1467 140.624 36.76C140.957 37.3733 141.397 37.8333 141.944 38.14C142.49 38.4333 143.09 38.58 143.744 38.58ZM153.977 30.54V37C153.977 37.5333 154.09 37.9133 154.317 38.14C154.543 38.3533 154.937 38.46 155.497 38.46H156.837V40H155.197C154.183 40 153.423 39.7667 152.917 39.3C152.41 38.8333 152.157 38.0667 152.157 37V30.54H150.737V29.04H152.157V26.28H153.977V29.04H156.837V30.54H153.977ZM163.822 40.18C162.795 40.18 161.862 39.9467 161.022 39.48C160.195 39.0133 159.542 38.3533 159.062 37.5C158.595 36.6333 158.362 35.6333 158.362 34.5C158.362 33.38 158.602 32.3933 159.082 31.54C159.575 30.6733 160.242 30.0133 161.082 29.56C161.922 29.0933 162.862 28.86 163.902 28.86C164.942 28.86 165.882 29.0933 166.722 29.56C167.562 30.0133 168.222 30.6667 168.702 31.52C169.195 32.3733 169.442 33.3667 169.442 34.5C169.442 35.6333 169.189 36.6333 168.682 37.5C168.189 38.3533 167.515 39.0133 166.662 39.48C165.809 39.9467 164.862 40.18 163.822 40.18ZM163.822 38.58C164.475 38.58 165.089 38.4267 165.662 38.12C166.235 37.8133 166.695 37.3533 167.042 36.74C167.402 36.1267 167.582 35.38 167.582 34.5C167.582 33.62 167.409 32.8733 167.062 32.26C166.715 31.6467 166.262 31.1933 165.702 30.9C165.142 30.5933 164.535 30.44 163.882 30.44C163.215 30.44 162.602 30.5933 162.042 30.9C161.495 31.1933 161.055 31.6467 160.722 32.26C160.389 32.8733 160.222 33.62 160.222 34.5C160.222 35.3933 160.382 36.1467 160.702 36.76C161.035 37.3733 161.475 37.8333 162.022 38.14C162.569 38.4333 163.169 38.58 163.822 38.58ZM173.655 30.82C173.975 30.1933 174.428 29.7067 175.015 29.36C175.615 29.0133 176.342 28.84 177.195 28.84V30.72H176.715C174.675 30.72 173.655 31.8267 173.655 34.04V40H171.835V29.04H173.655V30.82Z" fill="#131313"/>
</svg>
