<svg width="298" height="66" viewBox="0 0 298 66" fill="none" xmlns="http://www.w3.org/2000/svg">
<path d="M0.857422 66L48.0003 0H298V66H0.857422Z" fill="#009285"/>
<path d="M110.143 40.14C109.209 40.14 108.369 39.98 107.623 39.66C106.876 39.3267 106.289 38.86 105.863 38.26C105.436 37.66 105.223 36.96 105.223 36.16H107.663C107.716 36.76 107.949 37.2533 108.363 37.64C108.789 38.0267 109.383 38.22 110.143 38.22C110.929 38.22 111.543 38.0333 111.983 37.66C112.423 37.2733 112.643 36.78 112.643 36.18C112.643 35.7133 112.503 35.3333 112.223 35.04C111.956 34.7467 111.616 34.52 111.203 34.36C110.803 34.2 110.243 34.0267 109.523 33.84C108.616 33.6 107.876 33.36 107.303 33.12C106.743 32.8667 106.263 32.48 105.863 31.96C105.463 31.44 105.263 30.7467 105.263 29.88C105.263 29.08 105.463 28.38 105.863 27.78C106.263 27.18 106.823 26.72 107.543 26.4C108.263 26.08 109.096 25.92 110.043 25.92C111.389 25.92 112.489 26.26 113.343 26.94C114.209 27.6067 114.689 28.5267 114.783 29.7H112.263C112.223 29.1933 111.983 28.76 111.543 28.4C111.103 28.04 110.523 27.86 109.803 27.86C109.149 27.86 108.616 28.0267 108.203 28.36C107.789 28.6933 107.583 29.1733 107.583 29.8C107.583 30.2267 107.709 30.58 107.963 30.86C108.229 31.1267 108.563 31.34 108.963 31.5C109.363 31.66 109.909 31.8333 110.603 32.02C111.523 32.2733 112.269 32.5267 112.843 32.78C113.429 33.0333 113.923 33.4267 114.323 33.96C114.736 34.48 114.943 35.18 114.943 36.06C114.943 36.7667 114.749 37.4333 114.363 38.06C113.989 38.6867 113.436 39.1933 112.703 39.58C111.983 39.9533 111.129 40.14 110.143 40.14ZM127.733 34.22C127.733 34.6333 127.706 35.0067 127.653 35.34H119.233C119.299 36.22 119.626 36.9267 120.213 37.46C120.799 37.9933 121.519 38.26 122.373 38.26C123.599 38.26 124.466 37.7467 124.973 36.72H127.433C127.099 37.7333 126.493 38.5667 125.613 39.22C124.746 39.86 123.666 40.18 122.373 40.18C121.319 40.18 120.373 39.9467 119.533 39.48C118.706 39 118.053 38.3333 117.573 37.48C117.106 36.6133 116.873 35.6133 116.873 34.48C116.873 33.3467 117.099 32.3533 117.553 31.5C118.019 30.6333 118.666 29.9667 119.493 29.5C120.333 29.0333 121.293 28.8 122.373 28.8C123.413 28.8 124.339 29.0267 125.153 29.48C125.966 29.9333 126.599 30.5733 127.053 31.4C127.506 32.2133 127.733 33.1533 127.733 34.22ZM125.353 33.5C125.339 32.66 125.039 31.9867 124.453 31.48C123.866 30.9733 123.139 30.72 122.273 30.72C121.486 30.72 120.813 30.9733 120.253 31.48C119.693 31.9733 119.359 32.6467 119.253 33.5H125.353ZM132.257 25.2V40H129.977V25.2H132.257ZM139.87 30.84H137.83V40H135.53V30.84H134.23V28.98H135.53V28.2C135.53 26.9333 135.863 26.0133 136.53 25.44C137.21 24.8533 138.27 24.56 139.71 24.56V26.46C139.017 26.46 138.53 26.5933 138.25 26.86C137.97 27.1133 137.83 27.56 137.83 28.2V28.98H139.87V30.84ZM155.266 26.1V27.96H149.366V32.06H153.966V33.92H149.366V40H147.086V26.1H155.266ZM167.479 34.22C167.479 34.6333 167.452 35.0067 167.399 35.34H158.979C159.046 36.22 159.372 36.9267 159.959 37.46C160.546 37.9933 161.266 38.26 162.119 38.26C163.346 38.26 164.212 37.7467 164.719 36.72H167.179C166.846 37.7333 166.239 38.5667 165.359 39.22C164.492 39.86 163.412 40.18 162.119 40.18C161.066 40.18 160.119 39.9467 159.279 39.48C158.452 39 157.799 38.3333 157.319 37.48C156.852 36.6133 156.619 35.6133 156.619 34.48C156.619 33.3467 156.846 32.3533 157.299 31.5C157.766 30.6333 158.412 29.9667 159.239 29.5C160.079 29.0333 161.039 28.8 162.119 28.8C163.159 28.8 164.086 29.0267 164.899 29.48C165.712 29.9333 166.346 30.5733 166.799 31.4C167.252 32.2133 167.479 33.1533 167.479 34.22ZM165.099 33.5C165.086 32.66 164.786 31.9867 164.199 31.48C163.612 30.9733 162.886 30.72 162.019 30.72C161.232 30.72 160.559 30.9733 159.999 31.48C159.439 31.9733 159.106 32.6467 158.999 33.5H165.099ZM179.823 34.22C179.823 34.6333 179.796 35.0067 179.743 35.34H171.323C171.389 36.22 171.716 36.9267 172.303 37.46C172.889 37.9933 173.609 38.26 174.463 38.26C175.689 38.26 176.556 37.7467 177.063 36.72H179.523C179.189 37.7333 178.583 38.5667 177.703 39.22C176.836 39.86 175.756 40.18 174.463 40.18C173.409 40.18 172.463 39.9467 171.623 39.48C170.796 39 170.143 38.3333 169.663 37.48C169.196 36.6133 168.963 35.6133 168.963 34.48C168.963 33.3467 169.189 32.3533 169.643 31.5C170.109 30.6333 170.756 29.9667 171.583 29.5C172.423 29.0333 173.383 28.8 174.463 28.8C175.503 28.8 176.429 29.0267 177.243 29.48C178.056 29.9333 178.689 30.5733 179.143 31.4C179.596 32.2133 179.823 33.1533 179.823 34.22ZM177.443 33.5C177.429 32.66 177.129 31.9867 176.543 31.48C175.956 30.9733 175.229 30.72 174.363 30.72C173.576 30.72 172.903 30.9733 172.343 31.48C171.783 31.9733 171.449 32.6467 171.343 33.5H177.443ZM181.306 34.44C181.306 33.3333 181.533 32.3533 181.986 31.5C182.453 30.6467 183.08 29.9867 183.866 29.52C184.666 29.04 185.553 28.8 186.526 28.8C187.246 28.8 187.953 28.96 188.646 29.28C189.353 29.5867 189.913 30 190.326 30.52V25.2H192.626V40H190.326V38.34C189.953 38.8733 189.433 39.3133 188.766 39.66C188.113 40.0067 187.36 40.18 186.506 40.18C185.546 40.18 184.666 39.94 183.866 39.46C183.08 38.9667 182.453 38.2867 181.986 37.42C181.533 36.54 181.306 35.5467 181.306 34.44ZM190.326 34.48C190.326 33.72 190.166 33.06 189.846 32.5C189.54 31.94 189.133 31.5133 188.626 31.22C188.12 30.9267 187.573 30.78 186.986 30.78C186.4 30.78 185.853 30.9267 185.346 31.22C184.84 31.5 184.426 31.92 184.106 32.48C183.8 33.0267 183.646 33.68 183.646 34.44C183.646 35.2 183.8 35.8667 184.106 36.44C184.426 37.0133 184.84 37.4533 185.346 37.76C185.866 38.0533 186.413 38.2 186.986 38.2C187.573 38.2 188.12 38.0533 188.626 37.76C189.133 37.4667 189.54 37.04 189.846 36.48C190.166 35.9067 190.326 35.24 190.326 34.48ZM196.781 27.52C196.368 27.52 196.021 27.38 195.741 27.1C195.461 26.82 195.321 26.4733 195.321 26.06C195.321 25.6467 195.461 25.3 195.741 25.02C196.021 24.74 196.368 24.6 196.781 24.6C197.181 24.6 197.521 24.74 197.801 25.02C198.081 25.3 198.221 25.6467 198.221 26.06C198.221 26.4733 198.081 26.82 197.801 27.1C197.521 27.38 197.181 27.52 196.781 27.52ZM197.901 28.98V40H195.621V28.98H197.901ZM206.455 28.8C207.321 28.8 208.095 28.98 208.775 29.34C209.468 29.7 210.008 30.2333 210.395 30.94C210.781 31.6467 210.975 32.5 210.975 33.5V40H208.715V33.84C208.715 32.8533 208.468 32.1 207.975 31.58C207.481 31.0467 206.808 30.78 205.955 30.78C205.101 30.78 204.421 31.0467 203.915 31.58C203.421 32.1 203.175 32.8533 203.175 33.84V40H200.895V28.98H203.175V30.24C203.548 29.7867 204.021 29.4333 204.595 29.18C205.181 28.9267 205.801 28.8 206.455 28.8ZM218.323 28.8C219.176 28.8 219.929 28.9733 220.583 29.32C221.249 29.6533 221.769 30.0733 222.143 30.58V28.98H224.443V40.18C224.443 41.1933 224.229 42.0933 223.803 42.88C223.376 43.68 222.756 44.3067 221.943 44.76C221.143 45.2133 220.183 45.44 219.063 45.44C217.569 45.44 216.329 45.0867 215.343 44.38C214.356 43.6867 213.796 42.74 213.663 41.54H215.923C216.096 42.1133 216.463 42.5733 217.023 42.92C217.596 43.28 218.276 43.46 219.063 43.46C219.983 43.46 220.723 43.18 221.283 42.62C221.856 42.06 222.143 41.2467 222.143 40.18V38.34C221.756 38.86 221.229 39.3 220.563 39.66C219.909 40.0067 219.163 40.18 218.323 40.18C217.363 40.18 216.483 39.94 215.683 39.46C214.896 38.9667 214.269 38.2867 213.803 37.42C213.349 36.54 213.123 35.5467 213.123 34.44C213.123 33.3333 213.349 32.3533 213.803 31.5C214.269 30.6467 214.896 29.9867 215.683 29.52C216.483 29.04 217.363 28.8 218.323 28.8ZM222.143 34.48C222.143 33.72 221.983 33.06 221.663 32.5C221.356 31.94 220.949 31.5133 220.443 31.22C219.936 30.9267 219.389 30.78 218.803 30.78C218.216 30.78 217.669 30.9267 217.163 31.22C216.656 31.5 216.243 31.92 215.923 32.48C215.616 33.0267 215.463 33.68 215.463 34.44C215.463 35.2 215.616 35.8667 215.923 36.44C216.243 37.0133 216.656 37.4533 217.163 37.76C217.683 38.0533 218.229 38.2 218.803 38.2C219.389 38.2 219.936 38.0533 220.443 37.76C220.949 37.4667 221.356 37.04 221.663 36.48C221.983 35.9067 222.143 35.24 222.143 34.48Z" fill="white"/>
</svg>
