<svg width="406" height="66" viewBox="0 0 406 66" fill="none" xmlns="http://www.w3.org/2000/svg">
<path d="M0.142578 66L47.2854 0H358.714L405.857 66H0.142578Z" fill="#FED966"/>
<path d="M139.662 26.06V27.54H133.602V32.24H138.522V33.72H133.602V40H131.782V26.06H139.662ZM146.64 40.18C145.614 40.18 144.68 39.9467 143.84 39.48C143.014 39.0133 142.36 38.3533 141.88 37.5C141.414 36.6333 141.18 35.6333 141.18 34.5C141.18 33.38 141.42 32.3933 141.9 31.54C142.394 30.6733 143.06 30.0133 143.9 29.56C144.74 29.0933 145.68 28.86 146.72 28.86C147.76 28.86 148.7 29.0933 149.54 29.56C150.38 30.0133 151.04 30.6667 151.52 31.52C152.014 32.3733 152.26 33.3667 152.26 34.5C152.26 35.6333 152.007 36.6333 151.5 37.5C151.007 38.3533 150.334 39.0133 149.48 39.48C148.627 39.9467 147.68 40.18 146.64 40.18ZM146.64 38.58C147.294 38.58 147.907 38.4267 148.48 38.12C149.054 37.8133 149.514 37.3533 149.86 36.74C150.22 36.1267 150.4 35.38 150.4 34.5C150.4 33.62 150.227 32.8733 149.88 32.26C149.534 31.6467 149.08 31.1933 148.52 30.9C147.96 30.5933 147.354 30.44 146.7 30.44C146.034 30.44 145.42 30.5933 144.86 30.9C144.314 31.1933 143.874 31.6467 143.54 32.26C143.207 32.8733 143.04 33.62 143.04 34.5C143.04 35.3933 143.2 36.1467 143.52 36.76C143.854 37.3733 144.294 37.8333 144.84 38.14C145.387 38.4333 145.987 38.58 146.64 38.58ZM159.433 40.18C158.407 40.18 157.473 39.9467 156.633 39.48C155.807 39.0133 155.153 38.3533 154.673 37.5C154.207 36.6333 153.973 35.6333 153.973 34.5C153.973 33.38 154.213 32.3933 154.693 31.54C155.187 30.6733 155.853 30.0133 156.693 29.56C157.533 29.0933 158.473 28.86 159.513 28.86C160.553 28.86 161.493 29.0933 162.333 29.56C163.173 30.0133 163.833 30.6667 164.313 31.52C164.807 32.3733 165.053 33.3667 165.053 34.5C165.053 35.6333 164.8 36.6333 164.293 37.5C163.8 38.3533 163.127 39.0133 162.273 39.48C161.42 39.9467 160.473 40.18 159.433 40.18ZM159.433 38.58C160.087 38.58 160.7 38.4267 161.273 38.12C161.847 37.8133 162.307 37.3533 162.653 36.74C163.013 36.1267 163.193 35.38 163.193 34.5C163.193 33.62 163.02 32.8733 162.673 32.26C162.327 31.6467 161.873 31.1933 161.313 30.9C160.753 30.5933 160.147 30.44 159.493 30.44C158.827 30.44 158.213 30.5933 157.653 30.9C157.107 31.1933 156.667 31.6467 156.333 32.26C156 32.8733 155.833 33.62 155.833 34.5C155.833 35.3933 155.993 36.1467 156.313 36.76C156.647 37.3733 157.087 37.8333 157.633 38.14C158.18 38.4333 158.78 38.58 159.433 38.58ZM166.766 34.48C166.766 33.36 166.993 32.38 167.446 31.54C167.9 30.6867 168.52 30.0267 169.306 29.56C170.106 29.0933 171 28.86 171.986 28.86C172.84 28.86 173.633 29.06 174.366 29.46C175.1 29.8467 175.66 30.36 176.046 31V25.2H177.886V40H176.046V37.94C175.686 38.5933 175.153 39.1333 174.446 39.56C173.74 39.9733 172.913 40.18 171.966 40.18C170.993 40.18 170.106 39.94 169.306 39.46C168.52 38.98 167.9 38.3067 167.446 37.44C166.993 36.5733 166.766 35.5867 166.766 34.48ZM176.046 34.5C176.046 33.6733 175.88 32.9533 175.546 32.34C175.213 31.7267 174.76 31.26 174.186 30.94C173.626 30.6067 173.006 30.44 172.326 30.44C171.646 30.44 171.026 30.6 170.466 30.92C169.906 31.24 169.46 31.7067 169.126 32.32C168.793 32.9333 168.626 33.6533 168.626 34.48C168.626 35.32 168.793 36.0533 169.126 36.68C169.46 37.2933 169.906 37.7667 170.466 38.1C171.026 38.42 171.646 38.58 172.326 38.58C173.006 38.58 173.626 38.42 174.186 38.1C174.76 37.7667 175.213 37.2933 175.546 36.68C175.88 36.0533 176.046 35.3267 176.046 34.5ZM200.434 26.16V40H198.614V29.68L194.014 40H192.734L188.114 29.66V40H186.294V26.16H188.254L193.374 37.6L198.494 26.16H200.434ZM202.84 34.48C202.84 33.36 203.067 32.38 203.52 31.54C203.974 30.6867 204.594 30.0267 205.38 29.56C206.18 29.0933 207.067 28.86 208.04 28.86C209 28.86 209.834 29.0667 210.54 29.48C211.247 29.8933 211.774 30.4133 212.12 31.04V29.04H213.96V40H212.12V37.96C211.76 38.6 211.22 39.1333 210.5 39.56C209.794 39.9733 208.967 40.18 208.02 40.18C207.047 40.18 206.167 39.94 205.38 39.46C204.594 38.98 203.974 38.3067 203.52 37.44C203.067 36.5733 202.84 35.5867 202.84 34.48ZM212.12 34.5C212.12 33.6733 211.954 32.9533 211.62 32.34C211.287 31.7267 210.834 31.26 210.26 30.94C209.7 30.6067 209.08 30.44 208.4 30.44C207.72 30.44 207.1 30.6 206.54 30.92C205.98 31.24 205.534 31.7067 205.2 32.32C204.867 32.9333 204.7 33.6533 204.7 34.48C204.7 35.32 204.867 36.0533 205.2 36.68C205.534 37.2933 205.98 37.7667 206.54 38.1C207.1 38.42 207.72 38.58 208.4 38.58C209.08 38.58 209.7 38.42 210.26 38.1C210.834 37.7667 211.287 37.2933 211.62 36.68C211.954 36.0533 212.12 35.3267 212.12 34.5ZM218.856 31.06C219.216 30.4333 219.749 29.9133 220.456 29.5C221.176 29.0733 222.009 28.86 222.956 28.86C223.929 28.86 224.809 29.0933 225.596 29.56C226.396 30.0267 227.023 30.6867 227.476 31.54C227.929 32.38 228.156 33.36 228.156 34.48C228.156 35.5867 227.929 36.5733 227.476 37.44C227.023 38.3067 226.396 38.98 225.596 39.46C224.809 39.94 223.929 40.18 222.956 40.18C222.023 40.18 221.196 39.9733 220.476 39.56C219.769 39.1333 219.229 38.6067 218.856 37.98V45.2H217.036V29.04H218.856V31.06ZM226.296 34.48C226.296 33.6533 226.129 32.9333 225.796 32.32C225.463 31.7067 225.009 31.24 224.436 30.92C223.876 30.6 223.256 30.44 222.576 30.44C221.909 30.44 221.289 30.6067 220.716 30.94C220.156 31.26 219.703 31.7333 219.356 32.36C219.023 32.9733 218.856 33.6867 218.856 34.5C218.856 35.3267 219.023 36.0533 219.356 36.68C219.703 37.2933 220.156 37.7667 220.716 38.1C221.289 38.42 221.909 38.58 222.576 38.58C223.256 38.58 223.876 38.42 224.436 38.1C225.009 37.7667 225.463 37.2933 225.796 36.68C226.129 36.0533 226.296 35.32 226.296 34.48ZM232.372 31.06C232.732 30.4333 233.265 29.9133 233.972 29.5C234.692 29.0733 235.525 28.86 236.472 28.86C237.445 28.86 238.325 29.0933 239.112 29.56C239.912 30.0267 240.538 30.6867 240.992 31.54C241.445 32.38 241.672 33.36 241.672 34.48C241.672 35.5867 241.445 36.5733 240.992 37.44C240.538 38.3067 239.912 38.98 239.112 39.46C238.325 39.94 237.445 40.18 236.472 40.18C235.538 40.18 234.712 39.9733 233.992 39.56C233.285 39.1333 232.745 38.6067 232.372 37.98V45.2H230.552V29.04H232.372V31.06ZM239.812 34.48C239.812 33.6533 239.645 32.9333 239.312 32.32C238.978 31.7067 238.525 31.24 237.952 30.92C237.392 30.6 236.772 30.44 236.092 30.44C235.425 30.44 234.805 30.6067 234.232 30.94C233.672 31.26 233.218 31.7333 232.872 32.36C232.538 32.9733 232.372 33.6867 232.372 34.5C232.372 35.3267 232.538 36.0533 232.872 36.68C233.218 37.2933 233.672 37.7667 234.232 38.1C234.805 38.42 235.425 38.58 236.092 38.58C236.772 38.58 237.392 38.42 237.952 38.1C238.525 37.7667 238.978 37.2933 239.312 36.68C239.645 36.0533 239.812 35.32 239.812 34.48ZM245.007 27.26C244.661 27.26 244.367 27.14 244.127 26.9C243.887 26.66 243.767 26.3667 243.767 26.02C243.767 25.6733 243.887 25.38 244.127 25.14C244.367 24.9 244.661 24.78 245.007 24.78C245.341 24.78 245.621 24.9 245.847 25.14C246.087 25.38 246.207 25.6733 246.207 26.02C246.207 26.3667 246.087 26.66 245.847 26.9C245.621 27.14 245.341 27.26 245.007 27.26ZM245.887 29.04V40H244.067V29.04H245.887ZM254.329 28.84C255.663 28.84 256.743 29.2467 257.569 30.06C258.396 30.86 258.809 32.02 258.809 33.54V40H257.009V33.8C257.009 32.7067 256.736 31.8733 256.189 31.3C255.643 30.7133 254.896 30.42 253.949 30.42C252.989 30.42 252.223 30.72 251.649 31.32C251.089 31.92 250.809 32.7933 250.809 33.94V40H248.989V29.04H250.809V30.6C251.169 30.04 251.656 29.6067 252.269 29.3C252.896 28.9933 253.583 28.84 254.329 28.84ZM266.302 28.86C267.249 28.86 268.076 29.0667 268.782 29.48C269.502 29.8933 270.036 30.4133 270.382 31.04V29.04H272.222V40.24C272.222 41.24 272.009 42.1267 271.582 42.9C271.156 43.6867 270.542 44.3 269.742 44.74C268.956 45.18 268.036 45.4 266.982 45.4C265.542 45.4 264.342 45.06 263.382 44.38C262.422 43.7 261.856 42.7733 261.682 41.6H263.482C263.682 42.2667 264.096 42.8 264.722 43.2C265.349 43.6133 266.102 43.82 266.982 43.82C267.982 43.82 268.796 43.5067 269.422 42.88C270.062 42.2533 270.382 41.3733 270.382 40.24V37.94C270.022 38.58 269.489 39.1133 268.782 39.54C268.076 39.9667 267.249 40.18 266.302 40.18C265.329 40.18 264.442 39.94 263.642 39.46C262.856 38.98 262.236 38.3067 261.782 37.44C261.329 36.5733 261.102 35.5867 261.102 34.48C261.102 33.36 261.329 32.38 261.782 31.54C262.236 30.6867 262.856 30.0267 263.642 29.56C264.442 29.0933 265.329 28.86 266.302 28.86ZM270.382 34.5C270.382 33.6733 270.216 32.9533 269.882 32.34C269.549 31.7267 269.096 31.26 268.522 30.94C267.962 30.6067 267.342 30.44 266.662 30.44C265.982 30.44 265.362 30.6 264.802 30.92C264.242 31.24 263.796 31.7067 263.462 32.32C263.129 32.9333 262.962 33.6533 262.962 34.48C262.962 35.32 263.129 36.0533 263.462 36.68C263.796 37.2933 264.242 37.7667 264.802 38.1C265.362 38.42 265.982 38.58 266.662 38.58C267.342 38.58 267.962 38.42 268.522 38.1C269.096 37.7667 269.549 37.2933 269.882 36.68C270.216 36.0533 270.382 35.3267 270.382 34.5Z" fill="#131313"/>
</svg>
