<svg width="250" height="66" viewBox="0 0 250 66" fill="none" xmlns="http://www.w3.org/2000/svg">
<path d="M173 0.000427246H47.1429L0 66.0004H250V0.000427246H173Z" fill="#02FFA4"/>
<path d="M92.0069 40.14C91.0869 40.14 90.2602 39.98 89.5269 39.66C88.8069 39.3267 88.2402 38.8733 87.8269 38.3C87.4135 37.7133 87.2002 37.04 87.1869 36.28H89.1269C89.1935 36.9333 89.4602 37.4867 89.9269 37.94C90.4069 38.38 91.1002 38.6 92.0069 38.6C92.8735 38.6 93.5535 38.3867 94.0469 37.96C94.5535 37.52 94.8069 36.96 94.8069 36.28C94.8069 35.7467 94.6602 35.3133 94.3669 34.98C94.0735 34.6467 93.7069 34.3933 93.2669 34.22C92.8269 34.0467 92.2335 33.86 91.4869 33.66C90.5669 33.42 89.8269 33.18 89.2669 32.94C88.7202 32.7 88.2469 32.3267 87.8469 31.82C87.4602 31.3 87.2669 30.6067 87.2669 29.74C87.2669 28.98 87.4602 28.3067 87.8469 27.72C88.2335 27.1333 88.7735 26.68 89.4669 26.36C90.1735 26.04 90.9802 25.88 91.8869 25.88C93.1935 25.88 94.2602 26.2067 95.0869 26.86C95.9269 27.5133 96.4002 28.38 96.5069 29.46H94.5069C94.4402 28.9267 94.1602 28.46 93.6669 28.06C93.1735 27.6467 92.5202 27.44 91.7069 27.44C90.9469 27.44 90.3269 27.64 89.8469 28.04C89.3669 28.4267 89.1269 28.9733 89.1269 29.68C89.1269 30.1867 89.2669 30.6 89.5469 30.92C89.8402 31.24 90.1935 31.4867 90.6069 31.66C91.0335 31.82 91.6269 32.0067 92.3869 32.22C93.3069 32.4733 94.0469 32.7267 94.6069 32.98C95.1669 33.22 95.6469 33.6 96.0469 34.12C96.4469 34.6267 96.6469 35.32 96.6469 36.2C96.6469 36.88 96.4669 37.52 96.1069 38.12C95.7469 38.72 95.2135 39.2067 94.5069 39.58C93.8002 39.9533 92.9669 40.14 92.0069 40.14ZM109.325 34.1C109.325 34.4467 109.305 34.8133 109.265 35.2H100.505C100.572 36.28 100.938 37.1267 101.605 37.74C102.285 38.34 103.105 38.64 104.065 38.64C104.852 38.64 105.505 38.46 106.025 38.1C106.558 37.7267 106.932 37.2333 107.145 36.62H109.105C108.812 37.6733 108.225 38.5333 107.345 39.2C106.465 39.8533 105.372 40.18 104.065 40.18C103.025 40.18 102.092 39.9467 101.265 39.48C100.452 39.0133 99.8118 38.3533 99.3452 37.5C98.8785 36.6333 98.6452 35.6333 98.6452 34.5C98.6452 33.3667 98.8718 32.3733 99.3252 31.52C99.7785 30.6667 100.412 30.0133 101.225 29.56C102.052 29.0933 102.998 28.86 104.065 28.86C105.105 28.86 106.025 29.0867 106.825 29.54C107.625 29.9933 108.238 30.62 108.665 31.42C109.105 32.2067 109.325 33.1 109.325 34.1ZM107.445 33.72C107.445 33.0267 107.292 32.4333 106.985 31.94C106.678 31.4333 106.258 31.0533 105.725 30.8C105.205 30.5333 104.625 30.4 103.985 30.4C103.065 30.4 102.278 30.6933 101.625 31.28C100.985 31.8667 100.618 32.68 100.525 33.72H107.445ZM117.068 28.84C118.401 28.84 119.481 29.2467 120.308 30.06C121.134 30.86 121.548 32.02 121.548 33.54V40H119.748V33.8C119.748 32.7067 119.474 31.8733 118.928 31.3C118.381 30.7133 117.634 30.42 116.688 30.42C115.728 30.42 114.961 30.72 114.388 31.32C113.828 31.92 113.548 32.7933 113.548 33.94V40H111.728V29.04H113.548V30.6C113.908 30.04 114.394 29.6067 115.008 29.3C115.634 28.9933 116.321 28.84 117.068 28.84ZM128.4 40.18C127.56 40.18 126.807 40.04 126.14 39.76C125.474 39.4667 124.947 39.0667 124.56 38.56C124.174 38.04 123.96 37.4467 123.92 36.78H125.8C125.854 37.3267 126.107 37.7733 126.56 38.12C127.027 38.4667 127.634 38.64 128.38 38.64C129.074 38.64 129.62 38.4867 130.02 38.18C130.42 37.8733 130.62 37.4867 130.62 37.02C130.62 36.54 130.407 36.1867 129.98 35.96C129.554 35.72 128.894 35.4867 128 35.26C127.187 35.0467 126.52 34.8333 126 34.62C125.494 34.3933 125.054 34.0667 124.68 33.64C124.32 33.2 124.14 32.6267 124.14 31.92C124.14 31.36 124.307 30.8467 124.64 30.38C124.974 29.9133 125.447 29.5467 126.06 29.28C126.674 29 127.374 28.86 128.16 28.86C129.374 28.86 130.354 29.1667 131.1 29.78C131.847 30.3933 132.247 31.2333 132.3 32.3H130.48C130.44 31.7267 130.207 31.2667 129.78 30.92C129.367 30.5733 128.807 30.4 128.1 30.4C127.447 30.4 126.927 30.54 126.54 30.82C126.154 31.1 125.96 31.4667 125.96 31.92C125.96 32.28 126.074 32.58 126.3 32.82C126.54 33.0467 126.834 33.2333 127.18 33.38C127.54 33.5133 128.034 33.6667 128.66 33.84C129.447 34.0533 130.087 34.2667 130.58 34.48C131.074 34.68 131.494 34.9867 131.84 35.4C132.2 35.8133 132.387 36.3533 132.4 37.02C132.4 37.62 132.234 38.16 131.9 38.64C131.567 39.12 131.094 39.5 130.48 39.78C129.88 40.0467 129.187 40.18 128.4 40.18ZM139.75 40.18C138.723 40.18 137.79 39.9467 136.95 39.48C136.123 39.0133 135.47 38.3533 134.99 37.5C134.523 36.6333 134.29 35.6333 134.29 34.5C134.29 33.38 134.53 32.3933 135.01 31.54C135.503 30.6733 136.17 30.0133 137.01 29.56C137.85 29.0933 138.79 28.86 139.83 28.86C140.87 28.86 141.81 29.0933 142.65 29.56C143.49 30.0133 144.15 30.6667 144.63 31.52C145.123 32.3733 145.37 33.3667 145.37 34.5C145.37 35.6333 145.116 36.6333 144.61 37.5C144.116 38.3533 143.443 39.0133 142.59 39.48C141.736 39.9467 140.79 40.18 139.75 40.18ZM139.75 38.58C140.403 38.58 141.016 38.4267 141.59 38.12C142.163 37.8133 142.623 37.3533 142.97 36.74C143.33 36.1267 143.51 35.38 143.51 34.5C143.51 33.62 143.336 32.8733 142.99 32.26C142.643 31.6467 142.19 31.1933 141.63 30.9C141.07 30.5933 140.463 30.44 139.81 30.44C139.143 30.44 138.53 30.5933 137.97 30.9C137.423 31.1933 136.983 31.6467 136.65 32.26C136.316 32.8733 136.15 33.62 136.15 34.5C136.15 35.3933 136.31 36.1467 136.63 36.76C136.963 37.3733 137.403 37.8333 137.95 38.14C138.496 38.4333 139.096 38.58 139.75 38.58ZM149.583 30.82C149.903 30.1933 150.356 29.7067 150.943 29.36C151.543 29.0133 152.269 28.84 153.123 28.84V30.72H152.643C150.603 30.72 149.583 31.8267 149.583 34.04V40H147.763V29.04H149.583V30.82ZM164.664 29.04L158.064 45.16H156.184L158.344 39.88L153.924 29.04H155.944L159.384 37.92L162.784 29.04H164.664Z" fill="#131313"/>
</svg>
