<svg width="225" height="66" viewBox="0 0 225 66" fill="none" xmlns="http://www.w3.org/2000/svg">
<path d="M225 0H0V66H225V0Z" fill="#74EEFF"/>
<path d="M9.92055 33.02C9.92055 31.66 10.2272 30.44 10.8405 29.36C11.4539 28.2667 12.2872 27.4133 13.3405 26.8C14.4072 26.1867 15.5872 25.88 16.8805 25.88C18.4005 25.88 19.7272 26.2467 20.8605 26.98C21.9939 27.7133 22.8205 28.7533 23.3405 30.1H21.1605C20.7739 29.26 20.2139 28.6133 19.4805 28.16C18.7605 27.7067 17.8939 27.48 16.8805 27.48C15.9072 27.48 15.0339 27.7067 14.2605 28.16C13.4872 28.6133 12.8805 29.26 12.4405 30.1C12.0005 30.9267 11.7805 31.9 11.7805 33.02C11.7805 34.1267 12.0005 35.1 12.4405 35.94C12.8805 36.7667 13.4872 37.4067 14.2605 37.86C15.0339 38.3133 15.9072 38.54 16.8805 38.54C17.8939 38.54 18.7605 38.32 19.4805 37.88C20.2139 37.4267 20.7739 36.78 21.1605 35.94H23.3405C22.8205 37.2733 21.9939 38.3067 20.8605 39.04C19.7272 39.76 18.4005 40.12 16.8805 40.12C15.5872 40.12 14.4072 39.82 13.3405 39.22C12.2872 38.6067 11.4539 37.76 10.8405 36.68C10.2272 35.6 9.92055 34.38 9.92055 33.02ZM25.3698 34.48C25.3698 33.36 25.5964 32.38 26.0498 31.54C26.5031 30.6867 27.1231 30.0267 27.9098 29.56C28.7098 29.0933 29.5964 28.86 30.5698 28.86C31.5298 28.86 32.3631 29.0667 33.0698 29.48C33.7764 29.8933 34.3031 30.4133 34.6498 31.04V29.04H36.4898V40H34.6498V37.96C34.2898 38.6 33.7498 39.1333 33.0298 39.56C32.3231 39.9733 31.4964 40.18 30.5498 40.18C29.5764 40.18 28.6964 39.94 27.9098 39.46C27.1231 38.98 26.5031 38.3067 26.0498 37.44C25.5964 36.5733 25.3698 35.5867 25.3698 34.48ZM34.6498 34.5C34.6498 33.6733 34.4831 32.9533 34.1498 32.34C33.8164 31.7267 33.3631 31.26 32.7898 30.94C32.2298 30.6067 31.6098 30.44 30.9298 30.44C30.2498 30.44 29.6298 30.6 29.0698 30.92C28.5098 31.24 28.0631 31.7067 27.7298 32.32C27.3964 32.9333 27.2298 33.6533 27.2298 34.48C27.2298 35.32 27.3964 36.0533 27.7298 36.68C28.0631 37.2933 28.5098 37.7667 29.0698 38.1C29.6298 38.42 30.2498 38.58 30.9298 38.58C31.6098 38.58 32.2298 38.42 32.7898 38.1C33.3631 37.7667 33.8164 37.2933 34.1498 36.68C34.4831 36.0533 34.6498 35.3267 34.6498 34.5ZM41.3854 30.82C41.7054 30.1933 42.1587 29.7067 42.7454 29.36C43.3454 29.0133 44.0721 28.84 44.9254 28.84V30.72H44.4454C42.4054 30.72 41.3854 31.8267 41.3854 34.04V40H39.5654V29.04H41.3854V30.82ZM57.0263 34.1C57.0263 34.4467 57.0063 34.8133 56.9663 35.2H48.2063C48.273 36.28 48.6397 37.1267 49.3063 37.74C49.9863 38.34 50.8063 38.64 51.7663 38.64C52.553 38.64 53.2063 38.46 53.7263 38.1C54.2597 37.7267 54.633 37.2333 54.8463 36.62H56.8063C56.513 37.6733 55.9263 38.5333 55.0463 39.2C54.1663 39.8533 53.073 40.18 51.7663 40.18C50.7263 40.18 49.793 39.9467 48.9663 39.48C48.153 39.0133 47.513 38.3533 47.0463 37.5C46.5797 36.6333 46.3463 35.6333 46.3463 34.5C46.3463 33.3667 46.573 32.3733 47.0263 31.52C47.4797 30.6667 48.113 30.0133 48.9263 29.56C49.753 29.0933 50.6997 28.86 51.7663 28.86C52.8063 28.86 53.7263 29.0867 54.5263 29.54C55.3263 29.9933 55.9397 30.62 56.3663 31.42C56.8063 32.2067 57.0263 33.1 57.0263 34.1ZM55.1463 33.72C55.1463 33.0267 54.993 32.4333 54.6863 31.94C54.3797 31.4333 53.9597 31.0533 53.4263 30.8C52.9063 30.5333 52.3263 30.4 51.6863 30.4C50.7663 30.4 49.9797 30.6933 49.3263 31.28C48.6863 31.8667 48.3197 32.68 48.2263 33.72H55.1463ZM63.9487 28.86C64.8953 28.86 65.722 29.0667 66.4287 29.48C67.1487 29.8933 67.682 30.4133 68.0287 31.04V29.04H69.8687V40.24C69.8687 41.24 69.6553 42.1267 69.2287 42.9C68.802 43.6867 68.1887 44.3 67.3887 44.74C66.602 45.18 65.682 45.4 64.6287 45.4C63.1887 45.4 61.9887 45.06 61.0287 44.38C60.0687 43.7 59.502 42.7733 59.3287 41.6H61.1287C61.3287 42.2667 61.742 42.8 62.3687 43.2C62.9953 43.6133 63.7487 43.82 64.6287 43.82C65.6287 43.82 66.442 43.5067 67.0687 42.88C67.7087 42.2533 68.0287 41.3733 68.0287 40.24V37.94C67.6687 38.58 67.1353 39.1133 66.4287 39.54C65.722 39.9667 64.8953 40.18 63.9487 40.18C62.9753 40.18 62.0887 39.94 61.2887 39.46C60.502 38.98 59.882 38.3067 59.4287 37.44C58.9753 36.5733 58.7487 35.5867 58.7487 34.48C58.7487 33.36 58.9753 32.38 59.4287 31.54C59.882 30.6867 60.502 30.0267 61.2887 29.56C62.0887 29.0933 62.9753 28.86 63.9487 28.86ZM68.0287 34.5C68.0287 33.6733 67.862 32.9533 67.5287 32.34C67.1953 31.7267 66.742 31.26 66.1687 30.94C65.6087 30.6067 64.9887 30.44 64.3087 30.44C63.6287 30.44 63.0087 30.6 62.4487 30.92C61.8887 31.24 61.442 31.7067 61.1087 32.32C60.7753 32.9333 60.6087 33.6533 60.6087 34.48C60.6087 35.32 60.7753 36.0533 61.1087 36.68C61.442 37.2933 61.8887 37.7667 62.4487 38.1C63.0087 38.42 63.6287 38.58 64.3087 38.58C64.9887 38.58 65.6087 38.42 66.1687 38.1C66.742 37.7667 67.1953 37.2933 67.5287 36.68C67.862 36.0533 68.0287 35.3267 68.0287 34.5ZM73.8843 27.26C73.5376 27.26 73.2443 27.14 73.0043 26.9C72.7643 26.66 72.6443 26.3667 72.6443 26.02C72.6443 25.6733 72.7643 25.38 73.0043 25.14C73.2443 24.9 73.5376 24.78 73.8843 24.78C74.2176 24.78 74.4976 24.9 74.7243 25.14C74.9643 25.38 75.0843 25.6733 75.0843 26.02C75.0843 26.3667 74.9643 26.66 74.7243 26.9C74.4976 27.14 74.2176 27.26 73.8843 27.26ZM74.7643 29.04V40H72.9443V29.04H74.7643ZM81.9462 38.32L85.3462 29.04H87.2862L82.9862 40H80.8662L76.5662 29.04H78.5262L81.9462 38.32ZM99.0771 34.1C99.0771 34.4467 99.0571 34.8133 99.0171 35.2H90.2571C90.3238 36.28 90.6904 37.1267 91.3571 37.74C92.0371 38.34 92.8571 38.64 93.8171 38.64C94.6038 38.64 95.2571 38.46 95.7771 38.1C96.3104 37.7267 96.6838 37.2333 96.8971 36.62H98.8571C98.5638 37.6733 97.9771 38.5333 97.0971 39.2C96.2171 39.8533 95.1238 40.18 93.8171 40.18C92.7771 40.18 91.8438 39.9467 91.0171 39.48C90.2038 39.0133 89.5638 38.3533 89.0971 37.5C88.6304 36.6333 88.3971 35.6333 88.3971 34.5C88.3971 33.3667 88.6238 32.3733 89.0771 31.52C89.5304 30.6667 90.1638 30.0133 90.9771 29.56C91.8038 29.0933 92.7504 28.86 93.8171 28.86C94.8571 28.86 95.7771 29.0867 96.5771 29.54C97.3771 29.9933 97.9904 30.62 98.4171 31.42C98.8571 32.2067 99.0771 33.1 99.0771 34.1ZM97.1971 33.72C97.1971 33.0267 97.0438 32.4333 96.7371 31.94C96.4304 31.4333 96.0104 31.0533 95.4771 30.8C94.9571 30.5333 94.3771 30.4 93.7371 30.4C92.8171 30.4 92.0304 30.6933 91.3771 31.28C90.7371 31.8667 90.3704 32.68 90.2771 33.72H97.1971ZM103.299 30.82C103.619 30.1933 104.073 29.7067 104.659 29.36C105.259 29.0133 105.986 28.84 106.839 28.84V30.72H106.359C104.319 30.72 103.299 31.8267 103.299 34.04V40H101.479V29.04H103.299V30.82ZM112.82 40.18C111.98 40.18 111.227 40.04 110.56 39.76C109.894 39.4667 109.367 39.0667 108.98 38.56C108.594 38.04 108.38 37.4467 108.34 36.78H110.22C110.274 37.3267 110.527 37.7733 110.98 38.12C111.447 38.4667 112.054 38.64 112.8 38.64C113.494 38.64 114.04 38.4867 114.44 38.18C114.84 37.8733 115.04 37.4867 115.04 37.02C115.04 36.54 114.827 36.1867 114.4 35.96C113.974 35.72 113.314 35.4867 112.42 35.26C111.607 35.0467 110.94 34.8333 110.42 34.62C109.914 34.3933 109.474 34.0667 109.1 33.64C108.74 33.2 108.56 32.6267 108.56 31.92C108.56 31.36 108.727 30.8467 109.06 30.38C109.394 29.9133 109.867 29.5467 110.48 29.28C111.094 29 111.794 28.86 112.58 28.86C113.794 28.86 114.774 29.1667 115.52 29.78C116.267 30.3933 116.667 31.2333 116.72 32.3H114.9C114.86 31.7267 114.627 31.2667 114.2 30.92C113.787 30.5733 113.227 30.4 112.52 30.4C111.867 30.4 111.347 30.54 110.96 30.82C110.574 31.1 110.38 31.4667 110.38 31.92C110.38 32.28 110.494 32.58 110.72 32.82C110.96 33.0467 111.254 33.2333 111.6 33.38C111.96 33.5133 112.454 33.6667 113.08 33.84C113.867 34.0533 114.507 34.2667 115 34.48C115.494 34.68 115.914 34.9867 116.26 35.4C116.62 35.8133 116.807 36.3533 116.82 37.02C116.82 37.62 116.654 38.16 116.32 38.64C115.987 39.12 115.514 39.5 114.9 39.78C114.3 40.0467 113.607 40.18 112.82 40.18ZM126.542 26.06V40H124.722V26.06H126.542ZM134.984 28.84C136.317 28.84 137.397 29.2467 138.224 30.06C139.05 30.86 139.464 32.02 139.464 33.54V40H137.664V33.8C137.664 32.7067 137.39 31.8733 136.844 31.3C136.297 30.7133 135.55 30.42 134.604 30.42C133.644 30.42 132.877 30.72 132.304 31.32C131.744 31.92 131.464 32.7933 131.464 33.94V40H129.644V29.04H131.464V30.6C131.824 30.04 132.31 29.6067 132.924 29.3C133.55 28.9933 134.237 28.84 134.984 28.84ZM146.896 30.54H144.596V40H142.776V30.54H141.356V29.04H142.776V28.26C142.776 27.0333 143.09 26.14 143.716 25.58C144.356 25.0067 145.376 24.72 146.776 24.72V26.24C145.976 26.24 145.41 26.4 145.076 26.72C144.756 27.0267 144.596 27.54 144.596 28.26V29.04H146.896V30.54ZM150.839 25.2V40H149.019V25.2H150.839ZM163.66 29.04V40H161.84V38.38C161.494 38.94 161.007 39.38 160.38 39.7C159.767 40.0067 159.087 40.16 158.34 40.16C157.487 40.16 156.72 39.9867 156.04 39.64C155.36 39.28 154.82 38.7467 154.42 38.04C154.034 37.3333 153.84 36.4733 153.84 35.46V29.04H155.64V35.22C155.64 36.3 155.914 37.1333 156.46 37.72C157.007 38.2933 157.754 38.58 158.7 38.58C159.674 38.58 160.44 38.28 161 37.68C161.56 37.08 161.84 36.2067 161.84 35.06V29.04H163.66ZM176.733 34.1C176.733 34.4467 176.713 34.8133 176.673 35.2H167.913C167.98 36.28 168.347 37.1267 169.013 37.74C169.693 38.34 170.513 38.64 171.473 38.64C172.26 38.64 172.913 38.46 173.433 38.1C173.967 37.7267 174.34 37.2333 174.553 36.62H176.513C176.22 37.6733 175.633 38.5333 174.753 39.2C173.873 39.8533 172.78 40.18 171.473 40.18C170.433 40.18 169.5 39.9467 168.673 39.48C167.86 39.0133 167.22 38.3533 166.753 37.5C166.287 36.6333 166.053 35.6333 166.053 34.5C166.053 33.3667 166.28 32.3733 166.733 31.52C167.187 30.6667 167.82 30.0133 168.633 29.56C169.46 29.0933 170.407 28.86 171.473 28.86C172.513 28.86 173.433 29.0867 174.233 29.54C175.033 29.9933 175.647 30.62 176.073 31.42C176.513 32.2067 176.733 33.1 176.733 34.1ZM174.853 33.72C174.853 33.0267 174.7 32.4333 174.393 31.94C174.087 31.4333 173.667 31.0533 173.133 30.8C172.613 30.5333 172.033 30.4 171.393 30.4C170.473 30.4 169.687 30.6933 169.033 31.28C168.393 31.8667 168.027 32.68 167.933 33.72H174.853ZM184.476 28.84C185.809 28.84 186.889 29.2467 187.716 30.06C188.542 30.86 188.956 32.02 188.956 33.54V40H187.156V33.8C187.156 32.7067 186.882 31.8733 186.336 31.3C185.789 30.7133 185.042 30.42 184.096 30.42C183.136 30.42 182.369 30.72 181.796 31.32C181.236 31.92 180.956 32.7933 180.956 33.94V40H179.136V29.04H180.956V30.6C181.316 30.04 181.802 29.6067 182.416 29.3C183.042 28.9933 183.729 28.84 184.476 28.84ZM191.249 34.5C191.249 33.3667 191.475 32.38 191.929 31.54C192.382 30.6867 193.009 30.0267 193.809 29.56C194.622 29.0933 195.549 28.86 196.589 28.86C197.935 28.86 199.042 29.1867 199.909 29.84C200.789 30.4933 201.369 31.4 201.649 32.56H199.689C199.502 31.8933 199.135 31.3667 198.589 30.98C198.055 30.5933 197.389 30.4 196.589 30.4C195.549 30.4 194.709 30.76 194.069 31.48C193.429 32.1867 193.109 33.1933 193.109 34.5C193.109 35.82 193.429 36.84 194.069 37.56C194.709 38.28 195.549 38.64 196.589 38.64C197.389 38.64 198.055 38.4533 198.589 38.08C199.122 37.7067 199.489 37.1733 199.689 36.48H201.649C201.355 37.6 200.769 38.5 199.889 39.18C199.009 39.8467 197.909 40.18 196.589 40.18C195.549 40.18 194.622 39.9467 193.809 39.48C193.009 39.0133 192.382 38.3533 191.929 37.5C191.475 36.6467 191.249 35.6467 191.249 34.5ZM214.077 34.1C214.077 34.4467 214.057 34.8133 214.017 35.2H205.257C205.324 36.28 205.69 37.1267 206.357 37.74C207.037 38.34 207.857 38.64 208.817 38.64C209.604 38.64 210.257 38.46 210.777 38.1C211.31 37.7267 211.684 37.2333 211.897 36.62H213.857C213.564 37.6733 212.977 38.5333 212.097 39.2C211.217 39.8533 210.124 40.18 208.817 40.18C207.777 40.18 206.844 39.9467 206.017 39.48C205.204 39.0133 204.564 38.3533 204.097 37.5C203.63 36.6333 203.397 35.6333 203.397 34.5C203.397 33.3667 203.624 32.3733 204.077 31.52C204.53 30.6667 205.164 30.0133 205.977 29.56C206.804 29.0933 207.75 28.86 208.817 28.86C209.857 28.86 210.777 29.0867 211.577 29.54C212.377 29.9933 212.99 30.62 213.417 31.42C213.857 32.2067 214.077 33.1 214.077 34.1ZM212.197 33.72C212.197 33.0267 212.044 32.4333 211.737 31.94C211.43 31.4333 211.01 31.0533 210.477 30.8C209.957 30.5333 209.377 30.4 208.737 30.4C207.817 30.4 207.03 30.6933 206.377 31.28C205.737 31.8667 205.37 32.68 205.277 33.72H212.197Z" fill="#131313"/>
</svg>
