<svg width="225" height="66" viewBox="0 0 225 66" fill="none" xmlns="http://www.w3.org/2000/svg">
<path d="M225 0H0V66H225V0Z" fill="#00E0FF"/>
<path d="M53.0062 26.16V40H51.1862V29.68L46.5862 40H45.3062L40.6862 29.66V40H38.8662V26.16H40.8262L45.9462 37.6L51.0662 26.16H53.0062ZM66.0927 34.1C66.0927 34.4467 66.0727 34.8133 66.0327 35.2H57.2727C57.3394 36.28 57.7061 37.1267 58.3727 37.74C59.0527 38.34 59.8727 38.64 60.8327 38.64C61.6194 38.64 62.2727 38.46 62.7927 38.1C63.3261 37.7267 63.6994 37.2333 63.9127 36.62H65.8727C65.5794 37.6733 64.9927 38.5333 64.1127 39.2C63.2327 39.8533 62.1394 40.18 60.8327 40.18C59.7927 40.18 58.8594 39.9467 58.0327 39.48C57.2194 39.0133 56.5794 38.3533 56.1127 37.5C55.6461 36.6333 55.4127 35.6333 55.4127 34.5C55.4127 33.3667 55.6394 32.3733 56.0927 31.52C56.5461 30.6667 57.1794 30.0133 57.9927 29.56C58.8194 29.0933 59.7661 28.86 60.8327 28.86C61.8727 28.86 62.7927 29.0867 63.5927 29.54C64.3927 29.9933 65.0061 30.62 65.4327 31.42C65.8727 32.2067 66.0927 33.1 66.0927 34.1ZM64.2127 33.72C64.2127 33.0267 64.0594 32.4333 63.7527 31.94C63.4461 31.4333 63.0261 31.0533 62.4927 30.8C61.9727 30.5333 61.3927 30.4 60.7527 30.4C59.8327 30.4 59.0461 30.6933 58.3927 31.28C57.7527 31.8667 57.3861 32.68 57.2927 33.72H64.2127ZM67.8151 34.48C67.8151 33.36 68.0417 32.38 68.4951 31.54C68.9484 30.6867 69.5684 30.0267 70.3551 29.56C71.1551 29.0933 72.0417 28.86 73.0151 28.86C73.9751 28.86 74.8084 29.0667 75.5151 29.48C76.2217 29.8933 76.7484 30.4133 77.0951 31.04V29.04H78.9351V40H77.0951V37.96C76.7351 38.6 76.1951 39.1333 75.4751 39.56C74.7684 39.9733 73.9417 40.18 72.9951 40.18C72.0217 40.18 71.1417 39.94 70.3551 39.46C69.5684 38.98 68.9484 38.3067 68.4951 37.44C68.0417 36.5733 67.8151 35.5867 67.8151 34.48ZM77.0951 34.5C77.0951 33.6733 76.9284 32.9533 76.5951 32.34C76.2617 31.7267 75.8084 31.26 75.2351 30.94C74.6751 30.6067 74.0551 30.44 73.3751 30.44C72.6951 30.44 72.0751 30.6 71.5151 30.92C70.9551 31.24 70.5084 31.7067 70.1751 32.32C69.8417 32.9333 69.6751 33.6533 69.6751 34.48C69.6751 35.32 69.8417 36.0533 70.1751 36.68C70.5084 37.2933 70.9551 37.7667 71.5151 38.1C72.0751 38.42 72.6951 38.58 73.3751 38.58C74.0551 38.58 74.6751 38.42 75.2351 38.1C75.8084 37.7667 76.2617 37.2933 76.5951 36.68C76.9284 36.0533 77.0951 35.3267 77.0951 34.5ZM83.8307 25.2V40H82.0107V25.2H83.8307ZM89.1526 30.54V37C89.1526 37.5333 89.2659 37.9133 89.4926 38.14C89.7192 38.3533 90.1126 38.46 90.6726 38.46H92.0126V40H90.3726C89.3592 40 88.5992 39.7667 88.0926 39.3C87.5859 38.8333 87.3326 38.0667 87.3326 37V30.54H85.9126V29.04H87.3326V26.28H89.1526V29.04H92.0126V30.54H89.1526ZM95.1577 27.26C94.8111 27.26 94.5177 27.14 94.2777 26.9C94.0377 26.66 93.9177 26.3667 93.9177 26.02C93.9177 25.6733 94.0377 25.38 94.2777 25.14C94.5177 24.9 94.8111 24.78 95.1577 24.78C95.4911 24.78 95.7711 24.9 95.9977 25.14C96.2377 25.38 96.3577 25.6733 96.3577 26.02C96.3577 26.3667 96.2377 26.66 95.9977 26.9C95.7711 27.14 95.4911 27.26 95.1577 27.26ZM96.0377 29.04V40H94.2177V29.04H96.0377ZM112.32 28.84C113.173 28.84 113.933 29.02 114.6 29.38C115.266 29.7267 115.793 30.2533 116.18 30.96C116.566 31.6667 116.76 32.5267 116.76 33.54V40H114.96V33.8C114.96 32.7067 114.686 31.8733 114.14 31.3C113.606 30.7133 112.88 30.42 111.96 30.42C111.013 30.42 110.26 30.7267 109.7 31.34C109.14 31.94 108.86 32.8133 108.86 33.96V40H107.06V33.8C107.06 32.7067 106.786 31.8733 106.24 31.3C105.706 30.7133 104.98 30.42 104.06 30.42C103.113 30.42 102.36 30.7267 101.8 31.34C101.24 31.94 100.96 32.8133 100.96 33.96V40H99.1396V29.04H100.96V30.62C101.32 30.0467 101.8 29.6067 102.4 29.3C103.013 28.9933 103.686 28.84 104.42 28.84C105.34 28.84 106.153 29.0467 106.86 29.46C107.566 29.8733 108.093 30.48 108.44 31.28C108.746 30.5067 109.253 29.9067 109.96 29.48C110.666 29.0533 111.453 28.84 112.32 28.84ZM129.745 34.1C129.745 34.4467 129.725 34.8133 129.685 35.2H120.925C120.992 36.28 121.358 37.1267 122.025 37.74C122.705 38.34 123.525 38.64 124.485 38.64C125.272 38.64 125.925 38.46 126.445 38.1C126.978 37.7267 127.352 37.2333 127.565 36.62H129.525C129.232 37.6733 128.645 38.5333 127.765 39.2C126.885 39.8533 125.792 40.18 124.485 40.18C123.445 40.18 122.512 39.9467 121.685 39.48C120.872 39.0133 120.232 38.3533 119.765 37.5C119.298 36.6333 119.065 35.6333 119.065 34.5C119.065 33.3667 119.292 32.3733 119.745 31.52C120.198 30.6667 120.832 30.0133 121.645 29.56C122.472 29.0933 123.418 28.86 124.485 28.86C125.525 28.86 126.445 29.0867 127.245 29.54C128.045 29.9933 128.658 30.62 129.085 31.42C129.525 32.2067 129.745 33.1 129.745 34.1ZM127.865 33.72C127.865 33.0267 127.712 32.4333 127.405 31.94C127.098 31.4333 126.678 31.0533 126.145 30.8C125.625 30.5333 125.045 30.4 124.405 30.4C123.485 30.4 122.698 30.6933 122.045 31.28C121.405 31.8667 121.038 32.68 120.945 33.72H127.865ZM144.819 40L141.499 34.3H139.299V40H137.479V26.06H141.979C143.033 26.06 143.919 26.24 144.639 26.6C145.373 26.96 145.919 27.4467 146.279 28.06C146.639 28.6733 146.819 29.3733 146.819 30.16C146.819 31.12 146.539 31.9667 145.979 32.7C145.433 33.4333 144.606 33.92 143.499 34.16L146.999 40H144.819ZM139.299 32.84H141.979C142.966 32.84 143.706 32.6 144.199 32.12C144.693 31.6267 144.939 30.9733 144.939 30.16C144.939 29.3333 144.693 28.6933 144.199 28.24C143.719 27.7867 142.979 27.56 141.979 27.56H139.299V32.84ZM154.427 40.18C153.401 40.18 152.467 39.9467 151.627 39.48C150.801 39.0133 150.147 38.3533 149.667 37.5C149.201 36.6333 148.967 35.6333 148.967 34.5C148.967 33.38 149.207 32.3933 149.687 31.54C150.181 30.6733 150.847 30.0133 151.687 29.56C152.527 29.0933 153.467 28.86 154.507 28.86C155.547 28.86 156.487 29.0933 157.327 29.56C158.167 30.0133 158.827 30.6667 159.307 31.52C159.801 32.3733 160.047 33.3667 160.047 34.5C160.047 35.6333 159.794 36.6333 159.287 37.5C158.794 38.3533 158.121 39.0133 157.267 39.48C156.414 39.9467 155.467 40.18 154.427 40.18ZM154.427 38.58C155.081 38.58 155.694 38.4267 156.267 38.12C156.841 37.8133 157.301 37.3533 157.647 36.74C158.007 36.1267 158.187 35.38 158.187 34.5C158.187 33.62 158.014 32.8733 157.667 32.26C157.321 31.6467 156.867 31.1933 156.307 30.9C155.747 30.5933 155.141 30.44 154.487 30.44C153.821 30.44 153.207 30.5933 152.647 30.9C152.101 31.1933 151.661 31.6467 151.327 32.26C150.994 32.8733 150.827 33.62 150.827 34.5C150.827 35.3933 150.987 36.1467 151.307 36.76C151.641 37.3733 152.081 37.8333 152.627 38.14C153.174 38.4333 153.774 38.58 154.427 38.58ZM164.26 25.2V40H162.44V25.2H164.26ZM177.362 34.1C177.362 34.4467 177.342 34.8133 177.302 35.2H168.542C168.609 36.28 168.976 37.1267 169.642 37.74C170.322 38.34 171.142 38.64 172.102 38.64C172.889 38.64 173.542 38.46 174.062 38.1C174.596 37.7267 174.969 37.2333 175.182 36.62H177.142C176.849 37.6733 176.262 38.5333 175.382 39.2C174.502 39.8533 173.409 40.18 172.102 40.18C171.062 40.18 170.129 39.9467 169.302 39.48C168.489 39.0133 167.849 38.3533 167.382 37.5C166.916 36.6333 166.682 35.6333 166.682 34.5C166.682 33.3667 166.909 32.3733 167.362 31.52C167.816 30.6667 168.449 30.0133 169.262 29.56C170.089 29.0933 171.036 28.86 172.102 28.86C173.142 28.86 174.062 29.0867 174.862 29.54C175.662 29.9933 176.276 30.62 176.702 31.42C177.142 32.2067 177.362 33.1 177.362 34.1ZM175.482 33.72C175.482 33.0267 175.329 32.4333 175.022 31.94C174.716 31.4333 174.296 31.0533 173.762 30.8C173.242 30.5333 172.662 30.4 172.022 30.4C171.102 30.4 170.316 30.6933 169.662 31.28C169.022 31.8667 168.656 32.68 168.562 33.72H175.482ZM183.645 40.18C182.805 40.18 182.051 40.04 181.385 39.76C180.718 39.4667 180.191 39.0667 179.805 38.56C179.418 38.04 179.205 37.4467 179.165 36.78H181.045C181.098 37.3267 181.351 37.7733 181.805 38.12C182.271 38.4667 182.878 38.64 183.625 38.64C184.318 38.64 184.865 38.4867 185.265 38.18C185.665 37.8733 185.865 37.4867 185.865 37.02C185.865 36.54 185.651 36.1867 185.225 35.96C184.798 35.72 184.138 35.4867 183.245 35.26C182.431 35.0467 181.765 34.8333 181.245 34.62C180.738 34.3933 180.298 34.0667 179.925 33.64C179.565 33.2 179.385 32.6267 179.385 31.92C179.385 31.36 179.551 30.8467 179.885 30.38C180.218 29.9133 180.691 29.5467 181.305 29.28C181.918 29 182.618 28.86 183.405 28.86C184.618 28.86 185.598 29.1667 186.345 29.78C187.091 30.3933 187.491 31.2333 187.545 32.3H185.725C185.685 31.7267 185.451 31.2667 185.025 30.92C184.611 30.5733 184.051 30.4 183.345 30.4C182.691 30.4 182.171 30.54 181.785 30.82C181.398 31.1 181.205 31.4667 181.205 31.92C181.205 32.28 181.318 32.58 181.545 32.82C181.785 33.0467 182.078 33.2333 182.425 33.38C182.785 33.5133 183.278 33.6667 183.905 33.84C184.691 34.0533 185.331 34.2667 185.825 34.48C186.318 34.68 186.738 34.9867 187.085 35.4C187.445 35.8133 187.631 36.3533 187.645 37.02C187.645 37.62 187.478 38.16 187.145 38.64C186.811 39.12 186.338 39.5 185.725 39.78C185.125 40.0467 184.431 40.18 183.645 40.18Z" fill="#131313"/>
</svg>
