<svg width="218" height="152" viewBox="0 0 218 152" fill="none" xmlns="http://www.w3.org/2000/svg">
<path d="M217.572 152L109 0L0.428711 152H217.572Z" fill="#FFCB1C"/>
<path d="M84.2084 89.06L78.9484 103H76.8484L71.5884 89.06H73.5284L77.9084 101.08L82.2884 89.06H84.2084ZM85.5241 97.48C85.5241 96.36 85.7507 95.38 86.2041 94.54C86.6574 93.6867 87.2774 93.0267 88.0641 92.56C88.8641 92.0933 89.7507 91.86 90.7241 91.86C91.6841 91.86 92.5174 92.0667 93.2241 92.48C93.9307 92.8933 94.4574 93.4133 94.8041 94.04V92.04H96.6441V103H94.8041V100.96C94.4441 101.6 93.9041 102.133 93.1841 102.56C92.4774 102.973 91.6507 103.18 90.7041 103.18C89.7307 103.18 88.8507 102.94 88.0641 102.46C87.2774 101.98 86.6574 101.307 86.2041 100.44C85.7507 99.5733 85.5241 98.5867 85.5241 97.48ZM94.8041 97.5C94.8041 96.6733 94.6374 95.9533 94.3041 95.34C93.9707 94.7267 93.5174 94.26 92.9441 93.94C92.3841 93.6067 91.7641 93.44 91.0841 93.44C90.4041 93.44 89.7841 93.6 89.2241 93.92C88.6641 94.24 88.2174 94.7067 87.8841 95.32C87.5507 95.9333 87.3841 96.6533 87.3841 97.48C87.3841 98.32 87.5507 99.0533 87.8841 99.68C88.2174 100.293 88.6641 100.767 89.2241 101.1C89.7841 101.42 90.4041 101.58 91.0841 101.58C91.7641 101.58 92.3841 101.42 92.9441 101.1C93.5174 100.767 93.9707 100.293 94.3041 99.68C94.6374 99.0533 94.8041 98.3267 94.8041 97.5ZM101.54 93.82C101.86 93.1933 102.313 92.7067 102.9 92.36C103.5 92.0133 104.226 91.84 105.08 91.84V93.72H104.6C102.56 93.72 101.54 94.8267 101.54 97.04V103H99.7197V92.04H101.54V93.82ZM108.121 90.26C107.774 90.26 107.481 90.14 107.241 89.9C107.001 89.66 106.881 89.3667 106.881 89.02C106.881 88.6733 107.001 88.38 107.241 88.14C107.481 87.9 107.774 87.78 108.121 87.78C108.454 87.78 108.734 87.9 108.961 88.14C109.201 88.38 109.321 88.6733 109.321 89.02C109.321 89.3667 109.201 89.66 108.961 89.9C108.734 90.14 108.454 90.26 108.121 90.26ZM109.001 92.04V103H107.181V92.04H109.001ZM122.103 97.1C122.103 97.4467 122.083 97.8133 122.043 98.2H113.283C113.349 99.28 113.716 100.127 114.383 100.74C115.063 101.34 115.883 101.64 116.843 101.64C117.629 101.64 118.283 101.46 118.803 101.1C119.336 100.727 119.709 100.233 119.923 99.62H121.883C121.589 100.673 121.003 101.533 120.123 102.2C119.243 102.853 118.149 103.18 116.843 103.18C115.803 103.18 114.869 102.947 114.043 102.48C113.229 102.013 112.589 101.353 112.123 100.5C111.656 99.6333 111.423 98.6333 111.423 97.5C111.423 96.3667 111.649 95.3733 112.103 94.52C112.556 93.6667 113.189 93.0133 114.003 92.56C114.829 92.0933 115.776 91.86 116.843 91.86C117.883 91.86 118.803 92.0867 119.603 92.54C120.403 92.9933 121.016 93.62 121.443 94.42C121.883 95.2067 122.103 96.1 122.103 97.1ZM120.223 96.72C120.223 96.0267 120.069 95.4333 119.763 94.94C119.456 94.4333 119.036 94.0533 118.503 93.8C117.983 93.5333 117.403 93.4 116.763 93.4C115.843 93.4 115.056 93.6933 114.403 94.28C113.763 94.8667 113.396 95.68 113.303 96.72H120.223ZM126.725 93.54V100C126.725 100.533 126.838 100.913 127.065 101.14C127.292 101.353 127.685 101.46 128.245 101.46H129.585V103H127.945C126.932 103 126.172 102.767 125.665 102.3C125.158 101.833 124.905 101.067 124.905 100V93.54H123.485V92.04H124.905V89.28H126.725V92.04H129.585V93.54H126.725ZM141.23 92.04L134.63 108.16H132.75L134.91 102.88L130.49 92.04H132.51L135.95 100.92L139.35 92.04H141.23ZM72.6658 127L70.8458 125.16C70.1658 125.867 69.4391 126.393 68.6658 126.74C67.8924 127.073 67.0191 127.24 66.0458 127.24C65.0858 127.24 64.2324 127.067 63.4858 126.72C62.7524 126.373 62.1791 125.88 61.7658 125.24C61.3658 124.6 61.1658 123.853 61.1658 123C61.1658 122.027 61.4391 121.173 61.9858 120.44C62.5458 119.693 63.3658 119.107 64.4458 118.68C64.0191 118.173 63.7124 117.707 63.5258 117.28C63.3391 116.853 63.2458 116.387 63.2458 115.88C63.2458 115.293 63.3924 114.767 63.6858 114.3C63.9924 113.82 64.4258 113.447 64.9858 113.18C65.5458 112.913 66.1924 112.78 66.9258 112.78C67.6458 112.78 68.2724 112.92 68.8058 113.2C69.3391 113.48 69.7391 113.873 70.0058 114.38C70.2724 114.873 70.3924 115.427 70.3658 116.04H68.5458C68.5591 115.493 68.4058 115.067 68.0858 114.76C67.7658 114.44 67.3524 114.28 66.8458 114.28C66.3124 114.28 65.8791 114.433 65.5458 114.74C65.2258 115.033 65.0658 115.413 65.0658 115.88C65.0658 116.28 65.1724 116.667 65.3858 117.04C65.6124 117.413 65.9858 117.873 66.5058 118.42L70.6658 122.6L71.0258 122.04L72.3858 119.76H74.3458L72.7058 122.6C72.4791 123 72.2124 123.42 71.9058 123.86L75.0458 127H72.6658ZM66.0458 125.68C66.7658 125.68 67.4124 125.54 67.9858 125.26C68.5724 124.98 69.1258 124.547 69.6458 123.96L65.5458 119.84C63.8391 120.493 62.9858 121.527 62.9858 122.94C62.9858 123.727 63.2658 124.38 63.8258 124.9C64.3991 125.42 65.1391 125.68 66.0458 125.68ZM93.603 113.06L88.343 127H86.243L80.983 113.06H82.923L87.303 125.08L91.683 113.06H93.603ZM100.379 127.18C99.3519 127.18 98.4186 126.947 97.5786 126.48C96.7519 126.013 96.0986 125.353 95.6186 124.5C95.1519 123.633 94.9186 122.633 94.9186 121.5C94.9186 120.38 95.1586 119.393 95.6386 118.54C96.1319 117.673 96.7986 117.013 97.6386 116.56C98.4786 116.093 99.4186 115.86 100.459 115.86C101.499 115.86 102.439 116.093 103.279 116.56C104.119 117.013 104.779 117.667 105.259 118.52C105.752 119.373 105.999 120.367 105.999 121.5C105.999 122.633 105.745 123.633 105.239 124.5C104.745 125.353 104.072 126.013 103.219 126.48C102.365 126.947 101.419 127.18 100.379 127.18ZM100.379 125.58C101.032 125.58 101.645 125.427 102.219 125.12C102.792 124.813 103.252 124.353 103.599 123.74C103.959 123.127 104.139 122.38 104.139 121.5C104.139 120.62 103.965 119.873 103.619 119.26C103.272 118.647 102.819 118.193 102.259 117.9C101.699 117.593 101.092 117.44 100.439 117.44C99.7719 117.44 99.1586 117.593 98.5986 117.9C98.0519 118.193 97.6119 118.647 97.2786 119.26C96.9453 119.873 96.7786 120.62 96.7786 121.5C96.7786 122.393 96.9386 123.147 97.2586 123.76C97.5919 124.373 98.0319 124.833 98.5786 125.14C99.1253 125.433 99.7253 125.58 100.379 125.58ZM110.212 112.2V127H108.392V112.2H110.212ZM123.033 116.04V127H121.213V125.38C120.867 125.94 120.38 126.38 119.753 126.7C119.14 127.007 118.46 127.16 117.713 127.16C116.86 127.16 116.093 126.987 115.413 126.64C114.733 126.28 114.193 125.747 113.793 125.04C113.407 124.333 113.213 123.473 113.213 122.46V116.04H115.013V122.22C115.013 123.3 115.287 124.133 115.833 124.72C116.38 125.293 117.127 125.58 118.073 125.58C119.047 125.58 119.813 125.28 120.373 124.68C120.933 124.08 121.213 123.207 121.213 122.06V116.04H123.033ZM139.286 115.84C140.14 115.84 140.9 116.02 141.566 116.38C142.233 116.727 142.76 117.253 143.146 117.96C143.533 118.667 143.726 119.527 143.726 120.54V127H141.926V120.8C141.926 119.707 141.653 118.873 141.106 118.3C140.573 117.713 139.846 117.42 138.926 117.42C137.98 117.42 137.226 117.727 136.666 118.34C136.106 118.94 135.826 119.813 135.826 120.96V127H134.026V120.8C134.026 119.707 133.753 118.873 133.206 118.3C132.673 117.713 131.946 117.42 131.026 117.42C130.08 117.42 129.326 117.727 128.766 118.34C128.206 118.94 127.926 119.813 127.926 120.96V127H126.106V116.04H127.926V117.62C128.286 117.047 128.766 116.607 129.366 116.3C129.98 115.993 130.653 115.84 131.386 115.84C132.306 115.84 133.12 116.047 133.826 116.46C134.533 116.873 135.06 117.48 135.406 118.28C135.713 117.507 136.22 116.907 136.926 116.48C137.633 116.053 138.42 115.84 139.286 115.84ZM156.712 121.1C156.712 121.447 156.692 121.813 156.652 122.2H147.892C147.959 123.28 148.325 124.127 148.992 124.74C149.672 125.34 150.492 125.64 151.452 125.64C152.239 125.64 152.892 125.46 153.412 125.1C153.945 124.727 154.319 124.233 154.532 123.62H156.492C156.199 124.673 155.612 125.533 154.732 126.2C153.852 126.853 152.759 127.18 151.452 127.18C150.412 127.18 149.479 126.947 148.652 126.48C147.839 126.013 147.199 125.353 146.732 124.5C146.265 123.633 146.032 122.633 146.032 121.5C146.032 120.367 146.259 119.373 146.712 118.52C147.165 117.667 147.799 117.013 148.612 116.56C149.439 116.093 150.385 115.86 151.452 115.86C152.492 115.86 153.412 116.087 154.212 116.54C155.012 116.993 155.625 117.62 156.052 118.42C156.492 119.207 156.712 120.1 156.712 121.1ZM154.832 120.72C154.832 120.027 154.679 119.433 154.372 118.94C154.065 118.433 153.645 118.053 153.112 117.8C152.592 117.533 152.012 117.4 151.372 117.4C150.452 117.4 149.665 117.693 149.012 118.28C148.372 118.867 148.005 119.68 147.912 120.72H154.832Z" fill="#131313"/>
</svg>
