<svg width="40" height="40" viewBox="0 0 40 40" fill="none" xmlns="http://www.w3.org/2000/svg">
<path d="M6 20.2C6 14.9203 6 12.2804 7.6402 10.6402C9.28041 9 11.9203 9 17.2 9H22.8C28.0797 9 30.7197 9 32.3598 10.6402C34 12.2804 34 14.9203 34 20.2C34 25.4797 34 28.1197 32.3598 29.7598C30.7197 31.4 28.0797 31.4 22.8 31.4H17.2C11.9203 31.4 9.28041 31.4 7.6402 29.7598C6 28.1197 6 25.4797 6 20.2Z" stroke="#999999"/>
<path d="M15.0999 20.1997C15.0999 21.3596 14.1597 22.2997 12.9999 22.2997C11.8401 22.2997 10.8999 21.3596 10.8999 20.1997C10.8999 19.0399 11.8401 18.0997 12.9999 18.0997C14.1597 18.0997 15.0999 19.0399 15.0999 20.1997Z" fill="#999999"/>
<path d="M22.0998 20.1999C22.0998 21.3597 21.1597 22.2999 19.9998 22.2999C18.84 22.2999 17.8998 21.3597 17.8998 20.1999C17.8998 19.04 18.84 18.0999 19.9998 18.0999C21.1597 18.0999 22.0998 19.04 22.0998 20.1999Z" fill="#999999"/>
<path d="M29.1 20.1999C29.1 21.3597 28.1599 22.2999 27 22.2999C25.8402 22.2999 24.9 21.3597 24.9 20.1999C24.9 19.04 25.8402 18.0999 27 18.0999C28.1599 18.0999 29.1 19.04 29.1 20.1999Z" fill="#999999"/>
</svg>
