<svg width="32" height="32" viewBox="0 0 32 32" fill="none" xmlns="http://www.w3.org/2000/svg">
<path d="M15.9993 20.0003V24.0003M29.3327 16.2723V18.3003C29.3327 23.5003 29.3327 26.1017 27.77 27.7177C26.2073 29.3337 23.694 29.3337 18.666 29.3337H13.3327C8.30468 29.3337 5.79002 29.3337 4.22868 27.7177C2.66735 26.1017 2.66602 23.5017 2.66602 18.3003V16.2723C2.66602 13.2203 2.66602 11.695 3.35935 10.431C4.05002 9.16566 5.31535 8.38166 7.84468 6.81099L10.5113 5.15633C13.1847 3.49633 14.522 2.66699 15.9993 2.66699C17.4767 2.66699 18.8127 3.49633 21.4873 5.15633L24.154 6.81099C26.6833 8.38166 27.9487 9.16566 28.6407 10.431" stroke="#000000" stroke-width="1.5" stroke-linecap="round"/>
</svg>
