<svg width="24" height="24" viewBox="0 0 24 24" fill="none" xmlns="http://www.w3.org/2000/svg">
<mask id="path-1-inside-1_3006_1404" fill="white">
<path d="M20.25 21C20.1515 21.0002 20.0539 20.9808 19.9629 20.9431C19.872 20.9054 19.7893 20.85 19.7198 20.7802L3.21985 4.28016C3.08513 4.13836 3.01114 3.94955 3.01364 3.75398C3.01615 3.55841 3.09495 3.37155 3.23325 3.23325C3.37155 3.09495 3.55841 3.01615 3.75398 3.01364C3.94955 3.01114 4.13836 3.08513 4.28016 3.21985L20.7802 19.7198C20.885 19.8247 20.9564 19.9583 20.9853 20.1038C21.0142 20.2492 20.9993 20.4 20.9426 20.537C20.8858 20.674 20.7898 20.7911 20.6665 20.8735C20.5432 20.9559 20.3983 20.9999 20.25 21ZM11.625 14.8055L9.19735 12.3778C9.18344 12.364 9.16555 12.3549 9.14621 12.3518C9.12687 12.3487 9.10704 12.3517 9.08951 12.3605C9.07197 12.3692 9.05762 12.3832 9.04846 12.4006C9.0393 12.4179 9.0358 12.4376 9.03844 12.457C9.13645 13.0869 9.43218 13.6692 9.88289 14.1199C10.3336 14.5706 10.916 14.8664 11.5458 14.9644C11.5652 14.967 11.5849 14.9635 11.6023 14.9544C11.6196 14.9452 11.6336 14.9308 11.6423 14.9133C11.6511 14.8958 11.6541 14.8759 11.651 14.8566C11.6479 14.8373 11.6388 14.8194 11.625 14.8055ZM12.375 9.19453L14.8064 11.625C14.8203 11.639 14.8382 11.6483 14.8577 11.6515C14.8771 11.6547 14.8971 11.6517 14.9147 11.6429C14.9323 11.6342 14.9468 11.6201 14.9559 11.6026C14.9651 11.5852 14.9686 11.5653 14.9658 11.5458C14.868 10.9151 14.5721 10.3319 14.1208 9.88062C13.6695 9.42933 13.0863 9.13339 12.4556 9.03563C12.4361 9.03261 12.4161 9.03585 12.3985 9.04487C12.381 9.05389 12.3667 9.06824 12.3577 9.08586C12.3488 9.10349 12.3456 9.12348 12.3487 9.143C12.3518 9.16252 12.361 9.18055 12.375 9.19453Z"/>
</mask>
<path d="M20.25 21C20.1515 21.0002 20.0539 20.9808 19.9629 20.9431C19.872 20.9054 19.7893 20.85 19.7198 20.7802L3.21985 4.28016C3.08513 4.13836 3.01114 3.94955 3.01364 3.75398C3.01615 3.55841 3.09495 3.37155 3.23325 3.23325C3.37155 3.09495 3.55841 3.01615 3.75398 3.01364C3.94955 3.01114 4.13836 3.08513 4.28016 3.21985L20.7802 19.7198C20.885 19.8247 20.9564 19.9583 20.9853 20.1038C21.0142 20.2492 20.9993 20.4 20.9426 20.537C20.8858 20.674 20.7898 20.7911 20.6665 20.8735C20.5432 20.9559 20.3983 20.9999 20.25 21ZM11.625 14.8055L9.19735 12.3778C9.18344 12.364 9.16555 12.3549 9.14621 12.3518C9.12687 12.3487 9.10704 12.3517 9.08951 12.3605C9.07197 12.3692 9.05762 12.3832 9.04846 12.4006C9.0393 12.4179 9.0358 12.4376 9.03844 12.457C9.13645 13.0869 9.43218 13.6692 9.88289 14.1199C10.3336 14.5706 10.916 14.8664 11.5458 14.9644C11.5652 14.967 11.5849 14.9635 11.6023 14.9544C11.6196 14.9452 11.6336 14.9308 11.6423 14.9133C11.6511 14.8958 11.6541 14.8759 11.651 14.8566C11.6479 14.8373 11.6388 14.8194 11.625 14.8055ZM12.375 9.19453L14.8064 11.625C14.8203 11.639 14.8382 11.6483 14.8577 11.6515C14.8771 11.6547 14.8971 11.6517 14.9147 11.6429C14.9323 11.6342 14.9468 11.6201 14.9559 11.6026C14.9651 11.5852 14.9686 11.5653 14.9658 11.5458C14.868 10.9151 14.5721 10.3319 14.1208 9.88062C13.6695 9.42933 13.0863 9.13339 12.4556 9.03563C12.4361 9.03261 12.4161 9.03585 12.3985 9.04487C12.381 9.05389 12.3667 9.06824 12.3577 9.08586C12.3488 9.10349 12.3456 9.12348 12.3487 9.143C12.3518 9.16252 12.361 9.18055 12.375 9.19453Z" fill="#999999"/>
<path d="M20.25 21L20.2495 20L20.2484 20L20.25 21ZM19.7198 20.7802L20.4287 20.0748L20.427 20.0731L19.7198 20.7802ZM3.21985 4.28016L2.49487 4.96893L2.50369 4.97821L2.51274 4.98727L3.21985 4.28016ZM4.28016 3.21985L4.98727 2.51274L4.97821 2.50369L4.96893 2.49487L4.28016 3.21985ZM20.7802 19.7198L21.4875 19.013L21.4873 19.0127L20.7802 19.7198ZM11.625 14.8055L12.3351 14.1013L12.3321 14.0984L11.625 14.8055ZM9.19735 12.3778L9.90446 11.6707L9.90149 11.6678L9.19735 12.3778ZM9.03844 12.457L8.04759 12.592L8.04887 12.6014L8.05033 12.6108L9.03844 12.457ZM11.5458 14.9644L11.392 15.9525L11.4014 15.9539L11.4108 15.9552L11.5458 14.9644ZM12.375 9.19453L11.6675 9.90123L11.668 9.90178L12.375 9.19453ZM14.8064 11.625L15.5164 10.9207L15.5134 10.9178L14.8064 11.625ZM14.9658 11.5458L15.9559 11.405L15.954 11.3926L14.9658 11.5458ZM12.4556 9.03563L12.6088 8.04743L12.6081 8.04732L12.4556 9.03563ZM20.2484 20C20.2819 20 20.3151 20.0065 20.346 20.0194L19.5799 21.8668C19.7928 21.9551 20.0211 22.0004 20.2516 22L20.2484 20ZM20.346 20.0194C20.3769 20.0322 20.405 20.051 20.4287 20.0748L19.011 21.4856C19.1736 21.6489 19.367 21.7785 19.5799 21.8668L20.346 20.0194ZM20.427 20.0731L3.92695 3.57305L2.51274 4.98727L19.0127 21.4873L20.427 20.0731ZM3.94482 3.59139C3.98973 3.63865 4.01439 3.70159 4.01356 3.76678L2.01372 3.74118C2.00788 4.19751 2.18053 4.63807 2.49487 4.96893L3.94482 3.59139ZM4.01356 3.76678C4.01273 3.83197 3.98646 3.89426 3.94036 3.94036L2.52614 2.52614C2.20344 2.84885 2.01957 3.28485 2.01372 3.74118L4.01356 3.76678ZM3.94036 3.94036C3.89426 3.98646 3.83197 4.01273 3.76678 4.01356L3.74118 2.01372C3.28485 2.01957 2.84885 2.20344 2.52614 2.52614L3.94036 3.94036ZM3.76678 4.01356C3.70159 4.01439 3.63865 3.98973 3.59139 3.94482L4.96893 2.49487C4.63807 2.18053 4.19751 2.00788 3.74118 2.01372L3.76678 4.01356ZM3.57305 3.92695L20.0731 20.427L21.4873 19.0127L4.98727 2.51274L3.57305 3.92695ZM20.0728 20.4267C20.0379 20.3918 20.0141 20.3472 20.0045 20.2987L21.9661 19.9088C21.8986 19.5695 21.7321 19.2577 21.4875 19.013L20.0728 20.4267ZM20.0045 20.2987C19.9948 20.2503 19.9998 20.2 20.0187 20.1543L21.8665 20.9196C21.9989 20.5999 22.0335 20.2482 21.9661 19.9088L20.0045 20.2987ZM20.0187 20.1543C20.0376 20.1087 20.0696 20.0696 20.1107 20.0422L21.2223 21.7048C21.5099 21.5125 21.7341 21.2393 21.8665 20.9196L20.0187 20.1543ZM20.1107 20.0422C20.1518 20.0147 20.2001 20 20.2495 20L20.2505 22C20.5965 21.9998 20.9347 21.8971 21.2223 21.7048L20.1107 20.0422ZM12.3321 14.0984L9.90445 11.6707L8.49024 13.0849L10.9179 15.5126L12.3321 14.0984ZM9.90149 11.6678C9.73919 11.5068 9.53056 11.4008 9.30491 11.3645L8.98751 13.3391C8.80055 13.3091 8.62768 13.2212 8.4932 13.0879L9.90149 11.6678ZM9.30491 11.3645C9.07929 11.3282 8.84793 11.3635 8.64335 11.4655L9.53566 13.2554C9.36615 13.3399 9.17445 13.3692 8.98751 13.3391L9.30491 11.3645ZM8.64335 11.4655C8.43878 11.5675 8.27133 11.731 8.16448 11.933L9.93244 12.8681C9.84391 13.0355 9.70516 13.1709 9.53566 13.2554L8.64335 11.4655ZM8.16448 11.933C8.05761 12.1351 8.01675 12.3655 8.04759 12.592L10.0293 12.3221C10.0548 12.5097 10.021 12.7007 9.93244 12.8681L8.16448 11.933ZM8.05033 12.6108C8.18095 13.4502 8.57509 14.2263 9.17579 14.827L10.59 13.4128C10.2893 13.1121 10.0919 12.7235 10.0265 12.3033L8.05033 12.6108ZM9.17579 14.827C9.77648 15.4277 10.5526 15.8219 11.392 15.9525L11.6995 13.9763C11.2793 13.9109 10.8907 13.7136 10.59 13.4128L9.17579 14.827ZM11.4108 15.9552C11.6373 15.9861 11.8677 15.9452 12.0698 15.8383L11.1347 14.0704C11.3021 13.9818 11.4931 13.948 11.6807 13.9735L11.4108 15.9552ZM12.0698 15.8383C12.2718 15.7315 12.4353 15.564 12.5373 15.3595L10.7474 14.4672C10.8319 14.2977 10.9673 14.1589 11.1347 14.0704L12.0698 15.8383ZM12.5373 15.3595C12.6393 15.1549 12.6746 14.9236 12.6383 14.6979L10.6637 15.0153C10.6336 14.8283 10.6629 14.6366 10.7474 14.4672L12.5373 15.3595ZM12.6383 14.6979C12.602 14.4722 12.496 14.2636 12.3351 14.1013L10.9149 15.5096C10.7816 15.3752 10.6937 15.2023 10.6637 15.0153L12.6383 14.6979ZM11.668 9.90178L14.0994 12.3322L15.5134 10.9178L13.082 8.48729L11.668 9.90178ZM14.0965 12.3292C14.2583 12.4924 14.4675 12.6005 14.6943 12.638L15.021 10.6649C15.2089 10.696 15.3822 10.7855 15.5164 10.9208L14.0965 12.3292ZM14.6943 12.638C14.9211 12.6756 15.154 12.6407 15.3598 12.5384L14.4696 10.7475C14.6401 10.6627 14.8331 10.6338 15.021 10.6649L14.6943 12.638ZM15.3598 12.5384C15.5656 12.4361 15.734 12.2715 15.841 12.0681L14.0709 11.1372C14.1595 10.9686 14.299 10.8322 14.4696 10.7475L15.3598 12.5384ZM15.841 12.0681C15.948 11.8646 15.9882 11.6326 15.9558 11.405L13.9757 11.6865C13.9489 11.498 13.9822 11.3058 14.0709 11.1372L15.841 12.0681ZM15.954 11.3926C15.8237 10.5521 15.4293 9.77492 14.8279 9.17351L13.4137 10.5877C13.7148 10.8889 13.9123 11.2781 13.9776 11.699L15.954 11.3926ZM14.8279 9.17351C14.2265 8.5721 13.4493 8.17771 12.6088 8.04743L12.3025 10.0238C12.7233 10.0891 13.1125 10.2866 13.4137 10.5877L14.8279 9.17351ZM12.6081 8.04732C12.3802 8.01217 12.1471 8.04992 11.942 8.15516L12.8551 9.93458C12.6851 10.0218 12.492 10.0531 12.3031 10.0239L12.6081 8.04732ZM11.942 8.15516C11.7369 8.26041 11.5703 8.42778 11.4659 8.6334L13.2495 9.53833C13.1631 9.7087 13.025 9.84738 12.8551 9.93458L11.942 8.15516ZM11.4659 8.6334C11.3616 8.83902 11.325 9.07233 11.3611 9.29999L13.3363 8.98601C13.3663 9.17464 13.336 9.36795 13.2495 9.53833L11.4659 8.6334ZM11.3611 9.29999C11.3973 9.52767 11.5046 9.7381 11.6675 9.90123L13.0825 8.48784C13.2175 8.623 13.3064 8.79736 13.3363 8.98601L11.3611 9.29999Z" fill="#999999" mask="url(#path-1-inside-1_3006_1404)"/>
<path d="M8.67825 5.23072L8.67807 5.23068M8.67825 5.23072L8.54531 5.36344C8.52263 5.34085 8.50611 5.31284 8.49732 5.28207C8.48853 5.25129 8.48776 5.21878 8.49509 5.18763L8.67761 5.23057M8.67825 5.23072L8.67807 5.23068M8.67825 5.23072L8.67807 5.23068M8.67807 5.23068L8.67761 5.23057M8.67761 5.23057V5.23057ZM8.67761 5.23057L8.6779 5.23084M8.67761 5.23057L8.6779 5.23084M8.6779 5.23084L8.67846 5.23135L8.6779 5.23084ZM15.5134 18.7293C15.5222 18.7602 15.5227 18.7929 15.5152 18.8242C15.5076 18.8554 15.4921 18.8842 15.4702 18.9078L15.5134 18.7293ZM15.5134 18.7293L15.333 18.78L15.5134 18.7293ZM7.10228 10.9926C6.96184 11.6754 6.96558 12.3806 7.11405 13.063C7.27497 13.8026 7.6017 14.496 8.06961 15.091C8.53752 15.6859 9.1344 16.1669 9.81525 16.4976C10.496 16.8282 11.243 17 11.9998 17L7.10228 10.9926ZM7.10228 10.9926L4.29663 8.18571C3.27214 9.09362 2.31367 10.1839 1.42866 11.4508C1.31585 11.6128 1.25372 11.8047 1.25016 12.0021C1.2466 12.1996 1.30184 12.3937 1.40886 12.5598L1.40992 12.5614C2.61277 14.4438 4.15621 16.0221 5.86704 17.1288L5.86714 17.1288C7.79255 18.375 9.84852 18.9999 11.9844 19C12.9161 18.9974 13.8428 18.8728 14.7408 18.6298L13.0083 16.8977C12.6767 16.9658 12.3389 17.0001 12 17L7.10228 10.9926ZM22.5939 12.5451L22.5935 12.5458C21.8087 13.782 20.8543 14.9014 19.7584 15.8711L16.9007 13.0113C17.0622 12.2298 17.0345 11.4201 16.8188 10.6501C16.5872 9.82354 16.1467 9.07052 15.5397 8.46355C14.9328 7.85657 14.1797 7.41608 13.3532 7.18449C12.583 6.96871 11.7732 6.94105 10.9917 7.10268L9.26536 5.37638C10.1499 5.12811 11.065 5.00127 11.9853 5C14.0511 5.00007 16.161 5.64912 18.0864 6.89206C19.8269 8.01608 21.3867 9.5934 22.5911 11.4559C22.6956 11.6181 22.7515 11.8068 22.752 11.9998C22.7526 12.193 22.6977 12.3822 22.5939 12.5451ZM16.7789 12.8895C16.779 12.8896 16.7791 12.8896 16.7792 12.8897L16.7789 12.8895ZM16.861 13.1872L16.862 13.1829C16.8617 13.1843 16.8614 13.1857 16.861 13.1872ZM8.89811 5.00913C8.89836 5.00938 8.89861 5.00963 8.89886 5.00988L8.89811 5.00913ZM15.1119 19.0009C15.1119 19.0009 15.1119 19.0009 15.1119 19.0009L15.1119 19.0009ZM15.2378 18.4823L15.2362 18.4828L15.2378 18.4823Z" fill="#999999" stroke="#999999"/>
</svg>
