<svg width="32" height="32" viewBox="0 0 32 32" fill="none" xmlns="http://www.w3.org/2000/svg">
<g clip-path="url(#clip0_3153_1261)">
<path d="M13.1387 15.8053L9.68667 19.2573C9.19067 19.7533 8.54267 20.0027 7.892 20.0027C7.27867 20.0027 6.66533 19.7813 6.17733 19.3333L4.20667 17.4533C3.94 17.2 3.93067 16.7773 4.184 16.5107C4.43733 16.2453 4.86133 16.2347 5.12667 16.488L7.088 18.36C7.556 18.7853 8.288 18.7747 8.744 18.3147L12.196 14.8627C12.456 14.6027 12.8787 14.6027 13.1387 14.8627C13.3987 15.1227 13.3987 15.5453 13.1387 15.8053ZM14 30.6667H6C3.42667 30.6667 1.33333 28.5733 1.33333 26V8.66667C1.33333 6.09333 3.42667 4 6 4H7.33333C7.70133 4 8 3.70133 8 3.33333C8 2.23067 8.89733 1.33333 10 1.33333H14C15.1027 1.33333 16 2.23067 16 3.33333C16 3.70133 16.2987 4 16.6667 4H18C20.5733 4 22.6667 6.09333 22.6667 8.66667V14C22.6667 14.368 22.9653 14.6667 23.3333 14.6667C23.7013 14.6667 24 14.368 24 14V8.66667C24 5.35867 21.308 2.66667 18 2.66667H17.2667C16.9573 1.14667 15.6107 0 14 0H10C8.38933 0 7.044 1.14667 6.73333 2.66667H6C2.692 2.66667 0 5.35867 0 8.66667V26C0 29.308 2.692 32 6 32H14C14.368 32 14.6667 31.7013 14.6667 31.3333C14.6667 30.9653 14.368 30.6667 14 30.6667ZM12.1947 21.528L8.74267 24.98C8.28667 25.44 7.55467 25.452 7.08667 25.0253L5.12533 23.1547C4.86 22.9 4.436 22.9093 4.18267 23.1773C3.92933 23.4427 3.93867 23.8653 4.20533 24.1187L6.176 25.9987C6.664 26.4467 7.27733 26.668 7.89067 26.668C8.54 26.668 9.18933 26.4187 9.68533 25.9227L13.1373 22.4707C13.3973 22.2107 13.3973 21.788 13.1373 21.528C12.8773 21.268 12.4547 21.268 12.1947 21.528ZM26 21.3333H22C21.632 21.3333 21.3333 21.632 21.3333 22C21.3333 22.368 21.632 22.6667 22 22.6667H26C26.368 22.6667 26.6667 22.368 26.6667 22C26.6667 21.632 26.368 21.3333 26 21.3333ZM32 22V27.3333C32 29.9067 29.9067 32 27.3333 32H20.6667C18.0933 32 16 29.9067 16 27.3333V22C16 19.4267 18.0933 17.3333 20.6667 17.3333H27.3333C29.9067 17.3333 32 19.4267 32 22ZM30.6667 22C30.6667 20.1613 29.172 18.6667 27.3333 18.6667H20.6667C18.828 18.6667 17.3333 20.1613 17.3333 22V27.3333C17.3333 29.172 18.828 30.6667 20.6667 30.6667H27.3333C29.172 30.6667 30.6667 29.172 30.6667 27.3333V22ZM20 11.3333C20 10.9653 19.7013 10.6667 19.3333 10.6667H15.3333C14.9653 10.6667 14.6667 10.9653 14.6667 11.3333C14.6667 11.7013 14.9653 12 15.3333 12H19.3333C19.7013 12 20 11.7013 20 11.3333ZM13.1387 8.19467C12.8787 7.93467 12.456 7.93467 12.196 8.19467L8.744 11.6467C8.28533 12.104 7.55467 12.1187 7.088 11.692L5.12667 9.82C4.86133 9.568 4.43733 9.57733 4.184 9.84267C3.93067 10.1093 3.94 10.5307 4.20667 10.7853L6.17733 12.6667C6.66533 13.1133 7.27867 13.3347 7.892 13.3347C8.54267 13.3347 9.192 13.0853 9.68667 12.5893L13.1387 9.13733C13.3987 8.87733 13.3987 8.45467 13.1387 8.19467Z" fill="#001B57"/>
</g>
<defs>
<clipPath id="clip0_3153_1261">
<rect width="32" height="32" fill="white"/>
</clipPath>
</defs>
</svg>
