<svg width="32" height="32" viewBox="0 0 32 32" fill="none" xmlns="http://www.w3.org/2000/svg">
<path d="M4.11007 18.5933C3.40473 17.3267 3.05273 16.692 3.05273 16C3.05273 15.308 3.40473 14.6747 4.11007 13.408L5.9074 10.1733L7.80873 6.99868C8.55407 5.75468 8.92607 5.13201 9.52473 4.78535C10.1247 4.44001 10.8487 4.42935 12.2981 4.40535L16.0007 4.34668L19.7007 4.40535C21.1514 4.42935 21.8754 4.44001 22.4741 4.78668C23.0727 5.13335 23.4474 5.75468 24.1914 6.99868L26.0941 10.1733L27.8941 13.408C28.5981 14.6747 28.9501 15.308 28.9501 16C28.9501 16.692 28.5981 17.3253 27.8927 18.592L26.0941 21.8267L24.1927 25.0013C23.4474 26.2453 23.0754 26.868 22.4767 27.2147C21.8767 27.56 21.1527 27.5707 19.7034 27.5947L16.0007 27.6533L12.3007 27.5947C10.8501 27.5707 10.1261 27.56 9.5274 27.2133C8.92873 26.8667 8.55407 26.2453 7.81007 25.0013L5.9074 21.8267L4.11007 18.5933Z" stroke="#F5F5F5" stroke-width="1.5"/>
<path d="M16 20C18.2091 20 20 18.2091 20 16C20 13.7909 18.2091 12 16 12C13.7909 12 12 13.7909 12 16C12 18.2091 13.7909 20 16 20Z" stroke="#F5F5F5" stroke-width="1.5"/>
</svg>
