<svg width="32" height="32" viewBox="0 0 32 32" fill="none" xmlns="http://www.w3.org/2000/svg">
<path d="M4.10909 18.5933C3.40376 17.3267 3.05176 16.692 3.05176 16C3.05176 15.308 3.40376 14.6747 4.10909 13.408L5.90642 10.1733L7.80776 6.99868C8.55309 5.75468 8.92509 5.13201 9.52376 4.78535C10.1238 4.44001 10.8478 4.42935 12.2971 4.40535L15.9998 4.34668L19.6998 4.40535C21.1504 4.42935 21.8744 4.44001 22.4731 4.78668C23.0718 5.13335 23.4464 5.75468 24.1904 6.99868L26.0931 10.1733L27.8931 13.408C28.5971 14.6747 28.9491 15.308 28.9491 16C28.9491 16.692 28.5971 17.3253 27.8918 18.592L26.0931 21.8267L24.1918 25.0013C23.4464 26.2453 23.0744 26.868 22.4758 27.2147C21.8758 27.56 21.1518 27.5707 19.7024 27.5947L15.9998 27.6533L12.2998 27.5947C10.8491 27.5707 10.1251 27.56 9.52642 27.2133C8.92776 26.8667 8.55309 26.2453 7.80909 25.0013L5.90642 21.8267L4.10909 18.5933Z" stroke="#001B57" stroke-width="1.5"/>
<path d="M16 20C18.2091 20 20 18.2091 20 16C20 13.7909 18.2091 12 16 12C13.7909 12 12 13.7909 12 16C12 18.2091 13.7909 20 16 20Z" stroke="#001B57" stroke-width="1.5"/>
</svg>
