<svg width="298" height="66" viewBox="0 0 298 66" fill="none" xmlns="http://www.w3.org/2000/svg">
<path d="M250 0L297.143 66H0V0H250Z" fill="#02FFA4"/>
<path d="M38.8323 26.16V40H37.0123V29.68L32.4123 40H31.1323L26.5123 29.66V40H24.6923V26.16H26.6523L31.7723 37.6L36.8923 26.16H38.8323ZM51.9189 34.1C51.9189 34.4467 51.8989 34.8133 51.8589 35.2H43.0989C43.1656 36.28 43.5322 37.1267 44.1989 37.74C44.8789 38.34 45.6989 38.64 46.6589 38.64C47.4456 38.64 48.0989 38.46 48.6189 38.1C49.1522 37.7267 49.5256 37.2333 49.7389 36.62H51.6989C51.4056 37.6733 50.8189 38.5333 49.9389 39.2C49.0589 39.8533 47.9656 40.18 46.6589 40.18C45.6189 40.18 44.6856 39.9467 43.8589 39.48C43.0456 39.0133 42.4056 38.3533 41.9389 37.5C41.4722 36.6333 41.2389 35.6333 41.2389 34.5C41.2389 33.3667 41.4656 32.3733 41.9189 31.52C42.3722 30.6667 43.0056 30.0133 43.8189 29.56C44.6456 29.0933 45.5922 28.86 46.6589 28.86C47.6989 28.86 48.6189 29.0867 49.4189 29.54C50.2189 29.9933 50.8322 30.62 51.2589 31.42C51.6989 32.2067 51.9189 33.1 51.9189 34.1ZM50.0389 33.72C50.0389 33.0267 49.8856 32.4333 49.5789 31.94C49.2722 31.4333 48.8522 31.0533 48.3189 30.8C47.7989 30.5333 47.2189 30.4 46.5789 30.4C45.6589 30.4 44.8722 30.6933 44.2189 31.28C43.5789 31.8667 43.2122 32.68 43.1189 33.72H50.0389ZM53.6413 34.48C53.6413 33.36 53.8679 32.38 54.3213 31.54C54.7746 30.6867 55.3946 30.0267 56.1813 29.56C56.9813 29.0933 57.8679 28.86 58.8413 28.86C59.8013 28.86 60.6346 29.0667 61.3413 29.48C62.0479 29.8933 62.5746 30.4133 62.9213 31.04V29.04H64.7613V40H62.9213V37.96C62.5613 38.6 62.0213 39.1333 61.3013 39.56C60.5946 39.9733 59.7679 40.18 58.8213 40.18C57.8479 40.18 56.9679 39.94 56.1813 39.46C55.3946 38.98 54.7746 38.3067 54.3213 37.44C53.8679 36.5733 53.6413 35.5867 53.6413 34.48ZM62.9213 34.5C62.9213 33.6733 62.7546 32.9533 62.4213 32.34C62.0879 31.7267 61.6346 31.26 61.0613 30.94C60.5013 30.6067 59.8813 30.44 59.2013 30.44C58.5213 30.44 57.9013 30.6 57.3413 30.92C56.7813 31.24 56.3346 31.7067 56.0013 32.32C55.6679 32.9333 55.5013 33.6533 55.5013 34.48C55.5013 35.32 55.6679 36.0533 56.0013 36.68C56.3346 37.2933 56.7813 37.7667 57.3413 38.1C57.9013 38.42 58.5213 38.58 59.2013 38.58C59.8813 38.58 60.5013 38.42 61.0613 38.1C61.6346 37.7667 62.0879 37.2933 62.4213 36.68C62.7546 36.0533 62.9213 35.3267 62.9213 34.5ZM69.6569 25.2V40H67.8369V25.2H69.6569ZM74.9788 30.54V37C74.9788 37.5333 75.0921 37.9133 75.3188 38.14C75.5454 38.3533 75.9388 38.46 76.4987 38.46H77.8388V40H76.1988C75.1854 40 74.4254 39.7667 73.9188 39.3C73.4121 38.8333 73.1588 38.0667 73.1588 37V30.54H71.7388V29.04H73.1588V26.28H74.9788V29.04H77.8388V30.54H74.9788ZM80.9839 27.26C80.6372 27.26 80.3439 27.14 80.1039 26.9C79.8639 26.66 79.7439 26.3667 79.7439 26.02C79.7439 25.6733 79.8639 25.38 80.1039 25.14C80.3439 24.9 80.6372 24.78 80.9839 24.78C81.3172 24.78 81.5972 24.9 81.8239 25.14C82.0639 25.38 82.1839 25.6733 82.1839 26.02C82.1839 26.3667 82.0639 26.66 81.8239 26.9C81.5972 27.14 81.3172 27.26 80.9839 27.26ZM81.8639 29.04V40H80.0439V29.04H81.8639ZM98.1458 28.84C98.9991 28.84 99.7591 29.02 100.426 29.38C101.092 29.7267 101.619 30.2533 102.006 30.96C102.392 31.6667 102.586 32.5267 102.586 33.54V40H100.786V33.8C100.786 32.7067 100.512 31.8733 99.9658 31.3C99.4324 30.7133 98.7058 30.42 97.7858 30.42C96.8391 30.42 96.0858 30.7267 95.5258 31.34C94.9658 31.94 94.6858 32.8133 94.6858 33.96V40H92.8858V33.8C92.8858 32.7067 92.6124 31.8733 92.0658 31.3C91.5324 30.7133 90.8058 30.42 89.8858 30.42C88.9391 30.42 88.1858 30.7267 87.6258 31.34C87.0658 31.94 86.7858 32.8133 86.7858 33.96V40H84.9658V29.04H86.7858V30.62C87.1458 30.0467 87.6258 29.6067 88.2258 29.3C88.8391 28.9933 89.5124 28.84 90.2458 28.84C91.1658 28.84 91.9791 29.0467 92.6858 29.46C93.3924 29.8733 93.9191 30.48 94.2658 31.28C94.5724 30.5067 95.0791 29.9067 95.7858 29.48C96.4924 29.0533 97.2791 28.84 98.1458 28.84ZM115.571 34.1C115.571 34.4467 115.551 34.8133 115.511 35.2H106.751C106.818 36.28 107.185 37.1267 107.851 37.74C108.531 38.34 109.351 38.64 110.311 38.64C111.098 38.64 111.751 38.46 112.271 38.1C112.805 37.7267 113.178 37.2333 113.391 36.62H115.351C115.058 37.6733 114.471 38.5333 113.591 39.2C112.711 39.8533 111.618 40.18 110.311 40.18C109.271 40.18 108.338 39.9467 107.511 39.48C106.698 39.0133 106.058 38.3533 105.591 37.5C105.125 36.6333 104.891 35.6333 104.891 34.5C104.891 33.3667 105.118 32.3733 105.571 31.52C106.025 30.6667 106.658 30.0133 107.471 29.56C108.298 29.0933 109.245 28.86 110.311 28.86C111.351 28.86 112.271 29.0867 113.071 29.54C113.871 29.9933 114.485 30.62 114.911 31.42C115.351 32.2067 115.571 33.1 115.571 34.1ZM113.691 33.72C113.691 33.0267 113.538 32.4333 113.231 31.94C112.925 31.4333 112.505 31.0533 111.971 30.8C111.451 30.5333 110.871 30.4 110.231 30.4C109.311 30.4 108.525 30.6933 107.871 31.28C107.231 31.8667 106.865 32.68 106.771 33.72H113.691ZM125.126 27.54V32.2H130.206V33.7H125.126V38.5H130.806V40H123.306V26.04H130.806V27.54H125.126ZM138.9 28.84C140.233 28.84 141.313 29.2467 142.14 30.06C142.966 30.86 143.38 32.02 143.38 33.54V40H141.58V33.8C141.58 32.7067 141.306 31.8733 140.76 31.3C140.213 30.7133 139.466 30.42 138.52 30.42C137.56 30.42 136.793 30.72 136.22 31.32C135.66 31.92 135.38 32.7933 135.38 33.94V40H133.56V29.04H135.38V30.6C135.74 30.04 136.226 29.6067 136.84 29.3C137.466 28.9933 138.153 28.84 138.9 28.84ZM150.873 28.86C151.819 28.86 152.646 29.0667 153.353 29.48C154.073 29.8933 154.606 30.4133 154.953 31.04V29.04H156.793V40.24C156.793 41.24 156.579 42.1267 156.153 42.9C155.726 43.6867 155.113 44.3 154.313 44.74C153.526 45.18 152.606 45.4 151.553 45.4C150.113 45.4 148.913 45.06 147.953 44.38C146.993 43.7 146.426 42.7733 146.253 41.6H148.053C148.253 42.2667 148.666 42.8 149.293 43.2C149.919 43.6133 150.673 43.82 151.553 43.82C152.553 43.82 153.366 43.5067 153.993 42.88C154.633 42.2533 154.953 41.3733 154.953 40.24V37.94C154.593 38.58 154.059 39.1133 153.353 39.54C152.646 39.9667 151.819 40.18 150.873 40.18C149.899 40.18 149.013 39.94 148.213 39.46C147.426 38.98 146.806 38.3067 146.353 37.44C145.899 36.5733 145.673 35.5867 145.673 34.48C145.673 33.36 145.899 32.38 146.353 31.54C146.806 30.6867 147.426 30.0267 148.213 29.56C149.013 29.0933 149.899 28.86 150.873 28.86ZM154.953 34.5C154.953 33.6733 154.786 32.9533 154.453 32.34C154.119 31.7267 153.666 31.26 153.093 30.94C152.533 30.6067 151.913 30.44 151.233 30.44C150.553 30.44 149.933 30.6 149.373 30.92C148.813 31.24 148.366 31.7067 148.033 32.32C147.699 32.9333 147.533 33.6533 147.533 34.48C147.533 35.32 147.699 36.0533 148.033 36.68C148.366 37.2933 148.813 37.7667 149.373 38.1C149.933 38.42 150.553 38.58 151.233 38.58C151.913 38.58 152.533 38.42 153.093 38.1C153.666 37.7667 154.119 37.2933 154.453 36.68C154.786 36.0533 154.953 35.3267 154.953 34.5ZM159.188 34.48C159.188 33.36 159.415 32.38 159.868 31.54C160.321 30.6867 160.941 30.0267 161.728 29.56C162.528 29.0933 163.415 28.86 164.388 28.86C165.348 28.86 166.181 29.0667 166.888 29.48C167.595 29.8933 168.121 30.4133 168.468 31.04V29.04H170.308V40H168.468V37.96C168.108 38.6 167.568 39.1333 166.848 39.56C166.141 39.9733 165.315 40.18 164.368 40.18C163.395 40.18 162.515 39.94 161.728 39.46C160.941 38.98 160.321 38.3067 159.868 37.44C159.415 36.5733 159.188 35.5867 159.188 34.48ZM168.468 34.5C168.468 33.6733 168.301 32.9533 167.968 32.34C167.635 31.7267 167.181 31.26 166.608 30.94C166.048 30.6067 165.428 30.44 164.748 30.44C164.068 30.44 163.448 30.6 162.888 30.92C162.328 31.24 161.881 31.7067 161.548 32.32C161.215 32.9333 161.048 33.6533 161.048 34.48C161.048 35.32 161.215 36.0533 161.548 36.68C161.881 37.2933 162.328 37.7667 162.888 38.1C163.448 38.42 164.068 38.58 164.748 38.58C165.428 38.58 166.048 38.42 166.608 38.1C167.181 37.7667 167.635 37.2933 167.968 36.68C168.301 36.0533 168.468 35.3267 168.468 34.5ZM177.904 28.86C178.85 28.86 179.677 29.0667 180.384 29.48C181.104 29.8933 181.637 30.4133 181.984 31.04V29.04H183.824V40.24C183.824 41.24 183.61 42.1267 183.184 42.9C182.757 43.6867 182.144 44.3 181.344 44.74C180.557 45.18 179.637 45.4 178.584 45.4C177.144 45.4 175.944 45.06 174.984 44.38C174.024 43.7 173.457 42.7733 173.284 41.6H175.084C175.284 42.2667 175.697 42.8 176.324 43.2C176.95 43.6133 177.704 43.82 178.584 43.82C179.584 43.82 180.397 43.5067 181.024 42.88C181.664 42.2533 181.984 41.3733 181.984 40.24V37.94C181.624 38.58 181.09 39.1133 180.384 39.54C179.677 39.9667 178.85 40.18 177.904 40.18C176.93 40.18 176.044 39.94 175.244 39.46C174.457 38.98 173.837 38.3067 173.384 37.44C172.93 36.5733 172.704 35.5867 172.704 34.48C172.704 33.36 172.93 32.38 173.384 31.54C173.837 30.6867 174.457 30.0267 175.244 29.56C176.044 29.0933 176.93 28.86 177.904 28.86ZM181.984 34.5C181.984 33.6733 181.817 32.9533 181.484 32.34C181.15 31.7267 180.697 31.26 180.124 30.94C179.564 30.6067 178.944 30.44 178.264 30.44C177.584 30.44 176.964 30.6 176.404 30.92C175.844 31.24 175.397 31.7067 175.064 32.32C174.73 32.9333 174.564 33.6533 174.564 34.48C174.564 35.32 174.73 36.0533 175.064 36.68C175.397 37.2933 175.844 37.7667 176.404 38.1C176.964 38.42 177.584 38.58 178.264 38.58C178.944 38.58 179.564 38.42 180.124 38.1C180.697 37.7667 181.15 37.2933 181.484 36.68C181.817 36.0533 181.984 35.3267 181.984 34.5ZM196.899 34.1C196.899 34.4467 196.879 34.8133 196.839 35.2H188.079C188.146 36.28 188.513 37.1267 189.179 37.74C189.859 38.34 190.679 38.64 191.639 38.64C192.426 38.64 193.079 38.46 193.599 38.1C194.133 37.7267 194.506 37.2333 194.719 36.62H196.679C196.386 37.6733 195.799 38.5333 194.919 39.2C194.039 39.8533 192.946 40.18 191.639 40.18C190.599 40.18 189.666 39.9467 188.839 39.48C188.026 39.0133 187.386 38.3533 186.919 37.5C186.453 36.6333 186.219 35.6333 186.219 34.5C186.219 33.3667 186.446 32.3733 186.899 31.52C187.353 30.6667 187.986 30.0133 188.799 29.56C189.626 29.0933 190.573 28.86 191.639 28.86C192.679 28.86 193.599 29.0867 194.399 29.54C195.199 29.9933 195.813 30.62 196.239 31.42C196.679 32.2067 196.899 33.1 196.899 34.1ZM195.019 33.72C195.019 33.0267 194.866 32.4333 194.559 31.94C194.253 31.4333 193.833 31.0533 193.299 30.8C192.779 30.5333 192.199 30.4 191.559 30.4C190.639 30.4 189.853 30.6933 189.199 31.28C188.559 31.8667 188.193 32.68 188.099 33.72H195.019ZM212.482 28.84C213.335 28.84 214.095 29.02 214.762 29.38C215.428 29.7267 215.955 30.2533 216.342 30.96C216.728 31.6667 216.922 32.5267 216.922 33.54V40H215.122V33.8C215.122 32.7067 214.848 31.8733 214.302 31.3C213.768 30.7133 213.042 30.42 212.122 30.42C211.175 30.42 210.422 30.7267 209.862 31.34C209.302 31.94 209.022 32.8133 209.022 33.96V40H207.222V33.8C207.222 32.7067 206.948 31.8733 206.402 31.3C205.868 30.7133 205.142 30.42 204.222 30.42C203.275 30.42 202.522 30.7267 201.962 31.34C201.402 31.94 201.122 32.8133 201.122 33.96V40H199.302V29.04H201.122V30.62C201.482 30.0467 201.962 29.6067 202.562 29.3C203.175 28.9933 203.848 28.84 204.582 28.84C205.502 28.84 206.315 29.0467 207.022 29.46C207.728 29.8733 208.255 30.48 208.602 31.28C208.908 30.5067 209.415 29.9067 210.122 29.48C210.828 29.0533 211.615 28.84 212.482 28.84ZM229.907 34.1C229.907 34.4467 229.887 34.8133 229.847 35.2H221.087C221.154 36.28 221.521 37.1267 222.187 37.74C222.867 38.34 223.687 38.64 224.647 38.64C225.434 38.64 226.087 38.46 226.607 38.1C227.141 37.7267 227.514 37.2333 227.727 36.62H229.687C229.394 37.6733 228.807 38.5333 227.927 39.2C227.047 39.8533 225.954 40.18 224.647 40.18C223.607 40.18 222.674 39.9467 221.847 39.48C221.034 39.0133 220.394 38.3533 219.927 37.5C219.461 36.6333 219.227 35.6333 219.227 34.5C219.227 33.3667 219.454 32.3733 219.907 31.52C220.361 30.6667 220.994 30.0133 221.807 29.56C222.634 29.0933 223.581 28.86 224.647 28.86C225.687 28.86 226.607 29.0867 227.407 29.54C228.207 29.9933 228.821 30.62 229.247 31.42C229.687 32.2067 229.907 33.1 229.907 34.1ZM228.027 33.72C228.027 33.0267 227.874 32.4333 227.567 31.94C227.261 31.4333 226.841 31.0533 226.307 30.8C225.787 30.5333 225.207 30.4 224.567 30.4C223.647 30.4 222.861 30.6933 222.207 31.28C221.567 31.8667 221.201 32.68 221.107 33.72H228.027ZM237.65 28.84C238.983 28.84 240.063 29.2467 240.89 30.06C241.716 30.86 242.13 32.02 242.13 33.54V40H240.33V33.8C240.33 32.7067 240.056 31.8733 239.51 31.3C238.963 30.7133 238.216 30.42 237.27 30.42C236.31 30.42 235.543 30.72 234.97 31.32C234.41 31.92 234.13 32.7933 234.13 33.94V40H232.31V29.04H234.13V30.6C234.49 30.04 234.976 29.6067 235.59 29.3C236.216 28.9933 236.903 28.84 237.65 28.84ZM247.323 30.54V37C247.323 37.5333 247.436 37.9133 247.663 38.14C247.889 38.3533 248.283 38.46 248.842 38.46H250.183V40H248.543C247.529 40 246.769 39.7667 246.263 39.3C245.756 38.8333 245.503 38.0667 245.503 37V30.54H244.083V29.04H245.503V26.28H247.323V29.04H250.183V30.54H247.323Z" fill="#131313"/>
</svg>
