<svg width="32" height="32" viewBox="0 0 32 32" fill="none" xmlns="http://www.w3.org/2000/svg">
<path d="M18.9993 16.0005H1.66602M1.66602 16.0005L6.33268 12.0005M1.66602 16.0005L6.33268 20.0005" stroke="#F5F5F5" stroke-width="1.5" stroke-linecap="round" stroke-linejoin="round"/>
<path d="M11.002 9.33366C11.018 6.43366 11.1473 4.86299 12.1713 3.83899C13.3433 2.66699 15.2286 2.66699 18.9993 2.66699H20.3326C24.1046 2.66699 25.99 2.66699 27.162 3.83899C28.3326 5.00966 28.3326 6.89633 28.3326 10.667V21.3337C28.3326 25.1043 28.3326 26.991 27.162 28.1617C26.1366 29.187 24.566 29.315 21.666 29.331M11.002 22.667C11.018 25.567 11.1473 27.1377 12.1713 28.1617C13.026 29.0177 14.262 29.2483 16.3326 29.311" stroke="#F5F5F5" stroke-width="1.5" stroke-linecap="round"/>
</svg>
