<svg width="40" height="40" viewBox="0 0 40 40" fill="none" xmlns="http://www.w3.org/2000/svg">
<path d="M19.7143 4C17.5926 4 15.5577 4.84285 14.0574 6.34315C12.5571 7.84344 11.7143 9.87827 11.7143 12C11.7143 14.1217 12.5571 16.1566 14.0574 17.6569C15.5577 19.1571 17.5926 20 19.7143 20C21.836 20 23.8708 19.1571 25.3711 17.6569C26.8714 16.1566 27.7143 14.1217 27.7143 12C27.7143 9.87827 26.8714 7.84344 25.3711 6.34315C23.8708 4.84285 21.836 4 19.7143 4ZM12.8571 12C12.8571 10.1814 13.5796 8.43723 14.8656 7.15127C16.1515 5.8653 17.8957 5.14286 19.7143 5.14286C21.5329 5.14286 23.2771 5.8653 24.563 7.15127C25.849 8.43723 26.5714 10.1814 26.5714 12C26.5714 13.8186 25.849 15.5628 24.563 16.8487C23.2771 18.1347 21.5329 18.8571 19.7143 18.8571C17.8957 18.8571 16.1515 18.1347 14.8656 16.8487C13.5796 15.5628 12.8571 13.8186 12.8571 12ZM10 22.2857C8.93913 22.2857 7.92172 22.7071 7.17157 23.4573C6.42143 24.2074 6 25.2248 6 26.2857V27.048C6 29.5051 9.16114 36 19.7143 36C30.2674 36 33.4286 29.504 33.4286 27.048V26.2857C33.4286 25.2248 33.0071 24.2074 32.257 23.4573C31.5069 22.7071 30.4894 22.2857 29.4286 22.2857H10ZM7.14286 26.2857C7.14286 25.528 7.44388 24.8012 7.97969 24.2654C8.51551 23.7296 9.24224 23.4286 10 23.4286H29.4286C30.1863 23.4286 30.9131 23.7296 31.4489 24.2654C31.9847 24.8012 32.2857 25.528 32.2857 26.2857V27.048C32.2857 28.7817 29.7314 34.8571 19.7143 34.8571C9.69714 34.8571 7.14286 28.7817 7.14286 27.048V26.2857Z" fill="#9A9A9A"/>
</svg>
