<svg width="32" height="32" viewBox="0 0 32 32" fill="none" xmlns="http://www.w3.org/2000/svg">
<path d="M9.87332 2C9.33036 1.99972 8.80068 2.16784 8.35728 2.4812C7.91388 2.79456 7.57858 3.23772 7.3976 3.74963H4.62444C3.92839 3.74963 3.26086 4.02613 2.76868 4.51831C2.2765 5.01048 2 5.67802 2 6.37406V27.3696C2 28.0656 2.2765 28.7332 2.76868 29.2253C3.26086 29.7175 3.92839 29.994 4.62444 29.994H11.0123C10.7481 29.4506 10.6795 28.8326 10.8181 28.2444H4.62444C4.39242 28.2444 4.16991 28.1522 4.00585 27.9882C3.84179 27.8241 3.74963 27.6016 3.74963 27.3696V6.37406C3.74963 6.14205 3.84179 5.91954 4.00585 5.75548C4.16991 5.59142 4.39242 5.49925 4.62444 5.49925H7.3976C7.57858 6.01115 7.91388 6.45432 8.35728 6.76768C8.80068 7.08104 9.33036 7.24916 9.87332 7.24888H15.1222C15.6651 7.24916 16.1948 7.08104 16.6382 6.76768C17.0816 6.45432 17.4169 6.01115 17.5979 5.49925H20.3711C20.6031 5.49925 20.8256 5.59142 20.9897 5.75548C21.1537 5.91954 21.2459 6.14205 21.2459 6.37406V12.6202C21.6495 12.7124 22.046 12.8564 22.4356 13.0524C22.6379 13.1543 22.826 13.2819 22.9955 13.4321V6.37406C22.9955 5.67802 22.719 5.01048 22.2268 4.51831C21.7347 4.02613 21.0671 3.74963 20.3711 3.74963H17.5979C17.4169 3.23772 17.0816 2.79456 16.6382 2.4812C16.1948 2.16784 15.6651 1.99972 15.1222 2H9.87332ZM8.9985 4.62444C8.9985 4.39242 9.09067 4.16991 9.25473 4.00585C9.41879 3.84179 9.6413 3.74963 9.87332 3.74963H15.1222C15.3542 3.74963 15.5767 3.84179 15.7408 4.00585C15.9048 4.16991 15.997 4.39242 15.997 4.62444C15.997 4.85645 15.9048 5.07897 15.7408 5.24303C15.5767 5.40708 15.3542 5.49925 15.1222 5.49925H9.87332C9.6413 5.49925 9.41879 5.40708 9.25473 5.24303C9.09067 5.07897 8.9985 4.85645 8.9985 4.62444ZM16.7861 17.3565C16.8266 16.8057 17.0026 16.2734 17.2984 15.807C17.5941 15.3406 18.0006 14.9545 18.4816 14.683C18.9625 14.4115 19.5031 14.2631 20.0553 14.2509C20.6074 14.2387 21.1541 14.3631 21.6465 14.6131C21.8521 14.7187 22.0076 14.9014 22.0789 15.1213C22.1502 15.3412 22.1315 15.5804 22.0271 15.7866C21.9226 15.9928 21.7407 16.1492 21.5213 16.2218C21.3018 16.2943 21.0625 16.277 20.8557 16.1737C20.6202 16.0542 20.3589 15.9948 20.0949 16.0007C19.8309 16.0066 19.5724 16.0776 19.3425 16.2075C19.1125 16.3373 18.9183 16.522 18.7769 16.745C18.6356 16.9681 18.5515 17.2226 18.5322 17.4859L18.38 19.5365H20.3711C20.6031 19.5365 20.8256 19.6287 20.9897 19.7927C21.1537 19.9568 21.2459 20.1793 21.2459 20.4113C21.2459 20.6433 21.1537 20.8658 20.9897 21.0299C20.8256 21.194 20.6031 21.2861 20.3711 21.2861H18.2505L17.8359 26.8849C17.795 27.4353 17.6188 27.9671 17.323 28.4331C17.0272 28.8991 16.6209 29.2848 16.1402 29.5561C15.6595 29.8273 15.1193 29.9756 14.5675 29.988C14.0157 30.0003 13.4694 29.8761 12.9772 29.6266C12.874 29.5751 12.7821 29.5036 12.7066 29.4165C12.6312 29.3293 12.5737 29.228 12.5375 29.1186C12.5014 29.0091 12.4872 28.8935 12.4958 28.7786C12.5044 28.6636 12.5357 28.5514 12.5878 28.4486C12.6399 28.3458 12.7119 28.2542 12.7995 28.1793C12.8871 28.1043 12.9886 28.0474 13.0983 28.0119C13.208 27.9763 13.3236 27.9628 13.4385 27.972C13.5535 27.9813 13.6654 28.0132 13.768 28.0659C14.0035 28.1854 14.2648 28.2448 14.5288 28.239C14.7928 28.2331 15.0513 28.162 15.2812 28.0322C15.5112 27.9023 15.7054 27.7177 15.8468 27.4946C15.9882 27.2716 16.0722 27.0171 16.0915 26.7537L16.4956 21.2861H15.1222C14.8902 21.2861 14.6677 21.194 14.5036 21.0299C14.3395 20.8658 14.2474 20.6433 14.2474 20.4113C14.2474 20.1793 14.3395 19.9568 14.5036 19.7927C14.6677 19.6287 14.8902 19.5365 15.1222 19.5365H16.6269L16.7861 17.3565ZM26.2393 24.4897C26.4036 24.3254 26.4959 24.1026 26.4959 23.8703C26.4959 23.638 26.4036 23.4152 26.2393 23.251C26.0751 23.0867 25.8523 22.9944 25.6199 22.9944C25.3876 22.9944 25.1648 23.0867 25.0006 23.251L23.153 25.1003L22.3534 23.8161C22.2275 23.6138 22.0613 23.4396 21.8652 23.3042C21.6691 23.1688 21.4473 23.0751 21.2135 23.029C20.9797 22.9829 20.739 22.9854 20.5062 23.0362C20.2734 23.087 20.0535 23.1851 19.8602 23.3244C19.677 23.4611 19.5545 23.6639 19.519 23.8897C19.4835 24.1154 19.5377 24.3461 19.67 24.5324C19.8024 24.7186 20.0023 24.8458 20.2272 24.8865C20.452 24.9272 20.6839 24.8784 20.8732 24.7504L21.881 26.3705L19.7517 28.4998C19.5874 28.6641 19.4952 28.8869 19.4952 29.1192C19.4952 29.3515 19.5874 29.5743 19.7517 29.7386C19.916 29.9028 20.1388 29.9951 20.3711 29.9951C20.6034 29.9951 20.8262 29.9028 20.9904 29.7386L22.831 27.8962L23.6306 29.1822C23.7581 29.3873 23.9271 29.5635 24.1268 29.6995C24.3264 29.8355 24.5523 29.9282 24.7898 29.9717C25.0274 30.0152 25.2715 30.0085 25.5064 29.9521C25.7412 29.8957 25.9617 29.7908 26.1536 29.6441C26.3394 29.5051 26.4625 29.298 26.4956 29.0683C26.5287 28.8386 26.4693 28.6052 26.3303 28.4193C26.1913 28.2335 25.9842 28.1105 25.7545 28.0773C25.5248 28.0442 25.2914 28.1037 25.1056 28.2426L24.1013 26.626L26.2393 24.4897Z" fill="#001B57"/>
</svg>
