<svg width="250" height="66" viewBox="0 0 250 66" fill="none" xmlns="http://www.w3.org/2000/svg">
<g opacity="0.5">
<path d="M202.857 0L250 66H0V0H202.857Z" fill="#009285"/>
<path d="M80.0177 40.14C78.7244 40.14 77.5311 39.84 76.4377 39.24C75.3577 38.6267 74.4977 37.78 73.8577 36.7C73.2311 35.6067 72.9177 34.38 72.9177 33.02C72.9177 31.66 73.2311 30.44 73.8577 29.36C74.4977 28.28 75.3577 27.44 76.4377 26.84C77.5311 26.2267 78.7244 25.92 80.0177 25.92C81.3244 25.92 82.5177 26.2267 83.5977 26.84C84.6911 27.44 85.5511 28.28 86.1777 29.36C86.8044 30.44 87.1177 31.66 87.1177 33.02C87.1177 34.38 86.8044 35.6067 86.1777 36.7C85.5511 37.78 84.6911 38.6267 83.5977 39.24C82.5177 39.84 81.3244 40.14 80.0177 40.14ZM80.0177 38.16C80.9377 38.16 81.7577 37.9533 82.4777 37.54C83.1977 37.1133 83.7577 36.5133 84.1577 35.74C84.5711 34.9533 84.7777 34.0467 84.7777 33.02C84.7777 31.9933 84.5711 31.0933 84.1577 30.32C83.7577 29.5467 83.1977 28.9533 82.4777 28.54C81.7577 28.1267 80.9377 27.92 80.0177 27.92C79.0977 27.92 78.2777 28.1267 77.5577 28.54C76.8377 28.9533 76.2711 29.5467 75.8577 30.32C75.4577 31.0933 75.2577 31.9933 75.2577 33.02C75.2577 34.0467 75.4577 34.9533 75.8577 35.74C76.2711 36.5133 76.8377 37.1133 77.5577 37.54C78.2777 37.9533 79.0977 38.16 80.0177 38.16ZM91.6413 30.58C91.9747 30.02 92.4147 29.5867 92.9613 29.28C93.5213 28.96 94.1813 28.8 94.9413 28.8V31.16H94.3613C93.468 31.16 92.788 31.3867 92.3213 31.84C91.868 32.2933 91.6413 33.08 91.6413 34.2V40H89.3613V28.98H91.6413V30.58ZM96.2771 34.44C96.2771 33.3333 96.5038 32.3533 96.9571 31.5C97.4238 30.6467 98.0504 29.9867 98.8371 29.52C99.6371 29.04 100.517 28.8 101.477 28.8C102.344 28.8 103.097 28.9733 103.737 29.32C104.39 29.6533 104.91 30.0733 105.297 30.58V28.98H107.597V40H105.297V38.36C104.91 38.88 104.384 39.3133 103.717 39.66C103.05 40.0067 102.29 40.18 101.437 40.18C100.49 40.18 99.6238 39.94 98.8371 39.46C98.0504 38.9667 97.4238 38.2867 96.9571 37.42C96.5038 36.54 96.2771 35.5467 96.2771 34.44ZM105.297 34.48C105.297 33.72 105.137 33.06 104.817 32.5C104.51 31.94 104.104 31.5133 103.597 31.22C103.09 30.9267 102.544 30.78 101.957 30.78C101.37 30.78 100.824 30.9267 100.317 31.22C99.8104 31.5 99.3971 31.92 99.0771 32.48C98.7704 33.0267 98.6171 33.68 98.6171 34.44C98.6171 35.2 98.7704 35.8667 99.0771 36.44C99.3971 37.0133 99.8104 37.4533 100.317 37.76C100.837 38.0533 101.384 38.2 101.957 38.2C102.544 38.2 103.09 38.0533 103.597 37.76C104.104 37.4667 104.51 37.04 104.817 36.48C105.137 35.9067 105.297 35.24 105.297 34.48ZM112.872 25.2V40H110.592V25.2H112.872ZM135.701 26.1V40H133.421V30.48L129.181 40H127.601L123.341 30.48V40H121.061V26.1H123.521L128.401 37L133.261 26.1H135.701ZM143.477 40.18C142.437 40.18 141.497 39.9467 140.657 39.48C139.817 39 139.157 38.3333 138.677 37.48C138.197 36.6133 137.957 35.6133 137.957 34.48C137.957 33.36 138.204 32.3667 138.697 31.5C139.191 30.6333 139.864 29.9667 140.717 29.5C141.571 29.0333 142.524 28.8 143.577 28.8C144.631 28.8 145.584 29.0333 146.437 29.5C147.291 29.9667 147.964 30.6333 148.457 31.5C148.951 32.3667 149.197 33.36 149.197 34.48C149.197 35.6 148.944 36.5933 148.437 37.46C147.931 38.3267 147.237 39 146.357 39.48C145.491 39.9467 144.531 40.18 143.477 40.18ZM143.477 38.2C144.064 38.2 144.611 38.06 145.117 37.78C145.637 37.5 146.057 37.08 146.377 36.52C146.697 35.96 146.857 35.28 146.857 34.48C146.857 33.68 146.704 33.0067 146.397 32.46C146.091 31.9 145.684 31.48 145.177 31.2C144.671 30.92 144.124 30.78 143.537 30.78C142.951 30.78 142.404 30.92 141.897 31.2C141.404 31.48 141.011 31.9 140.717 32.46C140.424 33.0067 140.277 33.68 140.277 34.48C140.277 35.6667 140.577 36.5867 141.177 37.24C141.791 37.88 142.557 38.2 143.477 38.2ZM154.111 30.84V36.94C154.111 37.3533 154.205 37.6533 154.391 37.84C154.591 38.0133 154.925 38.1 155.391 38.1H156.791V40H154.991C153.965 40 153.178 39.76 152.631 39.28C152.085 38.8 151.811 38.02 151.811 36.94V30.84H150.511V28.98H151.811V26.24H154.111V28.98H156.791V30.84H154.111ZM163.673 40.18C162.633 40.18 161.693 39.9467 160.853 39.48C160.013 39 159.353 38.3333 158.873 37.48C158.393 36.6133 158.153 35.6133 158.153 34.48C158.153 33.36 158.399 32.3667 158.893 31.5C159.386 30.6333 160.059 29.9667 160.913 29.5C161.766 29.0333 162.719 28.8 163.773 28.8C164.826 28.8 165.779 29.0333 166.633 29.5C167.486 29.9667 168.159 30.6333 168.653 31.5C169.146 32.3667 169.393 33.36 169.393 34.48C169.393 35.6 169.139 36.5933 168.633 37.46C168.126 38.3267 167.433 39 166.553 39.48C165.686 39.9467 164.726 40.18 163.673 40.18ZM163.673 38.2C164.259 38.2 164.806 38.06 165.313 37.78C165.833 37.5 166.253 37.08 166.573 36.52C166.893 35.96 167.053 35.28 167.053 34.48C167.053 33.68 166.899 33.0067 166.593 32.46C166.286 31.9 165.879 31.48 165.373 31.2C164.866 30.92 164.319 30.78 163.733 30.78C163.146 30.78 162.599 30.92 162.093 31.2C161.599 31.48 161.206 31.9 160.913 32.46C160.619 33.0067 160.473 33.68 160.473 34.48C160.473 35.6667 160.773 36.5867 161.373 37.24C161.986 37.88 162.753 38.2 163.673 38.2ZM173.926 30.58C174.26 30.02 174.7 29.5867 175.246 29.28C175.806 28.96 176.466 28.8 177.226 28.8V31.16H176.646C175.753 31.16 175.073 31.3867 174.606 31.84C174.153 32.2933 173.926 33.08 173.926 34.2V40H171.646V28.98H173.926V30.58Z" fill="white"/>
</g>
</svg>
