<svg width="300" height="66" viewBox="0 0 300 66" fill="none" xmlns="http://www.w3.org/2000/svg">
<g opacity="0.5">
<path d="M300 66V0H0V66H300Z" fill="#063062"/>
<path d="M73.3685 26.1V40H71.0885V30.48L66.8485 40H65.2685L61.0085 30.48V40H58.7285V26.1H61.1885L66.0685 37L70.9285 26.1H73.3685ZM86.4652 34.22C86.4652 34.6333 86.4386 35.0067 86.3852 35.34H77.9652C78.0319 36.22 78.3586 36.9267 78.9452 37.46C79.5319 37.9933 80.2519 38.26 81.1052 38.26C82.3319 38.26 83.1986 37.7467 83.7052 36.72H86.1652C85.8319 37.7333 85.2252 38.5667 84.3452 39.22C83.4786 39.86 82.3986 40.18 81.1052 40.18C80.0519 40.18 79.1052 39.9467 78.2652 39.48C77.4386 39 76.7852 38.3333 76.3052 37.48C75.8386 36.6133 75.6052 35.6133 75.6052 34.48C75.6052 33.3467 75.8319 32.3533 76.2852 31.5C76.7519 30.6333 77.3986 29.9667 78.2252 29.5C79.0652 29.0333 80.0252 28.8 81.1052 28.8C82.1452 28.8 83.0719 29.0267 83.8852 29.48C84.6986 29.9333 85.3319 30.5733 85.7852 31.4C86.2386 32.2133 86.4652 33.1533 86.4652 34.22ZM84.0852 33.5C84.0719 32.66 83.7719 31.9867 83.1852 31.48C82.5986 30.9733 81.8719 30.72 81.0052 30.72C80.2186 30.72 79.5452 30.9733 78.9852 31.48C78.4252 31.9733 78.0919 32.6467 77.9852 33.5H84.0852ZM87.949 34.44C87.949 33.3333 88.1757 32.3533 88.629 31.5C89.0957 30.6467 89.7223 29.9867 90.509 29.52C91.309 29.04 92.1957 28.8 93.169 28.8C93.889 28.8 94.5957 28.96 95.289 29.28C95.9957 29.5867 96.5557 30 96.969 30.52V25.2H99.269V40H96.969V38.34C96.5957 38.8733 96.0757 39.3133 95.409 39.66C94.7557 40.0067 94.0023 40.18 93.149 40.18C92.189 40.18 91.309 39.94 90.509 39.46C89.7223 38.9667 89.0957 38.2867 88.629 37.42C88.1757 36.54 87.949 35.5467 87.949 34.44ZM96.969 34.48C96.969 33.72 96.809 33.06 96.489 32.5C96.1823 31.94 95.7757 31.5133 95.269 31.22C94.7623 30.9267 94.2157 30.78 93.629 30.78C93.0423 30.78 92.4957 30.9267 91.989 31.22C91.4823 31.5 91.069 31.92 90.749 32.48C90.4423 33.0267 90.289 33.68 90.289 34.44C90.289 35.2 90.4423 35.8667 90.749 36.44C91.069 37.0133 91.4823 37.4533 91.989 37.76C92.509 38.0533 93.0557 38.2 93.629 38.2C94.2157 38.2 94.7623 38.0533 95.269 37.76C95.7757 37.4667 96.1823 37.04 96.489 36.48C96.809 35.9067 96.969 35.24 96.969 34.48ZM103.424 27.52C103.01 27.52 102.664 27.38 102.384 27.1C102.104 26.82 101.964 26.4733 101.964 26.06C101.964 25.6467 102.104 25.3 102.384 25.02C102.664 24.74 103.01 24.6 103.424 24.6C103.824 24.6 104.164 24.74 104.444 25.02C104.724 25.3 104.864 25.6467 104.864 26.06C104.864 26.4733 104.724 26.82 104.444 27.1C104.164 27.38 103.824 27.52 103.424 27.52ZM104.544 28.98V40H102.264V28.98H104.544ZM106.777 34.48C106.777 33.3467 107.004 32.3533 107.457 31.5C107.924 30.6333 108.564 29.9667 109.377 29.5C110.19 29.0333 111.124 28.8 112.177 28.8C113.51 28.8 114.61 29.12 115.477 29.76C116.357 30.3867 116.95 31.2867 117.257 32.46H114.797C114.597 31.9133 114.277 31.4867 113.837 31.18C113.397 30.8733 112.844 30.72 112.177 30.72C111.244 30.72 110.497 31.0533 109.937 31.72C109.39 32.3733 109.117 33.2933 109.117 34.48C109.117 35.6667 109.39 36.5933 109.937 37.26C110.497 37.9267 111.244 38.26 112.177 38.26C113.497 38.26 114.37 37.68 114.797 36.52H117.257C116.937 37.64 116.337 38.5333 115.457 39.2C114.577 39.8533 113.484 40.18 112.177 40.18C111.124 40.18 110.19 39.9467 109.377 39.48C108.564 39 107.924 38.3333 107.457 37.48C107.004 36.6133 106.777 35.6133 106.777 34.48ZM118.769 34.44C118.769 33.3333 118.996 32.3533 119.449 31.5C119.916 30.6467 120.543 29.9867 121.329 29.52C122.129 29.04 123.009 28.8 123.969 28.8C124.836 28.8 125.589 28.9733 126.229 29.32C126.883 29.6533 127.403 30.0733 127.789 30.58V28.98H130.089V40H127.789V38.36C127.403 38.88 126.876 39.3133 126.209 39.66C125.543 40.0067 124.783 40.18 123.929 40.18C122.983 40.18 122.116 39.94 121.329 39.46C120.543 38.9667 119.916 38.2867 119.449 37.42C118.996 36.54 118.769 35.5467 118.769 34.44ZM127.789 34.48C127.789 33.72 127.629 33.06 127.309 32.5C127.003 31.94 126.596 31.5133 126.089 31.22C125.583 30.9267 125.036 30.78 124.449 30.78C123.863 30.78 123.316 30.9267 122.809 31.22C122.303 31.5 121.889 31.92 121.569 32.48C121.263 33.0267 121.109 33.68 121.109 34.44C121.109 35.2 121.263 35.8667 121.569 36.44C121.889 37.0133 122.303 37.4533 122.809 37.76C123.329 38.0533 123.876 38.2 124.449 38.2C125.036 38.2 125.583 38.0533 126.089 37.76C126.596 37.4667 127.003 37.04 127.309 36.48C127.629 35.9067 127.789 35.24 127.789 34.48ZM135.364 25.2V40H133.084V25.2H135.364ZM150.953 21.12L145.513 43.5H143.273L148.693 21.12H150.953ZM170.441 40H168.161L161.301 29.62V40H159.021V26.08H161.301L168.161 36.44V26.08H170.441V40ZM183.416 28.98V40H181.136V38.7C180.776 39.1533 180.302 39.5133 179.716 39.78C179.142 40.0333 178.529 40.16 177.876 40.16C177.009 40.16 176.229 39.98 175.536 39.62C174.856 39.26 174.316 38.7267 173.916 38.02C173.529 37.3133 173.336 36.46 173.336 35.46V28.98H175.596V35.12C175.596 36.1067 175.842 36.8667 176.336 37.4C176.829 37.92 177.502 38.18 178.356 38.18C179.209 38.18 179.882 37.92 180.376 37.4C180.882 36.8667 181.136 36.1067 181.136 35.12V28.98H183.416ZM189.084 30.84V36.94C189.084 37.3533 189.177 37.6533 189.364 37.84C189.564 38.0133 189.897 38.1 190.364 38.1H191.764V40H189.964C188.937 40 188.15 39.76 187.604 39.28C187.057 38.8 186.784 38.02 186.784 36.94V30.84H185.484V28.98H186.784V26.24H189.084V28.98H191.764V30.84H189.084ZM196.145 30.58C196.479 30.02 196.919 29.5867 197.465 29.28C198.025 28.96 198.685 28.8 199.445 28.8V31.16H198.865C197.972 31.16 197.292 31.3867 196.825 31.84C196.372 32.2933 196.145 33.08 196.145 34.2V40H193.865V28.98H196.145V30.58ZM202.701 27.52C202.288 27.52 201.941 27.38 201.661 27.1C201.381 26.82 201.241 26.4733 201.241 26.06C201.241 25.6467 201.381 25.3 201.661 25.02C201.941 24.74 202.288 24.6 202.701 24.6C203.101 24.6 203.441 24.74 203.721 25.02C204.001 25.3 204.141 25.6467 204.141 26.06C204.141 26.4733 204.001 26.82 203.721 27.1C203.441 27.38 203.101 27.52 202.701 27.52ZM203.821 28.98V40H201.541V28.98H203.821ZM209.474 30.84V36.94C209.474 37.3533 209.568 37.6533 209.754 37.84C209.954 38.0133 210.288 38.1 210.754 38.1H212.154V40H210.354C209.328 40 208.541 39.76 207.994 39.28C207.448 38.8 207.174 38.02 207.174 36.94V30.84H205.874V28.98H207.174V26.24H209.474V28.98H212.154V30.84H209.474ZM215.416 27.52C215.003 27.52 214.656 27.38 214.376 27.1C214.096 26.82 213.956 26.4733 213.956 26.06C213.956 25.6467 214.096 25.3 214.376 25.02C214.656 24.74 215.003 24.6 215.416 24.6C215.816 24.6 216.156 24.74 216.436 25.02C216.716 25.3 216.856 25.6467 216.856 26.06C216.856 26.4733 216.716 26.82 216.436 27.1C216.156 27.38 215.816 27.52 215.416 27.52ZM216.536 28.98V40H214.256V28.98H216.536ZM224.309 40.18C223.269 40.18 222.329 39.9467 221.489 39.48C220.649 39 219.989 38.3333 219.509 37.48C219.029 36.6133 218.789 35.6133 218.789 34.48C218.789 33.36 219.036 32.3667 219.529 31.5C220.023 30.6333 220.696 29.9667 221.549 29.5C222.403 29.0333 223.356 28.8 224.409 28.8C225.463 28.8 226.416 29.0333 227.269 29.5C228.123 29.9667 228.796 30.6333 229.289 31.5C229.783 32.3667 230.029 33.36 230.029 34.48C230.029 35.6 229.776 36.5933 229.269 37.46C228.763 38.3267 228.069 39 227.189 39.48C226.323 39.9467 225.363 40.18 224.309 40.18ZM224.309 38.2C224.896 38.2 225.443 38.06 225.949 37.78C226.469 37.5 226.889 37.08 227.209 36.52C227.529 35.96 227.689 35.28 227.689 34.48C227.689 33.68 227.536 33.0067 227.229 32.46C226.923 31.9 226.516 31.48 226.009 31.2C225.503 30.92 224.956 30.78 224.369 30.78C223.783 30.78 223.236 30.92 222.729 31.2C222.236 31.48 221.843 31.9 221.549 32.46C221.256 33.0067 221.109 33.68 221.109 34.48C221.109 35.6667 221.409 36.5867 222.009 37.24C222.623 37.88 223.389 38.2 224.309 38.2ZM237.843 28.8C238.71 28.8 239.483 28.98 240.163 29.34C240.857 29.7 241.397 30.2333 241.783 30.94C242.17 31.6467 242.363 32.5 242.363 33.5V40H240.103V33.84C240.103 32.8533 239.857 32.1 239.363 31.58C238.87 31.0467 238.197 30.78 237.343 30.78C236.49 30.78 235.81 31.0467 235.303 31.58C234.81 32.1 234.563 32.8533 234.563 33.84V40H232.283V28.98H234.563V30.24C234.937 29.7867 235.41 29.4333 235.983 29.18C236.57 28.9267 237.19 28.8 237.843 28.8Z" fill="white"/>
</g>
</svg>
