<svg width="225" height="66" viewBox="0 0 225 66" fill="none" xmlns="http://www.w3.org/2000/svg">
<path d="M225 0H0V66H225V0Z" fill="#4081AB"/>
<path d="M9.1775 33.02C9.1775 31.66 9.49083 30.44 10.1175 29.36C10.7575 28.28 11.6175 27.44 12.6975 26.84C13.7908 26.2267 14.9842 25.92 16.2775 25.92C17.7575 25.92 19.0708 26.2867 20.2175 27.02C21.3775 27.74 22.2175 28.7667 22.7375 30.1H19.9975C19.6375 29.3667 19.1375 28.82 18.4975 28.46C17.8575 28.1 17.1175 27.92 16.2775 27.92C15.3575 27.92 14.5375 28.1267 13.8175 28.54C13.0975 28.9533 12.5308 29.5467 12.1175 30.32C11.7175 31.0933 11.5175 31.9933 11.5175 33.02C11.5175 34.0467 11.7175 34.9467 12.1175 35.72C12.5308 36.4933 13.0975 37.0933 13.8175 37.52C14.5375 37.9333 15.3575 38.14 16.2775 38.14C17.1175 38.14 17.8575 37.96 18.4975 37.6C19.1375 37.24 19.6375 36.6933 19.9975 35.96H22.7375C22.2175 37.2933 21.3775 38.32 20.2175 39.04C19.0708 39.76 17.7575 40.12 16.2775 40.12C14.9708 40.12 13.7775 39.82 12.6975 39.22C11.6175 38.6067 10.7575 37.76 10.1175 36.68C9.49083 35.6 9.1775 34.38 9.1775 33.02ZM24.6463 34.44C24.6463 33.3333 24.8729 32.3533 25.3263 31.5C25.7929 30.6467 26.4196 29.9867 27.2063 29.52C28.0063 29.04 28.8863 28.8 29.8463 28.8C30.7129 28.8 31.4663 28.9733 32.1063 29.32C32.7596 29.6533 33.2796 30.0733 33.6663 30.58V28.98H35.9663V40H33.6663V38.36C33.2796 38.88 32.7529 39.3133 32.0863 39.66C31.4196 40.0067 30.6596 40.18 29.8063 40.18C28.8596 40.18 27.9929 39.94 27.2063 39.46C26.4196 38.9667 25.7929 38.2867 25.3263 37.42C24.8729 36.54 24.6463 35.5467 24.6463 34.44ZM33.6663 34.48C33.6663 33.72 33.5063 33.06 33.1863 32.5C32.8796 31.94 32.4729 31.5133 31.9663 31.22C31.4596 30.9267 30.9129 30.78 30.3263 30.78C29.7396 30.78 29.1929 30.9267 28.6863 31.22C28.1796 31.5 27.7663 31.92 27.4463 32.48C27.1396 33.0267 26.9863 33.68 26.9863 34.44C26.9863 35.2 27.1396 35.8667 27.4463 36.44C27.7663 37.0133 28.1796 37.4533 28.6863 37.76C29.2063 38.0533 29.7529 38.2 30.3263 38.2C30.9129 38.2 31.4596 38.0533 31.9663 37.76C32.4729 37.4667 32.8796 37.04 33.1863 36.48C33.5063 35.9067 33.6663 35.24 33.6663 34.48ZM41.2409 30.58C41.5743 30.02 42.0143 29.5867 42.5609 29.28C43.1209 28.96 43.7809 28.8 44.5409 28.8V31.16H43.9609C43.0676 31.16 42.3876 31.3867 41.9209 31.84C41.4676 32.2933 41.2409 33.08 41.2409 34.2V40H38.9609V28.98H41.2409V30.58ZM56.7367 34.22C56.7367 34.6333 56.7101 35.0067 56.6567 35.34H48.2367C48.3034 36.22 48.6301 36.9267 49.2167 37.46C49.8034 37.9933 50.5234 38.26 51.3767 38.26C52.6034 38.26 53.4701 37.7467 53.9767 36.72H56.4367C56.1034 37.7333 55.4967 38.5667 54.6167 39.22C53.7501 39.86 52.6701 40.18 51.3767 40.18C50.3234 40.18 49.3767 39.9467 48.5367 39.48C47.7101 39 47.0567 38.3333 46.5767 37.48C46.1101 36.6133 45.8767 35.6133 45.8767 34.48C45.8767 33.3467 46.1034 32.3533 46.5567 31.5C47.0234 30.6333 47.6701 29.9667 48.4967 29.5C49.3367 29.0333 50.2967 28.8 51.3767 28.8C52.4167 28.8 53.3434 29.0267 54.1567 29.48C54.9701 29.9333 55.6034 30.5733 56.0567 31.4C56.5101 32.2133 56.7367 33.1533 56.7367 34.22ZM54.3567 33.5C54.3434 32.66 54.0434 31.9867 53.4567 31.48C52.8701 30.9733 52.1434 30.72 51.2767 30.72C50.4901 30.72 49.8167 30.9733 49.2567 31.48C48.6967 31.9733 48.3634 32.6467 48.2567 33.5H54.3567ZM63.4205 28.8C64.2738 28.8 65.0271 28.9733 65.6805 29.32C66.3471 29.6533 66.8671 30.0733 67.2405 30.58V28.98H69.5405V40.18C69.5405 41.1933 69.3271 42.0933 68.9005 42.88C68.4738 43.68 67.8538 44.3067 67.0405 44.76C66.2405 45.2133 65.2805 45.44 64.1605 45.44C62.6671 45.44 61.4271 45.0867 60.4405 44.38C59.4538 43.6867 58.8938 42.74 58.7605 41.54H61.0205C61.1938 42.1133 61.5605 42.5733 62.1205 42.92C62.6938 43.28 63.3738 43.46 64.1605 43.46C65.0805 43.46 65.8205 43.18 66.3805 42.62C66.9538 42.06 67.2405 41.2467 67.2405 40.18V38.34C66.8538 38.86 66.3271 39.3 65.6605 39.66C65.0071 40.0067 64.2605 40.18 63.4205 40.18C62.4605 40.18 61.5805 39.94 60.7805 39.46C59.9938 38.9667 59.3671 38.2867 58.9005 37.42C58.4471 36.54 58.2205 35.5467 58.2205 34.44C58.2205 33.3333 58.4471 32.3533 58.9005 31.5C59.3671 30.6467 59.9938 29.9867 60.7805 29.52C61.5805 29.04 62.4605 28.8 63.4205 28.8ZM67.2405 34.48C67.2405 33.72 67.0805 33.06 66.7605 32.5C66.4538 31.94 66.0471 31.5133 65.5405 31.22C65.0338 30.9267 64.4871 30.78 63.9005 30.78C63.3138 30.78 62.7671 30.9267 62.2605 31.22C61.7538 31.5 61.3405 31.92 61.0205 32.48C60.7138 33.0267 60.5605 33.68 60.5605 34.44C60.5605 35.2 60.7138 35.8667 61.0205 36.44C61.3405 37.0133 61.7538 37.4533 62.2605 37.76C62.7805 38.0533 63.3271 38.2 63.9005 38.2C64.4871 38.2 65.0338 38.0533 65.5405 37.76C66.0471 37.4667 66.4538 37.04 66.7605 36.48C67.0805 35.9067 67.2405 35.24 67.2405 34.48ZM73.6952 27.52C73.2818 27.52 72.9352 27.38 72.6552 27.1C72.3752 26.82 72.2352 26.4733 72.2352 26.06C72.2352 25.6467 72.3752 25.3 72.6552 25.02C72.9352 24.74 73.2818 24.6 73.6952 24.6C74.0952 24.6 74.4352 24.74 74.7152 25.02C74.9952 25.3 75.1352 25.6467 75.1352 26.06C75.1352 26.4733 74.9952 26.82 74.7152 27.1C74.4352 27.38 74.0952 27.52 73.6952 27.52ZM74.8152 28.98V40H72.5352V28.98H74.8152ZM82.0686 37.96L85.1886 28.98H87.6086L83.4086 40H80.6886L76.5086 28.98H78.9486L82.0686 37.96ZM99.432 34.22C99.432 34.6333 99.4054 35.0067 99.352 35.34H90.932C90.9987 36.22 91.3254 36.9267 91.912 37.46C92.4987 37.9933 93.2187 38.26 94.072 38.26C95.2987 38.26 96.1654 37.7467 96.672 36.72H99.132C98.7987 37.7333 98.192 38.5667 97.312 39.22C96.4454 39.86 95.3654 40.18 94.072 40.18C93.0187 40.18 92.072 39.9467 91.232 39.48C90.4054 39 89.752 38.3333 89.272 37.48C88.8054 36.6133 88.572 35.6133 88.572 34.48C88.572 33.3467 88.7987 32.3533 89.252 31.5C89.7187 30.6333 90.3654 29.9667 91.192 29.5C92.032 29.0333 92.992 28.8 94.072 28.8C95.112 28.8 96.0387 29.0267 96.852 29.48C97.6654 29.9333 98.2987 30.5733 98.752 31.4C99.2054 32.2133 99.432 33.1533 99.432 34.22ZM97.052 33.5C97.0387 32.66 96.7387 31.9867 96.152 31.48C95.5654 30.9733 94.8387 30.72 93.972 30.72C93.1854 30.72 92.512 30.9733 91.952 31.48C91.392 31.9733 91.0587 32.6467 90.952 33.5H97.052ZM103.956 30.58C104.289 30.02 104.729 29.5867 105.276 29.28C105.836 28.96 106.496 28.8 107.256 28.8V31.16H106.676C105.782 31.16 105.102 31.3867 104.636 31.84C104.182 32.2933 103.956 33.08 103.956 34.2V40H101.676V28.98H103.956V30.58ZM113.352 40.18C112.485 40.18 111.705 40.0267 111.012 39.72C110.332 39.4 109.792 38.9733 109.392 38.44C108.992 37.8933 108.778 37.2867 108.752 36.62H111.112C111.152 37.0867 111.372 37.48 111.772 37.8C112.185 38.1067 112.698 38.26 113.312 38.26C113.952 38.26 114.445 38.14 114.792 37.9C115.152 37.6467 115.332 37.3267 115.332 36.94C115.332 36.5267 115.132 36.22 114.732 36.02C114.345 35.82 113.725 35.6 112.872 35.36C112.045 35.1333 111.372 34.9133 110.852 34.7C110.332 34.4867 109.878 34.16 109.492 33.72C109.118 33.28 108.932 32.7 108.932 31.98C108.932 31.3933 109.105 30.86 109.452 30.38C109.798 29.8867 110.292 29.5 110.932 29.22C111.585 28.94 112.332 28.8 113.172 28.8C114.425 28.8 115.432 29.12 116.192 29.76C116.965 30.3867 117.378 31.2467 117.432 32.34H115.152C115.112 31.8467 114.912 31.4533 114.552 31.16C114.192 30.8667 113.705 30.72 113.092 30.72C112.492 30.72 112.032 30.8333 111.712 31.06C111.392 31.2867 111.232 31.5867 111.232 31.96C111.232 32.2533 111.338 32.5 111.552 32.7C111.765 32.9 112.025 33.06 112.332 33.18C112.638 33.2867 113.092 33.4267 113.692 33.6C114.492 33.8133 115.145 34.0333 115.652 34.26C116.172 34.4733 116.618 34.7933 116.992 35.22C117.365 35.6467 117.558 36.2133 117.572 36.92C117.572 37.5467 117.398 38.1067 117.052 38.6C116.705 39.0933 116.212 39.48 115.572 39.76C114.945 40.04 114.205 40.18 113.352 40.18ZM127.51 26.1V40H125.23V26.1H127.51ZM136.064 28.8C136.931 28.8 137.704 28.98 138.384 29.34C139.077 29.7 139.617 30.2333 140.004 30.94C140.391 31.6467 140.584 32.5 140.584 33.5V40H138.324V33.84C138.324 32.8533 138.077 32.1 137.584 31.58C137.091 31.0467 136.417 30.78 135.564 30.78C134.711 30.78 134.031 31.0467 133.524 31.58C133.031 32.1 132.784 32.8533 132.784 33.84V40H130.504V28.98H132.784V30.24C133.157 29.7867 133.631 29.4333 134.204 29.18C134.791 28.9267 135.411 28.8 136.064 28.8ZM148.112 30.84H146.072V40H143.772V30.84H142.472V28.98H143.772V28.2C143.772 26.9333 144.106 26.0133 144.772 25.44C145.452 24.8533 146.512 24.56 147.952 24.56V26.46C147.259 26.46 146.772 26.5933 146.492 26.86C146.212 27.1133 146.072 27.56 146.072 28.2V28.98H148.112V30.84ZM152.413 25.2V40H150.133V25.2H152.413ZM165.386 28.98V40H163.106V38.7C162.746 39.1533 162.273 39.5133 161.686 39.78C161.113 40.0333 160.5 40.16 159.846 40.16C158.98 40.16 158.2 39.98 157.506 39.62C156.826 39.26 156.286 38.7267 155.886 38.02C155.5 37.3133 155.306 36.46 155.306 35.46V28.98H157.566V35.12C157.566 36.1067 157.813 36.8667 158.306 37.4C158.8 37.92 159.473 38.18 160.326 38.18C161.18 38.18 161.853 37.92 162.346 37.4C162.853 36.8667 163.106 36.1067 163.106 35.12V28.98H165.386ZM178.495 34.22C178.495 34.6333 178.468 35.0067 178.415 35.34H169.995C170.061 36.22 170.388 36.9267 170.975 37.46C171.561 37.9933 172.281 38.26 173.135 38.26C174.361 38.26 175.228 37.7467 175.735 36.72H178.195C177.861 37.7333 177.255 38.5667 176.375 39.22C175.508 39.86 174.428 40.18 173.135 40.18C172.081 40.18 171.135 39.9467 170.295 39.48C169.468 39 168.815 38.3333 168.335 37.48C167.868 36.6133 167.635 35.6133 167.635 34.48C167.635 33.3467 167.861 32.3533 168.315 31.5C168.781 30.6333 169.428 29.9667 170.255 29.5C171.095 29.0333 172.055 28.8 173.135 28.8C174.175 28.8 175.101 29.0267 175.915 29.48C176.728 29.9333 177.361 30.5733 177.815 31.4C178.268 32.2133 178.495 33.1533 178.495 34.22ZM176.115 33.5C176.101 32.66 175.801 31.9867 175.215 31.48C174.628 30.9733 173.901 30.72 173.035 30.72C172.248 30.72 171.575 30.9733 171.015 31.48C170.455 31.9733 170.121 32.6467 170.015 33.5H176.115ZM186.298 28.8C187.165 28.8 187.938 28.98 188.618 29.34C189.312 29.7 189.852 30.2333 190.238 30.94C190.625 31.6467 190.818 32.5 190.818 33.5V40H188.558V33.84C188.558 32.8533 188.312 32.1 187.818 31.58C187.325 31.0467 186.652 30.78 185.798 30.78C184.945 30.78 184.265 31.0467 183.758 31.58C183.265 32.1 183.018 32.8533 183.018 33.84V40H180.738V28.98H183.018V30.24C183.392 29.7867 183.865 29.4333 184.438 29.18C185.025 28.9267 185.645 28.8 186.298 28.8ZM192.967 34.48C192.967 33.3467 193.193 32.3533 193.647 31.5C194.113 30.6333 194.753 29.9667 195.567 29.5C196.38 29.0333 197.313 28.8 198.367 28.8C199.7 28.8 200.8 29.12 201.667 29.76C202.547 30.3867 203.14 31.2867 203.447 32.46H200.987C200.787 31.9133 200.467 31.4867 200.027 31.18C199.587 30.8733 199.033 30.72 198.367 30.72C197.433 30.72 196.687 31.0533 196.127 31.72C195.58 32.3733 195.307 33.2933 195.307 34.48C195.307 35.6667 195.58 36.5933 196.127 37.26C196.687 37.9267 197.433 38.26 198.367 38.26C199.687 38.26 200.56 37.68 200.987 36.52H203.447C203.127 37.64 202.527 38.5333 201.647 39.2C200.767 39.8533 199.673 40.18 198.367 40.18C197.313 40.18 196.38 39.9467 195.567 39.48C194.753 39 194.113 38.3333 193.647 37.48C193.193 36.6133 192.967 35.6133 192.967 34.48ZM215.819 34.22C215.819 34.6333 215.792 35.0067 215.739 35.34H207.319C207.385 36.22 207.712 36.9267 208.299 37.46C208.885 37.9933 209.605 38.26 210.459 38.26C211.685 38.26 212.552 37.7467 213.059 36.72H215.519C215.185 37.7333 214.579 38.5667 213.699 39.22C212.832 39.86 211.752 40.18 210.459 40.18C209.405 40.18 208.459 39.9467 207.619 39.48C206.792 39 206.139 38.3333 205.659 37.48C205.192 36.6133 204.959 35.6133 204.959 34.48C204.959 33.3467 205.185 32.3533 205.639 31.5C206.105 30.6333 206.752 29.9667 207.579 29.5C208.419 29.0333 209.379 28.8 210.459 28.8C211.499 28.8 212.425 29.0267 213.239 29.48C214.052 29.9333 214.685 30.5733 215.139 31.4C215.592 32.2133 215.819 33.1533 215.819 34.22ZM213.439 33.5C213.425 32.66 213.125 31.9867 212.539 31.48C211.952 30.9733 211.225 30.72 210.359 30.72C209.572 30.72 208.899 30.9733 208.339 31.48C207.779 31.9733 207.445 32.6467 207.339 33.5H213.439Z" fill="white"/>
</svg>
