<svg width="178" height="66" viewBox="0 0 178 66" fill="none" xmlns="http://www.w3.org/2000/svg">
<g opacity="0.5">
<path d="M0.142578 66L47.2854 0H178V66H0.142578Z" fill="#062F62"/>
<path d="M80.7738 14.1V28H78.4938V21.92H71.9538V28H69.6738V14.1H71.9538V20.06H78.4938V14.1H80.7738ZM93.7554 16.98V28H91.4754V26.7C91.1154 27.1533 90.6421 27.5133 90.0554 27.78C89.4821 28.0333 88.8687 28.16 88.2154 28.16C87.3487 28.16 86.5687 27.98 85.8754 27.62C85.1954 27.26 84.6554 26.7267 84.2554 26.02C83.8687 25.3133 83.6754 24.46 83.6754 23.46V16.98H85.9354V23.12C85.9354 24.1067 86.1821 24.8667 86.6754 25.4C87.1687 25.92 87.8421 26.18 88.6954 26.18C89.5487 26.18 90.2221 25.92 90.7154 25.4C91.2221 24.8667 91.4754 24.1067 91.4754 23.12V16.98H93.7554ZM102.324 16.8C103.19 16.8 103.964 16.98 104.644 17.34C105.337 17.7 105.877 18.2333 106.264 18.94C106.65 19.6467 106.844 20.5 106.844 21.5V28H104.584V21.84C104.584 20.8533 104.337 20.1 103.844 19.58C103.35 19.0467 102.677 18.78 101.824 18.78C100.97 18.78 100.29 19.0467 99.7837 19.58C99.2903 20.1 99.0437 20.8533 99.0437 21.84V28H96.7637V16.98H99.0437V18.24C99.417 17.7867 99.8903 17.4333 100.464 17.18C101.05 16.9267 101.67 16.8 102.324 16.8ZM114.192 16.8C115.045 16.8 115.799 16.9733 116.452 17.32C117.119 17.6533 117.639 18.0733 118.012 18.58V16.98H120.312V28.18C120.312 29.1933 120.099 30.0933 119.672 30.88C119.245 31.68 118.625 32.3067 117.812 32.76C117.012 33.2133 116.052 33.44 114.932 33.44C113.439 33.44 112.199 33.0867 111.212 32.38C110.225 31.6867 109.665 30.74 109.532 29.54H111.792C111.965 30.1133 112.332 30.5733 112.892 30.92C113.465 31.28 114.145 31.46 114.932 31.46C115.852 31.46 116.592 31.18 117.152 30.62C117.725 30.06 118.012 29.2467 118.012 28.18V26.34C117.625 26.86 117.099 27.3 116.432 27.66C115.779 28.0067 115.032 28.18 114.192 28.18C113.232 28.18 112.352 27.94 111.552 27.46C110.765 26.9667 110.139 26.2867 109.672 25.42C109.219 24.54 108.992 23.5467 108.992 22.44C108.992 21.3333 109.219 20.3533 109.672 19.5C110.139 18.6467 110.765 17.9867 111.552 17.52C112.352 17.04 113.232 16.8 114.192 16.8ZM118.012 22.48C118.012 21.72 117.852 21.06 117.532 20.5C117.225 19.94 116.819 19.5133 116.312 19.22C115.805 18.9267 115.259 18.78 114.672 18.78C114.085 18.78 113.539 18.9267 113.032 19.22C112.525 19.5 112.112 19.92 111.792 20.48C111.485 21.0267 111.332 21.68 111.332 22.44C111.332 23.2 111.485 23.8667 111.792 24.44C112.112 25.0133 112.525 25.4533 113.032 25.76C113.552 26.0533 114.099 26.2 114.672 26.2C115.259 26.2 115.805 26.0533 116.312 25.76C116.819 25.4667 117.225 25.04 117.532 24.48C117.852 23.9067 118.012 23.24 118.012 22.48ZM133.407 22.22C133.407 22.6333 133.38 23.0067 133.327 23.34H124.907C124.973 24.22 125.3 24.9267 125.887 25.46C126.473 25.9933 127.193 26.26 128.047 26.26C129.273 26.26 130.14 25.7467 130.647 24.72H133.107C132.773 25.7333 132.167 26.5667 131.287 27.22C130.42 27.86 129.34 28.18 128.047 28.18C126.993 28.18 126.047 27.9467 125.207 27.48C124.38 27 123.727 26.3333 123.247 25.48C122.78 24.6133 122.547 23.6133 122.547 22.48C122.547 21.3467 122.773 20.3533 123.227 19.5C123.693 18.6333 124.34 17.9667 125.167 17.5C126.007 17.0333 126.967 16.8 128.047 16.8C129.087 16.8 130.013 17.0267 130.827 17.48C131.64 17.9333 132.273 18.5733 132.727 19.4C133.18 20.2133 133.407 21.1533 133.407 22.22ZM131.027 21.5C131.013 20.66 130.713 19.9867 130.127 19.48C129.54 18.9733 128.813 18.72 127.947 18.72C127.16 18.72 126.487 18.9733 125.927 19.48C125.367 19.9733 125.033 20.6467 124.927 21.5H131.027ZM137.93 18.58C138.264 18.02 138.704 17.5867 139.25 17.28C139.81 16.96 140.47 16.8 141.23 16.8V19.16H140.65C139.757 19.16 139.077 19.3867 138.61 19.84C138.157 20.2933 137.93 21.08 137.93 22.2V28H135.65V16.98H137.93V18.58ZM77.3806 45.02C77.3806 43.66 77.694 42.44 78.3206 41.36C78.9606 40.28 79.8206 39.44 80.9006 38.84C81.994 38.2267 83.1873 37.92 84.4806 37.92C85.9606 37.92 87.274 38.2867 88.4206 39.02C89.5806 39.74 90.4206 40.7667 90.9406 42.1H88.2006C87.8406 41.3667 87.3406 40.82 86.7006 40.46C86.0606 40.1 85.3206 39.92 84.4806 39.92C83.5606 39.92 82.7406 40.1267 82.0206 40.54C81.3006 40.9533 80.734 41.5467 80.3206 42.32C79.9206 43.0933 79.7206 43.9933 79.7206 45.02C79.7206 46.0467 79.9206 46.9467 80.3206 47.72C80.734 48.4933 81.3006 49.0933 82.0206 49.52C82.7406 49.9333 83.5606 50.14 84.4806 50.14C85.3206 50.14 86.0606 49.96 86.7006 49.6C87.3406 49.24 87.8406 48.6933 88.2006 47.96H90.9406C90.4206 49.2933 89.5806 50.32 88.4206 51.04C87.274 51.76 85.9606 52.12 84.4806 52.12C83.174 52.12 81.9806 51.82 80.9006 51.22C79.8206 50.6067 78.9606 49.76 78.3206 48.68C77.694 47.6 77.3806 46.38 77.3806 45.02ZM103.529 40.98L96.7694 57.18H94.4094L96.6494 51.82L92.3094 40.98H94.8494L97.9494 49.38L101.169 40.98H103.529ZM104.49 46.48C104.49 45.3467 104.717 44.3533 105.17 43.5C105.637 42.6333 106.277 41.9667 107.09 41.5C107.903 41.0333 108.837 40.8 109.89 40.8C111.223 40.8 112.323 41.12 113.19 41.76C114.07 42.3867 114.663 43.2867 114.97 44.46H112.51C112.31 43.9133 111.99 43.4867 111.55 43.18C111.11 42.8733 110.557 42.72 109.89 42.72C108.957 42.72 108.21 43.0533 107.65 43.72C107.103 44.3733 106.83 45.2933 106.83 46.48C106.83 47.6667 107.103 48.5933 107.65 49.26C108.21 49.9267 108.957 50.26 109.89 50.26C111.21 50.26 112.083 49.68 112.51 48.52H114.97C114.65 49.64 114.05 50.5333 113.17 51.2C112.29 51.8533 111.197 52.18 109.89 52.18C108.837 52.18 107.903 51.9467 107.09 51.48C106.277 51 105.637 50.3333 105.17 49.48C104.717 48.6133 104.49 47.6133 104.49 46.48ZM119.522 37.2V52H117.242V37.2H119.522ZM132.616 46.22C132.616 46.6333 132.589 47.0067 132.536 47.34H124.116C124.182 48.22 124.509 48.9267 125.096 49.46C125.682 49.9933 126.402 50.26 127.256 50.26C128.482 50.26 129.349 49.7467 129.856 48.72H132.316C131.982 49.7333 131.376 50.5667 130.496 51.22C129.629 51.86 128.549 52.18 127.256 52.18C126.202 52.18 125.256 51.9467 124.416 51.48C123.589 51 122.936 50.3333 122.456 49.48C121.989 48.6133 121.756 47.6133 121.756 46.48C121.756 45.3467 121.982 44.3533 122.436 43.5C122.902 42.6333 123.549 41.9667 124.376 41.5C125.216 41.0333 126.176 40.8 127.256 40.8C128.296 40.8 129.222 41.0267 130.036 41.48C130.849 41.9333 131.482 42.5733 131.936 43.4C132.389 44.2133 132.616 45.1533 132.616 46.22ZM130.236 45.5C130.222 44.66 129.922 43.9867 129.336 43.48C128.749 42.9733 128.022 42.72 127.156 42.72C126.369 42.72 125.696 42.9733 125.136 43.48C124.576 43.9733 124.242 44.6467 124.136 45.5H130.236Z" fill="white"/>
</g>
</svg>
