<svg width="312" height="66" viewBox="0 0 312 66" fill="none" xmlns="http://www.w3.org/2000/svg">
<g opacity="0.5">
<path d="M0.286133 66L47.429 0H264.572L311.715 66H0.286133Z" fill="#FFE699"/>
<path d="M74.2833 40H72.0033L65.1433 29.62V40H62.8633V26.08H65.1433L72.0033 36.44V26.08H74.2833V40ZM87.3773 34.22C87.3773 34.6333 87.3507 35.0067 87.2973 35.34H78.8773C78.944 36.22 79.2707 36.9267 79.8573 37.46C80.444 37.9933 81.164 38.26 82.0173 38.26C83.244 38.26 84.1107 37.7467 84.6173 36.72H87.0773C86.744 37.7333 86.1373 38.5667 85.2573 39.22C84.3907 39.86 83.3107 40.18 82.0173 40.18C80.964 40.18 80.0173 39.9467 79.1773 39.48C78.3507 39 77.6973 38.3333 77.2173 37.48C76.7507 36.6133 76.5173 35.6133 76.5173 34.48C76.5173 33.3467 76.744 32.3533 77.1973 31.5C77.664 30.6333 78.3107 29.9667 79.1373 29.5C79.9773 29.0333 80.9373 28.8 82.0173 28.8C83.0573 28.8 83.984 29.0267 84.7973 29.48C85.6107 29.9333 86.244 30.5733 86.6973 31.4C87.1507 32.2133 87.3773 33.1533 87.3773 34.22ZM84.9973 33.5C84.984 32.66 84.684 31.9867 84.0973 31.48C83.5107 30.9733 82.784 30.72 81.9173 30.72C81.1307 30.72 80.4573 30.9733 79.8973 31.48C79.3373 31.9733 79.004 32.6467 78.8973 33.5H84.9973ZM104.421 28.98L101.001 40H98.6011L96.3811 31.86L94.1611 40H91.7611L88.3211 28.98H90.6411L92.9411 37.84L95.2811 28.98H97.6611L99.9011 37.8L102.181 28.98H104.421ZM119.5 26.1V27.96H113.6V32.06H118.2V33.92H113.6V40H111.32V26.1H119.5ZM126.393 40.18C125.353 40.18 124.413 39.9467 123.573 39.48C122.733 39 122.073 38.3333 121.593 37.48C121.113 36.6133 120.873 35.6133 120.873 34.48C120.873 33.36 121.12 32.3667 121.613 31.5C122.107 30.6333 122.78 29.9667 123.633 29.5C124.487 29.0333 125.44 28.8 126.493 28.8C127.547 28.8 128.5 29.0333 129.353 29.5C130.207 29.9667 130.88 30.6333 131.373 31.5C131.867 32.3667 132.113 33.36 132.113 34.48C132.113 35.6 131.86 36.5933 131.353 37.46C130.847 38.3267 130.153 39 129.273 39.48C128.407 39.9467 127.447 40.18 126.393 40.18ZM126.393 38.2C126.98 38.2 127.527 38.06 128.033 37.78C128.553 37.5 128.973 37.08 129.293 36.52C129.613 35.96 129.773 35.28 129.773 34.48C129.773 33.68 129.62 33.0067 129.313 32.46C129.007 31.9 128.6 31.48 128.093 31.2C127.587 30.92 127.04 30.78 126.453 30.78C125.867 30.78 125.32 30.92 124.813 31.2C124.32 31.48 123.927 31.9 123.633 32.46C123.34 33.0067 123.193 33.68 123.193 34.48C123.193 35.6667 123.493 36.5867 124.093 37.24C124.707 37.88 125.473 38.2 126.393 38.2ZM139.147 40.18C138.107 40.18 137.167 39.9467 136.327 39.48C135.487 39 134.827 38.3333 134.347 37.48C133.867 36.6133 133.627 35.6133 133.627 34.48C133.627 33.36 133.874 32.3667 134.367 31.5C134.861 30.6333 135.534 29.9667 136.387 29.5C137.241 29.0333 138.194 28.8 139.247 28.8C140.301 28.8 141.254 29.0333 142.107 29.5C142.961 29.9667 143.634 30.6333 144.127 31.5C144.621 32.3667 144.867 33.36 144.867 34.48C144.867 35.6 144.614 36.5933 144.107 37.46C143.601 38.3267 142.907 39 142.027 39.48C141.161 39.9467 140.201 40.18 139.147 40.18ZM139.147 38.2C139.734 38.2 140.281 38.06 140.787 37.78C141.307 37.5 141.727 37.08 142.047 36.52C142.367 35.96 142.527 35.28 142.527 34.48C142.527 33.68 142.374 33.0067 142.067 32.46C141.761 31.9 141.354 31.48 140.847 31.2C140.341 30.92 139.794 30.78 139.207 30.78C138.621 30.78 138.074 30.92 137.567 31.2C137.074 31.48 136.681 31.9 136.387 32.46C136.094 33.0067 135.947 33.68 135.947 34.48C135.947 35.6667 136.247 36.5867 136.847 37.24C137.461 37.88 138.227 38.2 139.147 38.2ZM146.361 34.44C146.361 33.3333 146.588 32.3533 147.041 31.5C147.508 30.6467 148.134 29.9867 148.921 29.52C149.721 29.04 150.608 28.8 151.581 28.8C152.301 28.8 153.008 28.96 153.701 29.28C154.408 29.5867 154.968 30 155.381 30.52V25.2H157.681V40H155.381V38.34C155.008 38.8733 154.488 39.3133 153.821 39.66C153.168 40.0067 152.414 40.18 151.561 40.18C150.601 40.18 149.721 39.94 148.921 39.46C148.134 38.9667 147.508 38.2867 147.041 37.42C146.588 36.54 146.361 35.5467 146.361 34.44ZM155.381 34.48C155.381 33.72 155.221 33.06 154.901 32.5C154.594 31.94 154.188 31.5133 153.681 31.22C153.174 30.9267 152.628 30.78 152.041 30.78C151.454 30.78 150.908 30.9267 150.401 31.22C149.894 31.5 149.481 31.92 149.161 32.48C148.854 33.0267 148.701 33.68 148.701 34.44C148.701 35.2 148.854 35.8667 149.161 36.44C149.481 37.0133 149.894 37.4533 150.401 37.76C150.921 38.0533 151.468 38.2 152.041 38.2C152.628 38.2 153.174 38.0533 153.681 37.76C154.188 37.4667 154.594 37.04 154.901 36.48C155.221 35.9067 155.381 35.24 155.381 34.48ZM168.151 38.16H172.851V40H165.871V26.1H168.151V38.16ZM184.858 34.22C184.858 34.6333 184.831 35.0067 184.778 35.34H176.358C176.424 36.22 176.751 36.9267 177.338 37.46C177.924 37.9933 178.644 38.26 179.498 38.26C180.724 38.26 181.591 37.7467 182.098 36.72H184.558C184.224 37.7333 183.618 38.5667 182.738 39.22C181.871 39.86 180.791 40.18 179.498 40.18C178.444 40.18 177.498 39.9467 176.658 39.48C175.831 39 175.178 38.3333 174.698 37.48C174.231 36.6133 173.998 35.6133 173.998 34.48C173.998 33.3467 174.224 32.3533 174.678 31.5C175.144 30.6333 175.791 29.9667 176.618 29.5C177.458 29.0333 178.418 28.8 179.498 28.8C180.538 28.8 181.464 29.0267 182.278 29.48C183.091 29.9333 183.724 30.5733 184.178 31.4C184.631 32.2133 184.858 33.1533 184.858 34.22ZM182.478 33.5C182.464 32.66 182.164 31.9867 181.578 31.48C180.991 30.9733 180.264 30.72 179.398 30.72C178.611 30.72 177.938 30.9733 177.378 31.48C176.818 31.9733 176.484 32.6467 176.378 33.5H182.478ZM186.342 34.44C186.342 33.3333 186.568 32.3533 187.022 31.5C187.488 30.6467 188.115 29.9867 188.902 29.52C189.702 29.04 190.582 28.8 191.542 28.8C192.408 28.8 193.162 28.9733 193.802 29.32C194.455 29.6533 194.975 30.0733 195.362 30.58V28.98H197.662V40H195.362V38.36C194.975 38.88 194.448 39.3133 193.782 39.66C193.115 40.0067 192.355 40.18 191.502 40.18C190.555 40.18 189.688 39.94 188.902 39.46C188.115 38.9667 187.488 38.2867 187.022 37.42C186.568 36.54 186.342 35.5467 186.342 34.44ZM195.362 34.48C195.362 33.72 195.202 33.06 194.882 32.5C194.575 31.94 194.168 31.5133 193.662 31.22C193.155 30.9267 192.608 30.78 192.022 30.78C191.435 30.78 190.888 30.9267 190.382 31.22C189.875 31.5 189.462 31.92 189.142 32.48C188.835 33.0267 188.682 33.68 188.682 34.44C188.682 35.2 188.835 35.8667 189.142 36.44C189.462 37.0133 189.875 37.4533 190.382 37.76C190.902 38.0533 191.448 38.2 192.022 38.2C192.608 38.2 193.155 38.0533 193.662 37.76C194.168 37.4667 194.575 37.04 194.882 36.48C195.202 35.9067 195.362 35.24 195.362 34.48ZM202.936 30.58C203.27 30.02 203.71 29.5867 204.256 29.28C204.816 28.96 205.476 28.8 206.236 28.8V31.16H205.656C204.763 31.16 204.083 31.3867 203.616 31.84C203.163 32.2933 202.936 33.08 202.936 34.2V40H200.656V28.98H202.936V30.58ZM213.892 28.8C214.759 28.8 215.532 28.98 216.212 29.34C216.905 29.7 217.445 30.2333 217.832 30.94C218.219 31.6467 218.412 32.5 218.412 33.5V40H216.152V33.84C216.152 32.8533 215.905 32.1 215.412 31.58C214.919 31.0467 214.245 30.78 213.392 30.78C212.539 30.78 211.859 31.0467 211.352 31.58C210.859 32.1 210.612 32.8533 210.612 33.84V40H208.332V28.98H210.612V30.24C210.985 29.7867 211.459 29.4333 212.032 29.18C212.619 28.9267 213.239 28.8 213.892 28.8ZM222.48 27.52C222.067 27.52 221.72 27.38 221.44 27.1C221.16 26.82 221.02 26.4733 221.02 26.06C221.02 25.6467 221.16 25.3 221.44 25.02C221.72 24.74 222.067 24.6 222.48 24.6C222.88 24.6 223.22 24.74 223.5 25.02C223.78 25.3 223.92 25.6467 223.92 26.06C223.92 26.4733 223.78 26.82 223.5 27.1C223.22 27.38 222.88 27.52 222.48 27.52ZM223.6 28.98V40H221.32V28.98H223.6ZM232.154 28.8C233.02 28.8 233.794 28.98 234.474 29.34C235.167 29.7 235.707 30.2333 236.094 30.94C236.48 31.6467 236.674 32.5 236.674 33.5V40H234.414V33.84C234.414 32.8533 234.167 32.1 233.674 31.58C233.18 31.0467 232.507 30.78 231.654 30.78C230.8 30.78 230.12 31.0467 229.614 31.58C229.12 32.1 228.874 32.8533 228.874 33.84V40H226.594V28.98H228.874V30.24C229.247 29.7867 229.72 29.4333 230.294 29.18C230.88 28.9267 231.5 28.8 232.154 28.8ZM244.022 28.8C244.875 28.8 245.629 28.9733 246.282 29.32C246.949 29.6533 247.469 30.0733 247.842 30.58V28.98H250.142V40.18C250.142 41.1933 249.929 42.0933 249.502 42.88C249.075 43.68 248.455 44.3067 247.642 44.76C246.842 45.2133 245.882 45.44 244.762 45.44C243.269 45.44 242.029 45.0867 241.042 44.38C240.055 43.6867 239.495 42.74 239.362 41.54H241.622C241.795 42.1133 242.162 42.5733 242.722 42.92C243.295 43.28 243.975 43.46 244.762 43.46C245.682 43.46 246.422 43.18 246.982 42.62C247.555 42.06 247.842 41.2467 247.842 40.18V38.34C247.455 38.86 246.929 39.3 246.262 39.66C245.609 40.0067 244.862 40.18 244.022 40.18C243.062 40.18 242.182 39.94 241.382 39.46C240.595 38.9667 239.969 38.2867 239.502 37.42C239.049 36.54 238.822 35.5467 238.822 34.44C238.822 33.3333 239.049 32.3533 239.502 31.5C239.969 30.6467 240.595 29.9867 241.382 29.52C242.182 29.04 243.062 28.8 244.022 28.8ZM247.842 34.48C247.842 33.72 247.682 33.06 247.362 32.5C247.055 31.94 246.649 31.5133 246.142 31.22C245.635 30.9267 245.089 30.78 244.502 30.78C243.915 30.78 243.369 30.9267 242.862 31.22C242.355 31.5 241.942 31.92 241.622 32.48C241.315 33.0267 241.162 33.68 241.162 34.44C241.162 35.2 241.315 35.8667 241.622 36.44C241.942 37.0133 242.355 37.4533 242.862 37.76C243.382 38.0533 243.929 38.2 244.502 38.2C245.089 38.2 245.635 38.0533 246.142 37.76C246.649 37.4667 247.055 37.04 247.362 36.48C247.682 35.9067 247.842 35.24 247.842 34.48Z" fill="#01796F"/>
</g>
</svg>
