<svg width="406" height="66" viewBox="0 0 406 66" fill="none" xmlns="http://www.w3.org/2000/svg">
<path d="M0.142578 66L47.2854 0H358.714L405.857 66H0.142578Z" fill="#FED966"/>
<path d="M139.846 26.1V27.96H133.946V32.06H138.546V33.92H133.946V40H131.666V26.1H139.846ZM146.739 40.18C145.699 40.18 144.759 39.9467 143.919 39.48C143.079 39 142.419 38.3333 141.939 37.48C141.459 36.6133 141.219 35.6133 141.219 34.48C141.219 33.36 141.466 32.3667 141.959 31.5C142.452 30.6333 143.126 29.9667 143.979 29.5C144.832 29.0333 145.786 28.8 146.839 28.8C147.892 28.8 148.846 29.0333 149.699 29.5C150.552 29.9667 151.226 30.6333 151.719 31.5C152.212 32.3667 152.459 33.36 152.459 34.48C152.459 35.6 152.206 36.5933 151.699 37.46C151.192 38.3267 150.499 39 149.619 39.48C148.752 39.9467 147.792 40.18 146.739 40.18ZM146.739 38.2C147.326 38.2 147.872 38.06 148.379 37.78C148.899 37.5 149.319 37.08 149.639 36.52C149.959 35.96 150.119 35.28 150.119 34.48C150.119 33.68 149.966 33.0067 149.659 32.46C149.352 31.9 148.946 31.48 148.439 31.2C147.932 30.92 147.386 30.78 146.799 30.78C146.212 30.78 145.666 30.92 145.159 31.2C144.666 31.48 144.272 31.9 143.979 32.46C143.686 33.0067 143.539 33.68 143.539 34.48C143.539 35.6667 143.839 36.5867 144.439 37.24C145.052 37.88 145.819 38.2 146.739 38.2ZM159.493 40.18C158.453 40.18 157.513 39.9467 156.673 39.48C155.833 39 155.173 38.3333 154.693 37.48C154.213 36.6133 153.973 35.6133 153.973 34.48C153.973 33.36 154.22 32.3667 154.713 31.5C155.206 30.6333 155.88 29.9667 156.733 29.5C157.586 29.0333 158.54 28.8 159.593 28.8C160.646 28.8 161.6 29.0333 162.453 29.5C163.306 29.9667 163.98 30.6333 164.473 31.5C164.966 32.3667 165.213 33.36 165.213 34.48C165.213 35.6 164.96 36.5933 164.453 37.46C163.946 38.3267 163.253 39 162.373 39.48C161.506 39.9467 160.546 40.18 159.493 40.18ZM159.493 38.2C160.08 38.2 160.626 38.06 161.133 37.78C161.653 37.5 162.073 37.08 162.393 36.52C162.713 35.96 162.873 35.28 162.873 34.48C162.873 33.68 162.72 33.0067 162.413 32.46C162.106 31.9 161.7 31.48 161.193 31.2C160.686 30.92 160.14 30.78 159.553 30.78C158.966 30.78 158.42 30.92 157.913 31.2C157.42 31.48 157.026 31.9 156.733 32.46C156.44 33.0067 156.293 33.68 156.293 34.48C156.293 35.6667 156.593 36.5867 157.193 37.24C157.806 37.88 158.573 38.2 159.493 38.2ZM166.707 34.44C166.707 33.3333 166.933 32.3533 167.387 31.5C167.853 30.6467 168.48 29.9867 169.267 29.52C170.067 29.04 170.953 28.8 171.927 28.8C172.647 28.8 173.353 28.96 174.047 29.28C174.753 29.5867 175.313 30 175.727 30.52V25.2H178.027V40H175.727V38.34C175.353 38.8733 174.833 39.3133 174.167 39.66C173.513 40.0067 172.76 40.18 171.907 40.18C170.947 40.18 170.067 39.94 169.267 39.46C168.48 38.9667 167.853 38.2867 167.387 37.42C166.933 36.54 166.707 35.5467 166.707 34.44ZM175.727 34.48C175.727 33.72 175.567 33.06 175.247 32.5C174.94 31.94 174.533 31.5133 174.027 31.22C173.52 30.9267 172.973 30.78 172.387 30.78C171.8 30.78 171.253 30.9267 170.747 31.22C170.24 31.5 169.827 31.92 169.507 32.48C169.2 33.0267 169.047 33.68 169.047 34.44C169.047 35.2 169.2 35.8667 169.507 36.44C169.827 37.0133 170.24 37.4533 170.747 37.76C171.267 38.0533 171.813 38.2 172.387 38.2C172.973 38.2 173.52 38.0533 174.027 37.76C174.533 37.4667 174.94 37.04 175.247 36.48C175.567 35.9067 175.727 35.24 175.727 34.48ZM200.857 26.1V40H198.577V30.48L194.337 40H192.757L188.497 30.48V40H186.217V26.1H188.677L193.557 37L198.417 26.1H200.857ZM203.094 34.44C203.094 33.3333 203.32 32.3533 203.774 31.5C204.24 30.6467 204.867 29.9867 205.654 29.52C206.454 29.04 207.334 28.8 208.294 28.8C209.16 28.8 209.914 28.9733 210.554 29.32C211.207 29.6533 211.727 30.0733 212.114 30.58V28.98H214.414V40H212.114V38.36C211.727 38.88 211.2 39.3133 210.534 39.66C209.867 40.0067 209.107 40.18 208.254 40.18C207.307 40.18 206.44 39.94 205.654 39.46C204.867 38.9667 204.24 38.2867 203.774 37.42C203.32 36.54 203.094 35.5467 203.094 34.44ZM212.114 34.48C212.114 33.72 211.954 33.06 211.634 32.5C211.327 31.94 210.92 31.5133 210.414 31.22C209.907 30.9267 209.36 30.78 208.774 30.78C208.187 30.78 207.64 30.9267 207.134 31.22C206.627 31.5 206.214 31.92 205.894 32.48C205.587 33.0267 205.434 33.68 205.434 34.44C205.434 35.2 205.587 35.8667 205.894 36.44C206.214 37.0133 206.627 37.4533 207.134 37.76C207.654 38.0533 208.2 38.2 208.774 38.2C209.36 38.2 209.907 38.0533 210.414 37.76C210.92 37.4667 211.327 37.04 211.634 36.48C211.954 35.9067 212.114 35.24 212.114 34.48ZM219.688 30.6C220.075 30.0933 220.602 29.6667 221.268 29.32C221.935 28.9733 222.688 28.8 223.528 28.8C224.488 28.8 225.362 29.04 226.148 29.52C226.948 29.9867 227.575 30.6467 228.028 31.5C228.482 32.3533 228.708 33.3333 228.708 34.44C228.708 35.5467 228.482 36.54 228.028 37.42C227.575 38.2867 226.948 38.9667 226.148 39.46C225.362 39.94 224.488 40.18 223.528 40.18C222.688 40.18 221.942 40.0133 221.288 39.68C220.635 39.3333 220.102 38.9067 219.688 38.4V45.24H217.408V28.98H219.688V30.6ZM226.388 34.44C226.388 33.68 226.228 33.0267 225.908 32.48C225.602 31.92 225.188 31.5 224.668 31.22C224.162 30.9267 223.615 30.78 223.028 30.78C222.455 30.78 221.908 30.9267 221.388 31.22C220.882 31.5133 220.468 31.94 220.148 32.5C219.842 33.06 219.688 33.72 219.688 34.48C219.688 35.24 219.842 35.9067 220.148 36.48C220.468 37.04 220.882 37.4667 221.388 37.76C221.908 38.0533 222.455 38.2 223.028 38.2C223.615 38.2 224.162 38.0533 224.668 37.76C225.188 37.4533 225.602 37.0133 225.908 36.44C226.228 35.8667 226.388 35.2 226.388 34.44ZM233.243 30.6C233.63 30.0933 234.156 29.6667 234.823 29.32C235.49 28.9733 236.243 28.8 237.083 28.8C238.043 28.8 238.916 29.04 239.703 29.52C240.503 29.9867 241.13 30.6467 241.583 31.5C242.036 32.3533 242.263 33.3333 242.263 34.44C242.263 35.5467 242.036 36.54 241.583 37.42C241.13 38.2867 240.503 38.9667 239.703 39.46C238.916 39.94 238.043 40.18 237.083 40.18C236.243 40.18 235.496 40.0133 234.843 39.68C234.19 39.3333 233.656 38.9067 233.243 38.4V45.24H230.963V28.98H233.243V30.6ZM239.943 34.44C239.943 33.68 239.783 33.0267 239.463 32.48C239.156 31.92 238.743 31.5 238.223 31.22C237.716 30.9267 237.17 30.78 236.583 30.78C236.01 30.78 235.463 30.9267 234.943 31.22C234.436 31.5133 234.023 31.94 233.703 32.5C233.396 33.06 233.243 33.72 233.243 34.48C233.243 35.24 233.396 35.9067 233.703 36.48C234.023 37.04 234.436 37.4667 234.943 37.76C235.463 38.0533 236.01 38.2 236.583 38.2C237.17 38.2 237.716 38.0533 238.223 37.76C238.743 37.4533 239.156 37.0133 239.463 36.44C239.783 35.8667 239.943 35.2 239.943 34.44ZM245.678 27.52C245.264 27.52 244.918 27.38 244.638 27.1C244.358 26.82 244.218 26.4733 244.218 26.06C244.218 25.6467 244.358 25.3 244.638 25.02C244.918 24.74 245.264 24.6 245.678 24.6C246.078 24.6 246.418 24.74 246.698 25.02C246.978 25.3 247.118 25.6467 247.118 26.06C247.118 26.4733 246.978 26.82 246.698 27.1C246.418 27.38 246.078 27.52 245.678 27.52ZM246.798 28.98V40H244.518V28.98H246.798ZM255.351 28.8C256.218 28.8 256.991 28.98 257.671 29.34C258.364 29.7 258.904 30.2333 259.291 30.94C259.678 31.6467 259.871 32.5 259.871 33.5V40H257.611V33.84C257.611 32.8533 257.364 32.1 256.871 31.58C256.378 31.0467 255.704 30.78 254.851 30.78C253.998 30.78 253.318 31.0467 252.811 31.58C252.318 32.1 252.071 32.8533 252.071 33.84V40H249.791V28.98H252.071V30.24C252.444 29.7867 252.918 29.4333 253.491 29.18C254.078 28.9267 254.698 28.8 255.351 28.8ZM267.219 28.8C268.073 28.8 268.826 28.9733 269.479 29.32C270.146 29.6533 270.666 30.0733 271.039 30.58V28.98H273.339V40.18C273.339 41.1933 273.126 42.0933 272.699 42.88C272.273 43.68 271.653 44.3067 270.839 44.76C270.039 45.2133 269.079 45.44 267.959 45.44C266.466 45.44 265.226 45.0867 264.239 44.38C263.253 43.6867 262.693 42.74 262.559 41.54H264.819C264.993 42.1133 265.359 42.5733 265.919 42.92C266.493 43.28 267.173 43.46 267.959 43.46C268.879 43.46 269.619 43.18 270.179 42.62C270.753 42.06 271.039 41.2467 271.039 40.18V38.34C270.653 38.86 270.126 39.3 269.459 39.66C268.806 40.0067 268.059 40.18 267.219 40.18C266.259 40.18 265.379 39.94 264.579 39.46C263.793 38.9667 263.166 38.2867 262.699 37.42C262.246 36.54 262.019 35.5467 262.019 34.44C262.019 33.3333 262.246 32.3533 262.699 31.5C263.166 30.6467 263.793 29.9867 264.579 29.52C265.379 29.04 266.259 28.8 267.219 28.8ZM271.039 34.48C271.039 33.72 270.879 33.06 270.559 32.5C270.253 31.94 269.846 31.5133 269.339 31.22C268.833 30.9267 268.286 30.78 267.699 30.78C267.113 30.78 266.566 30.9267 266.059 31.22C265.553 31.5 265.139 31.92 264.819 32.48C264.513 33.0267 264.359 33.68 264.359 34.44C264.359 35.2 264.513 35.8667 264.819 36.44C265.139 37.0133 265.553 37.4533 266.059 37.76C266.579 38.0533 267.126 38.2 267.699 38.2C268.286 38.2 268.833 38.0533 269.339 37.76C269.846 37.4667 270.253 37.04 270.559 36.48C270.879 35.9067 271.039 35.24 271.039 34.48Z" fill="#01796F"/>
</svg>
