<svg width="206" height="66" viewBox="0 0 206 66" fill="none" xmlns="http://www.w3.org/2000/svg">
<g opacity="0.5">
<path d="M0.286133 66L47.429 0H206V66H0.286133Z" fill="#4080AC"/>
<path d="M54.1702 26.1V27.96H48.2702V32.06H52.8702V33.92H48.2702V40H45.9902V26.1H54.1702ZM61.0632 40.18C60.0232 40.18 59.0832 39.9467 58.2432 39.48C57.4032 39 56.7432 38.3333 56.2632 37.48C55.7832 36.6133 55.5432 35.6133 55.5432 34.48C55.5432 33.36 55.7899 32.3667 56.2832 31.5C56.7765 30.6333 57.4499 29.9667 58.3032 29.5C59.1565 29.0333 60.1099 28.8 61.1632 28.8C62.2165 28.8 63.1699 29.0333 64.0232 29.5C64.8765 29.9667 65.5499 30.6333 66.0432 31.5C66.5365 32.3667 66.7832 33.36 66.7832 34.48C66.7832 35.6 66.5299 36.5933 66.0232 37.46C65.5165 38.3267 64.8232 39 63.9432 39.48C63.0765 39.9467 62.1165 40.18 61.0632 40.18ZM61.0632 38.2C61.6499 38.2 62.1965 38.06 62.7032 37.78C63.2232 37.5 63.6432 37.08 63.9632 36.52C64.2832 35.96 64.4432 35.28 64.4432 34.48C64.4432 33.68 64.2899 33.0067 63.9832 32.46C63.6765 31.9 63.2699 31.48 62.7632 31.2C62.2565 30.92 61.7099 30.78 61.1232 30.78C60.5365 30.78 59.9899 30.92 59.4832 31.2C58.9899 31.48 58.5965 31.9 58.3032 32.46C58.0099 33.0067 57.8632 33.68 57.8632 34.48C57.8632 35.6667 58.1632 36.5867 58.7632 37.24C59.3765 37.88 60.1432 38.2 61.0632 38.2ZM73.8171 40.18C72.7771 40.18 71.8371 39.9467 70.9971 39.48C70.1571 39 69.4971 38.3333 69.0171 37.48C68.5371 36.6133 68.2971 35.6133 68.2971 34.48C68.2971 33.36 68.5438 32.3667 69.0371 31.5C69.5304 30.6333 70.2038 29.9667 71.0571 29.5C71.9104 29.0333 72.8638 28.8 73.9171 28.8C74.9704 28.8 75.9238 29.0333 76.7771 29.5C77.6304 29.9667 78.3038 30.6333 78.7971 31.5C79.2904 32.3667 79.5371 33.36 79.5371 34.48C79.5371 35.6 79.2838 36.5933 78.7771 37.46C78.2704 38.3267 77.5771 39 76.6971 39.48C75.8304 39.9467 74.8704 40.18 73.8171 40.18ZM73.8171 38.2C74.4038 38.2 74.9504 38.06 75.4571 37.78C75.9771 37.5 76.3971 37.08 76.7171 36.52C77.0371 35.96 77.1971 35.28 77.1971 34.48C77.1971 33.68 77.0438 33.0067 76.7371 32.46C76.4304 31.9 76.0238 31.48 75.5171 31.2C75.0104 30.92 74.4638 30.78 73.8771 30.78C73.2904 30.78 72.7438 30.92 72.2371 31.2C71.7438 31.48 71.3504 31.9 71.0571 32.46C70.7638 33.0067 70.6171 33.68 70.6171 34.48C70.6171 35.6667 70.9171 36.5867 71.5171 37.24C72.1304 37.88 72.8971 38.2 73.8171 38.2ZM81.031 34.44C81.031 33.3333 81.2577 32.3533 81.711 31.5C82.1777 30.6467 82.8043 29.9867 83.591 29.52C84.391 29.04 85.2777 28.8 86.251 28.8C86.971 28.8 87.6777 28.96 88.371 29.28C89.0777 29.5867 89.6377 30 90.051 30.52V25.2H92.351V40H90.051V38.34C89.6777 38.8733 89.1577 39.3133 88.491 39.66C87.8377 40.0067 87.0843 40.18 86.231 40.18C85.271 40.18 84.391 39.94 83.591 39.46C82.8043 38.9667 82.1777 38.2867 81.711 37.42C81.2577 36.54 81.031 35.5467 81.031 34.44ZM90.051 34.48C90.051 33.72 89.891 33.06 89.571 32.5C89.2643 31.94 88.8577 31.5133 88.351 31.22C87.8443 30.9267 87.2977 30.78 86.711 30.78C86.1243 30.78 85.5777 30.9267 85.071 31.22C84.5643 31.5 84.151 31.92 83.831 32.48C83.5243 33.0267 83.371 33.68 83.371 34.44C83.371 35.2 83.5243 35.8667 83.831 36.44C84.151 37.0133 84.5643 37.4533 85.071 37.76C85.591 38.0533 86.1377 38.2 86.711 38.2C87.2977 38.2 87.8443 38.0533 88.351 37.76C88.8577 37.4667 89.2643 37.04 89.571 36.48C89.891 35.9067 90.051 35.24 90.051 34.48ZM102.821 27.94V32.02H107.621V33.88H102.821V38.14H108.221V40H100.541V26.08H108.221V27.94H102.821ZM115.749 34.42L119.309 40H116.729L114.349 36.26L112.109 40H109.729L113.289 34.58L109.729 28.98H112.309L114.689 32.72L116.929 28.98H119.309L115.749 34.42ZM123.29 30.6C123.676 30.0933 124.203 29.6667 124.87 29.32C125.536 28.9733 126.29 28.8 127.13 28.8C128.09 28.8 128.963 29.04 129.75 29.52C130.55 29.9867 131.176 30.6467 131.63 31.5C132.083 32.3533 132.31 33.3333 132.31 34.44C132.31 35.5467 132.083 36.54 131.63 37.42C131.176 38.2867 130.55 38.9667 129.75 39.46C128.963 39.94 128.09 40.18 127.13 40.18C126.29 40.18 125.543 40.0133 124.89 39.68C124.236 39.3333 123.703 38.9067 123.29 38.4V45.24H121.01V28.98H123.29V30.6ZM129.99 34.44C129.99 33.68 129.83 33.0267 129.51 32.48C129.203 31.92 128.79 31.5 128.27 31.22C127.763 30.9267 127.216 30.78 126.63 30.78C126.056 30.78 125.51 30.9267 124.99 31.22C124.483 31.5133 124.07 31.94 123.75 32.5C123.443 33.06 123.29 33.72 123.29 34.48C123.29 35.24 123.443 35.9067 123.75 36.48C124.07 37.04 124.483 37.4667 124.99 37.76C125.51 38.0533 126.056 38.2 126.63 38.2C127.216 38.2 127.763 38.0533 128.27 37.76C128.79 37.4533 129.203 37.0133 129.51 36.44C129.83 35.8667 129.99 35.2 129.99 34.44ZM139.344 40.18C138.304 40.18 137.364 39.9467 136.524 39.48C135.684 39 135.024 38.3333 134.544 37.48C134.064 36.6133 133.824 35.6133 133.824 34.48C133.824 33.36 134.071 32.3667 134.564 31.5C135.058 30.6333 135.731 29.9667 136.584 29.5C137.438 29.0333 138.391 28.8 139.444 28.8C140.498 28.8 141.451 29.0333 142.304 29.5C143.158 29.9667 143.831 30.6333 144.324 31.5C144.818 32.3667 145.064 33.36 145.064 34.48C145.064 35.6 144.811 36.5933 144.304 37.46C143.798 38.3267 143.104 39 142.224 39.48C141.358 39.9467 140.398 40.18 139.344 40.18ZM139.344 38.2C139.931 38.2 140.478 38.06 140.984 37.78C141.504 37.5 141.924 37.08 142.244 36.52C142.564 35.96 142.724 35.28 142.724 34.48C142.724 33.68 142.571 33.0067 142.264 32.46C141.958 31.9 141.551 31.48 141.044 31.2C140.538 30.92 139.991 30.78 139.404 30.78C138.818 30.78 138.271 30.92 137.764 31.2C137.271 31.48 136.878 31.9 136.584 32.46C136.291 33.0067 136.144 33.68 136.144 34.48C136.144 35.6667 136.444 36.5867 137.044 37.24C137.658 37.88 138.424 38.2 139.344 38.2ZM151.318 40.18C150.452 40.18 149.672 40.0267 148.978 39.72C148.298 39.4 147.758 38.9733 147.358 38.44C146.958 37.8933 146.745 37.2867 146.718 36.62H149.078C149.118 37.0867 149.338 37.48 149.738 37.8C150.152 38.1067 150.665 38.26 151.278 38.26C151.918 38.26 152.412 38.14 152.758 37.9C153.118 37.6467 153.298 37.3267 153.298 36.94C153.298 36.5267 153.098 36.22 152.698 36.02C152.312 35.82 151.692 35.6 150.838 35.36C150.012 35.1333 149.338 34.9133 148.818 34.7C148.298 34.4867 147.845 34.16 147.458 33.72C147.085 33.28 146.898 32.7 146.898 31.98C146.898 31.3933 147.072 30.86 147.418 30.38C147.765 29.8867 148.258 29.5 148.898 29.22C149.552 28.94 150.298 28.8 151.138 28.8C152.392 28.8 153.398 29.12 154.158 29.76C154.932 30.3867 155.345 31.2467 155.398 32.34H153.118C153.078 31.8467 152.878 31.4533 152.518 31.16C152.158 30.8667 151.672 30.72 151.058 30.72C150.458 30.72 149.998 30.8333 149.678 31.06C149.358 31.2867 149.198 31.5867 149.198 31.96C149.198 32.2533 149.305 32.5 149.518 32.7C149.732 32.9 149.992 33.06 150.298 33.18C150.605 33.2867 151.058 33.4267 151.658 33.6C152.458 33.8133 153.112 34.0333 153.618 34.26C154.138 34.4733 154.585 34.7933 154.958 35.22C155.332 35.6467 155.525 36.2133 155.538 36.92C155.538 37.5467 155.365 38.1067 155.018 38.6C154.672 39.0933 154.178 39.48 153.538 39.76C152.912 40.04 152.172 40.18 151.318 40.18ZM167.982 28.98V40H165.702V38.7C165.342 39.1533 164.869 39.5133 164.282 39.78C163.709 40.0333 163.095 40.16 162.442 40.16C161.575 40.16 160.795 39.98 160.102 39.62C159.422 39.26 158.882 38.7267 158.482 38.02C158.095 37.3133 157.902 36.46 157.902 35.46V28.98H160.162V35.12C160.162 36.1067 160.409 36.8667 160.902 37.4C161.395 37.92 162.069 38.18 162.922 38.18C163.775 38.18 164.449 37.92 164.942 37.4C165.449 36.8667 165.702 36.1067 165.702 35.12V28.98H167.982ZM173.27 30.58C173.604 30.02 174.044 29.5867 174.59 29.28C175.15 28.96 175.81 28.8 176.57 28.8V31.16H175.99C175.097 31.16 174.417 31.3867 173.95 31.84C173.497 32.2933 173.27 33.08 173.27 34.2V40H170.99V28.98H173.27V30.58ZM188.766 34.22C188.766 34.6333 188.739 35.0067 188.686 35.34H180.266C180.333 36.22 180.659 36.9267 181.246 37.46C181.833 37.9933 182.553 38.26 183.406 38.26C184.633 38.26 185.499 37.7467 186.006 36.72H188.466C188.133 37.7333 187.526 38.5667 186.646 39.22C185.779 39.86 184.699 40.18 183.406 40.18C182.353 40.18 181.406 39.9467 180.566 39.48C179.739 39 179.086 38.3333 178.606 37.48C178.139 36.6133 177.906 35.6133 177.906 34.48C177.906 33.3467 178.133 32.3533 178.586 31.5C179.053 30.6333 179.699 29.9667 180.526 29.5C181.366 29.0333 182.326 28.8 183.406 28.8C184.446 28.8 185.373 29.0267 186.186 29.48C186.999 29.9333 187.633 30.5733 188.086 31.4C188.539 32.2133 188.766 33.1533 188.766 34.22ZM186.386 33.5C186.373 32.66 186.073 31.9867 185.486 31.48C184.899 30.9733 184.173 30.72 183.306 30.72C182.519 30.72 181.846 30.9733 181.286 31.48C180.726 31.9733 180.393 32.6467 180.286 33.5H186.386Z" fill="white"/>
</g>
</svg>
