<svg width="300" height="66" viewBox="0 0 300 66" fill="none" xmlns="http://www.w3.org/2000/svg">
<g opacity="0.5">
<path d="M300 66V0H0V66H300Z" fill="#1C588A"/>
<path d="M52.5951 26.1V40H50.3151V30.48L46.0751 40H44.4951L40.2351 30.48V40H37.9551V26.1H40.4151L45.2951 37L50.1551 26.1H52.5951ZM65.6918 34.22C65.6918 34.6333 65.6651 35.0067 65.6118 35.34H57.1918C57.2585 36.22 57.5851 36.9267 58.1718 37.46C58.7585 37.9933 59.4785 38.26 60.3318 38.26C61.5585 38.26 62.4251 37.7467 62.9318 36.72H65.3918C65.0585 37.7333 64.4518 38.5667 63.5718 39.22C62.7051 39.86 61.6251 40.18 60.3318 40.18C59.2785 40.18 58.3318 39.9467 57.4918 39.48C56.6651 39 56.0118 38.3333 55.5318 37.48C55.0651 36.6133 54.8318 35.6133 54.8318 34.48C54.8318 33.3467 55.0585 32.3533 55.5118 31.5C55.9785 30.6333 56.6251 29.9667 57.4518 29.5C58.2918 29.0333 59.2518 28.8 60.3318 28.8C61.3718 28.8 62.2985 29.0267 63.1118 29.48C63.9251 29.9333 64.5585 30.5733 65.0118 31.4C65.4651 32.2133 65.6918 33.1533 65.6918 34.22ZM63.3118 33.5C63.2985 32.66 62.9985 31.9867 62.4118 31.48C61.8251 30.9733 61.0985 30.72 60.2318 30.72C59.4451 30.72 58.7718 30.9733 58.2118 31.48C57.6518 31.9733 57.3185 32.6467 57.2118 33.5H63.3118ZM67.1755 34.44C67.1755 33.3333 67.4022 32.3533 67.8555 31.5C68.3222 30.6467 68.9489 29.9867 69.7355 29.52C70.5355 29.04 71.4155 28.8 72.3755 28.8C73.2422 28.8 73.9955 28.9733 74.6355 29.32C75.2889 29.6533 75.8089 30.0733 76.1955 30.58V28.98H78.4955V40H76.1955V38.36C75.8089 38.88 75.2822 39.3133 74.6155 39.66C73.9489 40.0067 73.1889 40.18 72.3355 40.18C71.3889 40.18 70.5222 39.94 69.7355 39.46C68.9489 38.9667 68.3222 38.2867 67.8555 37.42C67.4022 36.54 67.1755 35.5467 67.1755 34.44ZM76.1955 34.48C76.1955 33.72 76.0355 33.06 75.7155 32.5C75.4089 31.94 75.0022 31.5133 74.4955 31.22C73.9889 30.9267 73.4422 30.78 72.8555 30.78C72.2689 30.78 71.7222 30.9267 71.2155 31.22C70.7089 31.5 70.2955 31.92 69.9755 32.48C69.6689 33.0267 69.5155 33.68 69.5155 34.44C69.5155 35.2 69.6689 35.8667 69.9755 36.44C70.2955 37.0133 70.7089 37.4533 71.2155 37.76C71.7355 38.0533 72.2822 38.2 72.8555 38.2C73.4422 38.2 73.9889 38.0533 74.4955 37.76C75.0022 37.4667 75.4089 37.04 75.7155 36.48C76.0355 35.9067 76.1955 35.24 76.1955 34.48ZM83.7702 25.2V40H81.4902V25.2H83.7702ZM89.4237 30.84V36.94C89.4237 37.3533 89.517 37.6533 89.7037 37.84C89.9037 38.0133 90.237 38.1 90.7037 38.1H92.1037V40H90.3037C89.277 40 88.4903 39.76 87.9437 39.28C87.397 38.8 87.1237 38.02 87.1237 36.94V30.84H85.8237V28.98H87.1237V26.24H89.4237V28.98H92.1037V30.84H89.4237ZM95.3651 27.52C94.9517 27.52 94.6051 27.38 94.3251 27.1C94.0451 26.82 93.9051 26.4733 93.9051 26.06C93.9051 25.6467 94.0451 25.3 94.3251 25.02C94.6051 24.74 94.9517 24.6 95.3651 24.6C95.7651 24.6 96.1051 24.74 96.3851 25.02C96.6651 25.3 96.8051 25.6467 96.8051 26.06C96.8051 26.4733 96.6651 26.82 96.3851 27.1C96.1051 27.38 95.7651 27.52 95.3651 27.52ZM96.4851 28.98V40H94.2051V28.98H96.4851ZM112.819 28.8C113.685 28.8 114.459 28.98 115.139 29.34C115.832 29.7 116.372 30.2333 116.759 30.94C117.159 31.6467 117.359 32.5 117.359 33.5V40H115.099V33.84C115.099 32.8533 114.852 32.1 114.359 31.58C113.865 31.0467 113.192 30.78 112.339 30.78C111.485 30.78 110.805 31.0467 110.299 31.58C109.805 32.1 109.559 32.8533 109.559 33.84V40H107.299V33.84C107.299 32.8533 107.052 32.1 106.559 31.58C106.065 31.0467 105.392 30.78 104.539 30.78C103.685 30.78 103.005 31.0467 102.499 31.58C102.005 32.1 101.759 32.8533 101.759 33.84V40H99.4785V28.98H101.759V30.24C102.132 29.7867 102.605 29.4333 103.179 29.18C103.752 28.9267 104.365 28.8 105.019 28.8C105.899 28.8 106.685 28.9867 107.379 29.36C108.072 29.7333 108.605 30.2733 108.979 30.98C109.312 30.3133 109.832 29.7867 110.539 29.4C111.245 29 112.005 28.8 112.819 28.8ZM130.36 34.22C130.36 34.6333 130.333 35.0067 130.28 35.34H121.86C121.926 36.22 122.253 36.9267 122.84 37.46C123.426 37.9933 124.146 38.26 125 38.26C126.226 38.26 127.093 37.7467 127.6 36.72H130.06C129.726 37.7333 129.12 38.5667 128.24 39.22C127.373 39.86 126.293 40.18 125 40.18C123.946 40.18 123 39.9467 122.16 39.48C121.333 39 120.68 38.3333 120.2 37.48C119.733 36.6133 119.5 35.6133 119.5 34.48C119.5 33.3467 119.726 32.3533 120.18 31.5C120.646 30.6333 121.293 29.9667 122.12 29.5C122.96 29.0333 123.92 28.8 125 28.8C126.04 28.8 126.966 29.0267 127.78 29.48C128.593 29.9333 129.226 30.5733 129.68 31.4C130.133 32.2133 130.36 33.1533 130.36 34.22ZM127.98 33.5C127.966 32.66 127.666 31.9867 127.08 31.48C126.493 30.9733 125.766 30.72 124.9 30.72C124.113 30.72 123.44 30.9733 122.88 31.48C122.32 31.9733 121.986 32.6467 121.88 33.5H127.98ZM140.079 27.94V32.02H144.879V33.88H140.079V38.14H145.479V40H137.799V26.08H145.479V27.94H140.079ZM153.847 28.8C154.714 28.8 155.487 28.98 156.167 29.34C156.86 29.7 157.4 30.2333 157.787 30.94C158.174 31.6467 158.367 32.5 158.367 33.5V40H156.107V33.84C156.107 32.8533 155.86 32.1 155.367 31.58C154.874 31.0467 154.2 30.78 153.347 30.78C152.494 30.78 151.814 31.0467 151.307 31.58C150.814 32.1 150.567 32.8533 150.567 33.84V40H148.287V28.98H150.567V30.24C150.94 29.7867 151.414 29.4333 151.987 29.18C152.574 28.9267 153.194 28.8 153.847 28.8ZM165.535 37.96L168.655 28.98H171.075L166.875 40H164.155L159.975 28.98H162.415L165.535 37.96ZM173.959 27.52C173.545 27.52 173.199 27.38 172.919 27.1C172.639 26.82 172.499 26.4733 172.499 26.06C172.499 25.6467 172.639 25.3 172.919 25.02C173.199 24.74 173.545 24.6 173.959 24.6C174.359 24.6 174.699 24.74 174.979 25.02C175.259 25.3 175.399 25.6467 175.399 26.06C175.399 26.4733 175.259 26.82 174.979 27.1C174.699 27.38 174.359 27.52 173.959 27.52ZM175.079 28.98V40H172.799V28.98H175.079ZM180.352 30.58C180.686 30.02 181.126 29.5867 181.672 29.28C182.232 28.96 182.892 28.8 183.652 28.8V31.16H183.072C182.179 31.16 181.499 31.3867 181.032 31.84C180.579 32.2933 180.352 33.08 180.352 34.2V40H178.072V28.98H180.352V30.58ZM190.528 40.18C189.488 40.18 188.548 39.9467 187.708 39.48C186.868 39 186.208 38.3333 185.728 37.48C185.248 36.6133 185.008 35.6133 185.008 34.48C185.008 33.36 185.255 32.3667 185.748 31.5C186.241 30.6333 186.915 29.9667 187.768 29.5C188.621 29.0333 189.575 28.8 190.628 28.8C191.681 28.8 192.635 29.0333 193.488 29.5C194.341 29.9667 195.015 30.6333 195.508 31.5C196.001 32.3667 196.248 33.36 196.248 34.48C196.248 35.6 195.995 36.5933 195.488 37.46C194.981 38.3267 194.288 39 193.408 39.48C192.541 39.9467 191.581 40.18 190.528 40.18ZM190.528 38.2C191.115 38.2 191.661 38.06 192.168 37.78C192.688 37.5 193.108 37.08 193.428 36.52C193.748 35.96 193.908 35.28 193.908 34.48C193.908 33.68 193.755 33.0067 193.448 32.46C193.141 31.9 192.735 31.48 192.228 31.2C191.721 30.92 191.175 30.78 190.588 30.78C190.001 30.78 189.455 30.92 188.948 31.2C188.455 31.48 188.061 31.9 187.768 32.46C187.475 33.0067 187.328 33.68 187.328 34.48C187.328 35.6667 187.628 36.5867 188.228 37.24C188.841 37.88 189.608 38.2 190.528 38.2ZM204.062 28.8C204.929 28.8 205.702 28.98 206.382 29.34C207.075 29.7 207.615 30.2333 208.002 30.94C208.389 31.6467 208.582 32.5 208.582 33.5V40H206.322V33.84C206.322 32.8533 206.075 32.1 205.582 31.58C205.089 31.0467 204.415 30.78 203.562 30.78C202.709 30.78 202.029 31.0467 201.522 31.58C201.029 32.1 200.782 32.8533 200.782 33.84V40H198.502V28.98H200.782V30.24C201.155 29.7867 201.629 29.4333 202.202 29.18C202.789 28.9267 203.409 28.8 204.062 28.8ZM224.83 28.8C225.697 28.8 226.47 28.98 227.15 29.34C227.844 29.7 228.384 30.2333 228.77 30.94C229.17 31.6467 229.37 32.5 229.37 33.5V40H227.11V33.84C227.11 32.8533 226.864 32.1 226.37 31.58C225.877 31.0467 225.204 30.78 224.35 30.78C223.497 30.78 222.817 31.0467 222.31 31.58C221.817 32.1 221.57 32.8533 221.57 33.84V40H219.31V33.84C219.31 32.8533 219.064 32.1 218.57 31.58C218.077 31.0467 217.404 30.78 216.55 30.78C215.697 30.78 215.017 31.0467 214.51 31.58C214.017 32.1 213.77 32.8533 213.77 33.84V40H211.49V28.98H213.77V30.24C214.144 29.7867 214.617 29.4333 215.19 29.18C215.764 28.9267 216.377 28.8 217.03 28.8C217.91 28.8 218.697 28.9867 219.39 29.36C220.084 29.7333 220.617 30.2733 220.99 30.98C221.324 30.3133 221.844 29.7867 222.55 29.4C223.257 29 224.017 28.8 224.83 28.8ZM242.371 34.22C242.371 34.6333 242.345 35.0067 242.291 35.34H233.871C233.938 36.22 234.265 36.9267 234.851 37.46C235.438 37.9933 236.158 38.26 237.011 38.26C238.238 38.26 239.105 37.7467 239.611 36.72H242.071C241.738 37.7333 241.131 38.5667 240.251 39.22C239.385 39.86 238.305 40.18 237.011 40.18C235.958 40.18 235.011 39.9467 234.171 39.48C233.345 39 232.691 38.3333 232.211 37.48C231.745 36.6133 231.511 35.6133 231.511 34.48C231.511 33.3467 231.738 32.3533 232.191 31.5C232.658 30.6333 233.305 29.9667 234.131 29.5C234.971 29.0333 235.931 28.8 237.011 28.8C238.051 28.8 238.978 29.0267 239.791 29.48C240.605 29.9333 241.238 30.5733 241.691 31.4C242.145 32.2133 242.371 33.1533 242.371 34.22ZM239.991 33.5C239.978 32.66 239.678 31.9867 239.091 31.48C238.505 30.9733 237.778 30.72 236.911 30.72C236.125 30.72 235.451 30.9733 234.891 31.48C234.331 31.9733 233.998 32.6467 233.891 33.5H239.991ZM250.175 28.8C251.042 28.8 251.815 28.98 252.495 29.34C253.189 29.7 253.729 30.2333 254.115 30.94C254.502 31.6467 254.695 32.5 254.695 33.5V40H252.435V33.84C252.435 32.8533 252.189 32.1 251.695 31.58C251.202 31.0467 250.529 30.78 249.675 30.78C248.822 30.78 248.142 31.0467 247.635 31.58C247.142 32.1 246.895 32.8533 246.895 33.84V40H244.615V28.98H246.895V30.24C247.269 29.7867 247.742 29.4333 248.315 29.18C248.902 28.9267 249.522 28.8 250.175 28.8ZM260.264 30.84V36.94C260.264 37.3533 260.357 37.6533 260.544 37.84C260.744 38.0133 261.077 38.1 261.544 38.1H262.944V40H261.144C260.117 40 259.33 39.76 258.784 39.28C258.237 38.8 257.964 38.02 257.964 36.94V30.84H256.664V28.98H257.964V26.24H260.264V28.98H262.944V30.84H260.264Z" fill="white"/>
</g>
</svg>
