<svg width="218" height="152" viewBox="0 0 218 152" fill="none" xmlns="http://www.w3.org/2000/svg">
<g opacity="0.5">
<path d="M217.572 152L109 0L0.428711 152H217.572Z" fill="#FFF3CB"/>
<path d="M84.4741 89.1L79.2541 103H76.6141L71.3741 89.1H73.8141L77.9341 100.66L82.0741 89.1H84.4741ZM85.6209 97.44C85.6209 96.3333 85.8475 95.3533 86.3009 94.5C86.7675 93.6467 87.3942 92.9867 88.1809 92.52C88.9809 92.04 89.8609 91.8 90.8209 91.8C91.6875 91.8 92.4409 91.9733 93.0809 92.32C93.7342 92.6533 94.2542 93.0733 94.6409 93.58V91.98H96.9409V103H94.6409V101.36C94.2542 101.88 93.7275 102.313 93.0609 102.66C92.3942 103.007 91.6342 103.18 90.7809 103.18C89.8342 103.18 88.9675 102.94 88.1809 102.46C87.3942 101.967 86.7675 101.287 86.3009 100.42C85.8475 99.54 85.6209 98.5467 85.6209 97.44ZM94.6409 97.48C94.6409 96.72 94.4809 96.06 94.1609 95.5C93.8542 94.94 93.4475 94.5133 92.9409 94.22C92.4342 93.9267 91.8875 93.78 91.3009 93.78C90.7142 93.78 90.1675 93.9267 89.6609 94.22C89.1542 94.5 88.7409 94.92 88.4209 95.48C88.1142 96.0267 87.9609 96.68 87.9609 97.44C87.9609 98.2 88.1142 98.8667 88.4209 99.44C88.7409 100.013 89.1542 100.453 89.6609 100.76C90.1809 101.053 90.7275 101.2 91.3009 101.2C91.8875 101.2 92.4342 101.053 92.9409 100.76C93.4475 100.467 93.8542 100.04 94.1609 99.48C94.4809 98.9067 94.6409 98.24 94.6409 97.48ZM102.216 93.58C102.549 93.02 102.989 92.5867 103.536 92.28C104.096 91.96 104.756 91.8 105.516 91.8V94.16H104.936C104.042 94.16 103.362 94.3867 102.896 94.84C102.442 95.2933 102.216 96.08 102.216 97.2V103H99.9355V91.98H102.216V93.58ZM108.771 90.52C108.358 90.52 108.011 90.38 107.731 90.1C107.451 89.82 107.311 89.4733 107.311 89.06C107.311 88.6467 107.451 88.3 107.731 88.02C108.011 87.74 108.358 87.6 108.771 87.6C109.171 87.6 109.511 87.74 109.791 88.02C110.071 88.3 110.211 88.6467 110.211 89.06C110.211 89.4733 110.071 89.82 109.791 90.1C109.511 90.38 109.171 90.52 108.771 90.52ZM109.891 91.98V103H107.611V91.98H109.891ZM122.985 97.22C122.985 97.6333 122.958 98.0067 122.905 98.34H114.485C114.551 99.22 114.878 99.9267 115.465 100.46C116.051 100.993 116.771 101.26 117.625 101.26C118.851 101.26 119.718 100.747 120.225 99.72H122.685C122.351 100.733 121.745 101.567 120.865 102.22C119.998 102.86 118.918 103.18 117.625 103.18C116.571 103.18 115.625 102.947 114.785 102.48C113.958 102 113.305 101.333 112.825 100.48C112.358 99.6133 112.125 98.6133 112.125 97.48C112.125 96.3467 112.351 95.3533 112.805 94.5C113.271 93.6333 113.918 92.9667 114.745 92.5C115.585 92.0333 116.545 91.8 117.625 91.8C118.665 91.8 119.591 92.0267 120.405 92.48C121.218 92.9333 121.851 93.5733 122.305 94.4C122.758 95.2133 122.985 96.1533 122.985 97.22ZM120.605 96.5C120.591 95.66 120.291 94.9867 119.705 94.48C119.118 93.9733 118.391 93.72 117.525 93.72C116.738 93.72 116.065 93.9733 115.505 94.48C114.945 94.9733 114.611 95.6467 114.505 96.5H120.605ZM127.889 93.84V99.94C127.889 100.353 127.982 100.653 128.169 100.84C128.369 101.013 128.702 101.1 129.169 101.1H130.569V103H128.769C127.742 103 126.955 102.76 126.409 102.28C125.862 101.8 125.589 101.02 125.589 99.94V93.84H124.289V91.98H125.589V89.24H127.889V91.98H130.569V93.84H127.889ZM142.59 91.98L135.83 108.18H133.47L135.71 102.82L131.37 91.98H133.91L137.01 100.38L140.23 91.98H142.59ZM72.5213 127L70.8013 125.28C70.1346 125.947 69.4079 126.447 68.6213 126.78C67.8346 127.1 66.9546 127.26 65.9813 127.26C64.9946 127.26 64.1213 127.087 63.3613 126.74C62.6013 126.393 62.0146 125.9 61.6012 125.26C61.1879 124.607 60.9813 123.853 60.9813 123C60.9813 122.04 61.2546 121.187 61.8013 120.44C62.3479 119.68 63.1613 119.08 64.2413 118.64C63.8546 118.173 63.5813 117.74 63.4213 117.34C63.2613 116.927 63.1813 116.473 63.1813 115.98C63.1813 115.367 63.3346 114.82 63.6413 114.34C63.9613 113.86 64.4146 113.48 65.0013 113.2C65.5879 112.92 66.2679 112.78 67.0413 112.78C67.8279 112.78 68.4946 112.933 69.0413 113.24C69.6013 113.533 70.0146 113.94 70.2812 114.46C70.5613 114.98 70.6746 115.56 70.6213 116.2H68.3413C68.3546 115.707 68.2346 115.327 67.9813 115.06C67.7279 114.78 67.3813 114.64 66.9413 114.64C66.5013 114.64 66.1413 114.773 65.8613 115.04C65.5946 115.293 65.4613 115.607 65.4613 115.98C65.4613 116.34 65.5613 116.7 65.7613 117.06C65.9746 117.407 66.3413 117.86 66.8613 118.42L70.5413 122.08L71.9613 119.74H74.4213L72.6213 122.82L72.1213 123.64L75.5013 127H72.5213ZM65.9813 125.32C67.2346 125.32 68.3413 124.807 69.3013 123.78L65.6213 120.08C64.0479 120.707 63.2613 121.653 63.2613 122.92C63.2613 123.6 63.5146 124.173 64.0213 124.64C64.5279 125.093 65.1813 125.32 65.9813 125.32ZM94.1714 113.1L88.9514 127H86.3114L81.0714 113.1H83.5114L87.6314 124.66L91.7714 113.1H94.1714ZM100.858 127.18C99.8181 127.18 98.8781 126.947 98.0381 126.48C97.1981 126 96.5381 125.333 96.0581 124.48C95.5781 123.613 95.3381 122.613 95.3381 121.48C95.3381 120.36 95.5848 119.367 96.0781 118.5C96.5715 117.633 97.2448 116.967 98.0981 116.5C98.9515 116.033 99.9048 115.8 100.958 115.8C102.011 115.8 102.965 116.033 103.818 116.5C104.671 116.967 105.345 117.633 105.838 118.5C106.331 119.367 106.578 120.36 106.578 121.48C106.578 122.6 106.325 123.593 105.818 124.46C105.311 125.327 104.618 126 103.738 126.48C102.871 126.947 101.911 127.18 100.858 127.18ZM100.858 125.2C101.445 125.2 101.991 125.06 102.498 124.78C103.018 124.5 103.438 124.08 103.758 123.52C104.078 122.96 104.238 122.28 104.238 121.48C104.238 120.68 104.085 120.007 103.778 119.46C103.471 118.9 103.065 118.48 102.558 118.2C102.051 117.92 101.505 117.78 100.918 117.78C100.331 117.78 99.7848 117.92 99.2781 118.2C98.7848 118.48 98.3915 118.9 98.0981 119.46C97.8048 120.007 97.6581 120.68 97.6581 121.48C97.6581 122.667 97.9581 123.587 98.5581 124.24C99.1715 124.88 99.9381 125.2 100.858 125.2ZM111.112 112.2V127H108.832V112.2H111.112ZM124.085 115.98V127H121.805V125.7C121.445 126.153 120.972 126.513 120.385 126.78C119.812 127.033 119.199 127.16 118.545 127.16C117.679 127.16 116.899 126.98 116.205 126.62C115.525 126.26 114.985 125.727 114.585 125.02C114.199 124.313 114.005 123.46 114.005 122.46V115.98H116.265V122.12C116.265 123.107 116.512 123.867 117.005 124.4C117.499 124.92 118.172 125.18 119.025 125.18C119.879 125.18 120.552 124.92 121.045 124.4C121.552 123.867 121.805 123.107 121.805 122.12V115.98H124.085ZM140.434 115.8C141.3 115.8 142.074 115.98 142.754 116.34C143.447 116.7 143.987 117.233 144.374 117.94C144.774 118.647 144.974 119.5 144.974 120.5V127H142.714V120.84C142.714 119.853 142.467 119.1 141.974 118.58C141.48 118.047 140.807 117.78 139.954 117.78C139.1 117.78 138.42 118.047 137.914 118.58C137.42 119.1 137.174 119.853 137.174 120.84V127H134.914V120.84C134.914 119.853 134.667 119.1 134.174 118.58C133.68 118.047 133.007 117.78 132.154 117.78C131.3 117.78 130.62 118.047 130.114 118.58C129.62 119.1 129.374 119.853 129.374 120.84V127H127.094V115.98H129.374V117.24C129.747 116.787 130.22 116.433 130.794 116.18C131.367 115.927 131.98 115.8 132.634 115.8C133.514 115.8 134.3 115.987 134.994 116.36C135.687 116.733 136.22 117.273 136.594 117.98C136.927 117.313 137.447 116.787 138.154 116.4C138.86 116 139.62 115.8 140.434 115.8ZM157.975 121.22C157.975 121.633 157.948 122.007 157.895 122.34H149.475C149.542 123.22 149.868 123.927 150.455 124.46C151.042 124.993 151.762 125.26 152.615 125.26C153.842 125.26 154.708 124.747 155.215 123.72H157.675C157.342 124.733 156.735 125.567 155.855 126.22C154.988 126.86 153.908 127.18 152.615 127.18C151.562 127.18 150.615 126.947 149.775 126.48C148.948 126 148.295 125.333 147.815 124.48C147.348 123.613 147.115 122.613 147.115 121.48C147.115 120.347 147.342 119.353 147.795 118.5C148.262 117.633 148.908 116.967 149.735 116.5C150.575 116.033 151.535 115.8 152.615 115.8C153.655 115.8 154.582 116.027 155.395 116.48C156.208 116.933 156.842 117.573 157.295 118.4C157.748 119.213 157.975 120.153 157.975 121.22ZM155.595 120.5C155.582 119.66 155.282 118.987 154.695 118.48C154.108 117.973 153.382 117.72 152.515 117.72C151.728 117.72 151.055 117.973 150.495 118.48C149.935 118.973 149.602 119.647 149.495 120.5H155.595Z" fill="#01796F"/>
</g>
</svg>
