<svg width="178" height="66" viewBox="0 0 178 66" fill="none" xmlns="http://www.w3.org/2000/svg">
<g opacity="0.5">
<path fill-rule="evenodd" clip-rule="evenodd" d="M130.714 0L177.857 66H0V0H130.714Z" fill="#1C588A"/>
<path d="M46.2009 21.02C46.2009 19.66 46.5143 18.44 47.1409 17.36C47.7809 16.28 48.6409 15.44 49.7209 14.84C50.8143 14.2267 52.0076 13.92 53.3009 13.92C54.7809 13.92 56.0943 14.2867 57.2409 15.02C58.4009 15.74 59.2409 16.7667 59.7609 18.1H57.0209C56.6609 17.3667 56.1609 16.82 55.5209 16.46C54.8809 16.1 54.1409 15.92 53.3009 15.92C52.3809 15.92 51.5609 16.1267 50.8409 16.54C50.1209 16.9533 49.5543 17.5467 49.1409 18.32C48.7409 19.0933 48.5409 19.9933 48.5409 21.02C48.5409 22.0467 48.7409 22.9467 49.1409 23.72C49.5543 24.4933 50.1209 25.0933 50.8409 25.52C51.5609 25.9333 52.3809 26.14 53.3009 26.14C54.1409 26.14 54.8809 25.96 55.5209 25.6C56.1609 25.24 56.6609 24.6933 57.0209 23.96H59.7609C59.2409 25.2933 58.4009 26.32 57.2409 27.04C56.0943 27.76 54.7809 28.12 53.3009 28.12C51.9943 28.12 50.8009 27.82 49.7209 27.22C48.6409 26.6067 47.7809 25.76 47.1409 24.68C46.5143 23.6 46.2009 22.38 46.2009 21.02ZM61.6697 22.44C61.6697 21.3333 61.8964 20.3533 62.3497 19.5C62.8164 18.6467 63.443 17.9867 64.2297 17.52C65.0297 17.04 65.9097 16.8 66.8697 16.8C67.7364 16.8 68.4897 16.9733 69.1297 17.32C69.783 17.6533 70.303 18.0733 70.6897 18.58V16.98H72.9897V28H70.6897V26.36C70.303 26.88 69.7764 27.3133 69.1097 27.66C68.443 28.0067 67.683 28.18 66.8297 28.18C65.883 28.18 65.0164 27.94 64.2297 27.46C63.443 26.9667 62.8164 26.2867 62.3497 25.42C61.8964 24.54 61.6697 23.5467 61.6697 22.44ZM70.6897 22.48C70.6897 21.72 70.5297 21.06 70.2097 20.5C69.903 19.94 69.4964 19.5133 68.9897 19.22C68.483 18.9267 67.9364 18.78 67.3497 18.78C66.763 18.78 66.2164 18.9267 65.7097 19.22C65.203 19.5 64.7897 19.92 64.4697 20.48C64.163 21.0267 64.0097 21.68 64.0097 22.44C64.0097 23.2 64.163 23.8667 64.4697 24.44C64.7897 25.0133 65.203 25.4533 65.7097 25.76C66.2297 26.0533 66.7764 26.2 67.3497 26.2C67.9364 26.2 68.483 26.0533 68.9897 25.76C69.4964 25.4667 69.903 25.04 70.2097 24.48C70.5297 23.9067 70.6897 23.24 70.6897 22.48ZM78.2644 13.2V28H75.9844V13.2H78.2644ZM94.5978 16.8C95.4645 16.8 96.2378 16.98 96.9178 17.34C97.6111 17.7 98.1511 18.2333 98.5378 18.94C98.9378 19.6467 99.1378 20.5 99.1378 21.5V28H96.8778V21.84C96.8778 20.8533 96.6311 20.1 96.1378 19.58C95.6445 19.0467 94.9711 18.78 94.1178 18.78C93.2645 18.78 92.5845 19.0467 92.0778 19.58C91.5845 20.1 91.3378 20.8533 91.3378 21.84V28H89.0778V21.84C89.0778 20.8533 88.8311 20.1 88.3378 19.58C87.8445 19.0467 87.1711 18.78 86.3178 18.78C85.4645 18.78 84.7845 19.0467 84.2778 19.58C83.7845 20.1 83.5378 20.8533 83.5378 21.84V28H81.2578V16.98H83.5378V18.24C83.9111 17.7867 84.3845 17.4333 84.9578 17.18C85.5311 16.9267 86.1445 16.8 86.7978 16.8C87.6778 16.8 88.4645 16.9867 89.1578 17.36C89.8511 17.7333 90.3845 18.2733 90.7578 18.98C91.0911 18.3133 91.6111 17.7867 92.3178 17.4C93.0245 17 93.7845 16.8 94.5978 16.8ZM36.474 38.1V52H34.194V42.48L29.954 52H28.374L24.114 42.48V52H21.834V38.1H24.294L29.174 49L34.034 38.1H36.474ZM49.5707 46.22C49.5707 46.6333 49.544 47.0067 49.4907 47.34H41.0707C41.1374 48.22 41.464 48.9267 42.0507 49.46C42.6374 49.9933 43.3574 50.26 44.2107 50.26C45.4374 50.26 46.304 49.7467 46.8107 48.72H49.2707C48.9374 49.7333 48.3307 50.5667 47.4507 51.22C46.584 51.86 45.504 52.18 44.2107 52.18C43.1574 52.18 42.2107 51.9467 41.3707 51.48C40.544 51 39.8907 50.3333 39.4107 49.48C38.944 48.6133 38.7107 47.6133 38.7107 46.48C38.7107 45.3467 38.9374 44.3533 39.3907 43.5C39.8574 42.6333 40.504 41.9667 41.3307 41.5C42.1707 41.0333 43.1307 40.8 44.2107 40.8C45.2507 40.8 46.1774 41.0267 46.9907 41.48C47.804 41.9333 48.4374 42.5733 48.8907 43.4C49.344 44.2133 49.5707 45.1533 49.5707 46.22ZM47.1907 45.5C47.1774 44.66 46.8774 43.9867 46.2907 43.48C45.704 42.9733 44.9774 42.72 44.1107 42.72C43.324 42.72 42.6507 42.9733 42.0907 43.48C41.5307 43.9733 41.1974 44.6467 41.0907 45.5H47.1907ZM51.0545 46.44C51.0545 45.3333 51.2811 44.3533 51.7345 43.5C52.2011 42.6467 52.8278 41.9867 53.6145 41.52C54.4145 41.04 55.2945 40.8 56.2545 40.8C57.1211 40.8 57.8745 40.9733 58.5145 41.32C59.1678 41.6533 59.6878 42.0733 60.0745 42.58V40.98H62.3745V52H60.0745V50.36C59.6878 50.88 59.1611 51.3133 58.4945 51.66C57.8278 52.0067 57.0678 52.18 56.2145 52.18C55.2678 52.18 54.4011 51.94 53.6145 51.46C52.8278 50.9667 52.2011 50.2867 51.7345 49.42C51.2811 48.54 51.0545 47.5467 51.0545 46.44ZM60.0745 46.48C60.0745 45.72 59.9145 45.06 59.5945 44.5C59.2878 43.94 58.8811 43.5133 58.3745 43.22C57.8678 42.9267 57.3211 42.78 56.7345 42.78C56.1478 42.78 55.6011 42.9267 55.0945 43.22C54.5878 43.5 54.1745 43.92 53.8545 44.48C53.5478 45.0267 53.3945 45.68 53.3945 46.44C53.3945 47.2 53.5478 47.8667 53.8545 48.44C54.1745 49.0133 54.5878 49.4533 55.0945 49.76C55.6145 50.0533 56.1611 50.2 56.7345 50.2C57.3211 50.2 57.8678 50.0533 58.3745 49.76C58.8811 49.4667 59.2878 49.04 59.5945 48.48C59.9145 47.9067 60.0745 47.24 60.0745 46.48ZM67.6491 37.2V52H65.3691V37.2H67.6491ZM73.3026 42.84V48.94C73.3026 49.3533 73.3959 49.6533 73.5826 49.84C73.7826 50.0133 74.1159 50.1 74.5826 50.1H75.9826V52H74.1826C73.1559 52 72.3692 51.76 71.8226 51.28C71.2759 50.8 71.0026 50.02 71.0026 48.94V42.84H69.7026V40.98H71.0026V38.24H73.3026V40.98H75.9826V42.84H73.3026ZM79.244 39.52C78.8307 39.52 78.484 39.38 78.204 39.1C77.924 38.82 77.784 38.4733 77.784 38.06C77.784 37.6467 77.924 37.3 78.204 37.02C78.484 36.74 78.8307 36.6 79.244 36.6C79.644 36.6 79.984 36.74 80.264 37.02C80.544 37.3 80.684 37.6467 80.684 38.06C80.684 38.4733 80.544 38.82 80.264 39.1C79.984 39.38 79.644 39.52 79.244 39.52ZM80.364 40.98V52H78.084V40.98H80.364ZM96.6974 40.8C97.5641 40.8 98.3374 40.98 99.0174 41.34C99.7108 41.7 100.251 42.2333 100.637 42.94C101.037 43.6467 101.237 44.5 101.237 45.5V52H98.9774V45.84C98.9774 44.8533 98.7308 44.1 98.2374 43.58C97.7441 43.0467 97.0708 42.78 96.2174 42.78C95.3641 42.78 94.6841 43.0467 94.1774 43.58C93.6841 44.1 93.4374 44.8533 93.4374 45.84V52H91.1774V45.84C91.1774 44.8533 90.9308 44.1 90.4374 43.58C89.9441 43.0467 89.2708 42.78 88.4174 42.78C87.5641 42.78 86.8841 43.0467 86.3774 43.58C85.8841 44.1 85.6374 44.8533 85.6374 45.84V52H83.3574V40.98H85.6374V42.24C86.0108 41.7867 86.4841 41.4333 87.0574 41.18C87.6308 40.9267 88.2441 40.8 88.8974 40.8C89.7774 40.8 90.5641 40.9867 91.2574 41.36C91.9508 41.7333 92.4841 42.2733 92.8574 42.98C93.1908 42.3133 93.7108 41.7867 94.4174 41.4C95.1241 41 95.8841 40.8 96.6974 40.8ZM114.239 46.22C114.239 46.6333 114.212 47.0067 114.159 47.34H105.739C105.805 48.22 106.132 48.9267 106.719 49.46C107.305 49.9933 108.025 50.26 108.879 50.26C110.105 50.26 110.972 49.7467 111.479 48.72H113.939C113.605 49.7333 112.999 50.5667 112.119 51.22C111.252 51.86 110.172 52.18 108.879 52.18C107.825 52.18 106.879 51.9467 106.039 51.48C105.212 51 104.559 50.3333 104.079 49.48C103.612 48.6133 103.379 47.6133 103.379 46.48C103.379 45.3467 103.605 44.3533 104.059 43.5C104.525 42.6333 105.172 41.9667 105.999 41.5C106.839 41.0333 107.799 40.8 108.879 40.8C109.919 40.8 110.845 41.0267 111.659 41.48C112.472 41.9333 113.105 42.5733 113.559 43.4C114.012 44.2133 114.239 45.1533 114.239 46.22ZM111.859 45.5C111.845 44.66 111.545 43.9867 110.959 43.48C110.372 42.9733 109.645 42.72 108.779 42.72C107.992 42.72 107.319 42.9733 106.759 43.48C106.199 43.9733 105.865 44.6467 105.759 45.5H111.859ZM120.482 52.18C119.616 52.18 118.836 52.0267 118.142 51.72C117.462 51.4 116.922 50.9733 116.522 50.44C116.122 49.8933 115.909 49.2867 115.882 48.62H118.242C118.282 49.0867 118.502 49.48 118.902 49.8C119.316 50.1067 119.829 50.26 120.442 50.26C121.082 50.26 121.576 50.14 121.922 49.9C122.282 49.6467 122.462 49.3267 122.462 48.94C122.462 48.5267 122.262 48.22 121.862 48.02C121.476 47.82 120.856 47.6 120.002 47.36C119.176 47.1333 118.502 46.9133 117.982 46.7C117.462 46.4867 117.009 46.16 116.622 45.72C116.249 45.28 116.062 44.7 116.062 43.98C116.062 43.3933 116.236 42.86 116.582 42.38C116.929 41.8867 117.422 41.5 118.062 41.22C118.716 40.94 119.462 40.8 120.302 40.8C121.556 40.8 122.562 41.12 123.322 41.76C124.096 42.3867 124.509 43.2467 124.562 44.34H122.282C122.242 43.8467 122.042 43.4533 121.682 43.16C121.322 42.8667 120.836 42.72 120.222 42.72C119.622 42.72 119.162 42.8333 118.842 43.06C118.522 43.2867 118.362 43.5867 118.362 43.96C118.362 44.2533 118.469 44.5 118.682 44.7C118.896 44.9 119.156 45.06 119.462 45.18C119.769 45.2867 120.222 45.4267 120.822 45.6C121.622 45.8133 122.276 46.0333 122.782 46.26C123.302 46.4733 123.749 46.7933 124.122 47.22C124.496 47.6467 124.689 48.2133 124.702 48.92C124.702 49.5467 124.529 50.1067 124.182 50.6C123.836 51.0933 123.342 51.48 122.702 51.76C122.076 52.04 121.336 52.18 120.482 52.18Z" fill="white"/>
</g>
</svg>
