<svg width="225" height="66" viewBox="0 0 225 66" fill="none" xmlns="http://www.w3.org/2000/svg">
<g opacity="0.5">
<path d="M225 0H0V66H225V0Z" fill="#1C588A"/>
<path d="M52.3724 26.1V40H50.0924V30.48L45.8524 40H44.2724L40.0124 30.48V40H37.7324V26.1H40.1924L45.0724 37L49.9324 26.1H52.3724ZM65.4691 34.22C65.4691 34.6333 65.4425 35.0067 65.3891 35.34H56.9691C57.0358 36.22 57.3625 36.9267 57.9491 37.46C58.5358 37.9933 59.2558 38.26 60.1091 38.26C61.3358 38.26 62.2025 37.7467 62.7091 36.72H65.1691C64.8358 37.7333 64.2291 38.5667 63.3491 39.22C62.4825 39.86 61.4025 40.18 60.1091 40.18C59.0558 40.18 58.1091 39.9467 57.2691 39.48C56.4425 39 55.7891 38.3333 55.3091 37.48C54.8425 36.6133 54.6091 35.6133 54.6091 34.48C54.6091 33.3467 54.8358 32.3533 55.2891 31.5C55.7558 30.6333 56.4025 29.9667 57.2291 29.5C58.0691 29.0333 59.0291 28.8 60.1091 28.8C61.1491 28.8 62.0758 29.0267 62.8891 29.48C63.7025 29.9333 64.3358 30.5733 64.7891 31.4C65.2425 32.2133 65.4691 33.1533 65.4691 34.22ZM63.0891 33.5C63.0758 32.66 62.7758 31.9867 62.1891 31.48C61.6025 30.9733 60.8758 30.72 60.0091 30.72C59.2225 30.72 58.5491 30.9733 57.9891 31.48C57.4291 31.9733 57.0958 32.6467 56.9891 33.5H63.0891ZM66.9529 34.44C66.9529 33.3333 67.1796 32.3533 67.6329 31.5C68.0996 30.6467 68.7262 29.9867 69.5129 29.52C70.3129 29.04 71.1929 28.8 72.1529 28.8C73.0196 28.8 73.7729 28.9733 74.4129 29.32C75.0662 29.6533 75.5862 30.0733 75.9729 30.58V28.98H78.2729V40H75.9729V38.36C75.5862 38.88 75.0596 39.3133 74.3929 39.66C73.7262 40.0067 72.9662 40.18 72.1129 40.18C71.1662 40.18 70.2996 39.94 69.5129 39.46C68.7262 38.9667 68.0996 38.2867 67.6329 37.42C67.1796 36.54 66.9529 35.5467 66.9529 34.44ZM75.9729 34.48C75.9729 33.72 75.8129 33.06 75.4929 32.5C75.1862 31.94 74.7796 31.5133 74.2729 31.22C73.7662 30.9267 73.2196 30.78 72.6329 30.78C72.0462 30.78 71.4996 30.9267 70.9929 31.22C70.4862 31.5 70.0729 31.92 69.7529 32.48C69.4462 33.0267 69.2929 33.68 69.2929 34.44C69.2929 35.2 69.4462 35.8667 69.7529 36.44C70.0729 37.0133 70.4862 37.4533 70.9929 37.76C71.5129 38.0533 72.0596 38.2 72.6329 38.2C73.2196 38.2 73.7662 38.0533 74.2729 37.76C74.7796 37.4667 75.1862 37.04 75.4929 36.48C75.8129 35.9067 75.9729 35.24 75.9729 34.48ZM83.5476 25.2V40H81.2676V25.2H83.5476ZM89.201 30.84V36.94C89.201 37.3533 89.2943 37.6533 89.481 37.84C89.681 38.0133 90.0143 38.1 90.481 38.1H91.881V40H90.081C89.0543 40 88.2677 39.76 87.721 39.28C87.1743 38.8 86.901 38.02 86.901 36.94V30.84H85.601V28.98H86.901V26.24H89.201V28.98H91.881V30.84H89.201ZM95.1424 27.52C94.7291 27.52 94.3824 27.38 94.1024 27.1C93.8224 26.82 93.6824 26.4733 93.6824 26.06C93.6824 25.6467 93.8224 25.3 94.1024 25.02C94.3824 24.74 94.7291 24.6 95.1424 24.6C95.5424 24.6 95.8824 24.74 96.1624 25.02C96.4424 25.3 96.5824 25.6467 96.5824 26.06C96.5824 26.4733 96.4424 26.82 96.1624 27.1C95.8824 27.38 95.5424 27.52 95.1424 27.52ZM96.2624 28.98V40H93.9824V28.98H96.2624ZM112.596 28.8C113.463 28.8 114.236 28.98 114.916 29.34C115.609 29.7 116.149 30.2333 116.536 30.94C116.936 31.6467 117.136 32.5 117.136 33.5V40H114.876V33.84C114.876 32.8533 114.629 32.1 114.136 31.58C113.643 31.0467 112.969 30.78 112.116 30.78C111.263 30.78 110.583 31.0467 110.076 31.58C109.583 32.1 109.336 32.8533 109.336 33.84V40H107.076V33.84C107.076 32.8533 106.829 32.1 106.336 31.58C105.843 31.0467 105.169 30.78 104.316 30.78C103.463 30.78 102.783 31.0467 102.276 31.58C101.783 32.1 101.536 32.8533 101.536 33.84V40H99.2559V28.98H101.536V30.24C101.909 29.7867 102.383 29.4333 102.956 29.18C103.529 28.9267 104.143 28.8 104.796 28.8C105.676 28.8 106.463 28.9867 107.156 29.36C107.849 29.7333 108.383 30.2733 108.756 30.98C109.089 30.3133 109.609 29.7867 110.316 29.4C111.023 29 111.783 28.8 112.596 28.8ZM130.137 34.22C130.137 34.6333 130.11 35.0067 130.057 35.34H121.637C121.704 36.22 122.03 36.9267 122.617 37.46C123.204 37.9933 123.924 38.26 124.777 38.26C126.004 38.26 126.87 37.7467 127.377 36.72H129.837C129.504 37.7333 128.897 38.5667 128.017 39.22C127.15 39.86 126.07 40.18 124.777 40.18C123.724 40.18 122.777 39.9467 121.937 39.48C121.11 39 120.457 38.3333 119.977 37.48C119.51 36.6133 119.277 35.6133 119.277 34.48C119.277 33.3467 119.504 32.3533 119.957 31.5C120.424 30.6333 121.07 29.9667 121.897 29.5C122.737 29.0333 123.697 28.8 124.777 28.8C125.817 28.8 126.744 29.0267 127.557 29.48C128.37 29.9333 129.004 30.5733 129.457 31.4C129.91 32.2133 130.137 33.1533 130.137 34.22ZM127.757 33.5C127.744 32.66 127.444 31.9867 126.857 31.48C126.27 30.9733 125.544 30.72 124.677 30.72C123.89 30.72 123.217 30.9733 122.657 31.48C122.097 31.9733 121.764 32.6467 121.657 33.5H127.757ZM144.796 40L141.596 34.44H139.856V40H137.576V26.1H142.376C143.443 26.1 144.343 26.2867 145.076 26.66C145.823 27.0333 146.376 27.5333 146.736 28.16C147.11 28.7867 147.296 29.4867 147.296 30.26C147.296 31.1667 147.03 31.9933 146.496 32.74C145.976 33.4733 145.17 33.9733 144.076 34.24L147.516 40H144.796ZM139.856 32.62H142.376C143.23 32.62 143.87 32.4067 144.296 31.98C144.736 31.5533 144.956 30.98 144.956 30.26C144.956 29.54 144.743 28.98 144.316 28.58C143.89 28.1667 143.243 27.96 142.376 27.96H139.856V32.62ZM154.993 40.18C153.953 40.18 153.013 39.9467 152.173 39.48C151.333 39 150.673 38.3333 150.193 37.48C149.713 36.6133 149.473 35.6133 149.473 34.48C149.473 33.36 149.72 32.3667 150.213 31.5C150.706 30.6333 151.38 29.9667 152.233 29.5C153.086 29.0333 154.04 28.8 155.093 28.8C156.146 28.8 157.1 29.0333 157.953 29.5C158.806 29.9667 159.48 30.6333 159.973 31.5C160.466 32.3667 160.713 33.36 160.713 34.48C160.713 35.6 160.46 36.5933 159.953 37.46C159.446 38.3267 158.753 39 157.873 39.48C157.006 39.9467 156.046 40.18 154.993 40.18ZM154.993 38.2C155.58 38.2 156.126 38.06 156.633 37.78C157.153 37.5 157.573 37.08 157.893 36.52C158.213 35.96 158.373 35.28 158.373 34.48C158.373 33.68 158.22 33.0067 157.913 32.46C157.606 31.9 157.2 31.48 156.693 31.2C156.186 30.92 155.64 30.78 155.053 30.78C154.466 30.78 153.92 30.92 153.413 31.2C152.92 31.48 152.526 31.9 152.233 32.46C151.94 33.0067 151.793 33.68 151.793 34.48C151.793 35.6667 152.093 36.5867 152.693 37.24C153.306 37.88 154.073 38.2 154.993 38.2ZM165.247 25.2V40H162.967V25.2H165.247ZM178.34 34.22C178.34 34.6333 178.314 35.0067 178.26 35.34H169.84C169.907 36.22 170.234 36.9267 170.82 37.46C171.407 37.9933 172.127 38.26 172.98 38.26C174.207 38.26 175.074 37.7467 175.58 36.72H178.04C177.707 37.7333 177.1 38.5667 176.22 39.22C175.354 39.86 174.274 40.18 172.98 40.18C171.927 40.18 170.98 39.9467 170.14 39.48C169.314 39 168.66 38.3333 168.18 37.48C167.714 36.6133 167.48 35.6133 167.48 34.48C167.48 33.3467 167.707 32.3533 168.16 31.5C168.627 30.6333 169.274 29.9667 170.1 29.5C170.94 29.0333 171.9 28.8 172.98 28.8C174.02 28.8 174.947 29.0267 175.76 29.48C176.574 29.9333 177.207 30.5733 177.66 31.4C178.114 32.2133 178.34 33.1533 178.34 34.22ZM175.96 33.5C175.947 32.66 175.647 31.9867 175.06 31.48C174.474 30.9733 173.747 30.72 172.88 30.72C172.094 30.72 171.42 30.9733 170.86 31.48C170.3 31.9733 169.967 32.6467 169.86 33.5H175.96ZM184.584 40.18C183.717 40.18 182.937 40.0267 182.244 39.72C181.564 39.4 181.024 38.9733 180.624 38.44C180.224 37.8933 180.011 37.2867 179.984 36.62H182.344C182.384 37.0867 182.604 37.48 183.004 37.8C183.417 38.1067 183.931 38.26 184.544 38.26C185.184 38.26 185.677 38.14 186.024 37.9C186.384 37.6467 186.564 37.3267 186.564 36.94C186.564 36.5267 186.364 36.22 185.964 36.02C185.577 35.82 184.957 35.6 184.104 35.36C183.277 35.1333 182.604 34.9133 182.084 34.7C181.564 34.4867 181.111 34.16 180.724 33.72C180.351 33.28 180.164 32.7 180.164 31.98C180.164 31.3933 180.337 30.86 180.684 30.38C181.031 29.8867 181.524 29.5 182.164 29.22C182.817 28.94 183.564 28.8 184.404 28.8C185.657 28.8 186.664 29.12 187.424 29.76C188.197 30.3867 188.611 31.2467 188.664 32.34H186.384C186.344 31.8467 186.144 31.4533 185.784 31.16C185.424 30.8667 184.937 30.72 184.324 30.72C183.724 30.72 183.264 30.8333 182.944 31.06C182.624 31.2867 182.464 31.5867 182.464 31.96C182.464 32.2533 182.571 32.5 182.784 32.7C182.997 32.9 183.257 33.06 183.564 33.18C183.871 33.2867 184.324 33.4267 184.924 33.6C185.724 33.8133 186.377 34.0333 186.884 34.26C187.404 34.4733 187.851 34.7933 188.224 35.22C188.597 35.6467 188.791 36.2133 188.804 36.92C188.804 37.5467 188.631 38.1067 188.284 38.6C187.937 39.0933 187.444 39.48 186.804 39.76C186.177 40.04 185.437 40.18 184.584 40.18Z" fill="white"/>
</g>
</svg>
