<svg width="300" height="66" viewBox="0 0 300 66" fill="none" xmlns="http://www.w3.org/2000/svg">
<g opacity="0.5">
<path fill-rule="evenodd" clip-rule="evenodd" d="M0 66L47.1429 0H300V66L0 66Z" fill="#1C588A"/>
<path d="M88.2763 26.1C89.7563 26.1 91.0497 26.3867 92.1563 26.96C93.2763 27.52 94.1363 28.3333 94.7363 29.4C95.3497 30.4533 95.6563 31.6867 95.6563 33.1C95.6563 34.5133 95.3497 35.74 94.7363 36.78C94.1363 37.82 93.2763 38.62 92.1563 39.18C91.0497 39.7267 89.7563 40 88.2763 40H83.7363V26.1H88.2763ZM88.2763 38.14C89.903 38.14 91.1497 37.7 92.0163 36.82C92.883 35.94 93.3163 34.7 93.3163 33.1C93.3163 31.4867 92.883 30.2267 92.0163 29.32C91.1497 28.4133 89.903 27.96 88.2763 27.96H86.0163V38.14H88.2763ZM108.016 34.22C108.016 34.6333 107.989 35.0067 107.936 35.34H99.516C99.5827 36.22 99.9093 36.9267 100.496 37.46C101.083 37.9933 101.803 38.26 102.656 38.26C103.883 38.26 104.749 37.7467 105.256 36.72H107.716C107.383 37.7333 106.776 38.5667 105.896 39.22C105.029 39.86 103.949 40.18 102.656 40.18C101.603 40.18 100.656 39.9467 99.816 39.48C98.9893 39 98.336 38.3333 97.856 37.48C97.3893 36.6133 97.156 35.6133 97.156 34.48C97.156 33.3467 97.3827 32.3533 97.836 31.5C98.3027 30.6333 98.9493 29.9667 99.776 29.5C100.616 29.0333 101.576 28.8 102.656 28.8C103.696 28.8 104.623 29.0267 105.436 29.48C106.249 29.9333 106.883 30.5733 107.336 31.4C107.789 32.2133 108.016 33.1533 108.016 34.22ZM105.636 33.5C105.623 32.66 105.323 31.9867 104.736 31.48C104.149 30.9733 103.423 30.72 102.556 30.72C101.769 30.72 101.096 30.9733 100.536 31.48C99.976 31.9733 99.6427 32.6467 99.536 33.5H105.636ZM114.52 37.96L117.64 28.98H120.06L115.86 40H113.14L108.96 28.98H111.4L114.52 37.96ZM131.883 34.22C131.883 34.6333 131.857 35.0067 131.803 35.34H123.383C123.45 36.22 123.777 36.9267 124.363 37.46C124.95 37.9933 125.67 38.26 126.523 38.26C127.75 38.26 128.617 37.7467 129.123 36.72H131.583C131.25 37.7333 130.643 38.5667 129.763 39.22C128.897 39.86 127.817 40.18 126.523 40.18C125.47 40.18 124.523 39.9467 123.683 39.48C122.857 39 122.203 38.3333 121.723 37.48C121.257 36.6133 121.023 35.6133 121.023 34.48C121.023 33.3467 121.25 32.3533 121.703 31.5C122.17 30.6333 122.817 29.9667 123.643 29.5C124.483 29.0333 125.443 28.8 126.523 28.8C127.563 28.8 128.49 29.0267 129.303 29.48C130.117 29.9333 130.75 30.5733 131.203 31.4C131.657 32.2133 131.883 33.1533 131.883 34.22ZM129.503 33.5C129.49 32.66 129.19 31.9867 128.603 31.48C128.017 30.9733 127.29 30.72 126.423 30.72C125.637 30.72 124.963 30.9733 124.403 31.48C123.843 31.9733 123.51 32.6467 123.403 33.5H129.503ZM136.407 25.2V40H134.127V25.2H136.407ZM144.18 40.18C143.14 40.18 142.2 39.9467 141.36 39.48C140.52 39 139.86 38.3333 139.38 37.48C138.9 36.6133 138.66 35.6133 138.66 34.48C138.66 33.36 138.907 32.3667 139.4 31.5C139.894 30.6333 140.567 29.9667 141.42 29.5C142.274 29.0333 143.227 28.8 144.28 28.8C145.334 28.8 146.287 29.0333 147.14 29.5C147.994 29.9667 148.667 30.6333 149.16 31.5C149.654 32.3667 149.9 33.36 149.9 34.48C149.9 35.6 149.647 36.5933 149.14 37.46C148.634 38.3267 147.94 39 147.06 39.48C146.194 39.9467 145.234 40.18 144.18 40.18ZM144.18 38.2C144.767 38.2 145.314 38.06 145.82 37.78C146.34 37.5 146.76 37.08 147.08 36.52C147.4 35.96 147.56 35.28 147.56 34.48C147.56 33.68 147.407 33.0067 147.1 32.46C146.794 31.9 146.387 31.48 145.88 31.2C145.374 30.92 144.827 30.78 144.24 30.78C143.654 30.78 143.107 30.92 142.6 31.2C142.107 31.48 141.714 31.9 141.42 32.46C141.127 33.0067 140.98 33.68 140.98 34.48C140.98 35.6667 141.28 36.5867 141.88 37.24C142.494 37.88 143.26 38.2 144.18 38.2ZM154.434 30.6C154.821 30.0933 155.348 29.6667 156.014 29.32C156.681 28.9733 157.434 28.8 158.274 28.8C159.234 28.8 160.108 29.04 160.894 29.52C161.694 29.9867 162.321 30.6467 162.774 31.5C163.228 32.3533 163.454 33.3333 163.454 34.44C163.454 35.5467 163.228 36.54 162.774 37.42C162.321 38.2867 161.694 38.9667 160.894 39.46C160.108 39.94 159.234 40.18 158.274 40.18C157.434 40.18 156.688 40.0133 156.034 39.68C155.381 39.3333 154.848 38.9067 154.434 38.4V45.24H152.154V28.98H154.434V30.6ZM161.134 34.44C161.134 33.68 160.974 33.0267 160.654 32.48C160.348 31.92 159.934 31.5 159.414 31.22C158.908 30.9267 158.361 30.78 157.774 30.78C157.201 30.78 156.654 30.9267 156.134 31.22C155.628 31.5133 155.214 31.94 154.894 32.5C154.588 33.06 154.434 33.72 154.434 34.48C154.434 35.24 154.588 35.9067 154.894 36.48C155.214 37.04 155.628 37.4667 156.134 37.76C156.654 38.0533 157.201 38.2 157.774 38.2C158.361 38.2 158.908 38.0533 159.414 37.76C159.934 37.4533 160.348 37.0133 160.654 36.44C160.974 35.8667 161.134 35.2 161.134 34.44ZM179.049 28.8C179.916 28.8 180.689 28.98 181.369 29.34C182.062 29.7 182.602 30.2333 182.989 30.94C183.389 31.6467 183.589 32.5 183.589 33.5V40H181.329V33.84C181.329 32.8533 181.082 32.1 180.589 31.58C180.096 31.0467 179.422 30.78 178.569 30.78C177.716 30.78 177.036 31.0467 176.529 31.58C176.036 32.1 175.789 32.8533 175.789 33.84V40H173.529V33.84C173.529 32.8533 173.282 32.1 172.789 31.58C172.296 31.0467 171.622 30.78 170.769 30.78C169.916 30.78 169.236 31.0467 168.729 31.58C168.236 32.1 167.989 32.8533 167.989 33.84V40H165.709V28.98H167.989V30.24C168.362 29.7867 168.836 29.4333 169.409 29.18C169.982 28.9267 170.596 28.8 171.249 28.8C172.129 28.8 172.916 28.9867 173.609 29.36C174.302 29.7333 174.836 30.2733 175.209 30.98C175.542 30.3133 176.062 29.7867 176.769 29.4C177.476 29 178.236 28.8 179.049 28.8ZM196.59 34.22C196.59 34.6333 196.564 35.0067 196.51 35.34H188.09C188.157 36.22 188.484 36.9267 189.07 37.46C189.657 37.9933 190.377 38.26 191.23 38.26C192.457 38.26 193.324 37.7467 193.83 36.72H196.29C195.957 37.7333 195.35 38.5667 194.47 39.22C193.604 39.86 192.524 40.18 191.23 40.18C190.177 40.18 189.23 39.9467 188.39 39.48C187.564 39 186.91 38.3333 186.43 37.48C185.964 36.6133 185.73 35.6133 185.73 34.48C185.73 33.3467 185.957 32.3533 186.41 31.5C186.877 30.6333 187.524 29.9667 188.35 29.5C189.19 29.0333 190.15 28.8 191.23 28.8C192.27 28.8 193.197 29.0267 194.01 29.48C194.824 29.9333 195.457 30.5733 195.91 31.4C196.364 32.2133 196.59 33.1533 196.59 34.22ZM194.21 33.5C194.197 32.66 193.897 31.9867 193.31 31.48C192.724 30.9733 191.997 30.72 191.13 30.72C190.344 30.72 189.67 30.9733 189.11 31.48C188.55 31.9733 188.217 32.6467 188.11 33.5H194.21ZM204.394 28.8C205.261 28.8 206.034 28.98 206.714 29.34C207.407 29.7 207.947 30.2333 208.334 30.94C208.721 31.6467 208.914 32.5 208.914 33.5V40H206.654V33.84C206.654 32.8533 206.407 32.1 205.914 31.58C205.421 31.0467 204.747 30.78 203.894 30.78C203.041 30.78 202.361 31.0467 201.854 31.58C201.361 32.1 201.114 32.8533 201.114 33.84V40H198.834V28.98H201.114V30.24C201.487 29.7867 201.961 29.4333 202.534 29.18C203.121 28.9267 203.741 28.8 204.394 28.8ZM214.482 30.84V36.94C214.482 37.3533 214.576 37.6533 214.762 37.84C214.962 38.0133 215.296 38.1 215.762 38.1H217.162V40H215.362C214.336 40 213.549 39.76 213.002 39.28C212.456 38.8 212.182 38.02 212.182 36.94V30.84H210.882V28.98H212.182V26.24H214.482V28.98H217.162V30.84H214.482Z" fill="white"/>
</g>
</svg>
