<svg width="298" height="66" viewBox="0 0 298 66" fill="none" xmlns="http://www.w3.org/2000/svg">
<g opacity="0.5">
<path d="M250 0L297.143 66H0V0H250Z" fill="#007A6F"/>
<path d="M38.1986 26.1V40H35.9186V30.48L31.6786 40H30.0986L25.8386 30.48V40H23.5586V26.1H26.0186L30.8986 37L35.7586 26.1H38.1986ZM51.2953 34.22C51.2953 34.6333 51.2686 35.0067 51.2153 35.34H42.7953C42.862 36.22 43.1886 36.9267 43.7753 37.46C44.362 37.9933 45.082 38.26 45.9353 38.26C47.162 38.26 48.0286 37.7467 48.5353 36.72H50.9953C50.662 37.7333 50.0553 38.5667 49.1753 39.22C48.3086 39.86 47.2286 40.18 45.9353 40.18C44.882 40.18 43.9353 39.9467 43.0953 39.48C42.2686 39 41.6153 38.3333 41.1353 37.48C40.6686 36.6133 40.4353 35.6133 40.4353 34.48C40.4353 33.3467 40.662 32.3533 41.1153 31.5C41.582 30.6333 42.2286 29.9667 43.0553 29.5C43.8953 29.0333 44.8553 28.8 45.9353 28.8C46.9753 28.8 47.902 29.0267 48.7153 29.48C49.5286 29.9333 50.162 30.5733 50.6153 31.4C51.0686 32.2133 51.2953 33.1533 51.2953 34.22ZM48.9153 33.5C48.902 32.66 48.602 31.9867 48.0153 31.48C47.4286 30.9733 46.702 30.72 45.8353 30.72C45.0486 30.72 44.3753 30.9733 43.8153 31.48C43.2553 31.9733 42.922 32.6467 42.8153 33.5H48.9153ZM52.7791 34.44C52.7791 33.3333 53.0057 32.3533 53.4591 31.5C53.9257 30.6467 54.5524 29.9867 55.3391 29.52C56.1391 29.04 57.0191 28.8 57.9791 28.8C58.8457 28.8 59.5991 28.9733 60.2391 29.32C60.8924 29.6533 61.4124 30.0733 61.7991 30.58V28.98H64.0991V40H61.7991V38.36C61.4124 38.88 60.8857 39.3133 60.2191 39.66C59.5524 40.0067 58.7924 40.18 57.9391 40.18C56.9924 40.18 56.1257 39.94 55.3391 39.46C54.5524 38.9667 53.9257 38.2867 53.4591 37.42C53.0057 36.54 52.7791 35.5467 52.7791 34.44ZM61.7991 34.48C61.7991 33.72 61.6391 33.06 61.3191 32.5C61.0124 31.94 60.6057 31.5133 60.0991 31.22C59.5924 30.9267 59.0457 30.78 58.4591 30.78C57.8724 30.78 57.3257 30.9267 56.8191 31.22C56.3124 31.5 55.8991 31.92 55.5791 32.48C55.2724 33.0267 55.1191 33.68 55.1191 34.44C55.1191 35.2 55.2724 35.8667 55.5791 36.44C55.8991 37.0133 56.3124 37.4533 56.8191 37.76C57.3391 38.0533 57.8857 38.2 58.4591 38.2C59.0457 38.2 59.5924 38.0533 60.0991 37.76C60.6057 37.4667 61.0124 37.04 61.3191 36.48C61.6391 35.9067 61.7991 35.24 61.7991 34.48ZM69.3738 25.2V40H67.0938V25.2H69.3738ZM75.0272 30.84V36.94C75.0272 37.3533 75.1205 37.6533 75.3072 37.84C75.5072 38.0133 75.8405 38.1 76.3072 38.1H77.7072V40H75.9072C74.8805 40 74.0939 39.76 73.5472 39.28C73.0005 38.8 72.7272 38.02 72.7272 36.94V30.84H71.4272V28.98H72.7272V26.24H75.0272V28.98H77.7072V30.84H75.0272ZM80.9686 27.52C80.5553 27.52 80.2086 27.38 79.9286 27.1C79.6486 26.82 79.5086 26.4733 79.5086 26.06C79.5086 25.6467 79.6486 25.3 79.9286 25.02C80.2086 24.74 80.5553 24.6 80.9686 24.6C81.3686 24.6 81.7086 24.74 81.9886 25.02C82.2686 25.3 82.4086 25.6467 82.4086 26.06C82.4086 26.4733 82.2686 26.82 81.9886 27.1C81.7086 27.38 81.3686 27.52 80.9686 27.52ZM82.0886 28.98V40H79.8086V28.98H82.0886ZM98.422 28.8C99.2887 28.8 100.062 28.98 100.742 29.34C101.435 29.7 101.975 30.2333 102.362 30.94C102.762 31.6467 102.962 32.5 102.962 33.5V40H100.702V33.84C100.702 32.8533 100.455 32.1 99.962 31.58C99.4687 31.0467 98.7954 30.78 97.942 30.78C97.0887 30.78 96.4087 31.0467 95.902 31.58C95.4087 32.1 95.162 32.8533 95.162 33.84V40H92.902V33.84C92.902 32.8533 92.6554 32.1 92.162 31.58C91.6687 31.0467 90.9954 30.78 90.142 30.78C89.2887 30.78 88.6087 31.0467 88.102 31.58C87.6087 32.1 87.362 32.8533 87.362 33.84V40H85.082V28.98H87.362V30.24C87.7354 29.7867 88.2087 29.4333 88.782 29.18C89.3554 28.9267 89.9687 28.8 90.622 28.8C91.502 28.8 92.2887 28.9867 92.982 29.36C93.6754 29.7333 94.2087 30.2733 94.582 30.98C94.9154 30.3133 95.4354 29.7867 96.142 29.4C96.8487 29 97.6087 28.8 98.422 28.8ZM115.963 34.22C115.963 34.6333 115.937 35.0067 115.883 35.34H107.463C107.53 36.22 107.857 36.9267 108.443 37.46C109.03 37.9933 109.75 38.26 110.603 38.26C111.83 38.26 112.697 37.7467 113.203 36.72H115.663C115.33 37.7333 114.723 38.5667 113.843 39.22C112.977 39.86 111.897 40.18 110.603 40.18C109.55 40.18 108.603 39.9467 107.763 39.48C106.937 39 106.283 38.3333 105.803 37.48C105.337 36.6133 105.103 35.6133 105.103 34.48C105.103 33.3467 105.33 32.3533 105.783 31.5C106.25 30.6333 106.897 29.9667 107.723 29.5C108.563 29.0333 109.523 28.8 110.603 28.8C111.643 28.8 112.57 29.0267 113.383 29.48C114.197 29.9333 114.83 30.5733 115.283 31.4C115.737 32.2133 115.963 33.1533 115.963 34.22ZM113.583 33.5C113.57 32.66 113.27 31.9867 112.683 31.48C112.097 30.9733 111.37 30.72 110.503 30.72C109.717 30.72 109.043 30.9733 108.483 31.48C107.923 31.9733 107.59 32.6467 107.483 33.5H113.583ZM125.682 27.94V32.02H130.482V33.88H125.682V38.14H131.082V40H123.402V26.08H131.082V27.94H125.682ZM139.451 28.8C140.317 28.8 141.091 28.98 141.771 29.34C142.464 29.7 143.004 30.2333 143.391 30.94C143.777 31.6467 143.971 32.5 143.971 33.5V40H141.711V33.84C141.711 32.8533 141.464 32.1 140.971 31.58C140.477 31.0467 139.804 30.78 138.951 30.78C138.097 30.78 137.417 31.0467 136.911 31.58C136.417 32.1 136.171 32.8533 136.171 33.84V40H133.891V28.98H136.171V30.24C136.544 29.7867 137.017 29.4333 137.591 29.18C138.177 28.9267 138.797 28.8 139.451 28.8ZM151.319 28.8C152.172 28.8 152.926 28.9733 153.579 29.32C154.246 29.6533 154.766 30.0733 155.139 30.58V28.98H157.439V40.18C157.439 41.1933 157.226 42.0933 156.799 42.88C156.372 43.68 155.752 44.3067 154.939 44.76C154.139 45.2133 153.179 45.44 152.059 45.44C150.566 45.44 149.326 45.0867 148.339 44.38C147.352 43.6867 146.792 42.74 146.659 41.54H148.919C149.092 42.1133 149.459 42.5733 150.019 42.92C150.592 43.28 151.272 43.46 152.059 43.46C152.979 43.46 153.719 43.18 154.279 42.62C154.852 42.06 155.139 41.2467 155.139 40.18V38.34C154.752 38.86 154.226 39.3 153.559 39.66C152.906 40.0067 152.159 40.18 151.319 40.18C150.359 40.18 149.479 39.94 148.679 39.46C147.892 38.9667 147.266 38.2867 146.799 37.42C146.346 36.54 146.119 35.5467 146.119 34.44C146.119 33.3333 146.346 32.3533 146.799 31.5C147.266 30.6467 147.892 29.9867 148.679 29.52C149.479 29.04 150.359 28.8 151.319 28.8ZM155.139 34.48C155.139 33.72 154.979 33.06 154.659 32.5C154.352 31.94 153.946 31.5133 153.439 31.22C152.932 30.9267 152.386 30.78 151.799 30.78C151.212 30.78 150.666 30.9267 150.159 31.22C149.652 31.5 149.239 31.92 148.919 32.48C148.612 33.0267 148.459 33.68 148.459 34.44C148.459 35.2 148.612 35.8667 148.919 36.44C149.239 37.0133 149.652 37.4533 150.159 37.76C150.679 38.0533 151.226 38.2 151.799 38.2C152.386 38.2 152.932 38.0533 153.439 37.76C153.946 37.4667 154.352 37.04 154.659 36.48C154.979 35.9067 155.139 35.24 155.139 34.48ZM159.674 34.44C159.674 33.3333 159.9 32.3533 160.354 31.5C160.82 30.6467 161.447 29.9867 162.234 29.52C163.034 29.04 163.914 28.8 164.874 28.8C165.74 28.8 166.494 28.9733 167.134 29.32C167.787 29.6533 168.307 30.0733 168.694 30.58V28.98H170.994V40H168.694V38.36C168.307 38.88 167.78 39.3133 167.114 39.66C166.447 40.0067 165.687 40.18 164.834 40.18C163.887 40.18 163.02 39.94 162.234 39.46C161.447 38.9667 160.82 38.2867 160.354 37.42C159.9 36.54 159.674 35.5467 159.674 34.44ZM168.694 34.48C168.694 33.72 168.534 33.06 168.214 32.5C167.907 31.94 167.5 31.5133 166.994 31.22C166.487 30.9267 165.94 30.78 165.354 30.78C164.767 30.78 164.22 30.9267 163.714 31.22C163.207 31.5 162.794 31.92 162.474 32.48C162.167 33.0267 162.014 33.68 162.014 34.44C162.014 35.2 162.167 35.8667 162.474 36.44C162.794 37.0133 163.207 37.4533 163.714 37.76C164.234 38.0533 164.78 38.2 165.354 38.2C165.94 38.2 166.487 38.0533 166.994 37.76C167.5 37.4667 167.907 37.04 168.214 36.48C168.534 35.9067 168.694 35.24 168.694 34.48ZM178.428 28.8C179.282 28.8 180.035 28.9733 180.688 29.32C181.355 29.6533 181.875 30.0733 182.248 30.58V28.98H184.548V40.18C184.548 41.1933 184.335 42.0933 183.908 42.88C183.482 43.68 182.862 44.3067 182.048 44.76C181.248 45.2133 180.288 45.44 179.168 45.44C177.675 45.44 176.435 45.0867 175.448 44.38C174.462 43.6867 173.902 42.74 173.768 41.54H176.028C176.202 42.1133 176.568 42.5733 177.128 42.92C177.702 43.28 178.382 43.46 179.168 43.46C180.088 43.46 180.828 43.18 181.388 42.62C181.962 42.06 182.248 41.2467 182.248 40.18V38.34C181.862 38.86 181.335 39.3 180.668 39.66C180.015 40.0067 179.268 40.18 178.428 40.18C177.468 40.18 176.588 39.94 175.788 39.46C175.002 38.9667 174.375 38.2867 173.908 37.42C173.455 36.54 173.228 35.5467 173.228 34.44C173.228 33.3333 173.455 32.3533 173.908 31.5C174.375 30.6467 175.002 29.9867 175.788 29.52C176.588 29.04 177.468 28.8 178.428 28.8ZM182.248 34.48C182.248 33.72 182.088 33.06 181.768 32.5C181.462 31.94 181.055 31.5133 180.548 31.22C180.042 30.9267 179.495 30.78 178.908 30.78C178.322 30.78 177.775 30.9267 177.268 31.22C176.762 31.5 176.348 31.92 176.028 32.48C175.722 33.0267 175.568 33.68 175.568 34.44C175.568 35.2 175.722 35.8667 176.028 36.44C176.348 37.0133 176.762 37.4533 177.268 37.76C177.788 38.0533 178.335 38.2 178.908 38.2C179.495 38.2 180.042 38.0533 180.548 37.76C181.055 37.4667 181.462 37.04 181.768 36.48C182.088 35.9067 182.248 35.24 182.248 34.48ZM197.643 34.22C197.643 34.6333 197.616 35.0067 197.563 35.34H189.143C189.21 36.22 189.536 36.9267 190.123 37.46C190.71 37.9933 191.43 38.26 192.283 38.26C193.51 38.26 194.376 37.7467 194.883 36.72H197.343C197.01 37.7333 196.403 38.5667 195.523 39.22C194.656 39.86 193.576 40.18 192.283 40.18C191.23 40.18 190.283 39.9467 189.443 39.48C188.616 39 187.963 38.3333 187.483 37.48C187.016 36.6133 186.783 35.6133 186.783 34.48C186.783 33.3467 187.01 32.3533 187.463 31.5C187.93 30.6333 188.576 29.9667 189.403 29.5C190.243 29.0333 191.203 28.8 192.283 28.8C193.323 28.8 194.25 29.0267 195.063 29.48C195.876 29.9333 196.51 30.5733 196.963 31.4C197.416 32.2133 197.643 33.1533 197.643 34.22ZM195.263 33.5C195.25 32.66 194.95 31.9867 194.363 31.48C193.776 30.9733 193.05 30.72 192.183 30.72C191.396 30.72 190.723 30.9733 190.163 31.48C189.603 31.9733 189.27 32.6467 189.163 33.5H195.263ZM213.227 28.8C214.093 28.8 214.867 28.98 215.547 29.34C216.24 29.7 216.78 30.2333 217.167 30.94C217.567 31.6467 217.767 32.5 217.767 33.5V40H215.507V33.84C215.507 32.8533 215.26 32.1 214.767 31.58C214.273 31.0467 213.6 30.78 212.747 30.78C211.893 30.78 211.213 31.0467 210.707 31.58C210.213 32.1 209.967 32.8533 209.967 33.84V40H207.707V33.84C207.707 32.8533 207.46 32.1 206.967 31.58C206.473 31.0467 205.8 30.78 204.947 30.78C204.093 30.78 203.413 31.0467 202.907 31.58C202.413 32.1 202.167 32.8533 202.167 33.84V40H199.887V28.98H202.167V30.24C202.54 29.7867 203.013 29.4333 203.587 29.18C204.16 28.9267 204.773 28.8 205.427 28.8C206.307 28.8 207.093 28.9867 207.787 29.36C208.48 29.7333 209.013 30.2733 209.387 30.98C209.72 30.3133 210.24 29.7867 210.947 29.4C211.653 29 212.413 28.8 213.227 28.8ZM230.768 34.22C230.768 34.6333 230.741 35.0067 230.688 35.34H222.268C222.335 36.22 222.661 36.9267 223.248 37.46C223.835 37.9933 224.555 38.26 225.408 38.26C226.635 38.26 227.501 37.7467 228.008 36.72H230.468C230.135 37.7333 229.528 38.5667 228.648 39.22C227.781 39.86 226.701 40.18 225.408 40.18C224.355 40.18 223.408 39.9467 222.568 39.48C221.741 39 221.088 38.3333 220.608 37.48C220.141 36.6133 219.908 35.6133 219.908 34.48C219.908 33.3467 220.135 32.3533 220.588 31.5C221.055 30.6333 221.701 29.9667 222.528 29.5C223.368 29.0333 224.328 28.8 225.408 28.8C226.448 28.8 227.375 29.0267 228.188 29.48C229.001 29.9333 229.635 30.5733 230.088 31.4C230.541 32.2133 230.768 33.1533 230.768 34.22ZM228.388 33.5C228.375 32.66 228.075 31.9867 227.488 31.48C226.901 30.9733 226.175 30.72 225.308 30.72C224.521 30.72 223.848 30.9733 223.288 31.48C222.728 31.9733 222.395 32.6467 222.288 33.5H228.388ZM238.572 28.8C239.438 28.8 240.212 28.98 240.892 29.34C241.585 29.7 242.125 30.2333 242.512 30.94C242.898 31.6467 243.092 32.5 243.092 33.5V40H240.832V33.84C240.832 32.8533 240.585 32.1 240.092 31.58C239.598 31.0467 238.925 30.78 238.072 30.78C237.218 30.78 236.538 31.0467 236.032 31.58C235.538 32.1 235.292 32.8533 235.292 33.84V40H233.012V28.98H235.292V30.24C235.665 29.7867 236.138 29.4333 236.712 29.18C237.298 28.9267 237.918 28.8 238.572 28.8ZM248.66 30.84V36.94C248.66 37.3533 248.753 37.6533 248.94 37.84C249.14 38.0133 249.473 38.1 249.94 38.1H251.34V40H249.54C248.513 40 247.727 39.76 247.18 39.28C246.633 38.8 246.36 38.02 246.36 36.94V30.84H245.06V28.98H246.36V26.24H248.66V28.98H251.34V30.84H248.66Z" fill="white"/>
</g>
</svg>
