<svg width="32" height="32" viewBox="0 0 32 32" fill="none" xmlns="http://www.w3.org/2000/svg">
<path d="M16 10.6665V15.9998L19.3333 19.3332" stroke="#001B57" stroke-width="1.5" stroke-linecap="round" stroke-linejoin="round"/>
<path d="M5.784 9.16136L4.784 9.16536C4.78505 9.42897 4.89014 9.68149 5.07641 9.86801C5.26268 10.0545 5.51507 10.16 5.77867 10.1614L5.784 9.16136ZM9.17333 10.1774C9.30466 10.178 9.43481 10.1527 9.55637 10.103C9.67793 10.0533 9.78851 9.9802 9.88181 9.88777C9.9751 9.79535 10.0493 9.68545 10.1001 9.56436C10.1509 9.44327 10.1774 9.31335 10.178 9.18203C10.1786 9.05071 10.1534 8.92055 10.1037 8.79899C10.054 8.67743 9.98083 8.56685 9.88841 8.47356C9.79598 8.38027 9.68609 8.30609 9.56499 8.25527C9.4439 8.20445 9.31399 8.17798 9.18267 8.17736L9.17333 10.1774ZM6.76667 5.76136C6.76525 5.49615 6.65854 5.24236 6.47 5.05582C6.28147 4.86928 6.02655 4.76528 5.76133 4.7667C5.49612 4.76811 5.24232 4.87483 5.05579 5.06336C4.86925 5.2519 4.76525 5.50681 4.76667 5.77203L6.76667 5.76136ZM5 16C5 15.7348 4.89464 15.4805 4.70711 15.2929C4.51957 15.1054 4.26522 15 4 15C3.73478 15 3.48043 15.1054 3.29289 15.2929C3.10536 15.4805 3 15.7348 3 16H5ZM22.5 27.26C22.6185 27.1969 22.723 27.1106 22.8075 27.0063C22.8919 26.9019 22.9544 26.7816 22.9914 26.6525C23.0283 26.5235 23.0389 26.3883 23.0225 26.2551C23.0061 26.1219 22.963 25.9933 22.8958 25.8771C22.8287 25.7609 22.7388 25.6593 22.6316 25.5786C22.5243 25.4978 22.4019 25.4395 22.2717 25.407C22.1414 25.3746 22.006 25.3687 21.8734 25.3897C21.7408 25.4107 21.6138 25.4582 21.5 25.5294L22.5 27.26ZM25.5293 21.5C25.4582 21.6139 25.4107 21.7409 25.3897 21.8734C25.3687 22.006 25.3746 22.1415 25.407 22.2717C25.4394 22.402 25.4978 22.5244 25.5785 22.6316C25.6593 22.7388 25.7608 22.8287 25.877 22.8959C25.9933 22.963 26.1218 23.0061 26.2551 23.0225C26.3883 23.0389 26.5235 23.0283 26.6525 22.9914C26.7816 22.9545 26.9019 22.8919 27.0062 22.8075C27.1106 22.7231 27.1969 22.6185 27.26 22.5L25.5293 21.5ZM6.85333 6.76003C6.66485 6.94674 6.55826 7.20068 6.55701 7.46598C6.55576 7.73129 6.65995 7.98622 6.84667 8.1747C7.03338 8.36318 7.28732 8.46977 7.55262 8.47102C7.81792 8.47227 8.07285 8.36808 8.26133 8.18136L6.85333 6.76003ZM25.1493 6.84936C20.056 1.75603 11.8253 1.70536 6.76533 6.76536L8.17867 8.17736C12.4453 3.91203 19.4093 3.93736 23.736 8.26403L25.1493 6.84936ZM6.76533 6.76536L5.07733 8.45336L6.49067 9.8667L8.18 8.18003L6.76533 6.76536ZM5.77867 10.1614L9.17333 10.1774L9.18267 8.17736L5.78933 8.16136L5.77867 10.1614ZM6.784 9.15603L6.76667 5.76136L4.76667 5.77203L4.784 9.16536L6.784 9.15603ZM16 5.00003C18.9174 5.00003 21.7153 6.15896 23.7782 8.22186C25.8411 10.2848 27 13.0826 27 16H29C29 12.5522 27.6304 9.24562 25.1924 6.80764C22.7544 4.36967 19.4478 3.00003 16 3.00003V5.00003ZM16 27C13.0826 27 10.2847 25.8411 8.22183 23.7782C6.15892 21.7153 5 18.9174 5 16H3C3 19.4478 4.36964 22.7544 6.80761 25.1924C9.24558 27.6304 12.5522 29 16 29V27ZM21.5 25.5294C19.8287 26.4967 17.931 27.0041 16 27V29C18.3667 29 20.5867 28.3667 22.5 27.26L21.5 25.5294ZM27 16C27.0041 17.9311 26.4967 19.8287 25.5293 21.5L27.26 22.5C28.4033 20.5248 29.0037 18.2823 29 16H27ZM8.26133 8.18136C10.3185 6.13877 13.101 4.99572 16 5.00003V3.00003C12.5738 2.99547 9.28517 4.3465 6.85333 6.76003L8.26133 8.18136Z" fill="#001B57"/>
</svg>
