<svg width="32" height="32" viewBox="0 0 32 32" fill="none" xmlns="http://www.w3.org/2000/svg">
<path d="M15.9998 19.9998V23.9998M29.3332 16.2718V18.2998C29.3332 23.4998 29.3332 26.1012 27.7705 27.7172C26.2078 29.3332 23.6945 29.3332 18.6665 29.3332H13.3332C8.30517 29.3332 5.7905 29.3332 4.22917 27.7172C2.66784 26.1012 2.6665 23.5012 2.6665 18.2998V16.2718C2.6665 13.2198 2.6665 11.6945 3.35984 10.4305C4.0505 9.16517 5.31584 8.38117 7.84517 6.8105L10.5118 5.15584C13.1852 3.49584 14.5225 2.6665 15.9998 2.6665C17.4772 2.6665 18.8132 3.49584 21.4878 5.15584L24.1545 6.8105C26.6838 8.38117 27.9492 9.16517 28.6412 10.4305" stroke="#F5F5F5" stroke-width="1.5" stroke-linecap="round"/>
</svg>
