<svg width="33" height="32" viewBox="0 0 33 32" fill="none" xmlns="http://www.w3.org/2000/svg">
<path d="M5.83301 13.3333C5.83301 10.8187 5.83301 9.56267 6.61434 8.78133C7.39567 8 8.65167 8 11.1663 8H21.833C24.3477 8 25.6037 8 26.385 8.78133C27.1663 9.56267 27.1663 10.8187 27.1663 13.3333V16C27.1663 17.2573 27.1663 17.8853 26.7757 18.276C26.385 18.6667 25.757 18.6667 24.4997 18.6667H23.5663C23.3783 18.6667 23.2837 18.6667 23.225 18.608C23.1663 18.5493 23.1663 18.4547 23.1663 18.2667V17.3333C23.1663 16.076 23.1663 15.448 22.7757 15.0573C22.385 14.6667 21.757 14.6667 20.4997 14.6667H12.4997C11.2423 14.6667 10.6143 14.6667 10.2237 15.0573C9.83301 15.448 9.83301 16.076 9.83301 17.3333V18.2667C9.83301 18.4547 9.83301 18.5493 9.77434 18.608C9.71567 18.6667 9.62101 18.6667 9.43301 18.6667H7.16634C6.53834 18.6667 6.22367 18.6667 6.02767 18.472C5.83301 18.276 5.83301 17.96 5.83301 17.3333V13.3333Z" fill="url(#paint0_linear_3067_1357)"/>
<path d="M9.83301 27.016V17.3333C9.83301 16.076 9.83301 15.448 10.2237 15.0573C10.6143 14.6667 11.2423 14.6667 12.4997 14.6667H20.4997C21.757 14.6667 22.385 14.6667 22.7757 15.0573C23.1663 15.448 23.1663 16.076 23.1663 17.3333V27.016C23.1663 27.4613 23.1663 27.684 23.0197 27.784C22.873 27.884 22.6663 27.8 22.2517 27.6347L20.081 26.7653C20.0039 26.7249 19.9197 26.7 19.833 26.692C19.7463 26.7 19.6621 26.7249 19.585 26.7653L16.7477 27.9013C16.6706 27.9417 16.5863 27.9667 16.4997 27.9747C16.413 27.9667 16.3288 27.9417 16.2517 27.9013L13.4143 26.7653C13.3373 26.7249 13.253 26.7 13.1663 26.692C13.0797 26.7 12.9954 26.7249 12.9183 26.7653L10.7477 27.6347C10.333 27.8 10.1263 27.8827 9.97967 27.784C9.83301 27.684 9.83301 27.4613 9.83301 27.016Z" fill="white"/>
<path d="M9.83301 27.016V17.3333C9.83301 16.076 9.83301 15.448 10.2237 15.0573C10.6143 14.6667 11.2423 14.6667 12.4997 14.6667H20.4997C21.757 14.6667 22.385 14.6667 22.7757 15.0573C23.1663 15.448 23.1663 16.076 23.1663 17.3333V27.016C23.1663 27.4613 23.1663 27.684 23.0197 27.784C22.873 27.884 22.6663 27.8 22.2517 27.6347L20.081 26.7653C20.0039 26.7249 19.9197 26.7 19.833 26.692C19.7463 26.7 19.6621 26.7249 19.585 26.7653L16.7477 27.9013C16.6706 27.9417 16.5863 27.9667 16.4997 27.9747C16.413 27.9667 16.3288 27.9417 16.2517 27.9013L13.4143 26.7653C13.3373 26.7249 13.253 26.7 13.1663 26.692C13.0797 26.7 12.9954 26.7249 12.9183 26.7653L10.7477 27.6347C10.333 27.8 10.1263 27.8827 9.97967 27.784C9.83301 27.684 9.83301 27.4613 9.83301 27.016Z" fill="url(#paint1_linear_3067_1357)" fill-opacity="0.2"/>
<path d="M13.166 19.3333H18.4993M13.166 23.3333H19.8327" stroke="url(#paint2_linear_3067_1357)" stroke-linecap="round"/>
<path d="M9.83301 6.32C9.83301 5.396 9.83301 4.93467 10.0517 4.60267C10.152 4.44968 10.2827 4.31897 10.4357 4.21867C10.769 4 11.229 4 12.1517 4H20.8477C21.7703 4 22.2317 4 22.565 4.21867C22.7175 4.31911 22.8478 4.44981 22.9477 4.60267C23.1663 4.936 23.1663 5.396 23.1663 6.31867C23.1663 6.45733 23.1663 6.52667 23.133 6.576C23.1169 6.59792 23.0976 6.61726 23.0757 6.63333C23.0263 6.66667 22.9557 6.66667 22.8197 6.66667H10.181C10.0423 6.66667 9.97301 6.66667 9.92367 6.63333C9.90175 6.61726 9.88242 6.59792 9.86634 6.576C9.83301 6.52667 9.83301 6.456 9.83301 6.32Z" fill="url(#paint3_linear_3067_1357)"/>
<defs>
<linearGradient id="paint0_linear_3067_1357" x1="15.2412" y1="4.35088" x2="17.558" y2="27.5351" gradientUnits="userSpaceOnUse">
<stop stop-color="#032D89"/>
<stop offset="1" stop-color="#001B57"/>
</linearGradient>
<linearGradient id="paint1_linear_3067_1357" x1="15.7132" y1="10.1139" x2="21.3177" y2="38.21" gradientUnits="userSpaceOnUse">
<stop stop-color="#62DEFF"/>
<stop offset="1" stop-color="#02A9D6"/>
</linearGradient>
<linearGradient id="paint2_linear_3067_1357" x1="16.1061" y1="17.9649" x2="17.1441" y2="26.6213" gradientUnits="userSpaceOnUse">
<stop stop-color="#032D89"/>
<stop offset="1" stop-color="#001B57"/>
</linearGradient>
<linearGradient id="paint3_linear_3067_1357" x1="15.7132" y1="3.08772" x2="15.9468" y2="8.93232" gradientUnits="userSpaceOnUse">
<stop stop-color="#032D89"/>
<stop offset="1" stop-color="#001B57"/>
</linearGradient>
</defs>
</svg>
