<svg width="40" height="40" viewBox="0 0 40 40" fill="none" xmlns="http://www.w3.org/2000/svg">
<path d="M32.9474 25.5605L26.0611 22.479C25.7941 22.3635 25.5026 22.3163 25.2128 22.3418C24.923 22.3672 24.6442 22.4645 24.4015 22.6249C24.3821 22.6372 24.3636 22.6508 24.3461 22.6657L20.7294 25.7486C20.6489 25.7977 20.5575 25.8262 20.4634 25.8316C20.3693 25.8369 20.2753 25.8189 20.1898 25.7793C17.8214 24.6359 15.3699 22.2034 14.2266 19.8627C14.1861 19.7779 14.1673 19.6843 14.1719 19.5904C14.1765 19.4965 14.2043 19.4052 14.2528 19.3246L17.3445 15.6481C17.3591 15.6306 17.3722 15.6117 17.3854 15.5927C17.5452 15.3503 17.6422 15.072 17.6676 14.7828C17.6931 14.4936 17.6462 14.2026 17.5312 13.936L14.4439 7.06135C14.2948 6.71316 14.0368 6.42272 13.7087 6.23365C13.3805 6.04458 12.9998 5.96708 12.6238 6.01279C10.7886 6.25476 9.10422 7.15652 7.88527 8.54965C6.66632 9.94277 5.99618 11.732 6.00002 13.5831C6.00002 24.8415 15.1585 34 26.4169 34C28.268 34.0038 30.0572 33.3337 31.4504 32.1147C32.8435 30.8958 33.7452 29.2114 33.9872 27.3762C34.0326 27.0019 33.9559 26.623 33.7685 26.2958C33.5812 25.9687 33.2932 25.7108 32.9474 25.5605ZM32.8337 27.2303C32.6277 28.7846 31.8628 30.2106 30.6818 31.2418C29.5008 32.273 27.9847 32.8387 26.4169 32.8333C15.803 32.8333 7.1667 24.197 7.1667 13.5831C7.16127 12.0153 7.72704 10.4992 8.75823 9.31821C9.78943 8.13725 11.2154 7.37228 12.7697 7.16635C12.793 7.16495 12.8164 7.16495 12.8397 7.16635C12.9548 7.16733 13.067 7.20233 13.1622 7.26695C13.2575 7.33156 13.3314 7.4229 13.3749 7.52948L16.4535 14.4041C16.4894 14.4882 16.5051 14.5794 16.4992 14.6706C16.4934 14.7618 16.4662 14.8504 16.4199 14.9291L13.3297 18.6042C13.3151 18.6231 13.3005 18.6406 13.2874 18.6611C13.1228 18.9128 13.0258 19.2028 13.0059 19.5029C12.9859 19.8031 13.0437 20.1033 13.1736 20.3746C14.4409 22.969 17.0543 25.5634 19.6779 26.8307C19.951 26.9598 20.253 27.016 20.5543 26.9937C20.8556 26.9715 21.146 26.8716 21.3973 26.7039L21.4512 26.663L25.0723 23.583C25.1498 23.5357 25.2374 23.5074 25.3279 23.5006C25.4184 23.4937 25.5092 23.5085 25.5929 23.5436L32.4778 26.6295C32.594 26.6778 32.6914 26.7625 32.7556 26.8708C32.8197 26.9791 32.8471 27.1052 32.8337 27.2303Z" fill="#9A9A9A"/>
</svg>
